<svg xmlns="http://www.w3.org/2000/svg" width="114.516" height="132.355" viewBox="0 0 114.516 132.355"><g transform="translate(-892.426 -1173.091)"><path d="M949.684,1199.274a48.914,48.914,0,1,1-48.914,48.914A48.874,48.874,0,0,1,949.684,1199.274Zm0,4.6a44.166,44.166,0,1,0,0,88.332,44.166,44.166,0,0,0,0-88.332Z" fill="#00a1c6"/><path d="M947.382,1221.142a2.318,2.318,0,1,1,4.6,0v24.744H966.66a2.3,2.3,0,1,1,0,4.6H949.972a2.2,2.2,0,0,1-2.59-2.3Z" fill="#00a1c6"/><path d="M949.684,1190.93H951.7v-6.33a2.578,2.578,0,0,1,2.59-2.589H958.6a2.014,2.014,0,0,0,0-4.029h-17.84a2.014,2.014,0,0,0,0,4.029h4.316a2.578,2.578,0,0,1,2.59,2.589v6.33Zm6.9.288a57.258,57.258,0,1,1-13.81,0V1186.9h-2.015a6.906,6.906,0,0,1,0-13.811H958.6a6.906,6.906,0,0,1,0,13.811h-2.015Zm-6.9,4.6a52.367,52.367,0,1,0,52.367,52.366A52.189,52.189,0,0,0,949.684,1195.822Z" fill="#00a1c6"/><path d="M981.622,1264.589c1.438-2.878,5.754-.864,4.316,2.014a41.638,41.638,0,0,1-21.868,19.565c-2.877,1.151-4.6-3.453-1.726-4.6A36.053,36.053,0,0,0,981.622,1264.589Zm-65.314-29.061c-1.151,2.877-5.755,1.151-4.6-1.726a41.638,41.638,0,0,1,19.565-21.868c2.878-1.438,4.892,2.878,2.015,4.316A36.051,36.051,0,0,0,916.308,1235.528Z" fill="#00a1c6"/></g></svg>