<svg xmlns="http://www.w3.org/2000/svg" width="88.784" height="116.002" viewBox="0 0 88.784 116.002"><g transform="translate(-905.292 -787.334)"><path d="M949.684,787.334a44.44,44.44,0,0,1,17.984,85.057l-17.984,30.945L931.7,872.391a44.44,44.44,0,0,1,17.984-85.057Zm0,4.374a39.9,39.9,0,0,0-40.017,40.018c0,16.687,9.882,30.782,25.112,37.263l14.905,25.76,14.9-25.76c15.23-6.481,25.112-20.576,25.112-37.263A39.9,39.9,0,0,0,949.684,791.708Zm0,23.978a16.121,16.121,0,1,1-16.2,16.04A16.111,16.111,0,0,1,949.684,815.686Zm0,4.213a11.827,11.827,0,1,0,11.827,11.827A11.893,11.893,0,0,0,949.684,819.9Z" fill="#00a1c6"/></g></svg>