<svg xmlns="http://www.w3.org/2000/svg" width="83.804" height="79.906" viewBox="0 0 83.804 79.906"><g transform="translate(-907.782 -982.922)"><path d="M913.356,982.924a5.687,5.687,0,0,0-3.959,1.736,6.833,6.833,0,0,0-1.614,4.02c.795,23.3,8.161,41.938,21.468,54.69,13.326,12.769,32.485,19.5,56.427,19.458a7.381,7.381,0,0,0,3.99-1.8,5.587,5.587,0,0,0,1.8-3.929q.06-8.325.122-16.656a5.467,5.467,0,0,0-1.827-3.807,5.706,5.706,0,0,0-3.959-1.675c-5.219.021-12.193-1.8-17.814-3.2a1.987,1.987,0,0,0-1.827.487l-9.867,9.562c-12-7.139-17.245-12.23-24.574-23.874l9.8-9.5a1.989,1.989,0,0,0,.518-1.918c-1.5-5.614-4.08-13.091-3.654-18.636a5.488,5.488,0,0,0-2.345-3.593,6.388,6.388,0,0,0-3.989-1.371Zm0,3.9h18.788a2.687,2.687,0,0,1,1.553.609,3.708,3.708,0,0,1,.853.914c-.273,6.311,1.983,13.02,3.41,18.088l-10.109,9.835a2.011,2.011,0,0,0-.3,2.437c8.289,13.435,14.237,19.2,28.046,27.253a2,2,0,0,0,2.345-.274l10.171-9.9c5.4,1.357,11.969,3.1,17.723,3.075a2.071,2.071,0,0,1,1.248.579,1.972,1.972,0,0,1,.609,1.1l-.122,16.535a1.982,1.982,0,0,1-.609,1.188,2.438,2.438,0,0,1-1.4.67c-23.149.016-41.142-6.461-53.594-18.393-12.475-11.953-19.527-29.5-20.281-52.1a2.032,2.032,0,0,1,.487-1,2.834,2.834,0,0,1,1.188-.609Z" fill="#00a1c6"/></g></svg>