<svg xmlns="http://www.w3.org/2000/svg" xmlns:xlink="http://www.w3.org/1999/xlink" width="804.03" height="979.624" viewBox="0 0 804.03 979.624"><defs><linearGradient id="a" x1="0.053" y1="0.5" x2="1.053" y2="0.5" gradientUnits="objectBoundingBox"><stop offset="0" stop-color="#6ec0e0"/><stop offset="0.621" stop-color="#26a4c9"/><stop offset="1" stop-color="#0095be"/></linearGradient></defs><g transform="translate(-896.672 -192.601)"><path d="M1303.217,1127.078l-224.852-116.206-97.238,45.165,224.9,116.187Z" fill="#98c4de" style="mix-blend-mode:multiply;isolation:isolate"/><path d="M1297.346,207.684c-.609-.274-1.227-.538-1.846-.792-1.7-.691-3.453-1.321-5.291-1.888-.62-.194-1.289-.356-1.919-.529-.366-.1-.7-.193-1.046-.284-.539-.152-1.047-.315-1.575-.437-1.412-.335-2.853-.649-4.3-.924-1.381-.264-2.761-.478-4.173-.68l-.194-.031c-1.412-.193-2.843-.366-4.3-.5-1.524-.154-3.067-.274-4.61-.355-.63-.032-1.258-.032-1.9-.052-.366-.019-.74-.019-1.117-.03-.661-.02-1.289-.052-1.94-.062-1.838-.029-3.685,0-5.534.073-.923.029-1.867.1-2.8.162-.61.029-1.2.071-1.807.121-.589.041-1.188.062-1.787.112-2.67.222-5.34.539-7.992.954a2.985,2.985,0,0,0-.528.113,116.025,116.025,0,0,0-13.181,2.853c-.254.071-.518.1-.771.162-2.011.578-3.879,1.321-5.8,2-1.3.457-2.639.832-3.889,1.339-.173.073-.356.1-.529.173a80.208,80.208,0,0,0-8.965,4.307c-1.148.638-2.225,1.3-3.279,1.959a55.239,55.239,0,0,0-4.47,3.258c-.212.173-.507.346-.721.518-.071.063-.162.113-.233.173a39.255,39.255,0,0,0-3.615,3.4c-.609.651-1.106,1.3-1.634,1.97-.154.193-.356.407-.508.609-.143.183-.316.356-.436.518a29.638,29.638,0,0,0-1.86,2.945,24.5,24.5,0,0,0-1.056,2.356c-.039.1-.1.2-.141.3-.021.061-.052.121-.071.194a18.426,18.426,0,0,0-.8,2.791,19.364,19.364,0,0,0-.306,2.813v6.358L1190.4,261.1a60.455,60.455,0,0,0,5.9,3.31L1588.333,440.89l-.121,588.036,101.037-56.785.1-587.983Z" fill="#188fbe"/><path d="M1689.249,972.141l.1-587.983L1700.7,377.8l-.141,587.985Z" fill="#188fbe"/><path d="M1588.171,1028.886l.162-588,11.332-6.366-.141,587.983Z" fill="#188fbe"/><path d="M1196.3,264.406c-15.242-6.854-22.847-16.562-22.847-26.746l-.141,587.983c0,10.166,7.6,19.894,22.836,26.738l392.024,176.505.162-588Z" fill="#188fbe"/><path d="M1588.333,440.89,1196.3,264.406c-30.677-13.8-30.442-39.2.591-56.612,30.93-17.373,81.114-20.278,111.79-6.478L1700.7,377.8l-11.353,6.358-392-176.474c-23.72-10.683-63.09-8.073-87.8,5.809-24.685,13.871-25.64,33.885-1.909,44.566l392.032,176.466Z" fill="#79bcd6"/><path d="M1289.092,222.641q-1.875-.761-3.9-1.381l-3.515-.975c-1.137-.275-2.283-.528-3.441-.741l-3.6-.578-3.594-.428c-1.289-.121-2.578-.223-5.523-.335l-3.818-.091-4.784.153-4.244.254c-2.306.212-4.611.476-5.625.578l-1.737.356a111.562,111.562,0,0,0-11.923,2.579c-1.025.285-1.99.651-2.944,1.006l-5.5,1.888a62.651,62.651,0,0,0-7.108,3.411l-2.388,1.423c-1.127.73-2.11,1.493-3.735,2.711a24.817,24.817,0,0,0-2.042,1.91l-1.177,1.41-1.036,1.453s-9.464,11.544-3.889,18.715,396.094,178.566,396.094,178.566v.172l72.4-39.663Z" fill="#dce1e4"/><path d="M1599.665,434.7l-.2,567.888,72.766-40.353.141-567.077-.3-.121Z" fill="#abd0dd"/><path d="M1244.919,296.221c-.61-.254-1.238-.518-1.857-.782-1.687-.68-3.452-1.321-5.28-1.878-.631-.194-1.29-.366-1.941-.529-.345-.112-.68-.214-1.025-.305-.539-.131-1.046-.293-1.585-.427-1.41-.345-2.843-.648-4.3-.923-1.38-.254-2.761-.478-4.173-.68-.05-.01-.113-.01-.183-.021-1.421-.193-2.854-.366-4.3-.507-1.533-.144-3.068-.264-4.611-.345-.63-.042-1.268-.042-1.9-.063-.377-.019-.741-.029-1.138-.039-.639-.011-1.279-.05-1.93-.05-1.836-.031-3.675,0-5.534.06-.923.04-1.857.121-2.8.183-.6.029-1.19.06-1.8.11s-1.188.052-1.786.1c-2.681.244-5.341.56-8,.965-.172.021-.345.081-.518.112a115.961,115.961,0,0,0-13.18,2.854c-.254.07-.527.1-.782.172-2,.578-3.879,1.321-5.8,1.991-1.29.457-2.639.842-3.879,1.33-.173.082-.366.121-.528.192a79.866,79.866,0,0,0-8.976,4.3c-1.137.649-2.233,1.3-3.269,1.97a53.124,53.124,0,0,0-4.469,3.24c-.223.191-.508.355-.722.536-.071.063-.172.113-.233.173a39.6,39.6,0,0,0-3.625,3.4c-.6.641-1.1,1.3-1.624,1.951-.162.212-.355.416-.528.628-.123.183-.3.337-.416.518a24.528,24.528,0,0,0-1.859,2.945,20.574,20.574,0,0,0-1.057,2.356c-.039.091-.1.193-.141.306a.789.789,0,0,0-.081.193,17.693,17.693,0,0,0-.792,2.791,16.636,16.636,0,0,0-.306,2.814v6.347l-.008,17.425a57.493,57.493,0,0,0,5.889,3.329L1535.9,529.437l-.121,588.035,101.037-56.782.1-587.975Z" fill="#126987"/><path d="M1636.811,1060.69l.1-587.975,11.332-6.357-.123,587.954Z" fill="#3ca1cb"/><path d="M1535.733,1117.412l.162-587.975,11.334-6.355-.144,587.973Z" fill="#3ca1cb"/><path d="M1143.863,352.963c-15.241-6.864-22.838-16.572-22.838-26.746l-.152,587.983c0,10.155,7.615,19.884,22.847,26.728l392.013,176.484.162-587.975Z" fill="#126987"/><path d="M1535.9,529.437,1143.863,352.963c-30.666-13.81-30.433-39.205.589-56.63,30.94-17.355,81.114-20.268,111.8-6.459l391.992,176.483-11.332,6.358L1244.919,296.221c-23.72-10.663-63.1-8.053-87.815,5.818-24.685,13.861-25.629,33.886-1.909,44.559l392.034,176.484Z" fill="#3ca1cb"/><path d="M1236.654,311.188c-1.25-.508-2.549-.976-3.9-1.392l-3.515-.965c-1.137-.272-2.283-.517-3.431-.74l-3.6-.578-3.6-.418c-1.279-.131-2.568-.233-5.534-.354l-3.8-.072-4.783.133-4.245.274c-2.314.192-4.621.476-5.625.568l-1.737.356a112.747,112.747,0,0,0-11.93,2.589c-1.028.274-1.982.64-2.937.986l-5.513,1.909a65.56,65.56,0,0,0-7.119,3.4l-2.375,1.433c-1.127.721-2.1,1.493-3.726,2.711a21.708,21.708,0,0,0-2.042,1.9l-1.188,1.4-1.036,1.472s-9.454,11.534-3.878,18.7,396.085,178.577,396.085,178.577v.172l72.4-39.673Z" fill="#dce1e4"/><path d="M1547.229,523.254l-.2,567.859,72.766-40.335.143-567.066-.306-.131Z" fill="#abd0dd"/><path d="M1096.127,345.125c-.609-.264-1.229-.528-1.849-.792-1.7-.691-3.452-1.321-5.28-1.88-.64-.191-1.3-.356-1.94-.537-.345-.1-.691-.2-1.036-.285-.528-.141-1.035-.305-1.584-.426-1.4-.356-2.843-.661-4.3-.925-1.381-.262-2.762-.487-4.174-.691a1.366,1.366,0,0,0-.183-.019c-1.42-.193-2.853-.366-4.315-.5q-2.283-.227-4.611-.364c-.619-.031-1.268-.031-1.888-.051-.376-.021-.751-.021-1.137-.03-.639-.01-1.29-.052-1.93-.062-1.837-.019-3.685,0-5.524.071-.934.021-1.878.112-2.811.172-.6.031-1.2.063-1.808.113s-1.179.06-1.788.112c-2.67.233-5.341.538-7.992.944-.183.031-.345.091-.528.123a115.518,115.518,0,0,0-13.179,2.863c-.256.061-.518.09-.774.163-2.009.567-3.878,1.318-5.8,2-1.3.456-2.639.832-3.889,1.329-.162.071-.366.112-.517.183a79.36,79.36,0,0,0-8.976,4.3c-1.138.638-2.234,1.3-3.269,1.959-1.645,1.056-3.089,2.152-4.48,3.248-.212.193-.507.366-.711.539-.081.062-.173.112-.243.172a40.516,40.516,0,0,0-3.625,3.4c-.6.648-1.1,1.3-1.614,1.959-.162.2-.356.418-.528.619-.133.173-.3.335-.427.518a25.37,25.37,0,0,0-1.848,2.945,21.392,21.392,0,0,0-1.067,2.356c-.04.1-.1.194-.142.295a1.2,1.2,0,0,0-.07.2,19.279,19.279,0,0,0-.8,2.793,18.656,18.656,0,0,0-.3,2.8v23.791a58.959,58.959,0,0,0,5.89,3.322l392.032,176.484-.142,588.035,101.037-56.784.123-587.984Z" fill="#1782b0"/><path d="M1488.007,1109.593l.123-587.983,11.332-6.357-.123,587.965Z" fill="#188fbe"/><path d="M1386.949,1166.317l.162-587.975,11.334-6.366-.143,587.963Z" fill="#188fbe"/><path d="M995.08,401.858C979.838,395,972.231,385.285,972.231,375.1l-.142,588c0,10.155,7.606,19.881,22.847,26.725l392.013,176.487.163-587.975Z" fill="#1e97cc"/><path d="M1387.112,578.342,995.08,401.858c-30.677-13.8-30.434-39.208.588-56.633,30.931-17.352,81.114-20.268,111.791-6.457l392,176.484-11.332,6.357-392-176.484c-23.722-10.683-63.09-8.063-87.806,5.809-24.685,13.869-25.63,33.883-1.909,44.566l392.034,176.476Z" fill="#79bcd6"/><path d="M1087.871,360.082c-1.26-.5-2.56-.965-3.9-1.381l-3.515-.975q-1.706-.413-3.442-.73l-3.593-.591-3.6-.416c-1.289-.131-2.568-.233-5.534-.345l-3.8-.081-4.783.133-4.255.272c-2.305.194-4.611.479-5.626.581l-1.736.355a112.844,112.844,0,0,0-11.921,2.579c-1.027.275-1.982.638-2.936.994l-5.513,1.9a65.066,65.066,0,0,0-7.119,3.4l-2.375,1.433c-1.137.73-2.113,1.491-3.737,2.71a24.1,24.1,0,0,0-2.042,1.909l-1.177,1.391-1.036,1.472s-9.464,11.547-3.878,18.705c5.573,7.181,396.085,178.578,396.085,178.578v.172l72.4-39.675Z" fill="#dce1e4"/><path d="M1398.446,572.148l-.2,567.867,72.766-40.353.123-567.066-.285-.123Z" fill="#abd0dd"/><path d="M998.825,465.089l3.627,513.572,74.137,16.8V502.071Z" fill="#1782b0"/><path d="M1305.064,610.715,1076.589,502.071V995.456l228.475,51.687Z" fill="url(#a)"/><path d="M1305.359,1041.638,1080.478,925.451,983.3,970.579l224.879,116.227Z" fill="#6ab2cf"/><path d="M1305.359,1041.638l.894,42.853-97.046,45.066-.884-42.811Z" fill="#1782b0"/><path d="M1208.18,1086.806l.143-.06.884,42.811-.144.1L984.182,1013.451l-.882-42.872Z" fill="#188fbe"/><path d="M1304.486,998.788,1079.636,882.58l-97.229,45.168L1207.3,1043.913Z" fill="#308cb1"/><path d="M1304.486,998.788l.874,42.851-97.036,45.107-.853-42.934Z" fill="#1782b0"/><path d="M1207.3,1043.913l.173-.1.853,42.934-.143.06L983.3,970.579l-.894-42.832Z" fill="#1992c2"/><g style="isolation:isolate"><path d="M1120.64,918.487l-50.733-26.139,40.06-.609,50.772,26.118Z" fill="#218eb8"/><path d="M1111.876,945.74,1061.144,919.6l-1.512-22.706,50.72,26.116Z" fill="#0c4b5b"/><path d="M1110.352,923.014l-50.72-26.116,10.276-4.55,50.733,26.139Z" fill="#2398c5"/><path d="M1120.64,918.487l40.1-.63.366,6.031-49.229,21.853-1.524-22.726Z" fill="#249ec8"/></g><path d="M1239.476,996l-234.7-121.854-38.292,18.1,234.689,121.771Z" fill="#6ab2cf"/><path d="M1239.476,996l.68,33.794-38.17,18.035-.69-33.815Z" fill="#0c4963"/><path d="M1234.055,1025.9l-.4-20.451-26.289,12.469.416,20.511Z" fill="#abd0dd"/><path d="M1201.174,1014.019h.123l.69,33.815-.133.06L967.175,926.061l-.69-33.813Z" fill="#308cb1"/><path d="M1195.4,1017.939,972.678,902.32l.426,19.923,222.658,115.58Z" fill="#abd0dd"/><g style="isolation:isolate"><path d="M1113.4,897.364l-.243,1.645-8.612-4.509.264-1.664Z" fill="#3b9ec4"/><path d="M1114.424,897.913l-.2,1.624-1.067-.528.243-1.645Z" fill="#5ea8c5"/><path d="M1124.244,903.031l-.243,1.624-9.778-5.118.2-1.624Z" fill="#3b9ec4"/><path d="M1132.592,902.544l-.235,1.624-8.356.487.243-1.624Z" fill="#c4d6e1"/><path d="M1104.808,892.836l8.358-.468,8.591,4.488,1.015.528,9.82,5.16-8.348.487-9.82-5.118-1.025-.549Z" fill="#7eb0c9"/></g><g style="isolation:isolate"><path d="M1108.819,896.592l-.264,1.626-8.366.507.243-1.626Z" fill="#c4d6e1"/><path d="M1100.432,897.1l-.243,1.626-6.734-3.533.214-1.626Z" fill="#3b9ec4"/><path d="M1093.669,893.566l8.387-.547,6.763,3.573-8.387.507Z" fill="#7eb0c9"/></g><g style="isolation:isolate"><path d="M1097.772,897.243l-.235,1.666-8.337.487.235-1.624Z" fill="#c4d6e1"/><path d="M1089.435,897.771l-.235,1.624-6.771-3.533.233-1.666Z" fill="#3b9ec4"/><path d="M1082.662,894.2l8.348-.507,6.763,3.554-8.337.528Z" fill="#7eb0c9"/></g><g style="isolation:isolate"><path d="M1142.064,907.479l-.233,1.624-8.356.568.243-1.664Z" fill="#c4d6e1"/><path d="M1133.719,908.007l-.243,1.664-7.474-4,.254-1.585Z" fill="#3b9ec4"/><path d="M1126.255,904.087l8.356-.507,7.453,3.9-8.345.528Z" fill="#7eb0c9"/></g><g style="isolation:isolate"><path d="M1106.931,900.492l-.2,1.645-4.692-2.456.245-1.626Z" fill="#3b9ec4"/><path d="M1109.144,901.629l-.264,1.666-2.152-1.158.2-1.645Z" fill="#3b9ec4"/><path d="M1122.568,908.656l-.222,1.666-13.466-7.027.264-1.666Z" fill="#3b9ec4"/><path d="M1130.926,908.149l-.214,1.624-8.366.549.222-1.666Z" fill="#c4d6e1"/><path d="M1102.281,898.054l8.346-.526,4.723,2.477,2.142,1.077,13.434,7.067-8.358.507-13.424-7.027-2.213-1.138Z" fill="#7eb0c9"/></g><g style="isolation:isolate"><path d="M1105.824,901.509l-.235,1.6-8.317.507.235-1.624Z" fill="#c4d6e1"/><path d="M1097.508,902l-.235,1.624-6.245-3.228.254-1.666Z" fill="#3b9ec4"/><path d="M1091.282,898.726l8.317-.507,6.226,3.29-8.316.487Z" fill="#7eb0c9"/></g><g style="isolation:isolate"><path d="M1119.887,908.86l-.2,1.645-8.348.487.223-1.624Z" fill="#c4d6e1"/><path d="M1111.56,909.367l-.223,1.624-12.074-6.316.235-1.624Z" fill="#3b9ec4"/><path d="M1099.5,903.052l8.335-.507,12.054,6.316-8.327.507Z" fill="#7eb0c9"/></g><g style="isolation:isolate"><path d="M1125.564,891.759l-3.931,3.92-18.451-30.1,3.949-3.879Z" fill="#c4d6e1"/><path d="M1107.133,861.7l-3.949,3.879-48.923-25.365,3.949-3.889Z" fill="#7eb0c9"/><path d="M1054.26,840.215l48.923,25.365,18.451,30.1L1072.7,870.314Z" fill="#0c4963"/></g><path d="M1088.064,867.328l-9.425-4.752,1.088,41.41,9.24,4.977-.842-41.553Z" fill="#0c4b5b"/><path d="M1093.873,906.99l-.865-32.047-4.883-7.535.842,41.553.06.019Z" fill="#218eb8"/><path d="M1000.4,452.852c-.741.346-1.512.691-2.265,1.057q-4.1,1.918-8.053,3.991a194.575,194.575,0,0,0-26,16.348,187.4,187.4,0,0,0-17.9,15.2,179.27,179.27,0,0,0-17.922,20.106q-4.021,5.268-7.535,10.683c-1.807,2.791-3.514,5.615-5.138,8.437-1.371,2.427-2.671,4.843-3.9,7.281q-1.659,3.35-3.167,6.713c-.936,2.121-1.838,4.255-2.672,6.407-.822,2.082-1.583,4.174-2.3,6.256-.711,2.1-1.36,4.213-1.959,6.315q-.929,3.23-1.715,6.478c-.539,2.305-1.007,4.611-1.412,6.894-.468,2.592-.843,5.191-1.107,7.749-.366,3.23-.58,6.408-.651,9.556-.02.691-.02,1.41-.02,2.092l358.2,154.673c0-.722.019-1.412.039-2.123.071-3.149.306-6.316.641-9.535.293-2.558.67-5.158,1.138-7.757.405-2.286.863-4.58,1.43-6.9.479-2.152,1.036-4.325,1.676-6.478.62-2.1,1.248-4.2,1.97-6.3.711-2.082,1.483-4.184,2.285-6.276.853-2.132,1.726-4.266,2.691-6.4.984-2.234,2.041-4.488,3.168-6.7,1.218-2.435,2.518-4.883,3.9-7.281,1.624-2.832,3.311-5.654,5.149-8.447,2.336-3.615,4.833-7.169,7.543-10.694a178.056,178.056,0,0,1,17.924-20.106,186,186,0,0,1,17.881-15.189,196.046,196.046,0,0,1,26-16.35c3.352-1.747,6.8-3.453,10.317-5.027Z" fill="#2095c6"/><path d="M1325.677,602.794l-.039-.01c3.209-1.677,6.478-3.28,9.849-4.813l-16.45-7.108c-5.291,2.406-9.088,4.407-10.338,5.056l.1.031c-81.135,45.492-92.07,110.42-92.985,136.251l16.45,7.108C1233.171,713.426,1244.137,648.307,1325.677,602.794Z" fill="#50a7cb"/><path d="M1288.522,586.75l-.029-.011c3.2-1.655,6.478-3.259,9.87-4.8l-16.46-7.108c-4.59,2.1-7.678,3.664-10.348,5.045l.1.042c-81.135,45.5-92.072,110.42-92.995,136.262l16.47,7.1C1196.056,697.392,1206.982,632.262,1288.522,586.75Z" fill="#50a7cb"/><path d="M1251.509,570.768l-.01-.011c3.2-1.666,6.49-3.279,9.83-4.814l-16.45-7.1c-3.523,1.614-7,3.29-10.358,5.058l.091.029c-81.114,45.5-92.03,110.42-92.964,136.253l16.471,7.108C1159.024,681.421,1169.979,616.3,1251.509,570.768Z" fill="#50a7cb"/><path d="M1214.5,554.794l-.05-.01c3.24-1.666,6.5-3.28,9.87-4.813l-16.45-7.1c-3.533,1.6-7,3.29-10.348,5.048l.1.031c-81.114,45.492-92.06,110.428-92.985,136.262l16.471,7.1C1122.021,665.426,1132.966,600.3,1214.5,554.794Z" fill="#50a7cb"/><path d="M1177.362,538.76l-.042-.021c3.23-1.666,6.491-3.269,9.872-4.8l-16.46-7.108c-3.554,1.624-7.037,3.319-10.338,5.056l.081.041c-81.114,45.492-92.04,110.41-92.953,136.262l16.429,7.1C1084.874,649.382,1095.822,584.273,1177.362,538.76Z" fill="#50a7cb"/><path d="M1140.338,522.786l-.039-.021c4.03-2.09,7.555-3.776,9.859-4.812l-16.439-7.108c-3.473,1.564-6.957,3.259-10.359,5.047l.1.05c-81.114,45.471-92.051,110.41-92.974,136.254l16.45,7.108C1047.853,633.41,1058.8,568.278,1140.338,522.786Z" fill="#50a7cb"/><path d="M1103.335,506.794l-.05-.021c3.2-1.655,6.489-3.269,9.87-4.8l-16.471-7.1q-5.314,2.424-10.337,5.058l.091.042c-81.114,45.481-92.049,110.4-92.964,136.241l16.45,7.108C1010.85,617.426,1021.784,552.315,1103.335,506.794Z" fill="#50a7cb"/><path d="M1066.2,490.76l-.041-.01c3.2-1.666,6.48-3.28,9.851-4.813l-16.46-7.108c-3.525,1.593-6.988,3.3-10.349,5.056l.1.031c-61.881,32.656-92.862,90.587-92.964,136.262l16.44,7.108C972.882,581.49,1004.006,523.356,1066.2,490.76Z" fill="#50a7cb"/><path d="M1029.167,474.776l-.05-.029c3.463-1.778,6.366-3.2,9.87-4.794l-16.46-7.1c-2.377,1.076-6.1,2.843-10.338,5.037l.081.05c-81.1,45.5-92.04,110.42-92.953,136.264l16.439,7.1C936.69,585.419,947.637,520.278,1029.167,474.776Z" fill="#50a7cb"/><path d="M992.154,458.8l-.05-.021c3.462-1.8,6.386-3.229,9.88-4.814l-2.081-.882c-3.534,1.593-7,3.28-10.357,5.046l.089.041c-61.89,32.646-92.872,90.558-92.963,136.243l2.071.913C898.855,549.535,929.969,491.38,992.154,458.8Z" fill="#50a7cb"/><path d="M1358.111,607.739l-2.05-.894c-3.6,1.624-6.967,3.269-10.338,5.047l.081.04c-81.1,45.5-92.059,110.431-92.953,136.264l2.021.894c.11-45.808,31.224-103.932,93.43-136.538h-.04C1351.45,610.878,1354.74,609.262,1358.111,607.739Z" fill="#50a7cb"/><path d="M1348.3,612.552c3.352-1.747,6.8-3.453,10.317-5.027l-.163,87.289L1254.872,749.09C1254.982,703.282,1286.1,645.158,1348.3,612.552Z" fill="#1890bd"/></g></svg>