<svg xmlns="http://www.w3.org/2000/svg" width="104" height="104.001" viewBox="0 0 104 104.001"><g transform="translate(-1025.369 -976.351)"><path d="M1123.958,1023.152a5.368,5.368,0,0,0-3.256,1.089v-2.823a1.733,1.733,0,0,0-1.733-1.733h-20.8a1.733,1.733,0,0,0-1.734,1.733v15.6a12.152,12.152,0,0,0,10.4,12.008v7.059H1099.9a1.732,1.732,0,0,0-1.681,1.313l-1.725,6.9-1.806-15.348a1.732,1.732,0,0,0-1.721-1.531h-2.859l-7.541-6.033V1031.02a17.362,17.362,0,0,0,12.133-16.535h3.467a1.736,1.736,0,0,0,1.226-.508l17.333-17.333a1.733,1.733,0,0,0,.507-1.226v-9.533a9.534,9.534,0,0,0-15.253-7.627l-3.543,2.658a6.889,6.889,0,0,0-3.737-1.1h-34.667a6.886,6.886,0,0,0-3.736,1.1l-3.544-2.658a9.534,9.534,0,0,0-15.253,7.627v9.533a1.734,1.734,0,0,0,.508,1.226l17.333,17.333a1.734,1.734,0,0,0,1.226.508h3.466a17.363,17.363,0,0,0,12.134,16.535v10.365l-7.542,6.033h-2.858a1.734,1.734,0,0,0-1.722,1.531l-1.805,15.348-1.725-6.9a1.733,1.733,0,0,0-1.682-1.313H1047.9v-7.059a12.152,12.152,0,0,0,10.4-12.008v-15.6a1.733,1.733,0,0,0-1.733-1.733h-20.8a1.733,1.733,0,0,0-1.734,1.733v2.823a5.41,5.41,0,0,0-8.666,4.321v3.256a1.733,1.733,0,0,0,.346,1.04l5.2,6.933a1.735,1.735,0,0,0,1.387.694h2.241a12.166,12.166,0,0,0,9.892,8.541v7.059H1037.5a1.732,1.732,0,0,0-1.681,1.313l-5.2,20.8a1.734,1.734,0,0,0,1.681,2.154h90.133a1.733,1.733,0,0,0,1.682-2.154l-5.2-20.8a1.733,1.733,0,0,0-1.682-1.313H1110.3v-7.059a12.167,12.167,0,0,0,9.893-8.541h2.24a1.732,1.732,0,0,0,1.387-.694l5.2-6.933a1.734,1.734,0,0,0,.347-1.04v-3.256A5.417,5.417,0,0,0,1123.958,1023.152Zm-90.789,13.866-4.334-5.778v-2.678a1.944,1.944,0,0,1,3.318-1.375l1.882,1.883v7.948Zm4.333,0v-13.866h17.333v13.866a8.667,8.667,0,1,1-17.333,0Zm62.4-43.333a1.733,1.733,0,0,0,1.733-1.733v-.867l5.2-3.9v5.782l-11.117,11.118H1094.7v-3.764a10.03,10.03,0,0,1,2.488-6.636Zm4.16-12.653a6.067,6.067,0,0,1,9.707,4.853V994.7l-16.318,16.318H1094.7v-3.466h1.733a1.734,1.734,0,0,0,1.226-.508L1109.8,994.91a1.731,1.731,0,0,0,.507-1.225v-7.367a3.033,3.033,0,0,0-4.853-2.426l-3.814,2.86h0a6.874,6.874,0,0,0-.826-3.28Zm-9.36,2.253a3.471,3.471,0,0,1,3.467,3.467v3.466h-41.6v-3.466a3.47,3.47,0,0,1,3.466-3.467Zm-34.667,17.036v3.764h-1.015L1047.9,992.967v-5.782l5.2,3.9v.867a1.733,1.733,0,0,0,1.733,1.733h2.712A10.02,10.02,0,0,1,1060.035,1000.321Zm-2.748,10.7L1040.969,994.7v-8.815a6.066,6.066,0,0,1,9.706-4.853l3.254,2.44a6.886,6.886,0,0,0-.827,3.28h0l-3.813-2.86a3.034,3.034,0,0,0-4.854,2.426v7.367a1.732,1.732,0,0,0,.508,1.225l12.133,12.134a1.734,1.734,0,0,0,1.226.508h1.733v3.466Zm6.215,3.467v-12.133h6.933v-3.467h-7.009a13.43,13.43,0,0,0-1.655-5.2h31.195a13.442,13.442,0,0,0-1.654,5.2H1073.9v3.467h17.333v12.133a13.867,13.867,0,1,1-27.733,0Zm11.483,29.087a1.734,1.734,0,0,0,.65-1.354v-10.487c.571.057,1.149.087,1.734.087s1.163-.03,1.733-.087v10.487a1.731,1.731,0,0,0,.651,1.354l4.808,3.846h-14.384Zm-36.13,15.98h14.627l3.616,14.464-.337,2.869h-22.239Zm21.4,17.333,3.059-26h28.117l3.059,26Zm59.964,0h-22.238l-.338-2.869,3.616-14.464h14.627Zm-2.98-39.867a8.667,8.667,0,1,1-17.333,0v-13.866h17.333Zm8.667-5.778-4.333,5.778h-.867v-7.948l1.882-1.883a1.943,1.943,0,0,1,3.318,1.375Z" fill="#00a1c6"/></g></svg>