<svg xmlns="http://www.w3.org/2000/svg" width="84.653" height="98.689" viewBox="0 0 84.653 98.689"><g transform="translate(-1035.042 -630.118)"><path d="M1040.122,728.807h74.494a4.919,4.919,0,0,0,5.079-4.935V639.987a4.919,4.919,0,0,0-5.079-4.935H1094.3a4.919,4.919,0,0,0-5.079-4.934h-23.7a4.919,4.919,0,0,0-5.079,4.934h-20.316a4.92,4.92,0,0,0-5.08,4.935v83.885A4.92,4.92,0,0,0,1040.122,728.807Zm23.7-93.755a1.578,1.578,0,0,1,1.693-1.645h23.7a1.577,1.577,0,0,1,1.693,1.645v8.224a1.577,1.577,0,0,1-1.693,1.645h-23.7a1.578,1.578,0,0,1-1.693-1.645Zm-25.4,4.935a1.577,1.577,0,0,1,1.693-1.645h20.316v4.934a4.919,4.919,0,0,0,5.079,4.935h23.7a4.923,4.923,0,0,0,4.741-3.29h15.576v62.5h-11.852v11.514H1045.2V644.921h11.851v-3.289h-15.237v80.595h58.241l12.867-12.5V641.632H1094.3v-3.29h20.317a1.577,1.577,0,0,1,1.693,1.645v83.885a1.577,1.577,0,0,1-1.693,1.645h-74.494a1.577,1.577,0,0,1-1.693-1.645Zm68.738,70.727-6.095,5.921v-5.921Z" fill="#00a1c6"/><rect width="13.544" height="3.29" transform="translate(1070.597 638.342)" fill="#00a1c6"/><path d="M1050.28,684.4h54.178V658.08H1050.28Zm3.386-23.028h47.406v19.738h-47.406Z" fill="#00a1c6"/><rect width="23.703" height="3.29" transform="translate(1065.517 651.5)" fill="#00a1c6"/><rect width="11.851" height="3.29" transform="translate(1050.28 687.686)" fill="#00a1c6"/><rect width="38.94" height="3.29" transform="translate(1065.517 687.686)" fill="#00a1c6"/><rect width="22.01" height="3.29" transform="translate(1050.28 694.266)" fill="#00a1c6"/><rect width="28.782" height="3.29" transform="translate(1075.676 694.266)" fill="#00a1c6"/><rect width="32.168" height="3.29" transform="translate(1050.28 700.845)" fill="#00a1c6"/><rect width="18.624" height="3.29" transform="translate(1085.834 700.845)" fill="#00a1c6"/><rect width="42.326" height="3.29" transform="translate(1050.28 707.424)" fill="#00a1c6"/></g></svg>