<svg xmlns="http://www.w3.org/2000/svg" width="80.246" height="95.033" viewBox="0 0 80.246 95.033"><g transform="translate(-1037.246 -1340.607)"><path d="M1115.479,1383.34l-40.7-40.7a6.47,6.47,0,0,0-5.4-2l-23.6,2.4a6.818,6.818,0,0,0-6.1,6.1l-2.4,23.6a6.559,6.559,0,0,0,2,5.5l14.2,14.2a27.439,27.439,0,1,0,49.9,15.7c0-1-.1-2-.2-3l12.2-12.2A6.618,6.618,0,0,0,1115.479,1383.34Zm-39.5,47.4a22.6,22.6,0,1,1,22.5-22.6A22.576,22.576,0,0,1,1075.979,1430.74Zm36.1-41.2-10.1,10a27.343,27.343,0,0,0-45.3-10.8l-14-13.9a1.845,1.845,0,0,1-.5-1.6l2.3-23.6a2.022,2.022,0,0,1,1.8-1.8l23.6-2.3c0-.1.1-.1.2-.1a1.974,1.974,0,0,1,1.4.6l40.7,40.7A2.257,2.257,0,0,1,1112.079,1389.54Z" fill="#00a1c6"/><path d="M1058.679,1353.04a9.05,9.05,0,0,0,0,18.1,9.05,9.05,0,1,0,0-18.1Zm0,13.2a4.2,4.2,0,1,1,4.2-4.2A4.225,4.225,0,0,1,1058.679,1366.24Z" fill="#00a1c6"/><path d="M1085.614,1422.9a12.248,12.248,0,0,1-3.293,1.238,19.127,19.127,0,0,1-4.486.486,16.1,16.1,0,0,1-5.237-.8,13.177,13.177,0,0,1-4.044-2.187,12.885,12.885,0,0,1-2.895-3.293,14.952,14.952,0,0,1-1.746-4.111h-4.066l1.5-4.551h1.988a7.323,7.323,0,0,1-.044-.8v-.751a9.59,9.59,0,0,1,.133-1.591h-3.448l1.592-4.6h2.519a14.031,14.031,0,0,1,2.077-4.331,13.418,13.418,0,0,1,3.293-3.226,15.142,15.142,0,0,1,4.287-2.034,17.626,17.626,0,0,1,5.06-.707,22.507,22.507,0,0,1,3.934.354,12.722,12.722,0,0,1,3.27.973l-2.165,5.568a9.177,9.177,0,0,0-2.409-.751,15.662,15.662,0,0,0-2.851-.266,8.976,8.976,0,0,0-2.253.287,8.217,8.217,0,0,0-2.056.84,6.964,6.964,0,0,0-1.7,1.393,5.933,5.933,0,0,0-1.149,1.9h11.712l-1.547,4.6h-11.4a3.557,3.557,0,0,0-.088.773v1.591a6.164,6.164,0,0,0,.044.774H1080.8l-1.5,4.551h-8.22a5.53,5.53,0,0,0,.972,1.746,6.325,6.325,0,0,0,1.636,1.414,8.375,8.375,0,0,0,2.165.929,9.374,9.374,0,0,0,2.519.331,10.924,10.924,0,0,0,5.613-1.37Z" fill="#00a1c6"/></g></svg>