<svg xmlns="http://www.w3.org/2000/svg" width="95.217" height="93.624" viewBox="0 0 95.217 93.624"><g transform="translate(-1013.222 -1436.107)"><path d="M1101.894,1436.643h-13.7a5.979,5.979,0,0,0-5.964,5.964v16.316a5.9,5.9,0,0,0-3.156-.927h-13.71a5.918,5.918,0,0,0-3.141.912v-7.89a5.98,5.98,0,0,0-5.965-5.964h-13.695a5.979,5.979,0,0,0-5.964,5.964v7.876a5.917,5.917,0,0,0-3.185-.941h-13.695a5.979,5.979,0,0,0-5.965,5.964v41.81a1.448,1.448,0,0,0,2.809,0V1483.62h20.007v32.11h-20.007v-4.343a1.448,1.448,0,0,0-2.809,0v5.791h0v10.568a1.448,1.448,0,0,0,1.448,1.448h91.248a1.449,1.449,0,0,0,1.448-1.448v-85.139a5.979,5.979,0,0,0-5.994-5.964Zm-16.852,5.964a3.156,3.156,0,0,1,3.142-3.17h13.71a3.156,3.156,0,0,1,3.156,3.156h0v73.137h-20.008Zm-19.674,18.2h13.7a3.156,3.156,0,0,1,3.156,3.156h0v51.769h-19.964v-33.094h12.884a1.448,1.448,0,0,0,0-2.809h-12.884v-16.054A3.155,3.155,0,0,1,1065.368,1460.805Zm-25.957-9.787a3.156,3.156,0,0,1,3.156-3.156h13.695a3.156,3.156,0,0,1,3.1,3.156v64.712h-19.949Zm-19.688,9.743h13.695a3.171,3.171,0,0,1,3.156,3.156v6.7h-20.007v-6.659a3.17,3.17,0,0,1,3.156-3.156Zm-3.156,20.051v-7.34h20.007v7.34Zm88.483,45.486h-88.483v-7.759h88.483Z" fill="#00a1c6" stroke="#00a1c6" stroke-miterlimit="10" stroke-width="1.073"/><path d="M1053.193,1498.285h-7.557a1.448,1.448,0,0,0-1.447,1.448v10.134a1.447,1.447,0,0,0,1.447,1.448h7.572a1.448,1.448,0,0,0,1.448-1.448v-10.134a1.449,1.449,0,0,0-1.448-1.448Zm-1.447,10.134h-4.7v-7.325h4.763Z" fill="#00a1c6" stroke="#00a1c6" stroke-miterlimit="10" stroke-width="1.073"/><path d="M1053.193,1452.379h-7.557a1.447,1.447,0,0,0-1.447,1.448v10.134a1.447,1.447,0,0,0,1.447,1.447h7.572a1.448,1.448,0,0,0,1.448-1.447v-10.134a1.448,1.448,0,0,0-1.448-1.448Zm-1.447,10.134h-4.7v-7.325h4.763Z" fill="#00a1c6" stroke="#00a1c6" stroke-miterlimit="10" stroke-width="1.073"/><path d="M1050.819,1489.093v-14.55a1.447,1.447,0,0,0-2.808,0v14.55a1.447,1.447,0,0,0,2.808,0Z" fill="#00a1c6" stroke="#00a1c6" stroke-miterlimit="10" stroke-width="1.073"/><path d="M1091.586,1495.086h6.862a1.448,1.448,0,0,0,1.448-1.448v-21.57a1.448,1.448,0,0,0-2.809,0v20.267h-4.1v-29.446h4.112v3.547a1.447,1.447,0,0,0,2.808,0v-4.951a1.447,1.447,0,0,0-1.447-1.447h-6.877a1.448,1.448,0,0,0-1.448,1.447v32.2A1.449,1.449,0,0,0,1091.586,1495.086Z" fill="#00a1c6" stroke="#00a1c6" stroke-miterlimit="10" stroke-width="1.073"/></g></svg>