<svg xmlns="http://www.w3.org/2000/svg" width="107.287" height="82.996" viewBox="0 0 107.287 82.996"><g transform="translate(-1007.192 -622.43)"><path d="M1113.846,662.908a6.926,6.926,0,0,0-13.607,0h-50.388V665.5h50.367a6.936,6.936,0,0,0,13.628-2.592Zm-3.758,4.341a4.354,4.354,0,0,1-6.134,0h0a4.328,4.328,0,0,1-.022-6.112l.022-.022a4.337,4.337,0,0,1,6.134,6.134Z" fill="#00a1c6" stroke="#00a1c6" stroke-miterlimit="10" stroke-width="1"/><path d="M1066.654,651.223a4.471,4.471,0,0,1,4.45-4.449h11.1a6.926,6.926,0,1,0,0-2.591h-11.123a7.056,7.056,0,0,0-7.041,7.04,4.471,4.471,0,0,1-4.449,4.45h-9.784v2.591h9.784A7.046,7.046,0,0,0,1066.654,651.223Zm19.266-8.768h0a4.337,4.337,0,1,1,.021,6.112A4.359,4.359,0,0,1,1085.92,642.455Z" fill="#00a1c6" stroke="#00a1c6" stroke-miterlimit="10" stroke-width="1"/><path d="M1087.734,676.083a6.933,6.933,0,0,0-5.507,5.507H1071.1a4.471,4.471,0,0,1-4.45-4.449,7.056,7.056,0,0,0-7.041-7.041h-9.783v2.592h9.783a4.471,4.471,0,0,1,4.45,4.449,7.056,7.056,0,0,0,7.041,7.041h11.1a6.926,6.926,0,1,0,5.529-8.1Zm4.341,9.87a4.337,4.337,0,0,1-6.134-6.134h0a4.337,4.337,0,0,1,6.134,6.134Z" fill="#00a1c6" stroke="#00a1c6" stroke-miterlimit="10" stroke-width="1"/><path d="M1075.056,691.309a6.913,6.913,0,0,0-4.968,6.005h-1.511a5.934,5.934,0,0,1-5.551-3.866l-3.737-10.065a8.55,8.55,0,0,0-7.991-5.551h-1.447v2.592h1.447a5.934,5.934,0,0,1,5.551,3.866l3.736,10.065a8.551,8.551,0,0,0,7.992,5.55h1.771a6.938,6.938,0,1,0,4.708-8.6Zm4.989,9.719a4.354,4.354,0,0,1-6.134,0h0a4.328,4.328,0,0,1-.021-6.112l.021-.021a4.337,4.337,0,0,1,6.134,6.133Z" fill="#00a1c6" stroke="#00a1c6" stroke-miterlimit="10" stroke-width="1"/><path d="M1059.289,645l3.737-10.064a5.955,5.955,0,0,1,5.551-3.866h1.511a6.888,6.888,0,1,0,.238-2.592h-1.771a8.549,8.549,0,0,0-7.991,5.55l-3.737,10.065a5.954,5.954,0,0,1-5.55,3.866h-1.447v2.592h1.447A8.557,8.557,0,0,0,1059.289,645Zm14.6-17.624c0-.021.021-.021,0,0h0a4.337,4.337,0,1,1,.021,6.113h0A4.329,4.329,0,0,1,1073.89,627.379Z" fill="#00a1c6" stroke="#00a1c6" stroke-miterlimit="10" stroke-width="1"/><path d="M1039.095,622.93a8.534,8.534,0,0,0-8.552,8.51,9.229,9.229,0,0,0,.129,1.533,12.844,12.844,0,0,0-15.853,8.92,13.114,13.114,0,0,0,0,6.955,9.575,9.575,0,0,0-2.484,15.831,12.894,12.894,0,0,0,3.737,21.987v3.261a9.958,9.958,0,0,0,14.946,8.639,9.965,9.965,0,0,0,16.565-7.473v-59.61A8.517,8.517,0,0,0,1039.095,622.93Zm5.9,68.142a7.361,7.361,0,0,1-11.858,5.853,9.921,9.921,0,0,0,2.894-7.02,1.3,1.3,0,0,0-2.591,0,7.387,7.387,0,1,1-14.773,0v-2.613a13.788,13.788,0,0,0,1.879.13,1.3,1.3,0,0,0,0-2.592,10.281,10.281,0,0,1,0-20.561,1.3,1.3,0,0,0,0-2.592,12.74,12.74,0,0,0-5.961,1.469,7.117,7.117,0,0,1-1.663-1.75,6.985,6.985,0,0,1,1.943-9.676,7.344,7.344,0,0,1,.886-.5c.086.173.194.346.281.54a1.3,1.3,0,1,0,2.246-1.295,10.274,10.274,0,0,1,14.989-13.413,1.3,1.3,0,1,0,1.555-2.073h0a9.339,9.339,0,0,0-.972-.648,5.941,5.941,0,1,1,11.145-2.894v59.632Z" fill="#00a1c6" stroke="#00a1c6" stroke-miterlimit="10" stroke-width="1"/><path d="M1041.234,664.312l-.022-.022a6.857,6.857,0,0,0-4.017-1.3h0a6.953,6.953,0,0,0-1.426-5.334,1.292,1.292,0,1,0-2.03,1.6v.021a4.286,4.286,0,0,1,.6,4.32,6.92,6.92,0,0,0-4.017,7.171,1.3,1.3,0,1,0,2.57-.324,4.275,4.275,0,0,1,5.615-4.622,4.857,4.857,0,0,1,1.166.583,1.3,1.3,0,0,0,1.556-2.095Z" fill="#00a1c6" stroke="#00a1c6" stroke-miterlimit="10" stroke-width="1"/><path d="M1022.076,655.089a5.583,5.583,0,0,0,.67-4.384,1.294,1.294,0,1,0-2.506.648,3.043,3.043,0,0,1-1.62,3.5,1.294,1.294,0,0,0,1.124,2.332h.021a3.146,3.146,0,0,0,.281-.151,5.8,5.8,0,0,0,1.058,1.447,1.3,1.3,0,1,0,1.814-1.857A2.994,2.994,0,0,1,1022.076,655.089Z" fill="#00a1c6" stroke="#00a1c6" stroke-miterlimit="10" stroke-width="1"/><path d="M1029.549,642.887h0a3.047,3.047,0,0,1,3.715,2.2,3.221,3.221,0,0,1,.043,1.36,2.977,2.977,0,0,1-.324.864,1.3,1.3,0,1,0,2.268,1.274.021.021,0,0,1,.021-.021,4.086,4.086,0,0,1,4.579-4.752,1.3,1.3,0,0,0-1.857-1.814,3.01,3.01,0,0,1-2.894.821c-.022-.043-.044-.065-.065-.108a5.672,5.672,0,0,0-6.112-2.354,1.3,1.3,0,0,0-.929,1.576A1.247,1.247,0,0,0,1029.549,642.887Z" fill="#00a1c6" stroke="#00a1c6" stroke-miterlimit="10" stroke-width="1"/><path d="M1033.372,679.862a5.5,5.5,0,0,1-5.659.389,8.261,8.261,0,0,0-1.9-3,1.317,1.317,0,0,0-1.836,0,1.3,1.3,0,0,0,0,1.836,5.463,5.463,0,0,1,1.382,2.332.312.312,0,0,0,.043.13,5.5,5.5,0,0,1-1.058,4.9,1.276,1.276,0,0,0,.194,1.814,1.3,1.3,0,0,0,1.814-.173,8.048,8.048,0,0,0,1.836-4.924,8.048,8.048,0,0,0,6.674-1.188,1.309,1.309,0,0,0,.324-1.814A1.288,1.288,0,0,0,1033.372,679.862Z" fill="#00a1c6" stroke="#00a1c6" stroke-miterlimit="10" stroke-width="1"/></g></svg>