<svg xmlns="http://www.w3.org/2000/svg" width="94.672" height="94.67" viewBox="0 0 94.672 94.67"><g transform="translate(-1013.494 -811.492)"><path d="M1087.282,842.314l-.628.628a37.531,37.531,0,1,1-9.94-9.94l.628-.628-.084-4.536a42.317,42.317,0,1,0,14.56,14.56Z" fill="#00a1c6"/><path d="M1055.665,841.508a22.289,22.289,0,0,1,10.111,2.432l3.453-3.456a27.263,27.263,0,1,0,9.94,9.943l-3.453,3.453a22.467,22.467,0,1,1-20.051-12.372Z" fill="#00a1c6"/><path d="M1107.919,823.554a2.316,2.316,0,0,0-2.427-1.27l-9.469,1.349,1.351-9.469a2.342,2.342,0,0,0-3.975-1.987l-10.826,10.831a2.332,2.332,0,0,0-.686,1.7l.178,9.575-20.236,20.236a11.383,11.383,0,1,0,3.312,3.313l20.236-20.237,9.575.181H1095a2.335,2.335,0,0,0,1.656-.687l10.828-10.828A2.346,2.346,0,0,0,1107.919,823.554ZM1062.3,863.993a6.687,6.687,0,1,1-3.914-6.039l-4.887,4.889,3.312,3.313,4.887-4.89A6.522,6.522,0,0,1,1062.3,863.993Zm31.739-30.923-7.319-.139-.135-7.316,5.151-5.154-.8,5.606a2.353,2.353,0,0,0,.663,1.989,2.328,2.328,0,0,0,1.989.661l5.606-.8Z" fill="#00a1c6"/></g></svg>