<svg xmlns="http://www.w3.org/2000/svg" width="64.591" height="64.591" viewBox="0 0 64.591 64.591"><path d="M1020.935,2071.55a32.3,32.3,0,1,0-32.4,32.193A32.3,32.3,0,0,0,1020.935,2071.55Zm-28.418,24.828-8.841-.028-.737,0c.026-8.325.052-16.58.079-24.885l-4.869-.015c-.017-.226-.043-.407-.043-.588.006-2.545.026-5.09.013-7.635,0-.472.124-.624.608-.611,1.412.036,2.824.02,4.312.025,0-.274,0-.5,0-.719.033-2.1-.063-4.22.131-6.309.337-3.63,1.9-6.59,5.405-8.105a10.662,10.662,0,0,1,3.707-.879c2.939-.119,5.888-.022,8.875-.013-.009,2.815-.017,5.616-.027,8.511l-.588,0c-1.531-.005-3.062-.015-4.593-.013-1.741,0-2.5.725-2.533,2.457-.031,1.679-.016,3.36-.022,5.093l7.884.025c-.312,2.957-.617,5.853-.928,8.8l-6.986-.023,0,.777q-.037,11.684-.075,23.366C993.288,2096.38,993.287,2096.38,992.517,2096.378Z" transform="translate(-956.344 -2039.152)" fill="#00a1c6"/></svg>