<svg xmlns="http://www.w3.org/2000/svg" width="626.203" height="715.113" viewBox="0 0 626.203 715.113"><g transform="translate(-225.026 -561.921)"><path d="M851.228,1171.406,654.713,1277.034H477.972l56.255-279.5Z" fill="#cceef4"/><path d="M722.241,1138.347,509.89,1014.334V672.251L721.378,795.843Z" fill="#5bb4db"/><path d="M509.9,684.522l-35.68,20.9L675.547,823.074l35.7-21.221Z" fill="#b0e4ef"/><path d="M675.547,823.074l.79,333.535L708.7,1137.8l7.581-338.938Z" fill="#57c6dc"/><path d="M722.241,1138.347l-50.906,30.03L670.468,826l5-2.959,45.91-27.194Z" fill="#33a4d0"/><path d="M671.313,1168.506,458.962,1044.494V702.41L670.449,826Z" fill="#5bb4db"/><path d="M649.482,1155.9l21.831,12.607L670.4,858.211l-22.188-27.787Z" fill="#48acd6"/><path d="M721.378,795.843,509.89,672.251l-5.036,2.982,206.393,120.6-41.4,23.912L464.04,699.4l-5.078,3.007L670.45,826l50.928-30.159Z" fill="#3ea8d2"/><path d="M504.854,675.233v12.246l5.049-2.957v-6.354Z" fill="#1d91a4"/><path d="M504.854,687.479l5.049-2.957L706.055,798.827l-5.334,3.081Z" fill="#57c6dc"/><path d="M649.5,1179.5,340.02,998.485V561.921L648,742.206Z" fill="#1691be"/><path d="M630.3,752.722,567.92,789.8,277.7,619.858,312.319,599.6l2.945-1.735,3.631-2.138,3.026-1.776,18.116-10.611Z" fill="#b0e4ef"/><path d="M567.925,789.781l1.38,421.629,56.543-32.863,13.244-431.068Z" fill="#57c6dc"/><path d="M649.5,1179.5l-88.938,52.465-1.515-437.083,8.733-5.169L648,742.206Z" fill="#259fcb"/><path d="M560.527,1232.2,251.043,1051.177V614.614L559.019,794.9Z" fill="#1691be"/><path d="M648,742.205,340.02,561.921l-8.8,5.211L630.3,742.18,557.96,783.957,259.914,609.36l-8.872,5.254L559.019,794.9,648,742.206Z" fill="#1691be"/><path d="M331.221,567.132v21.4l8.821-5.167v-11.1Z" fill="#1691be"/><path d="M331.221,588.527l8.821-5.167L621.224,747.419l-9.318,5.382Z" fill="#57c6dc"/><path d="M538.636,1241.109,285.69,1093.389V685.91L537.608,833.13Z" fill="#259fcb"/><path d="M525.555,840.276l-42.526,25.3L243.2,725.407l12.387-7.263,8.917-5.2,21.183-12.427Z" fill="#b0e4ef"/><path d="M483.016,865.566l.941,397.3,38.551-22.406,9.03-403.732Z" fill="#57c6dc"/><path d="M537.608,833.13l-54.687,32.393-5.955,3.524L477.7,1159.1l60.64-35.169Z" fill="#1691be"/><path d="M477.7,1159.1l.3,117.781,60.637-35.771-.3-117.18Z" fill="#2ca1cd"/><path d="M476.943,869.055,225.026,721.835v290.75l252.649,146.527Z" fill="#259fcb"/><path d="M225.026,1012.586v116.729l252.946,147.72-.3-117.921Z" fill="#3ea8d2"/><path d="M537.607,833.129,285.69,685.91l-6,3.552L525.541,833.111,476.221,861.6,231.075,718.253l-6.049,3.582L476.943,869.054l60.664-35.925Z" fill="#229ecd"/><path d="M279.692,689.462V704.05l6.015-3.523v-7.568Z" fill="#1d91a4"/><path d="M279.692,704.05l6.015-3.523L519.355,836.684,513,840.353Z" fill="#57c6dc"/><path d="M538.636,1219.391l21.891,12.8-1.244-347.25-21.675-28.466Z" fill="#1691be"/><path d="M293.956,610.353l155.5,92.058L303.315,604.872Z" fill="#57c6dc"/><path d="M403.383,805.617l-74.521-44.1-.847-.525-20.859-12.346-.646-.363-50.918-30.14,8.917-5.2,41.4,27.6.565.4,20.9,13.96.766.525Z" fill="#57c6dc"/><path d="M422.427,664.805l-51.2-30.341L312.319,599.6l2.945-1.735,3.631-2.138,51.765,34.537,21.505,14.324Z" fill="#57c6dc"/><path d="M354.593,646.148l-21.281-12.5a116.886,116.886,0,0,1-1.233-18.45l21.384,12.507A105.677,105.677,0,0,0,354.593,646.148Z" fill="#33a4d0"/><path d="M392.5,646.972l-21.281-12.5a116.771,116.771,0,0,1-1.233-18.45l21.384,12.507A105.582,105.582,0,0,0,392.5,646.972Z" fill="#008cbe"/><path d="M329.225,725.891a108.118,108.118,0,0,0-1.977,27.194c0,.363.04,1.009.121,1.816.161,1.573.363,3.792.645,6.092l-20.859-12.346-.646-.363c0-.2-.04-.4-.04-.6-.282-3.188-.524-6.093-.565-6.779v-.363a97.944,97.944,0,0,1,1.9-27.234l3.955-18.722,7.706,16.785,13.8-3.994Z" fill="#153a93"/><path d="M293.842,799.052a53.311,53.311,0,0,1,6.763,10.285,58.557,58.557,0,0,1,4.435,11.8,44.383,44.383,0,0,1,1.478,12.07l-.612,29.385-21.7-12.944q-.6-.359-1.156-.757c-.367-.263-.719-.493-1.054-.693q-1.914-1.141-3.319-2.179a5.849,5.849,0,0,0-2.319-1.183,1.178,1.178,0,0,0-1.344.851,11.617,11.617,0,0,0-.482,3.75l-.147,7.322-11.792-7.022.174-8.769q.1-4.974,1.678-7.41a8.79,8.79,0,0,1,3.433-3.318,55.91,55.91,0,0,1-4.064-11.178,43.346,43.346,0,0,1-1.31-11.26,25.55,25.55,0,0,1,2.04-10.126,15.877,15.877,0,0,1,5.031-6.476,11.974,11.974,0,0,1,7.193-2.257,16.782,16.782,0,0,1,8.616,2.714A33.926,33.926,0,0,1,293.842,799.052Zm-16.42,7.86q-2.793,1.91-2.895,7.018a19.523,19.523,0,0,0,.611,5.139,22.527,22.527,0,0,0,1.938,5.068,25.414,25.414,0,0,0,2.919,4.394,14.3,14.3,0,0,0,3.654,3.176l10.765,6.432.25-12.161a15.8,15.8,0,0,0-.858-5.349,29.105,29.105,0,0,0-2.435-5.364,26.484,26.484,0,0,0-3.42-4.7,17.363,17.363,0,0,0-3.807-3.209Q280.214,805,277.422,806.912Zm49.642,24.768a16.813,16.813,0,0,1,2.056,8.171q-.086,4.047-2.348,5.535t-5.37-.373a14.062,14.062,0,0,1-5.1-5.892,16.969,16.969,0,0,1-2.013-8.15q.086-4.049,2.3-5.567t5.224.285A14.529,14.529,0,0,1,327.064,831.68Zm-.459,21.532a16.767,16.767,0,0,1,2.055,8.161q-.086,4.043-2.347,5.531t-5.367-.364a14.039,14.039,0,0,1-5.1-5.884,16.943,16.943,0,0,1-2.012-8.139q.085-4.044,2.3-5.564t5.22.279A14.5,14.5,0,0,1,326.605,853.212Z" fill="#9de2f4"/><path d="M253.916,849.526A16.8,16.8,0,0,1,256,857.718q-.079,4.057-2.354,5.549t-5.406-.366a14.131,14.131,0,0,1-5.148-5.907,16.961,16.961,0,0,1-2.041-8.168q.08-4.062,2.307-5.584t5.259.282A14.616,14.616,0,0,1,253.916,849.526Zm-.424,21.591a16.773,16.773,0,0,1,2.084,8.181q-.08,4.053-2.353,5.546t-5.4-.36a14.1,14.1,0,0,1-5.146-5.9,16.925,16.925,0,0,1-2.04-8.157q.078-4.055,2.306-5.581t5.257.276A14.58,14.58,0,0,1,253.492,871.117Zm20.847-12.278a23.753,23.753,0,0,0,1.438,9.584,12.929,12.929,0,0,0,5.58,6.094l18.886,11.231-.356,17.207-18.478-10.968q-4.021-2.388-5.876-1.31t-1.968,6.691l-.149,7.437-11.78-6.979.049-2.481q.127-6.4,1.922-9.5t6.4-4.2a31.936,31.936,0,0,1-5.846-11.009,40.911,40.911,0,0,1-1.736-12.808l.208-10.468,11.793,7.025Z" fill="#9de2f4"/><path d="M253.086,897.052a16.73,16.73,0,0,1,2.083,8.168q-.08,4.049-2.352,5.542t-5.4-.353a14.069,14.069,0,0,1-5.143-5.881,16.887,16.887,0,0,1-2.039-8.145q.079-4.053,2.3-5.576t5.253.268A14.53,14.53,0,0,1,253.086,897.052Zm20.267,10.879a24.033,24.033,0,0,0,1.384,9.594,12.692,12.692,0,0,0,5.526,5.973l18.966,11.219-.347,16.776L279.82,940.238a33.811,33.811,0,0,1-8.5-7,39.972,39.972,0,0,1-5.73-8.658,39.377,39.377,0,0,1-3.224-9.426,42.179,42.179,0,0,1-.888-9.238l.207-10.445,11.78,6.981Z" fill="#9de2f4"/><path d="M260.155,972.629l-4.93-2.9a29.815,29.815,0,0,1-6.569-5.242,33.473,33.473,0,0,1-5.063-6.995,36.014,36.014,0,0,1-3.255-8.309,33.837,33.837,0,0,1-1.047-9.126l.088-4.563a34.3,34.3,0,0,1,.578-6.192,25.493,25.493,0,0,1,.72-2.944l11.194,6.6a16.574,16.574,0,0,0-.4,2.009,25.19,25.19,0,0,0-.211,3.042l-.09,4.564a11.055,11.055,0,0,0,5.7,10.606L298.341,977.6l-.357,17.259-26.069-15.32-.256,12.736-11.757-6.9Z" fill="#9de2f4"/><path d="M259.949,983.03l11.757,6.9-.279,13.9a36.94,36.94,0,0,1,5.36-1.454,17.018,17.018,0,0,1,4.318-.291,14.291,14.291,0,0,1,3.486.665,15.685,15.685,0,0,1,2.965,1.346,24.226,24.226,0,0,1,7.661,7.052,37.876,37.876,0,0,1,4.861,9.738,55.271,55.271,0,0,1,2.5,11.357,89.331,89.331,0,0,1,.558,12.053,72.243,72.243,0,0,1-1.041,11.11,23.889,23.889,0,0,1-2.9,8.381,8.344,8.344,0,0,1-5.139,4q-3.154.779-7.755-1.9a29.963,29.963,0,0,1-6.37-5.547,96.7,96.7,0,0,1-9.37-12.931l-.318,15.8-11.738-6.835Zm31,46.14a23.479,23.479,0,0,0-1.27-4.807,11.024,11.024,0,0,0-1.812-3.1,8.415,8.415,0,0,0-2.04-1.785,4.082,4.082,0,0,0-1.966-.562,7.4,7.4,0,0,0-2.7.587,28.636,28.636,0,0,0-4.1,2.06q-2.463,1.446-6.069,4.063,3.417,6.719,5.764,10.977t3.919,6.811a29.71,29.71,0,0,0,2.609,3.751,8.133,8.133,0,0,0,1.941,1.723,3.792,3.792,0,0,0,2.064.552,2.431,2.431,0,0,0,1.9-1.315,12.848,12.848,0,0,0,1.45-4.064,42.489,42.489,0,0,0,.718-7.837A38.017,38.017,0,0,0,290.945,1029.17Z" fill="#9de2f4"/><path d="M270.221,1063.85a23.7,23.7,0,0,0,1.38,9.513,12.485,12.485,0,0,0,5.507,5.883l60.148,34.977-.36,16.6-60.228-34.959a33.318,33.318,0,0,1-8.473-6.878,39.23,39.23,0,0,1-5.71-8.553,38.656,38.656,0,0,1-3.214-9.332,41.612,41.612,0,0,1-.885-9.161l.157-7.906,11.738,6.837Z" fill="#9de2f4"/><path d="M336.561,1146.25l-.359,16.574-78.91-45.639.33-16.676Z" fill="#9de2f4"/><path d="M342.029,1041.066l.823-35.614,52.979-40.587a38.9,38.9,0,0,0,8.5-9.9q3.327-5.572,3.668-14.264a37.783,37.783,0,0,0-3.977-18.94q-4.377-8.583-12.051-12.127-8.022-3.7-13.305,2.039-5.263,5.7-6.583,18.254L342.26,909.911q1.44-14.042,6.075-23.51,4.664-9.516,11.652-14.617a28.39,28.39,0,0,1,16.019-5.47,42.524,42.524,0,0,1,19.078,4.161,74.638,74.638,0,0,1,18.34,11.96,82.2,82.2,0,0,1,15.621,18.483,91.316,91.316,0,0,1,10.48,24.148,90,90,0,0,1,2.992,28.5,70.452,70.452,0,0,1-2.837,17.8,46.915,46.915,0,0,1-14.35,22.085q-4.579,3.93-9.4,7.558l-32.244,23.151,54.424,27.1-1.788,37.855Z" fill="#9de2f4"/></g></svg>