<svg xmlns="http://www.w3.org/2000/svg" width="102.261" height="102.261" viewBox="0 0 102.261 102.261"><g transform="translate(-1009.699 -1183.994)"><path d="M1028.447,1274.324a6.818,6.818,0,1,1,6.818-6.817A6.817,6.817,0,0,1,1028.447,1274.324Zm0-10.226a3.409,3.409,0,1,0,3.409,3.409A3.409,3.409,0,0,0,1028.447,1264.1Z" fill="#00a1c6"/><path d="M1031.856,1286.255h-6.818a1.7,1.7,0,0,1-1.7-1.7v-4.4l-.21-.087-3.118,3.124a1.7,1.7,0,0,1-2.41,0l-4.829-4.829a1.7,1.7,0,0,1,0-2.41h0l3.121-3.109-.084-.218h-4.4a1.7,1.7,0,0,1-1.705-1.7V1264.1a1.7,1.7,0,0,1,1.705-1.7h4.4c.029-.072.057-.142.087-.21l-3.124-3.119a1.7,1.7,0,0,1,0-2.41l4.823-4.823a1.7,1.7,0,0,1,1.2-.5h0a1.7,1.7,0,0,1,1.207.5l3.1,3.12.227-.09v-4.4a1.7,1.7,0,0,1,1.7-1.7h6.818a1.7,1.7,0,0,1,1.7,1.7v4.4l.22.09,3.1-3.127a1.7,1.7,0,0,1,1.207-.5h0a1.7,1.7,0,0,1,1.2.5l4.823,4.823a1.7,1.7,0,0,1,0,2.41l-3.119,3.119c.031.069.058.138.087.21h4.4a1.7,1.7,0,0,1,1.7,1.7v6.818a1.7,1.7,0,0,1-1.7,1.7h-4.4l-.09.218,3.127,3.116a1.7,1.7,0,0,1,0,2.41h0l-4.823,4.824a1.7,1.7,0,0,1-2.41,0l-3.119-3.119-.215.087v4.4A1.7,1.7,0,0,1,1031.856,1286.255Zm-5.113-3.409h3.409v-3.9a1.7,1.7,0,0,1,1.208-1.631,10.3,10.3,0,0,0,1.945-.8,1.7,1.7,0,0,1,2.023.29l2.766,2.766,2.41-2.41-2.761-2.751a1.7,1.7,0,0,1-.5-1.207,1.756,1.756,0,0,1,.208-.833,10.15,10.15,0,0,0,.8-1.946,1.706,1.706,0,0,1,1.631-1.209h3.9V1265.8h-3.9a1.7,1.7,0,0,1-1.631-1.208,10.122,10.122,0,0,0-.8-1.946,1.705,1.705,0,0,1,.291-2.022l2.766-2.766-2.41-2.411-2.749,2.761a1.765,1.765,0,0,1-2.045.293,10.272,10.272,0,0,0-1.945-.8,1.7,1.7,0,0,1-1.206-1.631v-3.9h-3.409v3.9a1.706,1.706,0,0,1-1.209,1.631,10.286,10.286,0,0,0-1.944.8,1.768,1.768,0,0,1-2.045-.293l-2.75-2.761-2.408,2.411,2.766,2.766a1.705,1.705,0,0,1,.292,2.022,10.2,10.2,0,0,0-.8,1.946,1.7,1.7,0,0,1-1.631,1.208h-3.9v3.409h3.9a1.705,1.705,0,0,1,1.631,1.209,10.225,10.225,0,0,0,.8,1.946,1.71,1.71,0,0,1,.208.816,1.745,1.745,0,0,1-.5,1.224l-2.761,2.751,2.41,2.41,2.766-2.766a1.7,1.7,0,0,1,2.023-.29,10.286,10.286,0,0,0,1.944.8,1.705,1.705,0,0,1,1.209,1.631Z" fill="#00a1c6"/><path d="M1110.256,1183.994h-64.765a1.7,1.7,0,0,0-1.7,1.7v6.817h-6.817a1.7,1.7,0,0,0-1.7,1.7v6.817h-6.818a1.7,1.7,0,0,0-1.7,1.7v40.905a1.7,1.7,0,0,0,3.409,0v-39.2h47.721v11.93a1.7,1.7,0,0,0,1.7,1.705h11.93v64.765h-46.017a1.7,1.7,0,1,0,0,3.409h47.722a1.7,1.7,0,0,0,1.7-1.7v-6.817h6.817a1.7,1.7,0,0,0,1.7-1.7v-6.818h6.817a1.7,1.7,0,0,0,1.7-1.7V1185.7A1.7,1.7,0,0,0,1110.256,1183.994Zm-28.974,30.678v-7.816l7.816,7.816Zm18.748,59.652h-5.113v-57.948a1.707,1.707,0,0,0-.5-1.2l-13.635-13.635a1.707,1.707,0,0,0-1.2-.5h-40.905v-5.113h61.357Zm8.522-8.522h-5.113V1194.22a1.7,1.7,0,0,0-1.7-1.7h-54.539V1187.4h61.357Z" fill="#00a1c6"/><path d="M1052.308,1224.9h-13.635a1.7,1.7,0,0,1-1.7-1.7v-13.635a1.705,1.705,0,0,1,1.7-1.7h13.635a1.7,1.7,0,0,1,1.7,1.7v13.635A1.7,1.7,0,0,1,1052.308,1224.9Zm-11.93-3.409H1050.6v-10.226h-10.226Z" fill="#00a1c6"/><rect width="17.044" height="3.409" transform="translate(1057.421 1207.854)" fill="#00a1c6"/><rect width="17.044" height="3.409" transform="translate(1057.421 1214.672)" fill="#00a1c6"/><rect width="17.044" height="3.409" transform="translate(1057.421 1221.489)" fill="#00a1c6"/><path d="M1052.308,1248.759h-13.635a1.7,1.7,0,0,1-1.7-1.7V1233.42a1.7,1.7,0,0,1,1.7-1.705h13.635a1.7,1.7,0,0,1,1.7,1.705v13.635A1.7,1.7,0,0,1,1052.308,1248.759Zm-11.93-3.409H1050.6v-10.226h-10.226Z" fill="#00a1c6"/><rect width="27.27" height="3.409" transform="translate(1057.421 1231.715)" fill="#00a1c6"/><rect width="27.27" height="3.409" transform="translate(1057.421 1238.533)" fill="#00a1c6"/><rect width="27.27" height="3.409" transform="translate(1057.421 1245.35)" fill="#00a1c6"/><rect width="15.339" height="3.409" transform="translate(1052.308 1258.985)" fill="#00a1c6"/><rect width="15.339" height="3.409" transform="translate(1052.308 1265.802)" fill="#00a1c6"/><rect width="15.339" height="3.409" transform="translate(1052.308 1272.62)" fill="#00a1c6"/><path d="M1079.578,1276.029a8.522,8.522,0,1,1,8.522-8.522A8.522,8.522,0,0,1,1079.578,1276.029Zm0-13.635a5.113,5.113,0,1,0,5.113,5.113A5.113,5.113,0,0,0,1079.578,1262.394Z" fill="#00a1c6"/></g></svg>