<svg xmlns="http://www.w3.org/2000/svg" width="64.607" height="64.607" viewBox="0 0 64.607 64.607"><path d="M1108.185,2079.811a32.3,32.3,0,1,0-39.558,22.83A32.3,32.3,0,0,0,1108.185,2079.811Zm-5.612-10.674a17.7,17.7,0,0,1-4.489,2.618.915.915,0,0,0-.6.709c-2.539,9.249-8.233,15.666-17.3,18.875a24.819,24.819,0,0,1-15.921-.027,25.733,25.733,0,0,1-11.238-7.028,2.554,2.554,0,0,1-.156-.234,18.764,18.764,0,0,0,13.939-.2,9.457,9.457,0,0,1-6.61-8.408,9.855,9.855,0,0,0,4,.89,9.353,9.353,0,0,1-4.668-5.712,8.956,8.956,0,0,1-.014-4.972,9.655,9.655,0,0,0,3.662,2.11,9.343,9.343,0,0,1-2.2-6.409,9.189,9.189,0,0,1,2.68-6.129,26.321,26.321,0,0,0,15.737,14.16,28.056,28.056,0,0,1,.961-3.49,9.137,9.137,0,0,1,10.263-5.189,9.291,9.291,0,0,1,6.036,4.333.8.8,0,0,0,.545.318,18.15,18.15,0,0,0,5.821-.631,10.19,10.19,0,0,1-4.927,3.9c.55.043,1.1.1,1.65.122s1.113.015,1.668-.011,1.136-.089,1.818-.146C1102.959,2068.811,1102.771,2068.979,1102.573,2069.137Z" transform="translate(-1044.687 -2039.143)" fill="#007cad"/></svg>