<?xml version="1.0" encoding="UTF-8" standalone="no"?><!DOCTYPE svg PUBLIC "-//W3C//DTD SVG 1.1//EN" "http://www.w3.org/Graphics/SVG/1.1/DTD/svg11.dtd"><svg width="100%" height="100%" viewBox="0 0 2882 4593" version="1.1" xmlns="http://www.w3.org/2000/svg" xmlns:xlink="http://www.w3.org/1999/xlink" xml:space="preserve" xmlns:serif="http://www.serif.com/" style="fill-rule:evenodd;clip-rule:evenodd;stroke-linejoin:round;stroke-miterlimit:2;"><path d="M1996.78,3178.07l857.404,495.037l27.017,-4.762l0,33.946c0,8.437 -5.5,16.887 -16.633,23.262l-1157.7,668.442c-22.23,12.767 -58.259,12.767 -80.525,-0l-867.809,-501.004l0,-35.779l1238.25,-679.142Z" style="fill:#00b7d2;fill-rule:nonzero;"/><path d="M758.528,3857.22l867.809,501.021c22.266,12.85 58.3,12.85 80.529,0l1157.7,-668.446c22.246,-12.804 22.246,-33.612 -0,-46.462l-867.788,-501.017l-1238.25,714.904Z" style="fill:#7decff;fill-rule:nonzero;"/><path d="M757.908,3662.14l-0,214.52l1238.25,-714.85l-0,-214.55l-1238.25,714.88Z" style="fill:#00b7d2;fill-rule:nonzero;"/><path d="M782.77,3657.84l-0,214.479l1238.28,-714.879l-0,-214.45l-1238.28,714.85Z" style="fill:#00b7d2;fill-rule:nonzero;"/><path d="M788.869,3910.44c-9.429,0 -9.4,-266.204 0,-266.204l-30.933,-17.883c-8.075,-0 -8.075,266.25 -0,266.25l30.933,17.837Z" style="fill:#7decff;fill-rule:nonzero;"/><path d="M1661.74,4123.23l-0,214.496l-843.871,-485.821l-0,-214.467l843.871,485.792Z" style="fill:#fff;fill-rule:nonzero;"/><path d="M1661.74,4123.23l1163.73,-671.829l-0,214.458l-1163.73,671.867l-0,-214.496Z" style="fill:#fff9ed;fill-rule:nonzero;"/><path d="M757.905,3662.14l867.813,500.962c22.212,12.83 58.267,12.83 80.5,0l1157.75,-668.45c11.083,-6.383 16.608,-14.816 16.525,-23.258l-0,-33.983l-26.992,4.783l-857.341,-494.937l-1238.26,714.883Z" style="fill:url(#_Linear1);fill-rule:nonzero;"/><path d="M757.939,3626.35l867.779,500.991c22.212,12.821 58.267,12.821 80.5,0l1157.75,-668.425c22.167,-12.837 22.167,-33.621 -0,-46.479l-867.808,-501.008l-1238.22,714.921Z" style="fill:url(#_Linear2);fill-rule:nonzero;"/><path d="M1655.15,2988.82c18.546,-10.658 48.534,-10.658 67.071,0l964.258,556.742l14.059,-9.534l-0,28.988c-0,7.008 -4.609,14.029 -13.909,19.392l-722.97,417.295l-1031.49,-595.591l722.983,-417.292Z" style="fill:#29abcd;fill-rule:nonzero;"/><path d="M1963.76,3972.01l722.871,-417.379c18.563,-10.7 18.563,-28.075 0,-38.733l-964.408,-556.825c-18.538,-10.675 -48.529,-10.675 -67.071,-0l-722.942,417.375l1031.55,595.562Z" style="fill:#9aeafe;fill-rule:nonzero;"/><path d="M1960.51,3757.35l694.15,-400.738l0,178.642l-694.15,400.771l0,-178.675Z" style="fill:#fff;fill-rule:nonzero;"/><path d="M1655.28,2839.79c18.525,-10.684 48.613,-10.684 67.113,-0l964.229,556.708l14.104,-9.517l0,28.971c0,7.042 -4.658,14.021 -13.917,19.371l-722.904,417.396l-1031.52,-595.579l722.896,-417.35Z" style="fill:#29abcd;fill-rule:nonzero;"/><path d="M1963.66,3822.97l723.15,-417.408c18.471,-10.742 18.471,-28.046 -0,-38.721l-964.417,-556.808c-18.5,-10.746 -48.588,-10.746 -67.113,-0l-723.216,417.321l1031.6,595.616Z" style="fill:#9aeafe;fill-rule:nonzero;"/><path d="M932.068,3227.35c-11.809,-0 -11.725,178.758 0.1,178.758l1031.5,595.592l0,-178.734l-1031.6,-595.616Z" style="fill:#9aeafe;fill-rule:nonzero;"/><path d="M1989.44,3986.82c-15.359,-20.837 -8.104,-163.879 -0,-178.646l-25.779,14.796c-3.063,23.263 -12.867,123.167 -0,178.729l25.779,-14.879Z" style="fill:#29abcd;fill-rule:nonzero;"/><path d="M651.77,3299.02l15.433,10.959l970.6,-541.838c18.667,-10.441 48.655,-10.021 67,0.959l717.259,398.029l-0.421,29.762l-1040.01,580.609l-716.813,-427.838c-9.112,-5.417 -13.625,-12.442 -13.608,-19.362l0.558,-31.28Z" style="fill:#0042a1;fill-rule:nonzero;"/><path d="M665.833,3281.19c-18.734,10.396 -18.921,27.791 -0.592,38.704l716.812,427.796l1040.01,-580.567l-716.763,-427.829c-18.358,-10.946 -48.491,-11.346 -67.075,-0.954l-972.391,542.85Z" style="fill:#0076b8;fill-rule:nonzero;"/><path d="M1404.85,3728.21l-725.133,-432.746l2.583,-178.575l725.133,432.709l-2.583,178.612Z" style="fill:#fff;fill-rule:nonzero;"/><path d="M654.266,3120.32l15.488,11.02l970.629,-541.883c18.625,-10.387 48.679,-9.937 67.029,1.004l717.288,398.038l-0.463,29.75l-1039.99,580.579l-716.87,-427.763c-9.042,-5.466 -13.6,-12.47 -13.555,-19.454l0.446,-31.291Z" style="fill:#7decff;fill-rule:nonzero;"/><path d="M668.398,3102.54c-18.658,10.429 -18.892,27.762 -0.563,38.733l716.755,427.796l1040.11,-580.567l-716.838,-427.82c-18.387,-10.955 -48.391,-11.396 -67.058,-0.971l-972.404,542.829Z" style="fill:#78ebfd;fill-rule:nonzero;"/><path d="M1360.92,3554.87c10.788,63.679 10.425,153.075 -0.087,210.212l1038.2,-581.529l2.975,-207.629l-1041.09,578.946Z" style="fill:#0042a1;fill-rule:nonzero;"/><path d="M654.266,3120.32l15.488,11.02l970.629,-541.883c18.625,-10.387 48.679,-9.937 67.029,1.004l717.288,398.038l-0.463,29.75l-1039.99,580.579l-716.87,-427.763c-9.042,-5.466 -13.6,-12.47 -13.555,-19.454l0.446,-31.291Z" style="fill:#0042a1;fill-rule:nonzero;"/><path d="M668.398,3102.54c-18.658,10.429 -18.892,27.762 -0.563,38.733l716.755,427.796l1040.11,-580.567l-716.838,-427.82c-18.387,-10.955 -48.391,-11.396 -67.058,-0.971l-972.404,542.829Z" style="fill:#0076b8;fill-rule:nonzero;"/><path d="M1384.59,3569.84c9.317,65.192 7.284,150.017 -2.954,207.659l1040.01,-580.609c9.142,-51.916 12.776,-149.541 2.967,-207.616l-1040.02,580.566Z" style="fill:#0062ae;fill-rule:nonzero;"/><path d="M1628.46,2530.97c18.5,-10.725 48.542,-10.725 67.1,0l964.242,556.725l14.046,-9.558l-0,28.971c-0,7.025 -4.588,14.058 -13.896,19.383l-722.954,417.333l-1031.52,-595.575l722.983,-417.279Z" style="fill:#2c9fcd;fill-rule:nonzero;"/><path d="M1937.03,3514.12l722.925,-417.395c18.537,-10.655 18.537,-28.046 -0,-38.705l-964.392,-556.854c-18.558,-10.733 -48.6,-10.733 -67.1,0l-722.883,417.388l1031.45,595.566Z" style="fill:#71d7fe;fill-rule:nonzero;"/><path d="M1933.82,3299.48l694.17,-400.737l0,178.645l-694.17,400.738l-0,-178.646Z" style="fill:#fff;fill-rule:nonzero;"/><path d="M1628.57,2381.89l-722.867,417.396l1031.51,595.542l722.921,-417.321c9.266,-5.438 13.912,-12.417 13.912,-19.454l0,-28.946l-14.133,9.521l-964.221,-556.738c-9.25,-5.346 -21.387,-8.016 -33.533,-8.016c-12.146,-0 -24.304,2.67 -33.592,8.016Z" style="fill:url(#_Linear3);fill-rule:nonzero;"/><path d="M1628.57,2352.11l-723.171,417.366l1031.6,595.609l723.142,-417.367c18.533,-10.721 18.533,-28.092 -0,-38.75l-964.442,-556.858c-9.25,-5.354 -21.387,-8.034 -33.533,-8.034c-12.146,0 -24.304,2.68 -33.592,8.034Z" style="fill:url(#_Linear4);fill-rule:nonzero;"/><path d="M905.476,2948.26l1031.52,595.571l0,-178.746l-1031.6,-595.609c-11.825,0 -11.704,178.784 0.075,178.784Z" style="fill:url(#_Linear5);fill-rule:nonzero;"/><path d="M1962.73,3528.94c-15.288,-20.792 -8.063,-163.863 -0,-178.659l-25.734,14.796c-3.129,23.304 -12.879,123.142 0,178.742l25.734,-14.879Z" style="fill:#2c9fcd;fill-rule:nonzero;"/><path d="M1714.11,2284.91c17.838,-11.767 47.871,-13.471 66.963,-3.925l994.846,499.954l13.533,-10.35l1.662,28.958c0.388,7 -3.8,14.234 -12.725,20.088l-697.612,458.5l-1064.17,-534.692l697.508,-458.533Z" style="fill:#29abcd;fill-rule:nonzero;"/><path d="M2079.14,3248.5l697.55,-458.558c17.817,-11.737 16.875,-29.054 -2.246,-38.654l-995.129,-499.996c-19.063,-9.604 -49.063,-7.887 -66.871,3.875l-697.583,458.596l1064.28,534.737Z" style="fill:#9aeafe;fill-rule:nonzero;"/><path d="M2063.53,3034.44l669.671,-440.317l10.437,178.379l-669.75,440.267l-10.358,-178.329Z" style="fill:#fff;fill-rule:nonzero;"/><path d="M1705.64,2136.08l-697.529,458.583l1064.26,534.754l697.567,-458.521c8.891,-5.891 13.15,-13.187 12.687,-20.154l-1.662,-28.942l-13.513,10.33l-994.858,-499.938c-8.309,-4.167 -18.671,-6.2 -29.2,-6.2c-13.684,0 -27.65,3.438 -37.75,10.088Z" style="fill:url(#_Linear6);fill-rule:nonzero;"/><path d="M1703.85,2106.31l-697.754,458.604l1064.6,534.833l697.437,-458.591c17.884,-11.713 16.925,-29.05 -2.225,-38.659l-995.1,-500.046c-8.287,-4.154 -18.654,-6.183 -29.191,-6.183c-13.688,0 -27.667,3.421 -37.767,10.042Z" style="fill:url(#_Linear7);fill-rule:nonzero;"/><path d="M1016.36,2743.28l1064.42,534.862l-10.383,-178.387l-1064.3,-534.842c-11.829,0.662 -1.458,179.071 10.262,178.367Z" style="fill:url(#_Linear8);fill-rule:nonzero;"/><path d="M2105.65,3261.83c-16.496,-19.875 -17.58,-163.113 -10.346,-178.359l-24.904,16.284c-1.746,23.433 -5.675,123.67 10.379,178.383l24.871,-16.308Z" style="fill:#29abcd;fill-rule:nonzero;"/><path d="M1679.49,2212.8c15.558,-11.092 42.196,-13.671 59.596,-5.725l903.921,412.488l11.679,-9.655l2.437,25.746c0.584,6.196 -2.841,12.829 -10.641,18.375l-606.742,432.179l-966.958,-441.229l606.708,-432.179Z" style="fill:#5fa7cc;fill-rule:nonzero;"/><path d="M2037.34,3059.84l606.588,-432.258c15.575,-11.063 14.054,-26.459 -3.258,-34.38l-904.176,-412.62c-17.291,-7.888 -44.012,-5.338 -59.47,5.766l-606.667,432.275l966.983,441.217Z" style="fill:#5176b1;fill-rule:nonzero;"/><path d="M2016.24,2869.48l582.404,-415.058l15.25,158.738l-582.541,415.008l-15.113,-158.688Z" style="fill:#fff;fill-rule:nonzero;"/><path d="M1667,2080.36c15.475,-11.075 42.184,-13.63 59.559,-5.725l903.883,412.52l11.675,-9.7l2.479,25.792c0.65,6.221 -2.883,12.813 -10.633,18.383l-606.667,432.271l-966.929,-441.266l606.633,-432.275Z" style="fill:#5fa7cc;fill-rule:nonzero;"/><path d="M2024.63,2927.47l606.716,-432.338c15.605,-11.045 14.163,-26.433 -3.208,-34.375l-904.175,-412.508c-17.308,-7.975 -44.008,-5.433 -59.521,5.671l-606.958,432.267l967.146,441.283Z" style="fill:#5176b1;fill-rule:nonzero;"/><path d="M1057.49,2486.19c-10.442,0.979 4.887,159.762 15.3,158.791l966.958,441.234l-15.113,-158.742l-967.145,-441.283Z" style="fill:#157faf;fill-rule:nonzero;"/><path d="M2061.36,3070.84c-15.317,-17.175 -21.113,-144.895 -15.234,-158.7l-21.487,15.334c-0.779,20.95 -1.071,110.533 15.108,158.737l21.613,-15.371Z" style="fill:#5fa7cc;fill-rule:nonzero;"/><path d="M1987.26,1898l718.158,414.633l22.621,-4.008l-0,28.433c0.033,7.05 -4.563,14.121 -13.929,19.484l-969.659,559.962c-18.683,10.733 -48.837,10.733 -67.437,0l-726.879,-419.75l-0,-29.85l1037.12,-568.904Z" style="fill:#7decff;fill-rule:nonzero;"/><path d="M950.136,2466.91l726.879,419.62c18.6,10.742 48.755,10.742 67.438,0l969.658,-559.854c18.671,-10.771 18.671,-28.216 0,-38.975l-726.85,-419.637l-1037.12,598.846Z" style="fill:#00b7d2;fill-rule:nonzero;"/><path d="M949.618,2303.45l-0,179.692l1037.1,-598.817l0,-179.675l-1037.1,598.8Z" style="fill:#00b7d2;fill-rule:nonzero;"/><path d="M970.398,2299.88l-0,179.629l1037.24,-598.813l0,-179.645l-1037.24,598.829Z" style="fill:#00b7d2;fill-rule:nonzero;"/><path d="M975.545,2511.5c-7.946,-0 -7.917,-223.075 -0,-223.075l-25.929,-14.967c-6.763,0 -6.763,222.996 -0,222.996l25.929,15.046Z" style="fill:#7decff;fill-rule:nonzero;"/><path d="M1706.65,2689.66l-0,179.646l-706.813,-406.883l0,-179.679l706.813,406.916Z" style="fill:#fff;fill-rule:nonzero;"/><path d="M1706.65,2689.66l974.712,-562.72l0,179.675l-974.712,562.691l-0,-179.646Z" style="fill:#fff;fill-rule:nonzero;"/><path d="M949.618,2303.46l726.792,419.571c18.695,10.779 48.883,10.779 67.495,-0l969.684,-559.854c9.346,-5.355 13.908,-12.438 13.908,-19.5l0,-28.455l-22.583,3.971l-718.2,-414.541l-1037.1,598.808Z" style="fill:url(#_Linear9);fill-rule:nonzero;"/><path d="M949.618,2273.45l726.792,419.687c18.695,10.771 48.883,10.771 67.495,0l969.684,-559.925c18.621,-10.742 18.621,-28.183 -0,-38.904l-726.875,-419.654l-1037.1,598.796Z" style="fill:url(#_Linear10);fill-rule:nonzero;"/><path d="M1903.67,1610.44l677.125,390.983l21.329,-3.812l0,26.833c0.042,6.658 -4.321,13.333 -13.125,18.388l-914.296,527.987c-17.566,10.1 -46.016,10.1 -63.579,0l-685.404,-395.792l0,-28.158l977.95,-536.429Z" style="fill:#7decff;fill-rule:nonzero;"/><path d="M925.722,2146.87l685.404,395.675c17.563,10.142 46.009,10.142 63.579,-0l914.296,-527.883c17.571,-10.167 17.571,-26.613 0,-36.755l-685.329,-395.695l-977.95,564.658Z" style="fill:#00b7d2;fill-rule:nonzero;"/><path d="M925.26,1992.76l0,169.429l977.9,-564.625l0,-169.404l-977.9,564.6Z" style="fill:#00b7d2;fill-rule:nonzero;"/><path d="M944.915,1989.37l0,169.375l977.942,-564.613l0,-169.358l-977.942,564.596Z" style="fill:#00b7d2;fill-rule:nonzero;"/><path d="M949.717,2188.94c-7.483,0 -7.442,-210.371 0,-210.371l-24.458,-14.104c-6.446,0 -6.4,210.271 -0,210.271l24.458,14.204Z" style="fill:#7decff;fill-rule:nonzero;"/><path d="M1639.06,2356.91l0,169.375l-666.466,-383.616l-0,-169.438l666.466,383.679Z" style="fill:#fff;fill-rule:nonzero;"/><path d="M1639.06,2356.91l919.054,-530.604l0,169.421l-919.054,530.558l0,-169.375Z" style="fill:#fff9ed;fill-rule:nonzero;"/><path d="M925.26,1992.77l685.345,395.633c17.55,10.134 46.038,10.134 63.563,0l914.329,-527.87c8.788,-5.088 13.108,-11.767 13.108,-18.4l0,-26.855l-21.262,3.763l-677.188,-390.875l-977.895,564.604Z" style="fill:url(#_Linear11);fill-rule:nonzero;"/><path d="M925.26,1964.47l685.345,395.75c17.55,10.133 46.038,10.133 63.563,0l914.329,-527.962c17.558,-10.142 17.558,-26.592 0,-36.684l-685.342,-395.721l-977.895,564.617Z" style="fill:url(#_Linear12);fill-rule:nonzero;"/><path d="M972.994,1899.97l14.666,10.404l920.184,-513.667c17.666,-9.9 46.183,-9.492 63.546,0.904l679.995,377.292l-0.412,28.275l-986.021,550.362l-679.5,-405.525c-8.637,-5.154 -12.892,-11.795 -12.862,-18.383l0.404,-29.662Z" style="fill:#006aa6;fill-rule:nonzero;"/><path d="M986.346,1883.09c-17.666,9.863 -17.908,26.3 -0.504,36.688l679.571,405.554l985.971,-550.425l-679.554,-405.525c-17.421,-10.375 -45.871,-10.817 -63.605,-0.917l-921.879,514.625Z" style="fill:#5176b1;fill-rule:nonzero;"/><path d="M1686.97,2306.87l-687.4,-410.27l2.437,-169.33l687.442,410.25l-2.479,169.35Z" style="fill:#fff;fill-rule:nonzero;"/><path d="M975.46,1730.61l14.637,10.392l920.2,-513.679c17.658,-9.867 46.158,-9.475 63.567,0.916l679.966,377.338l-0.433,28.216l-985.937,550.45l-679.571,-405.583c-8.667,-5.146 -12.904,-11.825 -12.904,-18.387l0.475,-29.663Z" style="fill:#7decff;fill-rule:nonzero;"/><path d="M988.826,1713.73c-17.721,9.9 -17.908,26.316 -0.562,36.704l679.554,405.546l986.012,-550.404l-679.591,-405.571c-17.379,-10.329 -45.834,-10.838 -63.538,-0.9l-921.875,514.625Z" style="fill:#78ebfd;fill-rule:nonzero;"/><path d="M1645.32,2142.55c10.292,60.38 9.934,145.15 -0.046,199.284l984.246,-551.288l2.854,-196.85l-987.054,548.854Z" style="fill:#006aa6;fill-rule:nonzero;"/><path d="M975.46,1730.61l14.637,10.392l920.2,-513.679c17.658,-9.867 46.158,-9.475 63.567,0.916l679.966,377.338l-0.433,28.216l-985.937,550.45l-679.571,-405.583c-8.667,-5.146 -12.904,-11.825 -12.904,-18.387l0.475,-29.663Z" style="fill:#006aa6;fill-rule:nonzero;"/><path d="M988.826,1713.73c-17.721,9.9 -17.908,26.316 -0.562,36.704l679.554,405.546l986.012,-550.404l-679.591,-405.571c-17.379,-10.329 -45.834,-10.838 -63.538,-0.9l-921.875,514.625Z" style="fill:#5fa7cc;fill-rule:nonzero;"/><path d="M1667.82,2156.77c8.833,61.808 6.871,142.225 -2.867,196.779l986.021,-550.367c8.684,-49.204 12.084,-141.812 2.825,-196.862l-985.979,550.45Z" style="fill:#5176b1;fill-rule:nonzero;"/><path d="M1727.61,903.643l0,-870.4l-5.983,5.479l-11.321,-20.654l27.683,-15.7c6.367,-3.713 15.246,-3.175 25.034,2.437l1014.78,586.175c19.454,11.342 35.171,38.654 35.171,61.192l-0,878.429l-1085.36,-626.958Z" style="fill:#5176b1;fill-rule:nonzero;"/><path d="M858.233,1494.8l20.909,6.904l754.275,-435.262l94.196,-162.8l1085.36,626.958c15.242,8.808 -78.908,171.704 -94.179,162.887l-760.796,438.996c-19.542,11.263 -51.121,11.263 -70.654,-0.029l-1014.81,-586.217c-8.655,-5.025 -13.784,-11.5 -14.217,-18.108c-0.533,-8.321 -0.088,-33.329 -0.088,-33.329" style="fill:#5176b1;fill-rule:nonzero;"/><path d="M1611.64,1053.88c15.213,8.837 109.309,-154.017 94.096,-162.779l1085.26,626.912c15.279,8.879 -78.738,171.646 -94.071,162.838l-1085.28,-626.971Z" style="fill:#006aa6;fill-rule:nonzero;"/><path d="M1700.23,919.138l-0,-878.446c-0.109,-22.496 15.887,-31.646 35.383,-20.384l1014.78,586.196c19.508,11.304 35.2,38.675 35.2,61.171l0,878.483l-1085.36,-627.02Z" style="fill:#006aa6;fill-rule:nonzero;"/><path d="M872.827,1515.08c-19.496,-11.233 -19.496,-29.479 0,-40.775l760.95,-439.042l1085.36,627.009l-760.954,439.041c-19.471,11.259 -51.037,11.234 -70.516,-0.016l-1014.84,-586.217Z" style="fill:#006aa6;fill-rule:nonzero;"/><path d="M1734.02,86.614l-120.254,69.421l1013.03,585.191l120.075,-69.4l-1012.85,-585.212Z" style="fill:#eff1f9;fill-rule:nonzero;"/><path d="M928.995,1480.25l0,-138.771l1013.13,584.746l-0,139.204l-1013.13,-585.179Z" style="fill:#dde0f2;fill-rule:nonzero;"/><path d="M1978.08,1184.88l648.721,-443.65l120.075,-69.4l-0,840.696c15.445,8.925 -61.317,141.663 -76.805,132.721l-0.504,0.817l-0.425,-0.3l-727.012,419.666l-0,-139.204l35.95,-741.346Z" style="fill:#e1e4f4;fill-rule:nonzero;"/><path d="M2626.68,1531.37c-34.8,-294.542 -44.963,-493.263 0.116,-790.142l-1013.03,-585.192c-65.863,219.109 -28.842,512.78 -0.104,790.134l1013.02,585.2Z" style="fill:#eaecf7;fill-rule:nonzero;"/><path d="M2626.68,1531.37c-227.038,116.7 -398.48,170.008 -684.559,394.854l-1012.88,-585.129c173.508,-155.375 423.275,-297.767 684.421,-394.925l1013.02,585.2Z" style="fill:#f5f6fb;fill-rule:nonzero;"/><path d="M2626.68,1531.37c-64.238,-197.367 -109.525,-350.771 -126.05,-571.725l-1013.1,-585.1c2.15,220.416 13.358,360.404 126.125,571.625l1013.02,585.2Z" style="fill:#f5f6fb;fill-rule:nonzero;"/><path d="M2090.65,1433.54c189.129,107.575 345.2,213.891 383.975,281.658c0.054,1.046 0.217,2.138 0.229,3.204c-54.083,-27.871 -88.62,-31.362 -88.62,-31.362c-0,-0 17.1,60.212 3.012,95.833c-31.908,-73.829 -233.967,-203.958 -467.9,-328.079l169.304,-21.254Z" style="fill:#5176b1;fill-rule:nonzero;"/><path d="M2626.68,1531.37c-220.609,31.875 -363.455,77.341 -558.221,176.366l-1013.01,-585.116c197.142,-87.121 345.604,-147.688 558.209,-176.45l1013.02,585.2Z" style="fill:#e9ebf7;fill-rule:nonzero;"/><path d="M2626.68,1531.37c-141.534,-131.884 -219.742,-212.134 -284.08,-340.467l-1013.03,-585.242c70.417,139.992 128.908,234.642 284.088,340.509l1013.02,585.2Z" style="fill:#eceef8;fill-rule:nonzero;"/><path d="M2626.68,1531.37c-165.021,-39.446 -301.005,-60 -465.213,-26.917l-1012.99,-585.1c177.346,-11.983 325.088,-13.854 465.184,26.817l1013.02,585.2Z" style="fill:#f5f6fb;fill-rule:nonzero;"/><path d="M0,3390.95l0,1129.97c0,10.855 3.858,18.492 10.058,22.096l26.425,15.438l11.775,-19.354l-7.483,-2.425l726.8,-419.663l0,-1208.5l-733.475,423.433c-18.863,10.834 -34.1,37.296 -34.1,59.009" style="fill:#00a1c6;fill-rule:nonzero;"/><path d="M1682.41,3331.94l-733.509,-423.433l0,604.267l0,-604.267c0,-17.012 -181.325,-17.012 -181.325,0l0,1208.5l181.325,0l727.138,419.909l4.341,20.812c0,0 21.138,-11.687 27.775,-16.183c5.334,-3.546 8.254,-10.888 8.254,-20.629l0,-1129.97c0,-21.713 -15.237,-48.171 -34,-59.009" style="fill:#00a1c6;fill-rule:nonzero;"/><path d="M1656.24,3346.81l-707.338,-408.396l0,-5.625c0,-4.021 -10.242,-7.017 -25.537,-9.137l-0.642,-0.375c-50.146,-6.742 -155.113,-3.417 -155.113,9.512l0,6.175l-707.404,408.404c-18.787,10.825 -34.008,37.254 -34.008,58.959l-0,1129.95c-0,21.72 15.254,30.52 34.008,19.645l733.584,-423.491l-0,-0.379c34.616,-4.605 95.166,-4.596 129.495,0.137l732.921,423.171c18.838,10.833 34.067,2.058 34.067,-19.621l-0,-1130.07c-0,-21.662 -15.229,-48.037 -34.033,-58.858" style="fill:#007cad;fill-rule:nonzero;"/><path d="M933.05,2972.95l0,-0.562l-0.908,-0c0,-17.209 -147.796,-17.209 -147.796,-0l-702.004,405.308l0,1127.98l767.575,-443.117l0,-927.216l16.65,-0l0,927.216l767.575,443.117l0,-1127.98l-701.092,-404.746Z" style="fill:#98e8fd;fill-rule:nonzero;"/><path d="M933.05,2972.39l-0.908,-0c0,-17.209 -147.796,-17.209 -147.796,-0l-702.004,405.304l151.729,87.312l576.15,137.58l681.817,-143.555l142.104,-80.966l0,-0.371l-701.092,-404.742l0,-0.562Z" style="fill:#f0f1f9;fill-rule:nonzero;"/><path d="M858.005,3063.56c-229.125,171.129 -390.108,275.441 -659.766,380.97l-0,1128.04c214.7,-50.696 442,-223.162 659.766,-380.946l0,-1128.07Z" style="fill:#d3d7ee;fill-rule:nonzero;"/><path d="M858.005,3063.56c206.95,133.279 334.084,250.604 659.755,380.97l-0,1128.04c-213.3,-69.979 -452.805,-209.879 -659.755,-380.946l0,-1128.07Z" style="fill:#d3d7ee;fill-rule:nonzero;"/><path d="M858.005,3063.56c-133.779,148.808 -240.025,260.579 -416.504,380.97l0,1128.04c183.075,-108.092 294.525,-184.967 416.504,-380.946l0,-1128.07Z" style="fill:#dfe2f3;fill-rule:nonzero;"/><path d="M858.005,3063.56c132.975,168.87 239.863,266.191 416.471,380.97l0,1128.04c-167.787,-122.646 -289.908,-217.333 -416.471,-380.946l0,-1128.07Z" style="fill:#e8eaf6;fill-rule:nonzero;"/><path d="M858.005,3063.56c-41.841,181.795 -71.129,285.825 -147.275,401.404l0,1127.95c82.855,-126.246 133.675,-220.767 147.275,-401.292l0,-1128.07Z" style="fill:#eceef8;fill-rule:nonzero;"/><path d="M858.005,3063.56c46.634,156.775 95.1,280.241 201.917,401.404l0,1127.95c-95.496,-142.254 -168.325,-264.7 -201.917,-401.292l0,-1128.07Z" style="fill:#dee0f2;fill-rule:nonzero;"/><path d="M82.34,4505.67l115.9,66.896l0,-1128.05l-115.9,-66.829l0,1127.98Z" style="fill:#e1e4f4;fill-rule:nonzero;"/><path d="M1634.14,4505.67l-115.971,66.896l-0,-1128.05l115.971,-66.829l-0,1127.98Z" style="fill:#e1e4f4;fill-rule:nonzero;"/><defs><linearGradient id="_Linear1" x1="0" y1="0" x2="1" y2="0" gradientUnits="userSpaceOnUse" gradientTransform="matrix(2122.59,0,0,2122.59,757.907,3559.99)"><stop offset="0" style="stop-color:#51c8e4;stop-opacity:1"/><stop offset="1" style="stop-color:#007cad;stop-opacity:1"/></linearGradient><linearGradient id="_Linear2" x1="0" y1="0" x2="1" y2="0" gradientUnits="userSpaceOnUse" gradientTransform="matrix(2122.66,0,0,2122.66,757.937,3524.2)"><stop offset="0" style="stop-color:#51c8e4;stop-opacity:1"/><stop offset="1" style="stop-color:#007cad;stop-opacity:1"/></linearGradient><linearGradient id="_Linear3" x1="0" y1="0" x2="1" y2="0" gradientUnits="userSpaceOnUse" gradientTransform="matrix(1768.34,0,0,1768.34,905.705,2884.35)"><stop offset="0" style="stop-color:#6ec0e0;stop-opacity:1"/><stop offset="1" style="stop-color:#0095be;stop-opacity:1"/></linearGradient><linearGradient id="_Linear4" x1="0" y1="0" x2="1" y2="0" gradientUnits="userSpaceOnUse" gradientTransform="matrix(1768.63,0,0,1768.63,905.403,2854.58)"><stop offset="0" style="stop-color:#6ec0e0;stop-opacity:1"/><stop offset="1" style="stop-color:#0095be;stop-opacity:1"/></linearGradient><linearGradient id="_Linear5" x1="0" y1="0" x2="1" y2="0" gradientUnits="userSpaceOnUse" gradientTransform="matrix(1040.41,0,0,1040.41,896.586,3156.65)"><stop offset="0" style="stop-color:#6ec0e0;stop-opacity:1"/><stop offset="1" style="stop-color:#0095be;stop-opacity:1"/></linearGradient><linearGradient id="_Linear6" x1="0" y1="0" x2="1" y2="0" gradientUnits="userSpaceOnUse" gradientTransform="matrix(1774.55,0,0,1774.55,1008.11,2627.7)"><stop offset="0" style="stop-color:#51c8e4;stop-opacity:1"/><stop offset="1" style="stop-color:#007cad;stop-opacity:1"/></linearGradient><linearGradient id="_Linear7" x1="0" y1="0" x2="1" y2="0" gradientUnits="userSpaceOnUse" gradientTransform="matrix(1774.84,0,0,1774.84,1006.09,2598)"><stop offset="0" style="stop-color:#51c8e4;stop-opacity:1"/><stop offset="1" style="stop-color:#007cad;stop-opacity:1"/></linearGradient><linearGradient id="_Linear8" x1="0" y1="0" x2="1" y2="0" gradientUnits="userSpaceOnUse" gradientTransform="matrix(1079.91,0,0,1079.91,1000.87,2921.52)"><stop offset="0" style="stop-color:#51c8e4;stop-opacity:1"/><stop offset="1" style="stop-color:#007cad;stop-opacity:1"/></linearGradient><linearGradient id="_Linear9" x1="0" y1="0" x2="1" y2="0" gradientUnits="userSpaceOnUse" gradientTransform="matrix(1777.88,0,0,1777.88,949.618,2217.89)"><stop offset="0" style="stop-color:#51c8e4;stop-opacity:1"/><stop offset="1" style="stop-color:#007cad;stop-opacity:1"/></linearGradient><linearGradient id="_Linear10" x1="0" y1="0" x2="1" y2="0" gradientUnits="userSpaceOnUse" gradientTransform="matrix(1777.94,0,0,1777.94,949.618,2187.94)"><stop offset="0" style="stop-color:#51c8e4;stop-opacity:1"/><stop offset="1" style="stop-color:#007cad;stop-opacity:1"/></linearGradient><linearGradient id="_Linear11" x1="0" y1="0" x2="1" y2="0" gradientUnits="userSpaceOnUse" gradientTransform="matrix(1676.34,0,0,1676.34,925.261,1912.08)"><stop offset="0" style="stop-color:#5fc3e1;stop-opacity:1"/><stop offset="1" style="stop-color:#0054a0;stop-opacity:1"/></linearGradient><linearGradient id="_Linear12" x1="0" y1="0" x2="1" y2="0" gradientUnits="userSpaceOnUse" gradientTransform="matrix(1676.4,0,0,1676.4,925.261,1883.83)"><stop offset="0" style="stop-color:#5fc3e1;stop-opacity:1"/><stop offset="1" style="stop-color:#0054a0;stop-opacity:1"/></linearGradient></defs></svg>