<svg xmlns="http://www.w3.org/2000/svg" xmlns:xlink="http://www.w3.org/1999/xlink" width="862.123" height="897.863" viewBox="0 0 862.123 897.863"><defs><linearGradient id="a" x1="0.04" y1="0.5" x2="1.095" y2="0.5" gradientUnits="objectBoundingBox"><stop offset="0.056" stop-color="#0094be"/><stop offset="0.233" stop-color="#0091bc"/><stop offset="0.32" stop-color="#028ab6"/><stop offset="0.388" stop-color="#067dad"/><stop offset="0.445" stop-color="#0b6a9f"/><stop offset="0.47" stop-color="#0e6098"/><stop offset="0.482" stop-color="#11649b"/><stop offset="0.496" stop-color="#1c71a6"/><stop offset="0.51" stop-color="#2e87b7"/><stop offset="0.524" stop-color="#48a5cf"/><stop offset="0.53" stop-color="#55b5dc"/><stop offset="0.535" stop-color="#4eadd5"/><stop offset="0.561" stop-color="#328bbb"/><stop offset="0.585" stop-color="#1e73a7"/><stop offset="0.608" stop-color="#12659c"/><stop offset="0.626" stop-color="#0e6098"/><stop offset="0.644" stop-color="#0b689e"/><stop offset="0.707" stop-color="#0580af"/><stop offset="0.765" stop-color="#018eba"/><stop offset="0.813" stop-color="#0094be"/><stop offset="1" stop-color="#0094be"/></linearGradient><linearGradient id="b" x1="0.322" y1="0.682" x2="0.8" y2="0.233" gradientUnits="objectBoundingBox"><stop offset="0" stop-color="#0e6098"/><stop offset="0.302" stop-color="#0482b1"/><stop offset="0.495" stop-color="#0094be"/><stop offset="0.654" stop-color="#016f8f"/><stop offset="1" stop-color="#04161e"/></linearGradient><linearGradient id="c" x1="0.425" y1="0.643" x2="0.553" y2="0.278" gradientUnits="objectBoundingBox"><stop offset="0" stop-color="#fff"/><stop offset="1"/></linearGradient><radialGradient id="d" cx="0.579" cy="0.722" r="1.054" gradientTransform="translate(0.322) scale(0.356 1)" gradientUnits="objectBoundingBox"><stop offset="0" stop-color="#0098c1"/><stop offset="1" stop-color="#105878"/></radialGradient><linearGradient id="e" x1="0.989" y1="0.997" x2="-0.055" y2="-0.065" xlink:href="#b"/><linearGradient id="f" x1="0.046" y1="0.004" x2="1.02" y2="1.066" gradientUnits="objectBoundingBox"><stop offset="0.01" stop-color="#0098c1"/><stop offset="0.429" stop-color="#0094be"/><stop offset="0.904" stop-color="#006695"/></linearGradient><linearGradient id="g" x1="1.19" y1="1.022" x2="0.362" y2="0.063" xlink:href="#a"/><radialGradient id="h" cx="0.973" cy="0.472" r="0.103" gradientTransform="translate(-0.201) scale(1.403 1)" xlink:href="#d"/><linearGradient id="i" x1="-0.356" y1="-0.396" x2="0.734" y2="0.732" xlink:href="#f"/><linearGradient id="j" x1="-0.349" y1="-0.398" x2="0.732" y2="0.733" xlink:href="#f"/><linearGradient id="k" x1="-0.342" y1="-0.4" x2="0.73" y2="0.733" xlink:href="#f"/><linearGradient id="l" x1="-0.334" y1="-0.403" x2="0.728" y2="0.734" xlink:href="#f"/><linearGradient id="m" x1="-0.326" y1="-0.405" x2="0.726" y2="0.734" xlink:href="#f"/><linearGradient id="n" x1="-0.317" y1="-0.408" x2="0.725" y2="0.735" xlink:href="#f"/><linearGradient id="o" x1="-0.308" y1="-0.411" x2="0.724" y2="0.735" xlink:href="#f"/><linearGradient id="p" x1="-0.299" y1="-0.414" x2="0.723" y2="0.735" xlink:href="#f"/><linearGradient id="q" x1="-0.29" y1="-0.417" x2="0.722" y2="0.736" xlink:href="#f"/><linearGradient id="r" x1="-0.281" y1="-0.42" x2="0.721" y2="0.736" xlink:href="#f"/><linearGradient id="s" x1="-0.271" y1="-0.424" x2="0.72" y2="0.736" xlink:href="#f"/><linearGradient id="t" x1="-0.261" y1="-0.427" x2="0.72" y2="0.737" xlink:href="#f"/><linearGradient id="u" x1="0.227" y1="0.884" x2="0.797" y2="0.252" gradientUnits="objectBoundingBox"><stop offset="0.035" stop-color="#87beee"/><stop offset="0.375" stop-color="#d2ebf4"/><stop offset="0.687" stop-color="#a5d1ee"/></linearGradient><linearGradient id="v" x1="1.014" y1="0.984" x2="-0.044" y2="-0.013" gradientUnits="objectBoundingBox"><stop offset="0.035" stop-color="#0098c1"/><stop offset="1" stop-color="#089cc4"/></linearGradient><linearGradient id="w" x1="0.527" y1="0.435" x2="0.391" y2="0.812" gradientUnits="objectBoundingBox"><stop offset="0.005" stop-color="#288bb8"/><stop offset="1" stop-color="#caeef0"/></linearGradient><linearGradient id="x" x1="0.388" y1="0.762" x2="0.604" y2="0.252" gradientUnits="objectBoundingBox"><stop offset="0.005" stop-color="#40a3e3"/><stop offset="0.074" stop-color="#56ade5"/><stop offset="0.275" stop-color="#93c9ee"/><stop offset="0.447" stop-color="#bfddf4"/><stop offset="0.579" stop-color="#daeaf7"/><stop offset="0.657" stop-color="#e5eff9"/></linearGradient><linearGradient id="y" x1="-5.537" y1="16.078" x2="-4.206" y2="16.982" gradientUnits="objectBoundingBox"><stop offset="0" stop-color="#3baacf"/><stop offset="0.254" stop-color="#41a7d3"/><stop offset="0.581" stop-color="#52a0e0"/><stop offset="0.671" stop-color="#61a8e2"/><stop offset="0.846" stop-color="#8abdea"/><stop offset="1" stop-color="#b4d3f2"/></linearGradient><linearGradient id="z" x1="-0.034" y1="-0.211" x2="1.485" y2="1.991" xlink:href="#f"/><linearGradient id="aa" x1="-1.369" y1="-2.427" x2="2.138" y2="3.066" gradientUnits="objectBoundingBox"><stop offset="0.04" stop-color="#035478"/><stop offset="0.119" stop-color="#026388"/><stop offset="0.292" stop-color="#0180a7"/><stop offset="0.438" stop-color="#0091ba"/><stop offset="0.54" stop-color="#0098c1"/><stop offset="0.542" stop-color="#0097c0"/><stop offset="0.72" stop-color="#017299"/><stop offset="0.862" stop-color="#025c80"/><stop offset="0.949" stop-color="#035478"/></linearGradient><linearGradient id="ab" x1="0.137" y1="-0.006" x2="0.947" y2="0.949" xlink:href="#aa"/><linearGradient id="ac" x1="-0.256" y1="-0.445" x2="1.248" y2="1.348" xlink:href="#aa"/><linearGradient id="ad" x1="0" y1="-0.158" x2="1.052" y2="1.087" xlink:href="#aa"/><radialGradient id="ae" cx="0.5" cy="0.5" r="0.5" gradientTransform="translate(21.388 -5.441) rotate(-152.129)" gradientUnits="objectBoundingBox"><stop offset="0.086" stop-color="#fff"/><stop offset="0.097" stop-color="#dbe6eb"/><stop offset="0.117" stop-color="#a2c0cd"/><stop offset="0.137" stop-color="#719fb3"/><stop offset="0.156" stop-color="#4a849e"/><stop offset="0.175" stop-color="#2b6f8d"/><stop offset="0.194" stop-color="#146081"/><stop offset="0.211" stop-color="#07577a"/><stop offset="0.227" stop-color="#035478"/><stop offset="0.278" stop-color="#023d57"/><stop offset="0.333" stop-color="#012a3c"/><stop offset="0.395" stop-color="#001a26"/><stop offset="0.468" stop-color="#000e14"/><stop offset="0.558" stop-color="#000608"/><stop offset="0.681" stop-color="#000101"/><stop offset="1"/></radialGradient></defs><g transform="translate(-86.969 -527.831)"><g opacity="0.2"><path d="M685.453,1320.357c-10.463,0-19.959-2.289-27.46-6.62L467.31,1202.992c-10.013-5.781-15.756-14.93-15.754-25.1,0-11.146,6.915-21.531,18.972-28.49l167.344-64.373c9.469-5.466,21.31-8.476,33.346-8.476,10.463,0,19.959,2.288,27.46,6.619l128.154,75.082c10.013,5.782,15.754,14.929,15.754,25.1,0,11.145-6.915,21.53-18.971,28.491L718.8,1311.88A67.617,67.617,0,0,1,685.453,1320.357Z" opacity="0"/><path d="M470.993,1151.518l167.344-64.373c9.428-5.443,21.3-8.366,33.2-8.246a62.754,62.754,0,0,1,14.475,1.854,53.626,53.626,0,0,1,12.7,5.131l123.668,72.454c.119.068,3.69,2.174,3.779,2.253,9.793,5.872,14.255,15.042,13.719,24.946-.546,10.116-8.179,21.379-19.139,27.708l-102.923,98.228a66.166,66.166,0,0,1-32.544,8.281c-10.2.011-19.5-2.2-26.807-6.424L467.775,1202.586c-9.619-5.554-15.069-14.28-15.021-23.944C452.8,1168.08,459.423,1158.2,470.993,1151.518Z" opacity="0.091"/><path d="M471.458,1153.632,638.8,1089.259c9.388-5.42,21.291-8.256,33.044-8.017a55.476,55.476,0,0,1,26.886,7.351l123,72.062c.237.136,3.565,2.113,3.741,2.271,9.574,5.962,12.761,15.064,11.686,24.794-1,9.063-9.444,21.229-19.308,26.925l-101.03,96.421c-9.025,5.21-20.338,8.063-31.741,8.086-9.941.021-19.036-2.118-26.155-6.228L468.24,1202.179c-9.226-5.326-14.382-13.628-14.288-22.789C454.047,1169.411,460.375,1160.028,471.458,1153.632Z" opacity="0.182"/><path d="M471.923,1155.745l167.344-64.373c9.348-5.4,21.282-8.145,32.893-7.786a60.955,60.955,0,0,1,14.2,2.3,71.187,71.187,0,0,1,12.4,5.416l122.329,71.669c.355.2,3.439,2.052,3.7,2.289,9.354,6.052,11.277,14.992,9.651,24.643-1.347,7.992-10.708,21.078-19.476,26.141l-99.137,94.615c-8.8,5.081-19.852,7.855-30.939,7.89-9.68.031-18.575-2.033-25.5-6.033L468.7,1201.773c-8.832-5.1-13.695-12.978-13.554-21.635C455.293,1170.742,461.326,1161.861,471.923,1155.745Z" opacity="0.273"/><path d="M472.387,1157.859l167.344-64.373c9.309-5.374,21.273-8.035,32.743-7.556a59.959,59.959,0,0,1,14.067,2.524,84.328,84.328,0,0,1,12.244,5.558l121.658,71.276c.474.274,3.315,1.993,3.668,2.307,9.134,6.142,11.891,15.554,7.616,24.492,0,7.092-11.973,20.927-19.644,25.358l-97.244,92.808c-8.581,4.954-19.366,7.648-30.137,7.695-9.418.042-18.113-1.948-24.849-5.838L469.17,1201.366c-8.438-4.872-13.008-12.327-12.821-20.481C456.539,1172.073,462.278,1163.694,472.387,1157.859Z" opacity="0.364"/><path d="M472.852,1159.972,640.2,1095.6c9.269-5.351,21.264-7.924,32.591-7.327a58.968,58.968,0,0,1,13.932,2.749,102.165,102.165,0,0,1,12.093,5.7L819.8,1167.6c.592.342,3.189,1.932,3.63,2.325,8.915,6.232,10.926,15.709,5.582,24.341,0,6.079-13.237,20.776-19.813,24.574l-95.35,91c-8.359,4.826-18.88,7.441-29.334,7.5-9.158.052-17.652-1.863-24.2-5.642L469.635,1200.959c-8.044-4.644-12.321-11.676-12.088-19.326C457.784,1173.405,463.23,1165.526,472.852,1159.972Z" opacity="0.455"/><path d="M473.317,1162.086l167.344-64.373c9.229-5.327,21.254-7.813,32.44-7.1a58.011,58.011,0,0,1,13.8,2.972,128.519,128.519,0,0,1,11.942,5.842l120.318,70.491a40.828,40.828,0,0,1,3.593,2.343c8.7,6.322,9.96,15.865,3.547,24.189,0,5.066-14.5,20.626-19.981,23.791l-93.458,89.195c-8.136,4.7-18.393,7.233-28.531,7.3-8.9.062-17.191-1.779-23.545-5.447L470.1,1200.553c-7.65-4.417-11.634-11.026-11.355-18.172C459.03,1174.736,464.182,1167.359,473.317,1162.086Z" opacity="0.545"/><path d="M473.782,1164.2l167.344-64.372c9.188-5.305,21.245-7.7,32.289-6.866a56.9,56.9,0,0,1,13.66,3.195c1.669.556,10.4,5.184,11.791,5.985l119.647,70.1a34.266,34.266,0,0,1,3.556,2.36c8.476,6.412,9,16.022,1.514,24.039,0,4.052-15.766,20.475-20.15,23.007l-91.565,87.388c-7.914,4.569-17.907,7.026-27.729,7.109-8.635.073-16.729-1.694-22.892-5.252L470.565,1200.146c-7.257-4.19-10.947-10.375-10.621-17.017C460.276,1176.067,465.134,1169.191,473.782,1164.2Z" opacity="0.636"/><path d="M474.247,1166.313l167.344-64.373c9.148-5.281,21.235-7.592,32.138-6.635a55.881,55.881,0,0,1,13.524,3.418c1.246.434,10.6,5.527,11.64,6.127l118.977,69.706a29.544,29.544,0,0,1,3.519,2.378c8.256,6.5,8.029,16.178-.521,23.887,0,3.04-17.03,20.325-20.318,22.224l-89.672,85.581c-7.693,4.441-17.421,6.819-26.927,6.913-8.374.084-16.267-1.608-22.239-5.055L471.03,1199.739c-6.863-3.962-10.26-9.723-9.888-15.863C461.522,1177.4,466.086,1171.024,474.247,1166.313Z" opacity="0.727"/><path d="M474.711,1168.427l167.345-64.373c9.108-5.258,21.225-7.482,31.987-6.406,4.955.505,9.362,2.175,13.388,3.642.826.3,10.795,5.869,11.489,6.27l118.307,69.313a25.855,25.855,0,0,1,3.482,2.4c8.036,6.592,7.063,16.334-2.556,23.736,0,2.026-18.294,20.174-20.486,21.44l-87.779,83.775c-7.471,4.313-16.935,6.611-26.124,6.717-8.113.094-15.807-1.523-21.587-4.86L471.494,1199.333c-6.468-3.735-9.572-9.073-9.154-14.709C462.767,1178.73,467.037,1172.857,474.711,1168.427Z" opacity="0.818"/><path d="M475.176,1170.54l167.345-64.372c9.068-5.235,21.216-7.372,31.836-6.176,4.933.561,9.273,2.352,13.252,3.865.411.157,10.991,6.212,11.338,6.412l117.636,68.92a22.913,22.913,0,0,1,3.445,2.414c7.817,6.683,6.1,16.49-4.59,23.586,0,1.013-19.558,20.023-20.654,20.656L708.9,1307.813c-7.249,4.185-16.449,6.4-25.322,6.522-7.852.1-15.345-1.438-20.934-4.665L471.959,1198.926c-6.074-3.507-8.885-8.422-8.421-13.554C464.013,1180.061,467.989,1174.689,475.176,1170.54Z" opacity="0.909"/><path d="M663.107,1309.263,472.424,1198.519c-11.483-6.629-10.043-18.21,3.217-25.865l167.345-64.373c13.26-7.655,33.318-8.486,44.8-1.856l128.153,75.081c11.483,6.63,10.043,18.211-3.217,25.866L707.908,1307.406C694.648,1315.062,674.59,1315.893,663.107,1309.263Z"/></g><path d="M663.107,1309,472.424,1198.253c-5.116-2.955-7.668-6.892-7.75-11.027,0-.133,0-14.273,0-14.406.092-5.026,3.806,3.7,10.967-.433l167.345-64.372c13.26-7.656,33.318-8.487,44.8-1.857L815.94,1181.24c3.833,2.213,6.614-7.181,7.608-4.195.331,1,.12,14.174.142,15.207.11,5.148-3.609,10.605-10.967,14.853L707.908,1307.14C694.648,1314.8,674.59,1315.627,663.107,1309Z" fill="url(#a)"/><path d="M663.107,1294.858,472.424,1184.114c-11.483-6.63-10.043-18.21,3.217-25.866l167.345-64.372c13.26-7.655,33.318-8.486,44.8-1.857L815.94,1167.1c11.483,6.63,10.043,18.21-3.217,25.866L707.908,1293C694.648,1300.657,674.59,1301.488,663.107,1294.858Z" fill="url(#b)"/><path d="M815.94,1167.1l-128.153-75.082c-11.483-6.629-31.541-5.8-44.8,1.857l-84.309,32.431a21.037,21.037,0,0,0,2.618,1.807l190.682,110.744a32.16,32.16,0,0,0,9.119,3.381l51.628-49.272C825.983,1185.311,827.423,1173.731,815.94,1167.1Z" opacity="0.818" fill="url(#c)" style="mix-blend-mode:multiply;isolation:isolate"/><path d="M812.723,1190.566,707.907,1290.6c-13.259,7.656-33.317,8.487-44.8,1.857L472.424,1181.713c-4.763-2.75-7.269-6.356-7.663-10.177-.6,4.691,1.91,9.256,7.663,12.578l190.683,110.744c11.483,6.63,31.541,5.8,44.8-1.857l104.816-100.034c7.759-4.48,11.438-10.3,10.881-15.689C823.01,1181.95,819.339,1186.746,812.723,1190.566Z" opacity="0.6" fill="url(#d)" style="mix-blend-mode:screen;isolation:isolate"/><path d="M893.454,1283.918l-468.306-270.6C401.206,999.5,381.8,962.414,381.8,930.491V572.333c0-31.923,19.409-46.6,43.351-32.773l468.306,270.6c23.942,13.823,43.352,50.908,43.352,82.831v358.157C936.806,1283.068,917.4,1297.741,893.454,1283.918Z" fill="url(#e)"/><path d="M899.037,1258.983,437.33,992.24c-19.267-12.245-31.184-36.712-31.184-61.75V569.979a7.685,7.685,0,0,1,11.572-6.619c.6.349,1.069.624,1.359.792l462.2,267.084c22.937,13.222,31.184,36.715,31.184,61.752v359.375a8.3,8.3,0,0,1-12.407,7.2Z" fill="url(#f)"/><path d="M881.274,831.236l-462.2-267.084c-.29-.168-.762-.443-1.359-.792a7.686,7.686,0,0,0-11.572,6.619V930.49c0,25.037,11.917,49.505,31.183,61.75l461.708,266.743,1.014.58a8.3,8.3,0,0,0,12.407-7.2V892.988C912.458,867.951,904.211,844.458,881.274,831.236Zm26.314,421.127a3.444,3.444,0,0,1-3.441,3.431,3.372,3.372,0,0,1-1.686-.461l-462.7-267.31c-17.4-11.061-28.751-33.685-28.751-57.534V569.979a2.83,2.83,0,0,1,2.831-2.815,2.778,2.778,0,0,1,1.413.4l463.577,267.89c23.766,13.7,28.752,38.85,28.752,57.536Z" fill="#2da9bb" style="mix-blend-mode:multiply;isolation:isolate"/><path d="M905.741,803.629l-468.306-270.6c-9.473-5.469-18.236-6.478-25.368-3.724-.907.351-12.993,6.773-13.846,7.244a.284.284,0,0,0-.04.026c7.385-3.587,16.755-2.916,26.967,2.98l468.306,270.6c23.943,13.822,43.352,50.907,43.352,82.83v358.158c0,19.922-7.561,33.122-19.065,36.875a7.194,7.194,0,0,0,3.8-1.293c.548-.316,13.667-7.718,14.191-8.084,8.235-5.767,13.362-17.618,13.362-34.026V886.46C949.092,854.536,929.683,817.452,905.741,803.629Z" fill="url(#g)"/><path d="M895.535,809.116l-468.307-270.6c-9.817-5.67-18.842-6.477-26.11-3.337,6.2-.984,13.325.517,20.91,4.9l468.306,270.6c23.942,13.823,43.351,50.907,43.351,82.831v358.156c0,18.832-6.785,31.593-17.24,36.111,13.375-2.122,22.441-15.861,22.441-37.671V891.947C938.886,860.024,919.477,822.939,895.535,809.116Z" opacity="0.6" fill="url(#h)" style="mix-blend-mode:screen;isolation:isolate"/><g opacity="0.3" style="mix-blend-mode:multiply;isolation:isolate"><path d="M768.063,1212.89,462.431,1034.67c-12.674-7.318-22.949-25.04-22.949-39.584v-371.7c0-14.544,10.275-20.4,22.949-13.084L746.189,775.89a43.758,43.758,0,0,1,21.874,37.893Z" opacity="0" fill="url(#i)"/><path d="M439.995,625.815c0-14.423,10.19-20.232,22.759-12.975L743.975,776.907c12.306,7.107,23.129,22.125,23.129,36.335v392.786l-304.35-177.439c-12.569-7.256-22.759-24.831-22.759-39.254Z" opacity="0.091" fill="url(#j)"/><path d="M440.508,628.243c0-14.3,10.1-20.062,22.568-12.867L741.762,777.924c11.075,6.4,24.383,21.988,24.383,34.777v386.465L463.076,1022.509c-12.464-7.2-22.568-24.624-22.568-38.926Z" opacity="0.182" fill="url(#k)"/><path d="M441.021,630.671c0-14.181,10.019-19.893,22.377-12.758l276.15,161.028c9.845,5.685,25.638,21.851,25.638,33.219V1192.3L463.4,1016.428c-12.358-7.135-22.377-24.415-22.377-38.6Z" opacity="0.273" fill="url(#l)"/><path d="M441.535,633.1c0-14.061,9.933-19.724,22.186-12.65L737.335,779.958c8.614,4.974,26.892,21.714,26.892,31.661v373.823L463.721,1010.348c-12.253-7.075-22.186-24.208-22.186-38.268Z" opacity="0.364" fill="url(#m)"/><path d="M442.048,635.528c0-13.94,9.847-19.554,21.995-12.541L735.121,780.974c7.384,4.264,28.148,21.578,28.148,30.1v367.5L464.043,1004.267c-12.148-7.014-21.995-24-21.995-37.939Z" opacity="0.455" fill="url(#n)"/><path d="M442.561,637.956c0-13.819,9.762-19.385,21.8-12.432L732.908,781.991c6.152,3.554,29.4,21.441,29.4,28.546v361.181L464.366,998.187c-12.043-6.953-21.8-23.792-21.8-37.611Z" opacity="0.545" fill="url(#o)"/><path d="M443.074,640.384c0-13.7,9.677-19.215,21.614-12.323L730.694,783.008c4.922,2.843,30.657,21.3,30.657,26.988v354.859L464.688,992.106c-11.937-6.892-21.614-23.583-21.614-37.281Z" opacity="0.636" fill="url(#p)"/><path d="M443.587,642.813c0-13.577,9.591-19.046,21.423-12.215L728.481,784.025c3.691,2.132,31.911,21.167,31.911,25.43v348.538L465.01,986.025c-11.832-6.831-21.423-23.375-21.423-36.952Z" opacity="0.727" fill="url(#q)"/><path d="M444.1,645.241c0-13.456,9.506-18.876,21.233-12.106L726.267,785.042c2.461,1.421,33.166,21.03,33.166,23.872v342.217l-294.1-171.186c-11.727-6.771-21.233-23.167-21.233-36.623Z" opacity="0.818" fill="url(#r)"/><path d="M444.613,647.669c0-13.335,9.421-18.707,21.042-12l258.4,150.387c1.23.71,34.42,20.893,34.42,22.314v335.9L465.655,973.864c-11.621-6.709-21.042-22.959-21.042-36.294Z" opacity="0.909" fill="url(#s)"/><path d="M757.516,1137.407,465.978,967.784c-11.516-6.649-20.852-22.751-20.852-35.966V650.1c0-13.214,9.336-18.537,20.852-11.888L757.516,807.832Z" fill="url(#t)"/></g><path d="M441.668,618.206c0,3.772-.071,331.747-.211,335.389-5.186,135.468-81.112,139.966-140.882,173.1-.1.056,235.174,136.431,284,164.676l-.288-.086c0,10.885,2.884,19.333,7.823,24.87,8.231,9.229,22.171,10.373,37.982,1.245,67.364-37.349,124.812-65.037,129.173-159.825.089-1.922.134-354.114.134-356.038Z" fill="url(#u)"/><path d="M441.668,713.535l317.71,183.323c.013-52.539.019-94.6.019-95.318L441.668,618.206Z" fill="url(#v)"/><path d="M444.131,1060.468q-3.083,5.353-6.423,10.207l67.513,38.588a102.183,102.183,0,0,0,6.466-10.182Z" fill="#55b5dc"/><path d="M404.658,1104.883q-5.52,4.153-11.207,7.782l136.582,78.754q6.033-3.739,11.6-7.558Z" fill="#55b5dc"/><path d="M469.685,1224.132l13.641-6.715L344.5,1137.371l-14.251,6.365Z" fill="#55b5dc"/><path d="M470.52,941.336c-.007,6.3-.015,10.509-.024,13.226l128.069,73.845q0-6.207.008-13.235Z" fill="#55b5dc"/><path d="M470.52,874.9c-.007,6.3-.015,10.509-.024,13.226l78.022,44.857q0-6.207.008-13.235Z" fill="#55b5dc"/><path d="M464.457,1005.014q-1.287,6.18-2.813,11.953l86.874,50.338q.736-6.207,1.072-12.957Z" fill="#55b5dc"/><path d="M470.339,954.471l.007,0C470.344,954.461,470.341,954.461,470.339,954.471Z" fill="#55b5dc"/><path d="M542.743,1291.183l15.163-6.5-.9-.521Z" fill="#fff"/><path d="M592.257,1304.152h0c-.057-10.734-3.7-18.416-9.631-22.312L257.579,1094.421c-7.534-5.219-16.838-6.134-28.352.513l36.025,20.679c.1,9.52,3.845,15.916,9.7,18.376l324.411,187.7-.387-.256C594.513,1318.293,592.257,1312.436,592.257,1304.152Z" fill="url(#w)"/><path d="M580.867,1280.83,257.579,1094.421c-7.534-5.219-16.838-6.134-28.352.513a56.85,56.85,0,0,0-8.223,5.873c-45.6,34.542-68,111.078-105.73,132-.062.034,268.871,155.656,298.887,173.02l-.177-.053c0,6.692,1.773,11.885,4.809,15.289,5.061,5.674,13.631,6.378,23.351.766,42.253-23.427,70.484-122.5,122.014-141.489h0C570.526,1278.306,576.267,1278.538,580.867,1280.83Z" fill="url(#x)"/><path d="M413.984,1405.772a50.938,50.938,0,0,1,3.614-17.894L94.718,1201.495l-4.213-2.358a50.8,50.8,0,0,0-3.536,17.7c0,9.741,5.441,16.417,10.36,19.074l324.412,187.7-.549-.468C416.724,1420.006,413.984,1414.056,413.984,1405.772Z" fill="#bbdeee"/><path d="M580.747,869.578V899.9l119.969,69.09V938.668Z" fill="#fff"/><path d="M700.716,963.8,585.562,897.49V872.358l-4.815-2.78V899.9l119.969,69.09Z" fill="#2b8ec3" opacity="0.7"/><path d="M580.747,847.943v13.669l86.209,49.648V897.591Z" fill="#55b5dc"/><path d="M310.5,1263.542l29.462,16.989c5.149-8.32,10.357-16.924,15.785-25.419l-29.395-16.948C320.979,1246.609,315.728,1255.2,310.5,1263.542Zm18.013-89.621-28.387-16.368a164.007,164.007,0,0,0-18.864,21.621l28.165,16.24A170.79,170.79,0,0,1,328.51,1173.921Zm95.269,54.932a167.6,167.6,0,0,0-18.742,21.691l29.334,16.915a172.368,172.368,0,0,1,19.031-21.526ZM373.1,1299.637l29.243,16.861c5.148-8.314,10.356-16.92,15.78-25.42l-29.171-16.82C383.578,1282.7,378.327,1291.3,373.1,1299.637Zm-123.824-71.4,28.089,16.2c5.148-8.32,10.356-16.924,15.784-25.418l-28.017-16.154C259.754,1211.3,254.5,1219.893,249.272,1228.24Zm141.84-18.223-29.936-17.261a167.661,167.661,0,0,0-18.739,21.693l29.587,17.061A170.88,170.88,0,0,1,391.112,1210.017ZM184.358,1190.81l31.773,18.32c5.147-8.327,10.358-16.931,15.792-25.412l-30.529-17.6C195.627,1174.165,189.91,1182.564,184.358,1190.81Zm83.091-52.1-27.671-15.955c-.039.033-.094.083-.125.109l-.589.5-.617.467c-6.245,4.731-12.808,11.495-19.483,19.422l29.29,16.888A168.09,168.09,0,0,1,267.449,1138.713Z" fill="#fff"/><path d="M188.21,1188.4c4.806-7.139,9.747-14.357,14.727-21.4l-1.543-.889c-5.767,8.05-11.484,16.449-17.036,24.7l31.773,18.32c.7-1.124,1.4-2.282,2.1-3.415Z" fill="#2b8ec3"/><path d="M285.111,1176.767a173.459,173.459,0,0,1,15.917-18.692l-.905-.522a164.007,164.007,0,0,0-18.864,21.621l28.165,16.24c.821-1.08,1.668-2.124,2.5-3.184Z" fill="#2b8ec3"/><path d="M222.815,1140.847a138.573,138.573,0,0,1,17.45-17.809l-.487-.28c-.039.033-.094.083-.125.109l-.589.5-.617.467c-6.245,4.731-12.808,11.495-19.483,19.422l29.29,16.888c.825-1.078,1.676-2.12,2.516-3.177Z" fill="#2b8ec3"/><path d="M253.123,1225.833c4.532-7.232,9.095-14.641,13.724-21.978l-1.719-.991c-5.374,8.432-10.626,17.029-15.856,25.376l28.089,16.2c.7-1.124,1.4-2.283,2.1-3.415Z" fill="#2b8ec3"/><path d="M408.889,1248.138a177.355,177.355,0,0,1,15.819-18.749l-.929-.536a167.6,167.6,0,0,0-18.742,21.691l29.334,16.915c.82-1.081,1.664-2.126,2.5-3.187Z" fill="#2b8ec3"/><path d="M376.948,1297.23c4.533-7.224,9.094-14.633,13.721-21.98l-1.721-.992c-5.37,8.445-10.621,17.042-15.852,25.379l29.243,16.861c.7-1.123,1.4-2.282,2.1-3.414Z" fill="#2b8ec3"/><path d="M346.289,1212.042a177.327,177.327,0,0,1,15.817-18.75l-.93-.536a167.661,167.661,0,0,0-18.739,21.693l29.587,17.061c.821-1.081,1.668-2.125,2.5-3.184Z" fill="#2b8ec3"/><path d="M314.349,1261.135c4.532-7.224,9.094-14.633,13.721-21.979l-1.721-.992c-5.37,8.445-10.621,17.041-15.852,25.378l29.462,16.989c.7-1.124,1.406-2.283,2.1-3.415Z" fill="#2b8ec3"/><path d="M400.106,1202.394c1.216-1.029,2.459-1.991,3.716-2.908l-29.67-17.107a84.951,84.951,0,0,0-9.9,7.532l29.994,17.294C396.162,1205.535,398.1,1203.911,400.106,1202.394Z" fill="#55b5dc"/><path d="M205.027,1161.1l30.249,17.442q3.249-4.939,6.627-9.754l-29.733-17.144Q208.6,1156.229,205.027,1161.1Z" fill="#55b5dc"/><path d="M275.89,1131.62c1.427-1.208,2.889-2.328,4.373-3.378L251.7,1111.773c-1.674,1.39-5.834,5.314-8.847,8.139l27.759,16.006C272.342,1134.431,274.092,1132.983,275.89,1131.62Z" fill="#55b5dc"/><path d="M398.809,1259.265c-2.2,3.21-4.379,6.491-6.532,9.81l29.185,16.827q3.235-4.944,6.6-9.771Z" fill="#55b5dc"/><path d="M462.7,1238.023c1.1-.935,2.237-1.8,3.376-2.643l-29.314-16.9a84.759,84.759,0,0,0-9.9,7.531l29.663,17.1C458.536,1241.341,460.583,1239.623,462.7,1238.023Z" fill="#55b5dc"/><path d="M268.464,1197.684l28.028,16.16q3.24-4.943,6.608-9.765l-28.085-16.194C272.8,1191.09,270.623,1194.367,268.464,1197.684Z" fill="#55b5dc"/><path d="M365.7,1240.174l-29.489-17c-2.2,3.21-4.379,6.492-6.532,9.809l29.413,16.96Q362.331,1244.995,365.7,1240.174Z" fill="#55b5dc"/><path d="M337.516,1166.285c1.212-1.025,2.45-1.983,3.7-2.9l-27.975-16.131a83.191,83.191,0,0,0-10,7.472l28.4,16.378C333.563,1169.433,335.51,1167.806,337.516,1166.285Z" fill="#55b5dc"/><path d="M613.154,978.513l-142.61-83.6c0,13.833-.008,24.776-.013,33.428l142.623,82.237ZM365.444,1128c-.1.049-.7.32-1.656.748l233.856,134.841c8.24-4.574,16.073-8.994,23.434-13.418L388.221,1115.909C380.679,1120.421,373.024,1124.373,365.444,1128ZM625.07,985.5v31.951l69.322,39.972c0-9.426.006-19.8.008-31.282Zm-158.206,6.218,227.465,131.157c.018-8.112.034-18.835.045-32.965L470.017,960.545Q469.114,977.237,466.864,991.717ZM586.036,1162.46l-151.494-87.351a143.661,143.661,0,0,1-17.124,19.076l151.617,87.423A142.927,142.927,0,0,0,586.036,1162.46Zm-5.718,25.653,71.191,41.05a126.207,126.207,0,0,0,18.3-18.4l-72.328-41.7A144.145,144.145,0,0,1,580.318,1188.113Zm32.867-46.538,72.324,41.7a128.2,128.2,0,0,0,6.964-26.954l-71.119-41.007A147.754,147.754,0,0,1,613.185,1141.575Zm-3.663-33.082-149.391-86.139a184.474,184.474,0,0,1-9.474,25.507l150.868,86.991A149.127,149.127,0,0,0,609.522,1108.493Z" fill="#fff"/><g opacity="0.7"><path d="M602.931,1131.183l-150.349-86.692a181.247,181.247,0,0,0,8.29-21.71l-.741-.427a184.474,184.474,0,0,1-9.474,25.507l150.868,86.991C602.016,1133.655,602.467,1132.411,602.931,1131.183Z" fill="#2b8ec3"/><path d="M694.394,1052.942,627,1014.08V986.628L625.07,985.5v31.951l69.322,39.972C694.393,1055.966,694.393,1054.444,694.394,1052.942Z" fill="#2b8ec3"/><path d="M613.154,1006.1l-140.7-81.127c.005-7.689.008-17.2.012-28.928l-1.925-1.129c0,13.833-.008,24.776-.013,33.428l142.623,82.237Z" fill="#2b8ec3"/><path d="M694.338,1118.4,468.789,988.347c1.3-8.391,2.244-17.361,2.872-26.855l-1.644-.947q-.9,16.692-3.153,31.172l227.465,131.157C694.332,1121.472,694.335,1119.961,694.338,1118.4Z" fill="#2b8ec3"/><path d="M653.434,1225.792,583.208,1185.3c-.958.943-1.906,1.9-2.89,2.814l71.191,41.05a126.207,126.207,0,0,0,18.3-18.4l-.623-.359A129.762,129.762,0,0,1,653.434,1225.792Z" fill="#2b8ec3"/><path d="M586.036,1162.46l-.47-.271a144.889,144.889,0,0,1-14.6,16.049l-150.654-86.867c-.96.946-1.915,1.9-2.889,2.814l151.617,87.423A142.927,142.927,0,0,0,586.036,1162.46Z" fill="#2b8ec3"/><path d="M615.111,1138.2a146.214,146.214,0,0,0,7.23-22.32l-.987-.569a147.754,147.754,0,0,1-8.169,26.259l72.324,41.7c.465-1.209.879-2.476,1.31-3.725Z" fill="#2b8ec3"/><path d="M599.569,1260.222,368.051,1126.729c-.869.424-1.74.86-2.607,1.275-.1.049-.7.32-1.656.748l233.856,134.841c8.24-4.574,16.073-8.994,23.434-13.418l-1.909-1.1C612.934,1252.745,606.4,1256.431,599.569,1260.222Z" fill="#2b8ec3"/></g><path d="M666.957,987.991,625.07,963.839V977.08l41.887,24.152Z" fill="#55b5dc"/><path d="M606.677,1155.727c-1.945,3.584-4.036,7.009-6.25,10.3l51.037,29.171a102.087,102.087,0,0,0,6.465-10.181Z" fill="#55b5dc"/><path d="M623.637,1097.289c-.44,4.343-.967,8.578-1.647,12.626l44.245,25.637q.737-6.207,1.072-12.957Z" fill="#55b5dc"/><path d="M265.9,1231.723a2.168,2.168,0,0,1-2.161-2.042l-.962-16.85a2.167,2.167,0,1,1,4.327-.248l.962,16.85a2.168,2.168,0,0,1-2.039,2.288C265.984,1231.723,265.942,1231.723,265.9,1231.723Z" fill="#006493"/><path d="M392.646,1304.3a2.164,2.164,0,0,1-2.163-2.042l-.962-16.85a2.167,2.167,0,0,1,4.327-.249l.8,14.046,32.956-10.689a2.168,2.168,0,1,1,1.337,4.125L393.315,1304.2A2.191,2.191,0,0,1,392.646,1304.3Z" fill="#006493"/><path d="M360.472,1219.714a2.166,2.166,0,0,1-2.155-2.389l1.729-16.791a2.167,2.167,0,0,1,4.311.446l-1.442,13.995,34.237-5.315a2.167,2.167,0,1,1,.665,4.282l-37.012,5.747A2.184,2.184,0,0,1,360.472,1219.714Z" fill="#006493"/><path d="M237.341,1149.3a2.166,2.166,0,0,1-2.155-2.39l1.726-16.79a2.167,2.167,0,0,1,4.311.445l-1.439,13.995,34.235-5.314a2.167,2.167,0,1,1,.665,4.282l-37.01,5.747A2.356,2.356,0,0,1,237.341,1149.3Z" fill="#006493"/><path d="M684.391,1022.891l-6.447,5.892,12.894,7.444Z" fill="#55b5dc"/><path d="M684.391,1045.64l6.447-5.892-12.894-7.444Z" fill="#55b5dc"/><ellipse cx="35.261" cy="61.077" rx="35.261" ry="61.077" transform="matrix(0.863, -0.505, 0.505, 0.863, 454.352, 795.941)" opacity="0.5" fill="url(#y)"/><path d="M531.766,854.188a40.351,40.351,0,0,1-6.574-7.234l-.025-.079-.038,0-.023-.031c-.015.009-.032.014-.048.022h0c.016-.009.033-.013.049-.022q-.948-1.337-1.8-2.748c-1.414-2.351-1.472-5.006-.1-5.8a10.891,10.891,0,0,0,4.4-4.88c1.494.414,2.6-.584,2.828-2.484.324-2.69-.405-4.064-1.639-5.215V817c0-4.858-5.127-16.982-16.7-19.354-11.316-2.321-10.71.062-10.71,12.251-1.233-.274-2.032.763-1.638,3.323a9.815,9.815,0,0,0,2.827,5.749,48.6,48.6,0,0,0,4.395,9.953c1.363,2.358,1.42,4.88.03,5.617a8.654,8.654,0,0,1-1.924.74h0a12.41,12.41,0,0,1-6.66-.345c-3.464-1.047-6.183.458-7.135,3.827,6.011,11.008,14.626,20.738,24.232,26.284,9.255,5.344,17.6,5.758,23.577,2.144A22.707,22.707,0,0,0,531.766,854.188Z" fill="url(#z)"/><path d="M535.03,887.979a31.153,31.153,0,0,1-5.555-.522,1.444,1.444,0,1,1,.52-2.84,28.442,28.442,0,0,0,5.069.474l.389,0a1.523,1.523,0,0,1,1.473,1.415,1.445,1.445,0,0,1-1.416,1.474h-.48Zm8.895-1.684a1.444,1.444,0,0,1-.553-2.779,19.156,19.156,0,0,0,4.61-2.716,1.444,1.444,0,0,1,1.8,2.259,22.009,22.009,0,0,1-5.3,3.126A1.447,1.447,0,0,1,543.925,886.295Zm-22.459-1.34a1.425,1.425,0,0,1-.561-.114,53.926,53.926,0,0,1-5.326-2.618,1.445,1.445,0,0,1,1.41-2.522,51.566,51.566,0,0,0,5.039,2.48,1.443,1.443,0,0,1-.562,2.774Zm-12.429-7.294a1.435,1.435,0,0,1-.869-.29c-1.546-1.164-3.083-2.416-4.564-3.721a1.445,1.445,0,0,1,1.912-2.167c1.425,1.256,2.9,2.46,4.39,3.58a1.444,1.444,0,0,1-.869,2.6Zm45.41-.857a1.444,1.444,0,0,1-1.249-2.167,28.346,28.346,0,0,0,2.242-5,1.446,1.446,0,0,1,2.737.933,31.155,31.155,0,0,1-2.48,5.516A1.439,1.439,0,0,1,554.447,876.8Zm-56.088-8.843a1.443,1.443,0,0,1-1.058-.461q-1.98-2.133-3.859-4.416a1.444,1.444,0,0,1,2.229-1.837q1.824,2.214,3.746,4.287a1.445,1.445,0,0,1-1.058,2.427Zm60.277-4.868a1.439,1.439,0,0,1-1.438-1.6,51.416,51.416,0,0,0,.3-5.606q0-2.334-.189-4.721a1.443,1.443,0,0,1,1.326-1.553,1.459,1.459,0,0,1,1.551,1.328q.2,2.5.2,4.943a54.5,54.5,0,0,1-.316,5.928A1.445,1.445,0,0,1,558.636,863.093Zm-69.287-6.406a1.443,1.443,0,0,1-1.19-.626q-1.656-2.407-3.188-4.915a1.444,1.444,0,1,1,2.465-1.506q1.489,2.438,3.1,4.784a1.444,1.444,0,0,1-1.19,2.263ZM482,844.257a1.441,1.441,0,0,1-1.289-.8q-1.324-2.625-2.488-5.3A1.443,1.443,0,1,1,480.866,837q1.139,2.6,2.42,5.161A1.442,1.442,0,0,1,482,844.257Zm75.542-.338a1.445,1.445,0,0,1-1.413-1.158c-.37-1.823-.813-3.682-1.32-5.524a1.445,1.445,0,0,1,2.787-.767c.524,1.907.981,3.831,1.365,5.718a1.446,1.446,0,0,1-1.128,1.7A1.534,1.534,0,0,1,557.539,843.919Zm-81.1-12.985a1.448,1.448,0,0,1-1.371-.988q-.936-2.809-1.676-5.628a1.444,1.444,0,1,1,2.793-.733q.715,2.723,1.625,5.447a1.447,1.447,0,0,1-.914,1.827A1.431,1.431,0,0,1,476.437,830.934Zm77.065-.873a1.445,1.445,0,0,1-1.351-.934c-.666-1.765-1.394-3.522-2.17-5.263a1.443,1.443,0,1,1,2.635-1.179q1.207,2.691,2.238,5.421a1.446,1.446,0,0,1-1.352,1.955Zm-6.062-13.106a1.447,1.447,0,0,1-1.267-.749q-1.371-2.5-2.883-4.92a1.445,1.445,0,0,1,2.454-1.526q1.545,2.484,2.962,5.056a1.444,1.444,0,0,1-1.266,2.139Zm-74.411-.042a1.441,1.441,0,0,1-1.424-1.231c-.3-1.984-.508-3.957-.627-5.867a1.443,1.443,0,0,1,1.352-1.531,1.428,1.428,0,0,1,1.532,1.351c.115,1.828.315,3.719.6,5.621a1.445,1.445,0,0,1-1.216,1.641A1.554,1.554,0,0,1,473.029,816.913Zm66.611-12.106a1.446,1.446,0,0,1-1.16-.582q-1.708-2.3-3.529-4.47a1.444,1.444,0,1,1,2.212-1.856q1.875,2.235,3.636,4.6a1.446,1.446,0,0,1-1.159,2.308Zm-67.133-2.295c-.045,0-.087,0-.132-.006a1.446,1.446,0,0,1-1.309-1.569,45.892,45.892,0,0,1,.908-5.891,1.446,1.446,0,0,1,2.821.634,42.553,42.553,0,0,0-.852,5.517A1.444,1.444,0,0,1,472.507,802.512Zm57.682-8.617a1.439,1.439,0,0,1-1.015-.416c-1.363-1.346-2.768-2.641-4.176-3.846a1.444,1.444,0,1,1,1.879-2.194c1.459,1.25,2.914,2.589,4.328,3.983a1.446,1.446,0,0,1-1.016,2.473Zm-53.873-5.211a1.417,1.417,0,0,1-.674-.168,1.444,1.444,0,0,1-.6-1.952,26.313,26.313,0,0,1,3.441-5.033,1.445,1.445,0,1,1,2.173,1.9,23.291,23.291,0,0,0-3.058,4.48A1.448,1.448,0,0,1,476.316,788.684Zm42.727-3.948a1.448,1.448,0,0,1-.8-.244q-1.65-1.1-3.343-2.08c-.493-.285-.99-.562-1.483-.828a1.444,1.444,0,1,1,1.371-2.542q.774.417,1.554.866,1.777,1.024,3.509,2.184a1.444,1.444,0,0,1-.8,2.644Zm-32.625-6a1.446,1.446,0,0,1-.615-2.753,23.147,23.147,0,0,1,5.859-1.835,1.458,1.458,0,0,1,1.67,1.177,1.443,1.443,0,0,1-1.173,1.67,20.079,20.079,0,0,0-5.126,1.6A1.455,1.455,0,0,1,486.418,778.735Zm19.73-.4a1.468,1.468,0,0,1-.443-.07,34.764,34.764,0,0,0-5.388-1.284,1.444,1.444,0,0,1,.434-2.855,37.571,37.571,0,0,1,5.84,1.389,1.445,1.445,0,0,1-.443,2.82Z" fill="#3baacf"/><g opacity="0.5" style="mix-blend-mode:color-dodge;isolation:isolate"><path d="M833.825,903.542c0,5.285-3.734,7.413-8.34,4.754s-8.339-9.1-8.339-14.384,3.734-7.414,8.339-4.755S833.825,898.257,833.825,903.542Z" fill="url(#aa)"/><path d="M821.318,819.769c-.461-.266-.908-.454-1.368-.71v9.569c.46.254.907.444,1.368.71,34.49,19.913,62.546,68.3,62.546,107.882,0,.11-.014.207-.014.314l8.339,4.815c0-.107.015-.2.015-.314C892.2,897.187,860.4,842.334,821.318,819.769Z" fill="url(#ab)"/><path d="M821.318,858.047c-.468-.271-.9-.382-1.368-.631v9.569c.463.242.9.361,1.368.631,16.093,9.291,29.188,31.879,29.188,50.345,0,.112-.027.2-.028.306l8.339,4.815c0-.11.029-.194.029-.306C858.846,899.03,842.012,869.994,821.318,858.047Z" fill="url(#ac)"/><path d="M821.318,838.908c-.461-.267-.909-.46-1.368-.711v9.57c.459.248.907.444,1.368.71,25.287,14.6,45.867,50.1,45.867,79.114,0,.109-.014.207-.014.314l8.339,4.815c0-.108.015-.2.015-.315C875.525,898.109,851.207,856.164,821.318,838.908Z" fill="url(#ad)"/></g><circle cx="42.715" cy="42.715" r="42.715" transform="translate(776.327 944.526) rotate(-89.66)" fill="url(#ae)" style="mix-blend-mode:color-dodge;isolation:isolate"/></g></svg>