<svg xmlns="http://www.w3.org/2000/svg" width="210.146" height="210.146" viewBox="0 0 210.146 210.146"><g transform="translate(-379.047 -2486.338)"><path d="M571.185,2532.628a30.451,30.451,0,0,0-46.666-38.21,105.172,105.172,0,1,0,46.666,38.21Zm-29.444-39.24v6.508h6.779v-6.508a23.744,23.744,0,0,1,20.066,20.065h-6.508v6.779h6.508A23.744,23.744,0,0,1,548.52,2540.3v-6.508h-6.779v6.508a23.744,23.744,0,0,1-20.066-20.066h6.508v-6.779h-6.508A23.744,23.744,0,0,1,541.741,2493.388Zm-57.621-.271a97.689,97.689,0,0,1,35.705,6.707,30.487,30.487,0,0,0,46.947,38.488,97.972,97.972,0,0,1-8.084,117.031v-16.48h6.779v-20.336H510.755l-1.044-6.779h21.862a6.787,6.787,0,0,0,6.779-6.779v-47.453a6.786,6.786,0,0,0-6.779-6.778h-67.79a6.785,6.785,0,0,0-6.778,6.778v17.4l-20.337-6.335v-6.115a20.268,20.268,0,0,0,6.779-15.117v-6.779a20.289,20.289,0,0,0-29.082-18.333A97.99,97.99,0,0,1,484.12,2493.117Zm-92.268,132.189H558.688v6.779H394.672C393.659,2629.864,392.7,2627.61,391.852,2625.306Zm38.037-55.635-6.779,6.779-6.779-6.779V2566.5a19.966,19.966,0,0,0,13.558,0Zm-6.779-8.765a13.572,13.572,0,0,1-13.558-13.558v-6.779a13.558,13.558,0,1,1,27.116,0v6.779A13.572,13.572,0,0,1,423.11,2560.906Zm-13.558,1.559v6.169l-22.533,7.511a97.74,97.74,0,0,1,16.476-40.857,20.148,20.148,0,0,0-.722,5.281v6.779A20.277,20.277,0,0,0,409.552,2562.465Zm2.474,12.487,11.084,11.083,11.117-11.117,22.778,7.094v22.957a6.786,6.786,0,0,0,6.778,6.779h3.39v6.779H450.226v-30.505h-6.779v30.505H402.773v-30.505h-6.779v30.505h-6.335a98.022,98.022,0,0,1-3.833-27.116c0-2.64.136-5.25.342-7.84Zm73.619,36.8-1.043,6.779h-10.65v-6.779Zm19.29-31.065a7.343,7.343,0,0,0-14.514,0l-3.735,24.282h-22.9v-47.453h67.79v47.453h-22.9Zm-1.037,37.844H491.462l5.66-36.806a.583.583,0,0,1,1.112,0Zm-96.759,33.894H518.015v-6.779H402.194q-2.191-3.3-4.122-6.779H551.909v6.779H524.794v6.779h27.115v10.067a98.075,98.075,0,0,1-144.77-10.067Z" fill="#00a1c6"/><path d="M555.3,2513.454H548.52v-6.779h-6.779v13.558H555.3Z" fill="#00a1c6"/><rect width="6.779" height="6.779" transform="translate(426.499 2659.2)" fill="#00a1c6"/><rect width="6.779" height="6.779" transform="translate(440.057 2659.2)" fill="#00a1c6"/><rect width="6.779" height="6.779" transform="translate(453.615 2659.2)" fill="#00a1c6"/></g></svg>