<svg xmlns="http://www.w3.org/2000/svg" width="175.73" height="244.495" viewBox="0 0 175.73 244.495"><g transform="translate(-396.255 -1817.391)"><path d="M556.7,1870.874H541.423v-19.1a4.3,4.3,0,0,0-1.119-2.7l-30.562-30.561a4.242,4.242,0,0,0-2.7-1.12h-76.4a3.821,3.821,0,0,0-3.82,3.821v42.022h-19.1a11.473,11.473,0,0,0-11.461,11.461v99.325a19.124,19.124,0,0,0,19.1,19.1h38.2a3.82,3.82,0,1,0,0-7.64h-38.2a11.473,11.473,0,0,1-11.46-11.461v-99.325a3.824,3.824,0,0,1,3.82-3.821h41.6a3.915,3.915,0,0,1,3.253,1.8l16.848,26.97a3.822,3.822,0,0,0,3.241,1.793h80.224a3.82,3.82,0,1,0,0-7.64H541.423v-15.281H556.7a7.65,7.65,0,0,1,7.641,7.64v87.865a11.473,11.473,0,0,1-11.461,11.461h-38.2a3.82,3.82,0,1,0,0,7.64h38.2a19.123,19.123,0,0,0,19.1-19.1v-87.865A15.3,15.3,0,0,0,556.7,1870.874Zm-28.323-22.921H510.862v-17.519Zm-53.6,45.843-15.746-25.205a13.7,13.7,0,0,0-9.713-5.357h-14.86v-38.2h68.763v26.741a3.821,3.821,0,0,0,3.82,3.821h26.742v38.2Zm-32.679-57.3a3.82,3.82,0,0,1,3.82-3.82H487.94a3.82,3.82,0,1,1,0,7.641H445.918A3.82,3.82,0,0,1,442.1,1836.492Zm45.842,19.1H445.918a3.82,3.82,0,0,1,0-7.641H487.94a3.82,3.82,0,1,1,0,7.641Zm34.382,11.46a3.82,3.82,0,0,1-3.82,3.82H472.66a3.82,3.82,0,1,1,0-7.64H518.5A3.82,3.82,0,0,1,522.322,1867.054Zm0,15.281a3.82,3.82,0,0,1-3.82,3.82H480.3a3.82,3.82,0,0,1,0-7.64h38.2A3.82,3.82,0,0,1,522.322,1882.335Zm3.529,136.065a3.819,3.819,0,0,1-.828,4.164l-38.2,38.2a3.818,3.818,0,0,1-5.4,0l0,0-38.2-38.2a3.821,3.821,0,0,1,2.7-6.522h19.1V1974.02a3.82,3.82,0,0,1,7.641,0v45.843a3.821,3.821,0,0,1-3.821,3.82h-13.7l28.979,28.979,28.98-28.979H499.4a3.82,3.82,0,0,1-3.82-3.82V1974.02a3.82,3.82,0,1,1,7.64,0v42.022h19.1A3.82,3.82,0,0,1,525.851,2018.4Zm-30.27-59.661v-19.1a3.82,3.82,0,0,1,7.64,0v19.1a3.82,3.82,0,0,1-7.64,0Zm-11.461,3.82a3.82,3.82,0,0,1-3.82-3.82v-34.382a3.82,3.82,0,1,1,7.64,0v34.382A3.82,3.82,0,0,1,484.12,1962.559Zm-19.1-3.82v-19.1a3.82,3.82,0,0,1,7.641,0v19.1a3.82,3.82,0,0,1-7.641,0Z" fill="#00a1c6"/></g></svg>