<svg xmlns="http://www.w3.org/2000/svg" width="217.265" height="171.305" viewBox="0 0 217.265 171.305"><g transform="translate(-375.488 -2871.037)"><path d="M392.2,2871.037a16.769,16.769,0,0,0-16.712,16.713v100.276a16.769,16.769,0,0,0,16.712,16.713h58.707a41.779,41.779,0,0,0,83.139,0H576.04a16.769,16.769,0,0,0,16.713-16.713V2887.75a16.769,16.769,0,0,0-16.713-16.713Zm0,8.357H576.04a8.247,8.247,0,0,1,8.356,8.356v8.356H383.844v-8.356A8.248,8.248,0,0,1,392.2,2879.394Zm-8.356,25.069H584.4v8.356H383.844Zm0,16.712H584.4v66.851a8.246,8.246,0,0,1-8.356,8.356H534.046a41.779,41.779,0,0,0-83.139,0H392.2a8.247,8.247,0,0,1-8.356-8.356Zm12.11,25.069a4.184,4.184,0,0,0,.425,8.357h45.96a4.179,4.179,0,0,0,.118-8.357H396.379C396.237,2946.237,396.1,2946.237,395.954,2946.244Zm.067,16.713a4.183,4.183,0,1,0,.424,8.356h29.8a4.178,4.178,0,1,0,.118-8.356H396.445A4.235,4.235,0,0,0,396.021,2962.957Zm45.895,0a4.183,4.183,0,0,0,.424,8.356h4.244a4.178,4.178,0,1,0,.118-8.356H442.34A4.235,4.235,0,0,0,441.916,2962.957Zm50.562,4.178a33.426,33.426,0,1,1-33.425,33.426A33.364,33.364,0,0,1,492.478,2967.135Zm15.881,18.541a3.755,3.755,0,0,0-2.6,1.125l-19.847,19.585q-3.367-3.324-6.74-6.643a3.761,3.761,0,1,0-5.522,5.108c.08.086.163.167.25.246l9.368,9.254a3.762,3.762,0,0,0,5.288,0l22.491-22.2a3.761,3.761,0,0,0-2.693-6.479Z" fill="#007cad"/></g></svg>