<svg xmlns="http://www.w3.org/2000/svg" width="188.595" height="177.284" viewBox="0 0 188.595 177.284"><g transform="translate(-389.823 -2166.552)"><path d="M573.494,2333.99H506.969a4.923,4.923,0,1,0,0,9.846h66.525a4.923,4.923,0,1,0,0-9.846Z" fill="#007cad"/><path d="M471.75,2343.836h7.826a4.923,4.923,0,1,0,0-9.846H471.75a4.923,4.923,0,1,0,0,9.846Z" fill="#007cad"/><path d="M568.4,2211.464l-15.888-15.889,11.738-11.737a6.889,6.889,0,0,0,0-9.73l-5.535-5.534a6.863,6.863,0,0,0-9.729,0l-12.312,12.312-.6-.283a16.725,16.725,0,0,0-18.909,3.19l-88.547,88.547a4.931,4.931,0,0,0,0,6.962l21.423,21.423L434.866,2315.9l-21.422-21.423a4.89,4.89,0,0,0-3.469-1.445,5.043,5.043,0,0,0-1.146.134,4.894,4.894,0,0,0-3.54,3.237l-8.3,24.906a4.9,4.9,0,0,0,1.192,5.035l.67.67-7.588,7.587a4.923,4.923,0,0,0,6.963,6.962l7.588-7.588.669.67a4.894,4.894,0,0,0,5.036,1.193l24.9-8.3a4.953,4.953,0,0,0,1.926-1.193L540.73,2223.96a4.923,4.923,0,1,0-6.962-6.962l-51.861,51.861-17.941-17.942,60.162-60.162a6.746,6.746,0,0,1,9.64,0l27.671,27.671a6.728,6.728,0,0,1,0,9.64l-14.247,14.247-12.234,3.5a13.164,13.164,0,0,0-9.024,9.023l-3.493,12.233-5.33,5.33a4.924,4.924,0,0,0,6.963,6.963l44.327-44.328A16.682,16.682,0,0,0,568.4,2211.464Zm-101.757,72.658L457,2293.763l-17.941-17.942,9.64-9.64Z" fill="#007cad"/></g></svg>