<?xml version="1.0" encoding="UTF-8" standalone="no"?><!DOCTYPE svg PUBLIC "-//W3C//DTD SVG 1.1//EN" "http://www.w3.org/Graphics/SVG/1.1/DTD/svg11.dtd"><svg width="100%" height="100%" viewBox="0 0 978 1103" version="1.1" xmlns="http://www.w3.org/2000/svg" xmlns:xlink="http://www.w3.org/1999/xlink" xml:space="preserve" xmlns:serif="http://www.serif.com/" style="fill-rule:evenodd;clip-rule:evenodd;stroke-linejoin:round;stroke-miterlimit:2;"><path d="M809.19,292.883c85.616,85.613 132.758,199.442 132.758,320.513c-0,121.066 -47.142,234.896 -132.758,320.496c-66.642,66.641 -150.363,109.945 -241.288,125.891c-13.833,-162.579 -150.533,-290.637 -316.633,-290.637c-61.525,-0 -119.021,17.575 -167.734,47.975c-31.462,-62.421 -48.112,-131.8 -48.112,-203.725c-0,-121.071 47.142,-234.9 132.758,-320.513c85.6,-85.616 199.429,-132.758 320.496,-132.758c121.071,-0 234.896,47.142 320.513,132.758" style="fill:#b6ecff;fill-rule:nonzero;"/><g opacity="0.1"><path d="M869.83,769.401c-14.712,35.125 -34.158,67.925 -57.925,97.738c4.667,-35.7 4.85,-71.846 0.538,-107.675c-0.671,-5.142 -1.513,-10.384 -2.559,-15.93c17.488,-12.058 35.084,-27.208 52.346,-45.075c13.104,-13.508 25.517,-27.875 37.008,-42.85c-4.316,39.234 -14.179,77.434 -29.408,113.792m30.867,-132.975c-0.575,0.817 -1.15,1.638 -1.763,2.488c-13.362,18.433 -28.179,36.075 -44.054,52.429c-17.692,18.312 -35.692,33.662 -53.504,45.608l-2.829,1.9l0.662,3.346c1.304,6.575 2.317,12.658 3.084,18.542c4.687,38.92 3.925,78.279 -2.263,116.995c-0.317,2.009 -0.637,3.975 -0.954,5.892l-2.967,17.821l11.863,-13.621c29.833,-34.254 53.821,-72.767 71.291,-114.471c17.996,-42.962 28.684,-88.429 31.771,-135.137l1.192,-18.067l-11.529,16.275Z" style="fill:#00a1c6;fill-rule:nonzero;"/></g><g opacity="0.1"><path d="M772.735,455.208c-22.537,-10.087 -45.091,-15.196 -67.141,-15.196c-19.288,0 -38.888,3.825 -58.429,11.392c7.604,-19.546 11.454,-39.092 11.454,-58.262c-0,-22.225 -5.104,-44.892 -15.196,-67.463c36.075,-4.071 72.521,-3.133 108.379,2.804c6.542,1.029 11.471,1.879 15.442,2.659c0.979,5.166 1.891,10.37 2.716,15.529c5.942,35.883 6.871,72.4 2.775,108.537m9.042,8.3c0.125,-0.791 0.254,-1.579 0.392,-2.362c0.246,-1.488 0.496,-2.967 0.696,-4.504l0.012,-0.08c4.229,-37.145 3.279,-74.679 -2.821,-111.533c-1.016,-6.367 -2.171,-12.825 -3.416,-19.2l-0.65,-3.304l-3.292,-0.708c-4.671,-1.009 -10.625,-2.071 -19.267,-3.434c-36.883,-6.104 -74.416,-7.054 -111.637,-2.816c-1.467,0.191 -2.888,0.433 -4.309,0.67c-0.779,0.134 -1.566,0.267 -2.354,0.388l-6.858,1.062l3.046,6.234c11.325,23.225 17.075,46.512 17.075,69.221c-0,21.541 -5.242,43.683 -15.575,65.795l-5.95,12.73l12.741,-5.93c22.092,-10.283 44.292,-15.495 65.984,-15.495c22.512,-0 45.691,5.745 68.887,17.075l6.229,3.045l1.067,-6.854Z" style="fill:#00a1c6;fill-rule:nonzero;"/></g><g opacity="0.1"><path d="M577.398,670.012c-0.421,-0.409 -0.85,-0.8 -1.283,-1.2c-0.292,-0.275 -0.588,-0.546 -0.883,-0.821c-10.509,-11.025 -20.592,-22.763 -30.046,-34.979c13.55,-1.784 27.096,-2.863 40.4,-3.225c5.9,0.145 12.291,0.145 19.533,-0c12.275,0.275 24.275,1.075 35.575,2.358c40.738,5.296 71.938,18.571 92.742,39.471c13.121,13.175 23.333,30.679 30.391,52.075c-19.92,9.883 -39.491,14.887 -58.233,14.887c-37.175,0 -76.85,-19.6 -117.908,-58.25c-3.667,-3.796 -7.038,-7.171 -10.288,-10.316m194.996,60.787l3.742,-1.971l-1.234,-4.041c-7.57,-24.871 -19.087,-45.188 -34.22,-60.388c-22.438,-22.542 -55.634,-36.808 -98.746,-42.404c-11.729,-1.338 -24.075,-2.158 -36.696,-2.438l-0.217,0c-7.191,0.146 -13.508,0.146 -19.316,0l-0.263,0c-16.571,0.442 -33.516,1.98 -50.366,4.563l-8.4,1.292l5.075,6.82c11.204,15.063 23.37,29.5 36.166,42.9l0.159,0.163c0.366,0.35 0.733,0.696 1.104,1.037c0.366,0.338 0.733,0.675 1.1,1.03c3.204,3.091 6.512,6.416 10.133,10.158l0.171,0.167c43.054,40.558 85.108,61.12 125.008,61.12c21.608,0 44.088,-6.058 66.8,-18.008" style="fill:#00a1c6;fill-rule:nonzero;"/></g><g opacity="0.1"><path d="M165.283,352.979c-4.583,35.637 -4.708,71.708 -0.35,107.45c0.667,5.104 1.492,10.287 2.521,15.754c-17.475,12.054 -35.059,27.2 -52.309,45.054c-13.095,13.492 -25.5,27.85 -36.987,42.812c8.525,-77.604 38.375,-149.92 87.125,-211.07m-86.842,227.804c13.363,-18.442 28.179,-36.079 44.05,-52.429c17.684,-18.309 35.675,-33.642 53.471,-45.588l2.829,-1.896l-0.662,-3.341c-1.288,-6.492 -2.284,-12.521 -3.046,-18.384c-4.767,-39.075 -4.038,-78.608 2.162,-117.491c0.28,-1.75 0.555,-3.455 0.834,-5.138l2.941,-17.817l-11.845,13.625c-29.742,34.205 -53.663,72.65 -71.088,114.275c-17.95,42.875 -28.625,88.242 -31.725,134.85l-1.204,18.075l11.562,-16.312c0.559,-0.804 1.125,-1.604 1.721,-2.429" style="fill:#00a1c6;fill-rule:nonzero;"/></g><g opacity="0.1"><path d="M761.175,643.457c-13.812,-13.667 -30.704,-24.9 -50.329,-33.488c20.092,-8.662 37.263,-20.12 51.163,-34.17c15.475,-15.642 27.808,-35.125 36.712,-57.988c11.584,8.842 23.325,19.271 34.95,31.058c14.863,15.355 28.746,31.917 41.254,49.225c3.367,4.68 5.963,8.413 7.984,11.48c-2.129,3.141 -4.875,7.158 -7.979,11.616c-12.517,17.321 -26.396,33.884 -41.246,49.221c-11.696,12 -23.55,22.583 -35.304,31.538c-8.921,-23.217 -21.421,-42.875 -37.205,-58.492m79.846,34.083c15.2,-15.704 29.396,-32.646 42.25,-50.429c4.209,-6.046 7.725,-11.229 10,-14.604l1.859,-2.754l-1.759,-2.817c-2.329,-3.725 -5.55,-8.433 -10.15,-14.825c-12.8,-17.708 -26.996,-34.654 -42.233,-50.387c-13.875,-14.071 -27.904,-26.259 -41.7,-36.23l-5.55,-4.012l-2.267,6.462c-8.525,24.234 -20.883,44.642 -36.733,60.659c-15.538,15.708 -35.554,27.987 -59.492,36.504l-13.408,4.762l13.375,4.859c23.467,8.525 43.242,20.641 58.767,36c16.12,15.946 28.608,36.5 37.112,61.079l2.246,6.496l5.579,-4.017c14.008,-10.1 28.171,-22.458 42.104,-36.746" style="fill:#00a1c6;fill-rule:nonzero;"/></g><g opacity="0.1"><path d="M640.57,587.537c-9.087,1.05 -18.467,1.791 -27.871,2.2c-5.425,-0.209 -10.95,-0.321 -16.537,-0.321c-5.579,-0 -11.225,0.108 -16.892,0.321c-11.517,-0.475 -23.079,-1.459 -34.487,-2.942c8.191,-10.604 16.916,-20.913 26.02,-30.738c0.638,-0.595 1.28,-1.195 1.925,-1.787c1.571,-1.454 3.138,-2.904 4.68,-4.4c4.858,-4.738 9.72,-9.742 14.858,-15.283c39.05,-35.75 77.175,-53.871 113.325,-53.871c18.621,-0 38.171,5.05 58.154,15.021c-7.062,21.612 -17.308,39.204 -30.492,52.325c-21.029,20.937 -52.233,34.22 -92.683,39.475m134.246,-92.905l1.217,-4.033l-3.725,-1.967c-22.792,-12.041 -45.238,-18.145 -66.717,-18.145c-38.838,-0 -79.342,19.075 -120.388,56.7l-0.295,0.295c-5.075,5.475 -9.867,10.405 -14.634,15.055c-1.475,1.433 -2.983,2.829 -4.491,4.225c-0.7,0.645 -1.4,1.291 -2.096,1.95l-0.263,0.254c-11.358,12.258 -22.15,25.254 -32.075,38.637l-5.062,6.817l8.4,1.283c14.596,2.221 29.525,3.659 44.366,4.263l0.205,0.008l0.204,-0.008c11.216,-0.425 22.333,-0.425 33.037,-0l0.213,0.008l0.212,-0.008c9.725,-0.421 19.421,-1.184 28.892,-2.275c42.8,-5.563 75.996,-19.821 98.658,-42.379c15.209,-15.142 26.763,-35.563 34.342,-60.68" style="fill:#00a1c6;fill-rule:nonzero;"/></g><g opacity="0.1"><path d="M770.152,873.059c-1.03,6.538 -1.88,11.471 -2.659,15.442c-5.15,0.979 -10.354,1.887 -15.533,2.716c-35.921,5.95 -72.488,6.88 -108.579,2.767c10.116,-22.567 15.237,-45.154 15.237,-67.233c0,-19.329 -3.837,-38.967 -11.433,-58.542c19.562,7.617 39.121,11.471 58.304,11.471c22.221,-0 44.879,-5.108 67.446,-15.188c4.096,36.134 3.162,72.65 -2.783,108.567m12.216,-114.504c-0.137,-0.783 -0.266,-1.567 -0.391,-2.358l-1.067,-6.842l-6.225,3.033c-23.213,11.325 -46.492,17.063 -69.196,17.063c-21.558,-0 -43.717,-5.246 -65.846,-15.592l-12.75,-5.967l5.95,12.755c10.317,22.125 15.55,44.366 15.55,66.104c0,22.541 -5.758,45.75 -17.125,68.975l-3.046,6.237l6.855,1.067c0.795,0.125 1.583,0.258 2.37,0.387c1.459,0.25 2.967,0.5 4.625,0.717c15.184,1.729 30.43,2.592 45.68,2.592c22.037,-0 44.066,-1.809 65.85,-5.413c6.391,-1.021 12.85,-2.171 19.2,-3.416l3.308,-0.646l0.708,-3.292c1.009,-4.679 2.071,-10.633 3.434,-19.267c6.104,-36.883 7.054,-74.416 2.812,-111.637c-0.204,-1.567 -0.458,-3.063 -0.696,-4.5" style="fill:#00a1c6;fill-rule:nonzero;"/></g><g opacity="0.1"><path d="M811.725,352.527c23.758,29.762 43.212,62.512 57.941,97.579c15.267,36.354 25.171,74.546 29.521,113.788c-11.446,-14.905 -23.808,-29.209 -36.867,-42.671c-17.187,-17.609 -34.641,-32.588 -51.925,-44.55c1.18,-5.967 2.109,-11.492 2.838,-16.809l0.017,-0.133c3.945,-35.696 3.429,-71.708 -1.525,-107.204m-11.988,-10.617c6.521,38.538 7.646,77.779 3.354,116.629c-0.829,6.05 -1.937,12.396 -3.391,19.405l-0.696,3.358l2.846,1.921c17.629,11.879 35.508,27.066 53.141,45.137c15.859,16.346 30.679,33.979 44.029,52.404c0.588,0.813 1.125,1.58 1.667,2.35l11.525,16.263l-1.212,-18.088c-3.125,-46.72 -13.859,-92.187 -31.905,-135.145c-17.516,-41.705 -41.55,-80.205 -71.433,-114.438l-11.862,-13.592l2.966,17.8c0.321,1.938 0.642,3.917 0.971,5.996" style="fill:#00a1c6;fill-rule:nonzero;"/></g><g opacity="0.1"><path d="M165.649,867.367c-23.775,-29.78 -43.237,-62.555 -57.971,-97.65c-15.275,-36.375 -25.175,-74.6 -29.512,-113.871c11.483,14.958 23.883,29.316 36.987,42.821c17.159,17.579 34.584,32.533 51.842,44.491c-1.188,5.984 -2.125,11.534 -2.854,16.871l-0.017,0.133c-3.946,35.692 -3.429,71.709 1.525,107.205m11.988,10.616c-6.517,-38.541 -7.646,-77.783 -3.355,-116.633c0.83,-6.067 1.946,-12.433 3.405,-19.458l0.7,-3.363l-2.846,-1.917c-17.604,-11.875 -35.459,-27.045 -53.054,-45.079c-15.867,-16.346 -30.684,-33.979 -44.034,-52.404c-0.625,-0.862 -1.196,-1.683 -1.775,-2.5l-11.521,-16.275l1.205,18.092c3.108,46.746 13.837,92.246 31.883,135.233c17.521,41.729 41.567,80.254 71.467,114.504l11.858,13.584l-2.963,-17.788c-0.32,-1.937 -0.641,-3.917 -0.97,-5.996" style="fill:#00a1c6;fill-rule:nonzero;"/></g><g opacity="0.1"><path d="M510.886,457.934c5.296,-40.729 18.571,-71.933 39.471,-92.737c13.213,-13.154 30.771,-23.383 52.254,-30.446c9.959,20 15.009,39.658 15.009,58.492c-0,36.2 -18.625,74.821 -55.359,114.779c-5.033,4.762 -9.425,9.092 -13.408,13.212c-1.071,1.1 -2.113,2.23 -3.15,3.355c-0.579,0.62 -1.158,1.25 -1.746,1.87c-10.25,9.6 -21.037,18.784 -32.15,27.38c-1.629,-12.355 -2.679,-24.846 -3.129,-37.255c0.312,-9.391 0.312,-18.991 -0.004,-28.545c0.379,-10.4 1.125,-20.555 2.212,-30.105m-12.441,58.663l0.008,0.175c0.558,15.729 2.062,31.6 4.467,47.167l1.295,8.383l6.809,-5.058c13.896,-10.317 27.371,-21.571 40.046,-33.446l0.225,-0.229c0.645,-0.68 1.279,-1.371 1.916,-2.059c0.988,-1.062 1.971,-2.129 2.992,-3.179c3.912,-4.054 8.242,-8.312 13.217,-13.021l0.25,-0.25c38.604,-41.958 58.175,-82.95 58.175,-121.837c-0,-21.7 -6.1,-44.263 -18.134,-67.059l-1.975,-3.733l-4.037,1.225c-24.95,7.575 -45.329,19.104 -60.563,34.271c-22.537,22.442 -36.8,55.637 -42.404,98.75c-1.129,9.946 -1.9,20.425 -2.283,31.154l-0.009,0.175l0.009,0.175c0.312,9.446 0.312,18.942 0.004,28.217l-0.008,0.179Z" style="fill:#00a1c6;fill-rule:nonzero;"/></g><g opacity="0.1"><path d="M801.959,923.218c-83.679,83.679 -194.933,129.766 -313.271,129.766c-118.337,0 -229.595,-46.087 -313.275,-129.766c-83.679,-83.679 -129.762,-194.934 -129.762,-313.275c-0,-118.338 46.083,-229.592 129.762,-313.271c83.68,-83.675 194.938,-129.763 313.275,-129.763c118.338,0 229.592,46.088 313.271,129.763c83.679,83.679 129.767,194.933 129.767,313.271c-0,118.341 -46.088,229.596 -129.767,313.275m104.371,-489.7c-22.833,-53.975 -55.512,-102.45 -97.137,-144.075c-41.625,-41.629 -90.1,-74.309 -144.075,-97.138c-55.884,-23.637 -115.242,-35.625 -176.43,-35.625c-61.187,0 -120.55,11.988 -176.433,35.625c-53.975,22.829 -102.446,55.509 -144.071,97.138c-41.625,41.625 -74.308,90.1 -97.137,144.075c-23.638,55.883 -35.621,115.241 -35.621,176.425c-0,61.191 11.983,120.55 35.621,176.433c22.829,53.975 55.512,102.45 97.137,144.075c41.625,41.629 90.096,74.304 144.071,97.138c55.883,23.637 115.246,35.62 176.433,35.62c61.188,0 120.546,-11.983 176.43,-35.62c53.975,-22.834 102.45,-55.509 144.075,-97.138c41.625,-41.625 74.304,-90.1 97.137,-144.075c23.638,-55.883 35.621,-115.242 35.621,-176.433c-0,-61.184 -11.983,-120.542 -35.621,-176.425" style="fill:#00a1c6;fill-rule:nonzero;"/></g><g opacity="0.1"><path d="M511.835,666.04c11.133,8.6 21.945,17.796 32.225,27.404c0.57,0.608 1.133,1.213 1.695,1.821c0.992,1.071 1.984,2.142 3.009,3.2c4.125,4.225 8.629,8.625 13.771,13.442c36.75,39.625 55.383,78.295 55.383,114.945c-0,18.621 -5.05,38.171 -15.021,58.155c-21.617,-7.067 -39.204,-17.313 -52.325,-30.496c-20.937,-21.025 -34.221,-52.238 -39.475,-92.684c-0.992,-8.575 -1.708,-17.404 -2.129,-26.241c0.483,-11.584 0.475,-23.679 -0.033,-35.963c0.487,-11.216 1.458,-22.471 2.9,-33.583m-13.109,69.575l0.009,0.229c0.437,9.142 1.179,18.279 2.212,27.229c5.558,42.804 19.817,75.996 42.375,98.654c15.142,15.213 35.558,26.767 60.679,34.346l4.034,1.217l1.966,-3.725c12.038,-22.788 18.146,-45.233 18.146,-66.713c0,-39.358 -19.596,-80.412 -58.237,-122.033l-0.255,-0.258c-5.083,-4.754 -9.52,-9.092 -13.562,-13.229c-0.958,-0.988 -1.896,-2 -2.833,-3.009c-0.617,-0.671 -1.238,-1.346 -1.867,-2.012l-0.229,-0.221c-12.704,-11.896 -26.213,-23.158 -40.129,-33.488l-6.825,-5.054l-1.28,8.396c-2.179,14.292 -3.6,28.917 -4.225,43.454l-0.008,0.217l0.008,0.217c0.509,12.15 0.521,24.112 0.03,35.554l-0.009,0.229Z" style="fill:#00a1c6;fill-rule:nonzero;"/></g><g opacity="0.1"><path d="M336.804,632.353c9.075,-1.046 18.454,-1.788 27.884,-2.2c10.85,0.429 22.091,0.429 33.412,-0c11.517,0.475 23.079,1.462 34.492,2.941c-8.192,10.605 -16.917,20.917 -26.017,30.742c-0.646,0.6 -1.296,1.204 -1.942,1.8c-1.566,1.446 -3.129,2.896 -4.666,4.388c-4.859,4.741 -9.721,9.741 -14.859,15.283c-39.05,35.746 -77.175,53.871 -113.325,53.871c-18.625,-0 -38.17,-5.05 -58.154,-15.021c7.063,-21.613 17.309,-39.204 30.492,-52.325c21.029,-20.938 52.233,-34.221 92.683,-39.479m-134.241,92.908l-1.217,4.033l3.721,1.963c22.791,12.042 45.237,18.15 66.716,18.15c38.838,-0 79.342,-19.079 120.392,-56.704l0.292,-0.292c5.075,-5.475 9.862,-10.404 14.633,-15.058c1.471,-1.425 2.975,-2.817 4.475,-4.209c0.708,-0.65 1.413,-1.3 2.117,-1.962l0.258,-0.258c11.363,-12.255 22.154,-25.25 32.075,-38.634l5.063,-6.821l-8.396,-1.279c-14.6,-2.225 -29.529,-3.658 -44.375,-4.262l-0.204,-0.009l-0.2,0.009c-11.2,0.425 -22.313,0.429 -33.034,-0.004l-0.212,-0.009l-0.213,0.013c-9.741,0.416 -19.441,1.183 -28.896,2.271c-42.8,5.562 -75.995,19.82 -98.654,42.379c-15.212,15.146 -26.766,35.566 -34.341,60.683" style="fill:#00a1c6;fill-rule:nonzero;"/></g><g opacity="0.1"><path d="M468.479,519.356c-0.475,11.508 -1.458,23.063 -2.937,34.463c-10.817,-8.371 -21.329,-17.3 -31.338,-26.617c-0.616,-0.658 -1.225,-1.321 -1.837,-1.983c-1.238,-1.338 -2.475,-2.671 -3.754,-3.992c-4.359,-4.467 -9.063,-9.05 -14.371,-14c-36.154,-39.288 -54.488,-77.638 -54.488,-113.988c0,-18.654 5.067,-38.225 15.063,-58.245c21.454,7.058 38.933,17.27 51.987,30.387c20.934,21.029 34.221,52.233 39.475,92.679c1.05,9.084 1.788,18.467 2.2,27.884c-0.429,10.845 -0.429,22.083 0,33.412m10.238,-33.429l-0.009,-0.213c-0.42,-9.733 -1.187,-19.433 -2.279,-28.9c-5.558,-42.8 -19.816,-75.991 -42.379,-98.654c-15.071,-15.137 -35.367,-26.658 -60.321,-34.233l-4.033,-1.229l-1.971,3.729c-12.075,22.821 -18.196,45.3 -18.196,66.812c0,39.046 19.288,79.775 57.321,121.059l0.275,0.279c5.25,4.887 9.879,9.4 14.154,13.783c1.217,1.25 2.4,2.529 3.579,3.809c0.667,0.716 1.334,1.437 2.005,2.154l0.241,0.237c12.438,11.596 25.638,22.592 39.238,32.7l6.825,5.071l1.279,-8.408c2.225,-14.588 3.658,-29.513 4.262,-44.35l0.009,-0.2l-0.009,-0.204c-0.429,-11.205 -0.429,-22.317 0,-33.03l0.009,-0.212Z" style="fill:#00a1c6;fill-rule:nonzero;"/></g><g opacity="0.1"><path d="M489.058,1004.17c-4.166,-2.83 -7.925,-5.413 -11.616,-7.98c-17.313,-12.512 -33.879,-26.395 -49.221,-41.241c-11.854,-11.563 -22.317,-23.25 -31.175,-34.821c23.112,-8.917 42.679,-21.375 58.233,-37.092c13.713,-13.866 24.975,-30.821 33.575,-50.521c8.638,19.93 20.038,36.959 33.979,50.755c15.642,15.475 35.13,27.804 57.992,36.712c-8.842,11.583 -19.271,23.325 -31.058,34.954c-15.359,14.863 -31.921,28.742 -49.229,41.25c-4.68,3.367 -8.409,5.963 -11.48,7.984m67.855,-41.921c14.07,-13.875 26.254,-27.904 36.229,-41.696l4.012,-5.546l-6.462,-2.275c-24.238,-8.529 -44.65,-20.887 -60.663,-36.733c-15.604,-15.434 -27.825,-35.309 -36.337,-59.071l-4.792,-13.367l-4.833,13.346c-8.525,23.533 -20.659,43.363 -36.063,58.929c-15.887,16.059 -36.354,28.513 -60.837,37.021l-6.496,2.258l4.037,5.571c10,13.809 22.238,27.804 36.388,41.596c15.704,15.204 32.646,29.4 50.429,42.25c4.608,3.208 9.246,6.388 14.6,10l2.754,1.863l2.817,-1.763c3.729,-2.333 8.437,-5.554 14.825,-10.15c17.708,-12.8 34.65,-26.996 50.392,-42.233" style="fill:#00a1c6;fill-rule:nonzero;"/></g><g opacity="0.1"><path d="M178.656,702.079c-11.592,-8.842 -23.329,-19.271 -34.954,-31.058c-14.863,-15.354 -28.742,-31.913 -41.25,-49.225c-3.371,-4.684 -5.967,-8.409 -7.988,-11.475c2.134,-3.142 4.875,-7.163 7.979,-11.625c12.517,-17.313 26.4,-33.875 41.246,-49.213c11.704,-12.004 23.554,-22.587 35.309,-31.541c8.92,23.225 21.416,42.875 37.204,58.495c13.816,13.667 30.704,24.896 50.329,33.488c-20.096,8.658 -37.267,20.117 -51.163,34.167c-15.479,15.645 -27.808,35.129 -36.712,57.987m103.475,-87.292l13.408,-4.77l-13.379,-4.859c-23.462,-8.521 -43.237,-20.629 -58.767,-35.991c-16.116,-15.95 -28.6,-36.5 -37.108,-61.084l-2.246,-6.491l-5.579,4.016c-14.004,10.096 -28.171,22.45 -42.104,36.746c-15.2,15.704 -29.4,32.642 -42.25,50.429c-4.213,6.046 -7.725,11.229 -10.004,14.6l-1.859,2.759l1.763,2.812c2.329,3.725 5.55,8.433 10.15,14.825c12.8,17.713 26.996,34.654 42.229,50.392c13.871,14.062 27.9,26.25 41.7,36.225l5.546,4.012l2.275,-6.458c8.525,-24.233 20.883,-44.646 36.733,-60.663c15.538,-15.708 35.554,-27.987 59.492,-36.5" style="fill:#00a1c6;fill-rule:nonzero;"/></g><g opacity="0.1"><path d="M745.896,286.731c-35.7,-4.667 -71.858,-4.854 -107.691,-0.542c-5.1,0.667 -10.284,1.496 -15.759,2.525c-12.05,-17.479 -27.191,-35.058 -45.046,-52.308c-13.504,-13.104 -27.862,-25.504 -42.82,-36.988c77.712,8.538 150.12,38.454 211.316,87.313m-228.037,-87.029c18.433,13.358 36.071,28.179 52.425,44.05c18.3,17.683 33.637,35.67 45.583,53.466l1.896,2.825l3.342,-0.658c6.495,-1.283 12.525,-2.283 18.375,-3.046c38.92,-4.683 78.283,-3.925 116.995,2.267c2.009,0.316 3.971,0.633 5.892,0.954l17.829,2.971l-13.629,-11.875c-34.225,-29.809 -72.7,-53.779 -114.371,-71.242c-42.921,-17.996 -88.346,-28.692 -135.016,-31.796l-18.084,-1.2l16.279,11.525c0.813,0.571 1.625,1.142 2.484,1.759" style="fill:#00a1c6;fill-rule:nonzero;"/></g><g opacity="0.1"><path d="M442.639,199.439c-14.904,11.45 -29.213,23.812 -42.671,36.875c-17.592,17.166 -32.554,34.6 -44.513,51.87c-5.85,-1.15 -11.304,-2.066 -16.658,-2.8c-16.471,-1.9 -33.012,-2.85 -49.546,-2.85c-19.146,0 -38.283,1.275 -57.291,3.813c61.05,-48.592 133.241,-78.371 210.679,-86.908m-222.138,98.966l0.029,-0.008c38.713,-6.392 78.109,-7.35 116.988,-2.867c6.025,0.829 12.308,1.917 19.212,3.342l3.359,0.692l1.912,-2.838c11.884,-17.617 27.059,-35.479 45.1,-53.083c16.342,-15.859 33.979,-30.679 52.404,-44.029c0.821,-0.592 1.596,-1.134 2.371,-1.68l16.254,-11.512l-18.1,1.208c-46.55,3.117 -91.866,13.788 -134.687,31.713c-41.575,17.408 -79.983,41.291 -114.154,70.987l-13.646,11.854l17.833,-2.95c1.679,-0.275 3.379,-0.554 5.125,-0.829" style="fill:#00a1c6;fill-rule:nonzero;"/></g><g opacity="0.1"><path d="M231.575,933.236c35.675,4.837 71.825,5.204 107.692,1.062c5.154,-0.671 10.433,-1.516 16.046,-2.579c12,17.317 27.017,34.721 44.667,51.771c13.491,13.096 27.854,25.5 42.812,36.983c-77.667,-8.529 -150.042,-38.425 -211.217,-87.237m227.942,86.95c-18.442,-13.363 -36.075,-28.179 -52.425,-44.046c-18.096,-17.479 -33.308,-35.292 -45.217,-52.942l-1.904,-2.821l-3.333,0.663c-6.646,1.325 -12.758,2.346 -18.617,3.104c-38.983,4.5 -78.379,3.542 -117.125,-2.854c-2.004,-0.317 -3.971,-0.642 -5.887,-0.958l-17.834,-2.975l13.634,11.875c34.221,29.808 72.7,53.779 114.371,71.25c42.92,17.987 88.345,28.683 135.012,31.791l18.079,1.204l-16.291,-11.541c-0.805,-0.571 -1.613,-1.134 -2.463,-1.75" style="fill:#00a1c6;fill-rule:nonzero;"/></g><g opacity="0.1"><path d="M399.975,549.776c0.284,0.275 0.575,0.546 0.867,0.817c0.188,0.171 0.375,0.341 0.558,0.516c10.759,11.23 21.088,23.234 30.792,35.767c-13.542,1.783 -27.096,2.871 -40.404,3.233c-2.963,-0.075 -6.046,-0.112 -9.292,-0.112c-3.237,-0 -6.637,0.037 -10.246,0.112c-12.258,-0.279 -24.245,-1.075 -35.62,-2.37c-40.709,-5.292 -71.896,-18.571 -92.692,-39.459c-13.117,-13.175 -23.329,-30.683 -30.392,-52.079c19.921,-9.879 39.492,-14.892 58.238,-14.892c37.416,0 77.341,19.838 118.662,58.959c3.267,3.358 6.388,6.471 9.529,9.508m-194.991,-60.683l-3.746,1.966l1.233,4.05c7.575,24.871 19.088,45.188 34.221,60.384c22.438,22.541 55.638,36.804 98.667,42.396l0.079,0.008c11.729,1.337 24.075,2.154 36.696,2.437l0.108,0.005l0.108,-0.005c7.171,-0.145 13.488,-0.145 19.313,0.005l0.267,-0c16.583,-0.45 33.529,-1.988 50.366,-4.571l8.4,-1.288l-5.071,-6.816c-11.462,-15.409 -23.883,-30.113 -36.912,-43.705l-0.142,-0.145c-0.262,-0.25 -0.529,-0.5 -0.796,-0.742c-0.225,-0.208 -0.45,-0.417 -0.683,-0.642c-3.1,-2.991 -6.167,-6.054 -9.383,-9.366l-0.15,-0.15c-43.313,-41.03 -85.629,-61.83 -125.775,-61.83c-21.613,0 -44.088,6.059 -66.8,18.009" style="fill:#00a1c6;fill-rule:nonzero;"/></g><g opacity="0.1"><path d="M207.222,346.834c1.033,-6.537 1.879,-11.47 2.658,-15.445c5.159,-0.975 10.367,-1.888 15.534,-2.713c35.904,-5.942 72.45,-6.875 108.537,-2.775c-10.087,22.533 -15.196,45.092 -15.196,67.142c0,19.287 3.825,38.887 11.388,58.425c-19.538,-7.609 -39.088,-11.459 -58.258,-11.459c-22.225,0 -44.892,5.113 -67.467,15.2c-4.071,-36.07 -3.129,-72.52 2.804,-108.375m-12.242,114.321c0.134,0.779 0.263,1.563 0.388,2.35l1.062,6.854l6.234,-3.041c23.221,-11.334 46.512,-17.079 69.221,-17.079c21.541,-0 43.679,5.241 65.795,15.579l12.734,5.946l-5.934,-12.742c-10.283,-22.088 -15.5,-44.283 -15.5,-65.979c0,-22.517 5.75,-45.696 17.08,-68.888l3.045,-6.229l-6.854,-1.067c-0.796,-0.129 -1.583,-0.262 -2.371,-0.391c-1.441,-0.246 -2.933,-0.496 -4.579,-0.709c-37.146,-4.233 -74.679,-3.283 -111.529,2.821c-6.379,1.021 -12.833,2.167 -19.2,3.417l-3.304,0.646l-0.713,3.291c-1.008,4.68 -2.066,10.634 -3.429,19.267c-6.108,36.883 -7.058,74.417 -2.816,111.638c0.191,1.47 0.429,2.895 0.67,4.316" style="fill:#00a1c6;fill-rule:nonzero;"/></g><g opacity="0.1"><path d="M204.645,764.636c22.57,10.121 45.158,15.242 67.237,15.242c19.246,-0 38.808,-3.813 58.313,-11.346c-7.596,19.529 -11.442,39.062 -11.442,58.217c-0,22.225 5.108,44.891 15.2,67.466c-36.079,4.071 -72.521,3.129 -108.379,-2.804c-6.538,-1.033 -11.471,-1.879 -15.442,-2.658c-0.979,-5.163 -1.892,-10.367 -2.717,-15.529c-5.941,-35.905 -6.875,-72.434 -2.77,-108.588m-3.905,129.425l0.646,3.304l3.292,0.709c4.671,1.012 10.625,2.066 19.262,3.433c21.8,3.608 43.821,5.417 65.875,5.417c15.263,-0 30.542,-0.867 45.767,-2.605c1.475,-0.187 2.904,-0.429 4.329,-0.67c0.775,-0.13 1.55,-0.259 2.338,-0.384l6.85,-1.062l-3.042,-6.229c-11.329,-23.23 -17.075,-46.521 -17.075,-69.225c0,-21.525 5.233,-43.642 15.55,-65.742l5.938,-12.717l-12.73,5.917c-22.05,10.246 -44.208,15.446 -65.858,15.446c-22.542,-0 -45.75,-5.763 -68.975,-17.125l-6.233,-3.05l-1.067,6.854c-0.125,0.796 -0.258,1.583 -0.392,2.371c-0.245,1.458 -0.5,2.966 -0.704,4.55l-0.012,0.079c-4.229,37.142 -3.279,74.675 2.821,111.529c1.02,6.371 2.17,12.829 3.42,19.2" style="fill:#00a1c6;fill-rule:nonzero;"/></g><g opacity="0.1"><path d="M488.615,215.926c4.158,2.817 7.916,5.4 11.616,7.975c17.317,12.517 33.875,26.396 49.221,41.246c11.921,11.629 22.446,23.396 31.35,35.058c-23.262,8.921 -42.954,21.438 -58.604,37.254c-13.583,13.734 -24.767,30.513 -33.342,50.009c-8.646,-19.967 -20.054,-37.029 -34.016,-50.842c-15.617,-15.446 -35.063,-27.762 -57.88,-36.667c8.813,-11.529 19.209,-23.216 30.95,-34.8c15.355,-14.858 31.917,-28.741 49.225,-41.25c4.688,-3.375 8.417,-5.97 11.48,-7.983m-67.855,41.921c-14.02,13.825 -26.17,27.8 -36.116,41.533l-4.017,5.546l6.458,2.279c24.196,8.525 44.571,20.871 60.559,36.692c15.612,15.442 27.841,35.329 36.358,59.112l4.763,13.313l4.854,-13.279c8.521,-23.313 20.579,-42.954 35.85,-58.388c15.979,-16.15 36.575,-28.654 61.204,-37.158l6.508,-2.25l-4.033,-5.579c-10.054,-13.913 -22.35,-27.992 -36.571,-41.854c-15.704,-15.205 -32.646,-29.4 -50.429,-42.255c-4.625,-3.22 -9.263,-6.4 -14.6,-10l-2.754,-1.858l-2.817,1.758c-3.712,2.325 -8.421,5.546 -14.825,10.155c-17.712,12.8 -34.654,26.995 -50.392,42.233" style="fill:#00a1c6;fill-rule:nonzero;"/></g><g opacity="0.1"><path d="M648.46,990.954c-36.375,15.275 -74.6,25.175 -113.871,29.513c14.958,-11.483 29.316,-23.883 42.816,-36.988c17.584,-17.154 32.538,-34.579 44.496,-51.837c5.992,1.183 11.542,2.121 16.871,2.85l0.129,0.017c35.684,3.945 71.688,3.429 107.209,-1.525c-29.784,23.775 -62.555,43.237 -97.65,57.97m108.316,-69.966l-0.054,0.008c-38.542,6.517 -77.783,7.65 -116.633,3.354c-6.054,-0.833 -12.417,-1.941 -19.459,-3.404l-3.358,-0.696l-1.917,2.846c-11.879,17.6 -27.05,35.458 -45.083,53.05c-16.342,15.863 -33.979,30.683 -52.404,44.038c-0.863,0.616 -1.675,1.191 -2.492,1.762l-16.283,11.529l18.087,-1.204c46.75,-3.108 92.255,-13.837 135.238,-31.883c41.733,-17.521 80.258,-41.567 114.508,-71.467l13.579,-11.858l-17.783,2.962c-1.937,0.321 -3.921,0.642 -5.946,0.963" style="fill:#00a1c6;fill-rule:nonzero;"/></g><g opacity="0.1"><path d="M468.848,726.384c-0.275,12.266 -1.071,24.262 -2.359,35.57c-5.291,40.734 -18.571,71.938 -39.471,92.742c-13.175,13.117 -30.679,23.329 -52.075,30.392c-9.883,-19.921 -14.887,-39.496 -14.887,-58.238c-0,-37.175 19.6,-76.846 58.254,-117.908c3.796,-3.671 7.175,-7.038 10.308,-10.283c0.417,-0.43 0.821,-0.863 1.221,-1.3c0.267,-0.292 0.538,-0.58 0.809,-0.867c11.025,-10.513 22.758,-20.596 34.975,-30.05c1.779,13.55 2.866,27.104 3.225,40.408c-0.146,5.904 -0.146,12.296 -0,19.534m10.233,-19.546l-0.004,-0.138c-0.442,-16.566 -1.984,-33.516 -4.567,-50.366l-1.287,-8.396l-6.821,5.075c-15.059,11.2 -29.496,23.371 -42.904,36.158l-0.163,0.167c-0.342,0.358 -0.675,0.721 -1.012,1.083c-0.346,0.375 -0.688,0.746 -1.05,1.121c-3.088,3.192 -6.409,6.508 -10.159,10.129l-0.166,0.171c-40.559,43.054 -61.121,85.112 -61.121,125.008c-0,21.613 6.058,44.084 18.008,66.804l1.967,3.742l4.05,-1.233c24.871,-7.575 45.187,-19.088 60.383,-34.217c22.542,-22.446 36.804,-55.637 42.404,-98.75c1.338,-11.733 2.159,-24.079 2.438,-36.696l0.004,-0.108l-0.004,-0.108c-0.15,-7.184 -0.146,-13.5 -0,-19.313l0.004,-0.133Z" style="fill:#00a1c6;fill-rule:nonzero;"/></g><path d="M507.823,853.56c6.787,6.421 13.275,13.154 19.475,20.146c51.241,-47.467 119.758,-76.525 194.95,-76.525c64.162,0 123.479,21.154 171.337,56.846c5.258,-8.821 10.25,-17.821 14.933,-27.008c-51.766,-37.575 -115.25,-59.934 -183.845,-60.45c-83.884,0.37 -160.192,33.391 -216.85,86.991" style="fill:#00a1c6;fill-rule:nonzero;"/><path d="M572.589,939.921c5.071,9.892 9.641,20.079 13.675,30.538c32.579,-38.834 81.441,-63.571 135.983,-63.571c39.104,-0 75.279,12.721 104.638,34.225c7.141,-7.363 14.037,-14.963 20.687,-22.779c-34.883,-26.396 -78.304,-42.075 -125.325,-42.075c-58.7,-0 -111.792,24.433 -149.658,63.662" style="fill:#00a1c6;fill-rule:nonzero;"/><path d="M596.466,1001.68c4.641,17.23 7.854,35.034 9.537,53.275c13.142,-51.966 60.254,-90.541 116.242,-90.541c22.179,-0 42.954,6.071 60.792,16.604c8.325,-6.679 16.429,-13.625 24.279,-20.838c-24.221,-16.645 -53.521,-26.404 -85.071,-26.404c-52.513,0 -98.829,27.029 -125.779,67.904" style="fill:#00a1c6;fill-rule:nonzero;"/><path d="M543.272,893.201c6.229,8.246 12.066,16.8 17.479,25.641c41.725,-40.72 98.729,-65.858 161.496,-65.858c52.558,0 101.07,17.625 139.958,47.258c6.221,-8.087 12.2,-16.37 17.896,-24.862c-43.934,-33.267 -98.625,-53.029 -157.854,-53.029c-69.146,-0 -132.105,26.933 -178.975,70.85" style="fill:#00a1c6;fill-rule:nonzero;"/><g><path d="M365.267,1049.71c-15.709,-47.958 -60.85,-82.704 -113.996,-82.704c-13.354,-0 -26.213,2.221 -38.229,6.266c45.741,35.18 97.258,60.992 152.225,76.438m33.746,8.117c9.254,1.85 18.616,3.391 28.029,4.666c-11.95,-86.321 -86.217,-153.008 -175.771,-153.008c-30.958,-0 -60.083,7.996 -85.45,21.992c0.787,0.8 1.558,1.616 2.358,2.416c5.929,5.934 12.013,11.663 18.204,17.221c19.667,-9.442 41.659,-14.737 64.888,-14.737c73.075,-0 134.142,52.312 147.742,121.45m59.245,7.791c7.792,0.509 15.617,0.838 23.475,0.942c-10.354,-118.067 -109.75,-210.979 -230.462,-210.979c-44.575,-0 -86.233,12.675 -121.579,34.608c4.775,6.171 9.716,12.254 14.846,18.217c31.233,-18.742 67.733,-29.554 106.733,-29.554c107.546,-0 196.271,82.012 206.987,186.766m54.15,0.417c8.413,-0.433 16.771,-1.108 25.088,-2c-11.7,-147.667 -135.592,-264.267 -286.225,-264.267c-56.188,0 -108.658,16.246 -152.983,44.263c4.283,7.191 8.75,14.304 13.429,21.283c40.429,-25.554 88.296,-40.367 139.554,-40.367c137.437,0 250.454,106.359 261.137,241.088m429.542,-452.654c0,-121.067 -47.146,-234.896 -132.758,-320.496c-85.617,-85.617 -199.434,-132.758 -320.513,-132.758c-121.071,-0 -234.883,47.141 -320.5,132.758c-85.616,85.6 -132.758,199.429 -132.758,320.496c-0,71.941 16.65,141.321 48.112,203.746c48.717,-30.405 106.209,-47.992 167.738,-47.992c166.1,-0 302.8,128.071 316.629,290.65c90.929,-15.942 174.663,-59.267 241.292,-125.892c85.612,-85.612 132.758,-199.441 132.758,-320.512m-107.721,-345.554c92.321,92.3 143.142,215.029 143.142,345.554c-0,130.541 -50.821,253.254 -143.142,345.558c-92.296,92.296 -215.012,143.133 -345.55,143.133c-130.529,0 -253.241,-50.837 -345.541,-143.133c-92.313,-92.304 -143.138,-215.017 -143.138,-345.558c0,-130.525 50.825,-253.254 143.138,-345.554c92.3,-92.3 215.012,-143.121 345.541,-143.121c130.538,-0 253.254,50.821 345.55,143.121" style="fill:#007cad;fill-rule:nonzero;"/><path d="M537.498,1064.03c-8.317,0.896 -16.679,1.571 -25.088,2c-10.687,-134.725 -123.7,-241.088 -261.141,-241.088c-51.254,0 -99.121,14.817 -139.55,40.371c-4.684,-6.979 -9.146,-14.091 -13.429,-21.287c44.325,-28.013 96.795,-44.263 152.979,-44.263c150.637,0 274.525,116.604 286.229,264.267" style="fill:#00a1c6;fill-rule:nonzero;"/><path d="M481.732,1066.56c-7.854,-0.104 -15.679,-0.433 -23.471,-0.942c-10.721,-104.754 -99.446,-186.766 -206.991,-186.766c-38.996,-0 -75.496,10.812 -106.73,29.554c-5.129,-5.963 -10.075,-12.046 -14.85,-18.217c35.346,-21.933 77.009,-34.608 121.58,-34.608c120.712,-0 220.112,92.912 230.462,210.979" style="fill:#00a1c6;fill-rule:nonzero;"/><path d="M427.043,1062.49c-9.413,-1.279 -18.775,-2.821 -28.034,-4.667c-13.596,-69.137 -74.662,-121.454 -147.742,-121.454c-23.225,0 -45.216,5.3 -64.883,14.742c-6.192,-5.559 -12.275,-11.288 -18.204,-17.221c-0.8,-0.804 -1.571,-1.617 -2.358,-2.417c25.366,-14 54.491,-21.996 85.446,-21.996c89.558,0 163.82,66.688 175.775,153.013" style="fill:#00a1c6;fill-rule:nonzero;"/><path d="M251.269,967.004c53.15,0 98.288,34.746 113.996,82.705c-54.967,-15.446 -106.479,-41.263 -152.221,-76.438c12.013,-4.05 24.871,-6.267 38.225,-6.267" style="fill:#00a1c6;fill-rule:nonzero;"/></g><g><path d="M584.312,440.812c38.516,1.875 72.437,9.558 95.925,16.429l-0,13.588c-18.738,-9.125 -56.575,-25.417 -95.925,-30.017m-38.238,-17.35l-1.146,0.037c0.038,-1.562 0.104,-3.075 0.159,-4.529c68.945,-14.454 136.47,-7.687 182.137,0.934l0,35.116c-26.133,-10.875 -97.437,-36.433 -181.15,-31.558m-7.912,134.95c2.895,-45.963 4.77,-85.558 5.883,-112.238c28.971,12.334 106.283,50.296 156.096,121.55c-1.096,25.575 -7.879,51.13 -20.25,76.063c-7.6,-8.692 -15.7,-16.763 -24.117,-24.067c-5.396,-4.696 -11.346,-9.416 -18.737,-14.85c-6.75,-4.821 -13.463,-9.266 -20,-13.221c-13.95,-8.329 -28.371,-15.495 -42.888,-21.32c-7.708,-3.105 -15.342,-5.846 -22.608,-8.1c-4.842,-1.513 -9.25,-2.759 -13.379,-3.817m-8.346,111.225c2.779,-31.542 5.291,-64.629 7.516,-98.404c3.434,0.796 7.042,1.716 10.755,2.721c7.041,1.941 14.437,4.354 21.945,7.079c14.142,5.171 28.28,11.641 42.005,19.241c6.416,3.609 13.062,7.7 19.745,12.13c7.288,5.012 13.205,9.4 18.546,13.787c9.059,7.358 17.784,15.6 25.971,24.517c-3.158,5.846 -6.608,11.641 -10.354,17.404c-13.833,21.2 -33.629,37.821 -56.804,47.967c-0.159,0.075 -0.313,0.145 -0.488,0.212c-1.841,-1.929 -3.712,-3.8 -5.637,-5.571c-7.375,-6.921 -15.875,-13.408 -25.263,-19.275c-8.571,-5.379 -18.058,-10.304 -28.212,-14.625c-4.859,-2.05 -9.871,-3.958 -14.9,-5.637c-1.7,-0.559 -3.296,-1.079 -4.825,-1.546m-9.696,98.167c0.467,-4.584 0.917,-9.388 1.404,-14.455c2.517,-22.625 4.942,-46.529 7.163,-71.116c0.783,0.208 1.562,0.433 2.345,0.641c4.805,1.371 9.613,2.917 14.313,4.617c9.783,3.608 18.979,7.842 27.325,12.525c9.125,5.104 17.437,10.846 24.742,17.004c1.108,0.921 2.204,1.871 3.279,2.846c-22.588,10.429 -52.467,26.317 -80.571,47.938m-22.679,-671.663l0.296,-43.321c11.954,-5.704 45.941,-20.662 88.916,-29.129c47.679,-9.404 116.904,-12.562 176.934,25.379l-0,360.963c-32.025,-8.346 -123.2,-27.813 -217.93,-9.059c0.121,-3.416 0.175,-5.341 0.175,-5.583l0.155,-6.837l-46.742,-21.13l-1.804,-271.283Zm-6.367,697.025l0,-406.867l34.004,15.371c-0.171,5.5 -0.45,14.159 -0.883,25.488l-0.225,-0.034l-0.208,3.471c-0.125,2.063 -12.196,207.867 -22.696,320.604c-1.388,12.421 -2.809,24.584 -4.284,36.413c-1.925,1.825 -3.833,3.679 -5.708,5.554m-42.471,-391.496l34.004,-15.371l0,407.559c-1.837,-1.784 -3.712,-3.534 -5.604,-5.254c-20.887,-167.671 -27.187,-345.938 -28.4,-386.934m-80.087,319.6c1.579,-1.458 3.158,-2.879 4.771,-4.216c7.32,-6.192 15.633,-11.934 24.758,-17.038c8.346,-4.683 17.558,-8.917 27.362,-12.525c4.667,-1.7 9.471,-3.246 14.28,-4.617c1.75,-0.483 3.504,-0.954 5.237,-1.387c2.796,30.708 5.829,60.221 9.092,88.121c-30.554,-22.888 -62.496,-38.654 -85.5,-48.338m-65.929,-56.283c-2.896,-4.525 -5.671,-9.283 -8.275,-14.158c8.225,-8.967 16.987,-17.259 26.079,-24.638c5.341,-4.387 11.258,-8.775 18.596,-13.808c6.645,-4.442 13.291,-8.5 19.691,-12.109c13.725,-7.6 27.867,-14.07 42.004,-19.241c7.513,-2.759 14.905,-5.138 21.946,-7.079c4.946,-1.355 9.459,-2.467 13.675,-3.384c2.221,33.659 4.734,66.679 7.492,98.217c-2.446,0.712 -5.013,1.492 -7.721,2.396c-5.012,1.679 -10.025,3.587 -14.9,5.637c-10.133,4.321 -19.642,9.246 -28.212,14.625c-9.367,5.867 -17.888,12.354 -25.28,19.292c-2.462,2.275 -4.891,4.683 -7.233,7.221l-0.329,-0.125c-17.092,-6.784 -32.079,-17.954 -43.304,-32.509c-5.171,-6.716 -9.925,-13.504 -14.229,-20.337m-7.859,-194.158l0,-12.2c22.417,-6.817 54.759,-14.621 91.746,-17.296c-37.875,5.204 -73.858,20.783 -91.746,29.496m-4.008,173.041c-12.283,-24.858 -19.05,-50.433 -20.108,-76.146c51.079,-73.129 129.67,-110.687 158.975,-122.783c1.112,26.754 2.987,66.538 5.883,112.758c-4.996,1.196 -10.271,2.65 -16.275,4.53c-7.288,2.254 -14.888,4.995 -22.625,8.1c-14.504,5.825 -28.921,12.991 -42.888,21.32c-6.558,3.955 -13.254,8.4 -19.987,13.188c-7.408,5.467 -13.375,10.2 -18.754,14.883c-8.45,7.342 -16.588,15.446 -24.221,24.15m-38.413,-188.85l0,-35.529c44.088,-8.121 109.321,-14.592 176.259,-1.25l0.191,4.892c-0.087,0.016 -0.158,0.054 -0.262,0.087c-5.642,-0.241 -11.208,-0.366 -16.692,-0.366c-72.816,-0 -132.325,20.77 -159.496,32.166m-38.516,-44.987l-0,-360.963c59.996,-37.941 129.221,-34.783 176.933,-25.379c42.958,8.467 76.946,23.425 88.9,29.129l0.275,43.359l-1.767,269.595l-50.433,22.78l0.154,6.804c0.017,0.521 0.067,2.183 0.138,4.908c-27.654,-5.204 -54.979,-7.183 -80.521,-7.183c-60.738,-0 -111.538,11.175 -133.679,16.95m-17.559,-370.413l0,393.975l11.434,-3.641c0.125,-0.017 10.029,-3.159 27.1,-6.909l-0,59.7l12.683,-6.329c0.125,-0.075 11.192,-5.483 29.742,-12.046l-0,35.917l13.096,-7.425c0.262,-0.138 20.87,-11.729 49.237,-21.688c-35.896,25.313 -65.354,54.759 -87.825,87.721l-1.837,2.721l0.07,3.279c0.955,42.334 15.838,84.025 43.65,123.396c17.263,24.425 40.705,43.821 67.734,56.608c34.821,16.467 89.75,45.909 118.1,77.659l0.104,-0.104c2.479,2.825 4.929,5.725 7.321,8.712c2.5,-3.037 5.033,-5.987 7.566,-8.867l0.017,0.017c0.604,-0.712 1.233,-1.425 1.854,-2.133c4.129,-4.634 8.329,-9.059 12.563,-13.313c28.629,-27.962 66.521,-49.65 95.371,-63.671c54.116,-26.3 94.87,-74.466 110.12,-132.675c3.934,-15.075 6.105,-30.308 6.471,-45.629l0.067,-3.279l-1.854,-2.721c-23.284,-34.212 -54.113,-64.575 -91.796,-90.496c32.458,10.409 57.167,24.305 57.462,24.463l13.096,7.425l0,-37.513c21.309,7.255 34.146,13.567 34.284,13.642l12.683,6.346l-0,-59.263c15.7,3.538 24.846,6.438 24.929,6.455l11.45,3.641l0,-393.975l-3.9,-2.604c-52.154,-34.771 -119.35,-45.317 -194.262,-30.487c-46.846,9.266 -82.38,25.337 -94.28,31.162c-11.92,-5.825 -47.454,-21.896 -94.262,-31.162c-74.933,-14.83 -142.113,-4.284 -194.283,30.487l-3.905,2.604Z" style="fill:#007cad;fill-rule:nonzero;"/><path d="M213.792,49.072l-0,360.963c22.137,-5.779 72.937,-16.95 133.679,-16.95c25.537,-0 52.866,1.975 80.521,7.179c-0.071,-2.721 -0.121,-4.387 -0.138,-4.908l-0.158,-6.8l50.437,-22.779l1.767,-269.596l-0.275,-43.363c-11.954,-5.704 -45.942,-20.662 -88.9,-29.129c-47.713,-9.404 -116.938,-12.558 -176.933,25.383" style="fill:#00a1c6;fill-rule:nonzero;"/><path d="M252.309,419.491l-0,35.529c27.171,-11.396 86.679,-32.163 159.496,-32.163c5.483,0 11.05,0.121 16.691,0.367c0.104,-0.037 0.171,-0.075 0.259,-0.092l-0.192,-4.891c-66.933,-13.342 -132.167,-6.871 -176.254,1.25" style="fill:#00a1c6;fill-rule:nonzero;"/><path d="M270.613,567.724c1.059,25.713 7.825,51.288 20.109,76.146c7.633,-8.704 15.771,-16.808 24.221,-24.15c5.379,-4.683 11.345,-9.416 18.754,-14.883c6.729,-4.788 13.429,-9.233 19.987,-13.188c13.967,-8.329 28.384,-15.495 42.888,-21.32c7.737,-3.105 15.337,-5.846 22.625,-8.1c6.004,-1.88 11.275,-3.334 16.271,-4.53c-2.896,-46.22 -4.771,-86.004 -5.88,-112.758c-29.304,12.096 -107.9,49.654 -158.975,122.783" style="fill:#00a1c6;fill-rule:nonzero;"/><path d="M294.728,458.63l0,12.2c17.888,-8.712 53.871,-24.291 91.746,-29.496c-36.987,2.671 -69.329,10.475 -91.746,17.296" style="fill:#00a1c6;fill-rule:nonzero;"/><path d="M294.311,650.83c2.604,4.875 5.379,9.633 8.275,14.154c4.304,6.838 9.059,13.625 14.229,20.338c11.225,14.554 26.213,25.729 43.305,32.512l0.329,0.121c2.341,-2.533 4.771,-4.942 7.233,-7.217c7.392,-6.937 15.913,-13.429 25.279,-19.291c8.571,-5.38 18.079,-10.309 28.213,-14.63c4.875,-2.045 9.887,-3.954 14.9,-5.633c2.708,-0.904 5.279,-1.687 7.721,-2.396c-2.759,-31.541 -5.271,-64.562 -7.492,-98.221c-4.217,0.921 -8.729,2.034 -13.675,3.388c-7.042,1.942 -14.433,4.321 -21.946,7.079c-14.137,5.167 -28.279,11.642 -42.004,19.238c-6.4,3.608 -13.046,7.67 -19.692,12.108c-7.337,5.033 -13.254,9.425 -18.596,13.812c-9.091,7.375 -17.854,15.671 -26.079,24.638" style="fill:#00a1c6;fill-rule:nonzero;"/><path d="M373.289,717.053c-1.613,1.338 -3.192,2.759 -4.771,4.217c23.004,9.683 54.946,25.45 85.5,48.337c-3.263,-27.9 -6.3,-57.412 -9.092,-88.12c-1.737,0.433 -3.487,0.904 -5.241,1.387c-4.805,1.371 -9.613,2.917 -14.28,4.617c-9.8,3.608 -19.012,7.841 -27.358,12.525c-9.129,5.104 -17.437,10.846 -24.758,17.037" style="fill:#00a1c6;fill-rule:nonzero;"/><path d="M482.609,386.299l-34.009,15.371c1.217,40.996 7.517,219.267 28.405,386.934c1.891,1.72 3.766,3.47 5.604,5.254l-0,-407.559Z" style="fill:#00a1c6;fill-rule:nonzero;"/><path d="M491.075,386.299l-0,406.867c1.875,-1.875 3.783,-3.729 5.708,-5.554c1.475,-11.829 2.896,-23.992 4.283,-36.413c10.5,-112.737 22.571,-318.541 22.696,-320.604l0.208,-3.471l0.225,0.034c0.434,-11.329 0.713,-19.988 0.884,-25.488l-34.004,-15.371Z" style="fill:#80edff;fill-rule:nonzero;"/><path d="M497.735,52.82l-0.291,43.321l1.8,271.283l46.741,21.129l-0.154,6.838c0,0.241 -0.054,2.166 -0.175,5.587c94.729,-18.754 185.904,0.713 217.934,9.054l-0,-360.958c-60.034,-37.946 -129.259,-34.787 -176.934,-25.383c-42.979,8.466 -76.966,23.425 -88.921,29.129" style="fill:#80edff;fill-rule:nonzero;"/><path d="M521.523,753.349c-0.483,5.066 -0.938,9.87 -1.404,14.454c28.104,-21.621 57.983,-37.509 80.571,-47.938c-1.075,-0.975 -2.171,-1.925 -3.28,-2.846c-7.304,-6.158 -15.612,-11.9 -24.741,-17.004c-8.346,-4.683 -17.542,-8.912 -27.321,-12.525c-4.704,-1.7 -9.508,-3.246 -14.317,-4.616c-0.779,-0.209 -1.562,-0.434 -2.341,-0.638c-2.221,24.583 -4.65,48.488 -7.167,71.113" style="fill:#80edff;fill-rule:nonzero;"/><path d="M537.331,571.232c-2.221,33.775 -4.738,66.862 -7.517,98.404c1.529,0.467 3.125,0.988 4.825,1.546c5.034,1.683 10.046,3.592 14.904,5.637c10.15,4.321 19.642,9.25 28.209,14.63c9.387,5.862 17.887,12.35 25.266,19.275c1.925,1.766 3.796,3.641 5.634,5.566c0.175,-0.066 0.329,-0.137 0.487,-0.208c23.179,-10.15 42.975,-26.771 56.804,-47.971c3.75,-5.762 7.2,-11.554 10.359,-17.404c-8.188,-8.913 -16.917,-17.158 -25.975,-24.517c-5.342,-4.383 -11.259,-8.775 -18.546,-13.787c-6.683,-4.429 -13.325,-8.521 -19.742,-12.129c-13.725,-7.6 -27.866,-14.071 -42.004,-19.238c-7.512,-2.729 -14.908,-5.142 -21.95,-7.083c-3.712,-1.004 -7.321,-1.925 -10.754,-2.721" style="fill:#80edff;fill-rule:nonzero;"/><path d="M544.045,446.175c-1.113,26.679 -2.988,66.275 -5.884,112.238c4.129,1.054 8.538,2.304 13.379,3.816c7.267,2.255 14.9,4.996 22.609,8.1c14.516,5.825 28.937,12.992 42.887,21.321c6.538,3.954 13.25,8.4 20,13.221c7.392,5.433 13.346,10.15 18.738,14.85c8.416,7.304 16.516,15.375 24.121,24.067c12.366,-24.934 19.15,-50.488 20.245,-76.063c-49.812,-71.254 -127.125,-109.216 -156.095,-121.55" style="fill:#80edff;fill-rule:nonzero;"/><path d="M544.928,423.499l1.146,-0.038c83.712,-4.875 155.016,20.683 181.15,31.558l-0,-35.112c-45.667,-8.625 -113.192,-15.392 -182.138,-0.938c-0.054,1.459 -0.121,2.967 -0.158,4.53" style="fill:#80edff;fill-rule:nonzero;"/><path d="M680.239,457.243c-23.492,-6.871 -57.409,-14.554 -95.925,-16.429c39.35,4.595 77.187,20.887 95.925,30.016l-0,-13.587Z" style="fill:#80edff;fill-rule:nonzero;"/></g></svg>