<?xml version="1.0" encoding="UTF-8" standalone="no"?><!DOCTYPE svg PUBLIC "-//W3C//DTD SVG 1.1//EN" "http://www.w3.org/Graphics/SVG/1.1/DTD/svg11.dtd"><svg width="100%" height="100%" viewBox="0 0 3320 1296" version="1.1" xmlns="http://www.w3.org/2000/svg" xmlns:xlink="http://www.w3.org/1999/xlink" xml:space="preserve" xmlns:serif="http://www.serif.com/" style="fill-rule:evenodd;clip-rule:evenodd;stroke-linejoin:round;stroke-miterlimit:2;"><path d="M1637.28,729.776l-14.979,9.32l-663.604,-384.025l-951.05,520.417l-0.029,27.421l665.771,385.267c17.054,9.879 44.771,9.908 61.812,0.058l889.221,-512.225c8.45,-4.829 12.717,-11.158 12.829,-17.533l0.029,-28.7Z" style="fill:#19b5d6;fill-rule:nonzero;"/><path d="M735.234,1260.8c-17.042,9.833 -44.759,9.808 -61.813,-0.063l-665.771,-385.254l951.079,-547.858l665.759,385.279c17.087,9.854 17.071,25.821 -0.038,35.654l-889.216,512.242Z" style="fill:#fdfbf6;fill-rule:nonzero;"/><path d="M970.652,177.061l-0.166,164.634l-951.059,547.871l0.167,-164.68l951.058,-547.825Z" style="fill:#0096c3;fill-rule:nonzero;"/><path d="M7.623,902.908c-10.296,-0.009 -10.104,-192.063 0.221,-192.05l23.754,13.783c-11.258,-0.012 -11.45,192.013 -0.191,192.021l-23.784,-13.754Z" style="fill:#19b5d6;fill-rule:nonzero;"/><path d="M699.672,1080l-0.166,164.604l892.071,-513.858l0.166,-164.646l-892.071,513.9Z" style="fill:#e4f9ff;fill-rule:nonzero;"/><path d="M699.672,1080l-647.162,-374l-0.167,164.663l647.163,373.941l0.166,-164.604Z" style="fill:#f0fcff;fill-rule:nonzero;"/><path d="M1637.45,565.172l-14.979,9.242l-663.604,-383.984l-951.079,547.821l665.77,385.267c17.055,9.896 44.771,9.921 61.813,0.062l889.221,-512.204c8.45,-4.842 12.716,-11.171 12.829,-17.558l0.029,-28.646Z" style="fill:#19b5d6;fill-rule:nonzero;"/><path d="M735.399,1096.16c-17.042,9.863 -44.759,9.834 -61.813,-0.062l-665.742,-385.238l951.05,-547.862l665.759,385.266c17.087,9.855 17.071,25.863 -0.038,35.667l-889.216,512.229Z" style="fill:#0096c3;fill-rule:nonzero;"/><path d="M1688.66,311.054c-16.646,-9.625 -43.663,-9.65 -60.355,-0.063l-868.441,500.263l-12.667,-8.613l-0.029,26.063c-0.004,6.346 4.171,12.654 12.5,17.504l650.425,376.246l928.908,-535.071l-650.341,-376.329Z" style="fill:#108fbf;fill-rule:nonzero;"/><path d="M1410.03,1195.76l-650.329,-376.371c-16.692,-9.625 -16.679,-25.279 0.033,-34.858l868.605,-500.367c16.687,-9.604 43.708,-9.575 60.35,0.058l650.345,376.375l-929.004,535.163Z" style="fill:#0079b2;fill-rule:nonzero;"/><path d="M1413.11,1002.54l-624.467,-361.363l-0.163,160.846l624.467,361.35l0.163,-160.833Z" style="fill:#fff;fill-rule:nonzero;"/><path d="M1688.72,176.879c-16.671,-9.638 -43.717,-9.667 -60.409,-0.063l-868.412,500.288l-12.696,-8.638l-0.029,26.1c-0.004,6.35 4.146,12.654 12.454,17.471l650.379,376.4l929,-535.204l-650.287,-376.354Z" style="fill:#108fbf;fill-rule:nonzero;"/><path d="M1410.03,1061.57l-650.379,-376.304c-16.617,-9.692 -16.6,-25.283 0.033,-34.888l868.655,-500.337c16.687,-9.642 43.733,-9.617 60.408,0.062l650.608,376.28l-929.325,535.187Z" style="fill:#0079b2;fill-rule:nonzero;"/><path d="M2339.36,526.382c10.575,0.008 10.416,160.85 -0.163,160.842l-929.096,535.233l0.163,-160.858l929.096,-535.217Z" style="fill:#0052a4;fill-rule:nonzero;"/><path d="M1386.93,1209.11c13.75,-18.741 7.384,-147.55 0.163,-160.829l23.162,13.325c2.713,20.913 11.463,110.821 -0.162,160.854l-23.163,-13.35Z" style="fill:#108fbf;fill-rule:nonzero;"/><path d="M2158.94,235.826l-689.4,-85.508l-13.029,-14.059l-14.463,18.946c-3.562,4.742 -4,11.775 -0.504,20.079l365.4,863.846c7.013,16.617 27.196,31.879 45.088,34.079l697.712,86.542l15.125,-20.008l-405.929,-903.917Z" style="fill:#7decff;fill-rule:nonzero;"/><path d="M2564.87,1139.75l-697.708,-86.546c-17.933,-2.213 -38.092,-17.458 -45.092,-34.063l-365.412,-863.85c-7.004,-16.579 1.779,-28.254 19.696,-26.025l697.7,86.53l390.816,923.954Z" style="fill:#00b9d8;fill-rule:nonzero;"/><path d="M2647.73,1030.82l-90.734,120.071l-390.845,-923.883l90.733,-120.129l390.846,923.941Z" style="fill:#00b9d8;fill-rule:nonzero;"/><path d="M2635.58,1017.87l-90.696,120.058l-390.829,-923.9l90.72,-120.1l390.805,923.942Z" style="fill:#00b9d8;fill-rule:nonzero;"/><path d="M2525.35,1156.74c5.304,3.979 117.871,-145.092 112.617,-149.046l24.916,3.083c4.521,3.396 -108.1,152.471 -112.633,149.005l-24.9,-3.042Z" style="fill:#7decff;fill-rule:nonzero;"/><path d="M1946.75,906.733l-90.75,120.037l677.838,84.863l90.791,-119.979l-677.879,-84.921Z" style="fill:#fff;fill-rule:nonzero;"/><path d="M1946.75,906.733l-367.362,-868.359l-90.667,120.059l367.279,868.337l90.75,-120.037Z" style="fill:#fffaf0;fill-rule:nonzero;"/><path d="M2256.88,106.879l-689.304,-85.562l-13.1,-14.054l-14.396,18.979c-3.588,4.729 -4.05,11.767 -0.529,20.067l365.42,863.887c7.009,16.563 27.2,31.813 45.067,34.013l697.688,86.612l-390.846,-923.942Z" style="fill:#7decff;fill-rule:nonzero;"/><path d="M2662.88,1010.77l-697.713,-86.571c-17.879,-2.204 -38.05,-17.446 -45.054,-34.066l-365.421,-863.875c-6.996,-16.555 1.817,-28.217 19.654,-25.988l697.7,86.504l390.834,923.996Z" style="fill:#00b9d8;fill-rule:nonzero;"/><path d="M2984.95,396.284c-6.071,-16.984 -25.338,-33.334 -43.025,-36.559l-922.509,-168.637l-3.85,-13.792l-15.796,18.567c-3.858,4.508 -4.716,11.529 -1.679,20.037l236.379,662.138l986.78,180.425l-236.3,-662.179Z" style="fill:#abe8fd;fill-rule:nonzero;"/><path d="M2250.63,858.934l-236.325,-662.154c-6.021,-16.942 3.446,-28.088 21.179,-24.838l922.642,168.675c17.741,3.242 36.966,19.579 43.054,36.563l236.271,662.154l-986.821,-180.4Z" style="fill:#007cad;fill-rule:nonzero;"/><path d="M2369.77,722.936l-226.905,-635.788l-97.441,114.65l226.879,635.813l97.467,-114.675Z" style="fill:#fff;fill-rule:nonzero;"/><path d="M3066.13,300.576c-6.1,-16.97 -25.325,-33.333 -43.025,-36.612l-922.509,-168.613l-3.825,-13.775l-15.821,18.555c-3.862,4.525 -4.662,11.525 -1.654,20.02l236.288,662.15l986.833,180.43l-236.287,-662.155Z" style="fill:#abe8fd;fill-rule:nonzero;"/><path d="M2331.84,763.199l-236.312,-662.18c-6.034,-16.958 3.42,-28.05 21.137,-24.812l922.642,168.679c17.741,3.225 37.033,19.613 43.079,36.546l236.475,662.312l-987.021,-180.545Z" style="fill:#007cad;fill-rule:nonzero;"/><path d="M3318.86,943.744c7.592,6.463 -89.887,121.1 -97.442,114.692l-986.954,-180.4l97.509,-114.65l986.887,180.358Z" style="fill:#157eb6;fill-rule:nonzero;"/><path d="M2226.07,854.462c21.163,-5.004 94.584,-100.721 97.417,-114.65l8.492,23.575c-10.688,16.592 -58.905,86 -97.509,114.65l-8.4,-23.575Z" style="fill:#abe8fd;fill-rule:nonzero;"/></svg>