<?xml version="1.0" encoding="UTF-8" standalone="no"?>
<!DOCTYPE svg PUBLIC "-//W3C//DTD SVG 1.1//EN" "http://www.w3.org/Graphics/SVG/1.1/DTD/svg11.dtd">
<svg width="100%" height="100%" viewBox="0 0 1104 825" version="1.1" xmlns="http://www.w3.org/2000/svg" xmlns:xlink="http://www.w3.org/1999/xlink" xml:space="preserve" xmlns:serif="http://www.serif.com/" style="fill-rule:evenodd;clip-rule:evenodd;stroke-linejoin:round;stroke-miterlimit:2;">
    <g transform="matrix(1,0,0,1,-795.495,-210.447)">
        <g opacity="0.4">
            <g opacity="0">
                <g transform="matrix(1,0,0,1,962.852,734.631)">
                    <path d="M0,46.402C-22.123,33.614 -22.232,12.759 -0.313,0.018L418.227,-243.167C440.122,-255.934 476.144,-255.928 498.273,-243.16L919.49,0.067C941.571,12.821 941.673,33.62 919.742,46.471L501.265,289.602C479.312,302.336 443.277,302.336 421.176,289.602L0,46.402Z" style="fill:white;fill-rule:nonzero;"/>
                </g>
            </g>
            <g opacity="0.05">
                <g transform="matrix(1,0,0,1,955.707,736.47)">
                    <path d="M0,44.603C-22.121,31.814 -22.23,10.958 -0.311,-1.784L418.229,-243.167C440.124,-255.932 476.146,-255.927 498.274,-243.16L919.492,-1.736C941.572,11.019 941.675,31.822 919.744,44.669L501.266,287.799C479.314,300.535 443.281,300.535 421.18,287.799L0,44.603Z" style="fill:rgb(252,252,254);fill-rule:nonzero;"/>
                </g>
            </g>
            <g opacity="0.1">
                <g transform="matrix(1,0,0,1,948.563,738.31)">
                    <path d="M0,42.805C-22.12,30.014 -22.229,9.159 -0.308,-3.585L418.23,-243.166C440.125,-255.93 476.149,-255.925 498.276,-243.16L919.494,-3.539C941.573,9.218 941.676,30.024 919.746,42.867L501.267,285.997C479.317,298.735 443.284,298.735 421.182,285.997L0,42.805Z" style="fill:rgb(248,249,253);fill-rule:nonzero;"/>
                </g>
            </g>
            <g opacity="0.14">
                <g transform="matrix(1,0,0,1,941.419,740.149)">
                    <path d="M0,41.007C-22.118,28.216 -22.227,7.359 -0.305,-5.385L418.231,-243.164C440.127,-255.928 476.151,-255.923 498.276,-243.159L919.495,-5.341C941.574,7.418 941.677,28.227 919.748,41.066L501.268,284.196C479.318,296.935 443.287,296.935 421.185,284.196L0,41.007Z" style="fill:rgb(245,246,252);fill-rule:nonzero;"/>
                </g>
            </g>
            <g opacity="0.19">
                <g transform="matrix(1,0,0,1,934.275,741.99)">
                    <path d="M0,39.207C-22.117,26.415 -22.226,5.558 -0.303,-7.188L418.232,-243.165C440.128,-255.927 476.154,-255.922 498.278,-243.159L919.497,-7.145C941.575,5.616 941.678,26.428 919.75,39.263L501.269,282.394C479.32,295.134 443.29,295.134 421.187,282.394L0,39.207Z" style="fill:rgb(241,243,251);fill-rule:nonzero;"/>
                </g>
            </g>
            <g opacity="0.24">
                <g transform="matrix(1,0,0,1,927.131,743.831)">
                    <path d="M0,37.408C-22.116,24.615 -22.225,3.757 -0.3,-8.988L418.233,-243.165C440.13,-255.925 476.155,-255.921 498.278,-243.159L919.497,-8.946C941.575,3.815 941.68,24.63 919.751,37.461L501.27,280.592C479.321,293.333 443.293,293.333 421.19,280.592L0,37.408Z" style="fill:rgb(238,240,250);fill-rule:nonzero;"/>
                </g>
            </g>
            <g opacity="0.29">
                <g transform="matrix(1,0,0,1,919.987,745.669)">
                    <path d="M0,35.611C-22.114,22.816 -22.223,1.958 -0.297,-10.789L418.235,-243.163C440.131,-255.923 476.158,-255.918 498.28,-243.158L919.499,-10.748C941.576,2.015 941.68,22.833 919.752,35.66L501.271,278.791C479.323,291.534 443.295,291.534 421.193,278.791L0,35.611Z" style="fill:rgb(234,237,249);fill-rule:nonzero;"/>
                </g>
            </g>
            <g opacity="0.33">
                <g transform="matrix(1,0,0,1,912.843,747.51)">
                    <path d="M0,33.812C-22.113,21.016 -22.222,0.158 -0.294,-12.59L418.236,-243.163C440.133,-255.921 476.16,-255.917 498.28,-243.158L919.5,-12.551C941.577,0.214 941.682,21.035 919.755,33.858L501.271,276.989C479.325,289.733 443.299,289.733 421.195,276.989L0,33.812Z" style="fill:rgb(231,234,248);fill-rule:nonzero;"/>
                </g>
            </g>
            <g opacity="0.38">
                <g transform="matrix(1,0,0,1,905.699,749.351)">
                    <path d="M0,32.012C-22.111,19.216 -22.221,-1.644 -0.292,-14.392L418.238,-243.163C440.134,-255.92 476.163,-255.916 498.282,-243.159L919.501,-14.355C941.578,-1.588 941.682,19.236 919.756,32.055L501.273,275.185C479.327,287.932 443.301,287.932 421.198,275.185L0,32.012Z" style="fill:rgb(227,231,247);fill-rule:nonzero;"/>
                </g>
            </g>
            <g opacity="0.43">
                <g transform="matrix(1,0,0,1,898.555,751.191)">
                    <path d="M0,30.213C-22.11,17.416 -22.219,-3.444 -0.29,-16.194L418.239,-243.162C440.136,-255.918 476.165,-255.915 498.283,-243.159L919.503,-16.157C941.578,-3.39 941.684,17.438 919.758,30.252L501.273,273.383C479.328,286.131 443.305,286.131 421.201,273.383L0,30.213Z" style="fill:rgb(224,228,246);fill-rule:nonzero;"/>
                </g>
            </g>
            <g opacity="0.48">
                <g transform="matrix(1,0,0,1,891.411,753.031)">
                    <path d="M0,28.414C-22.109,15.616 -22.218,-5.245 -0.287,-17.995L418.241,-243.162C440.137,-255.917 476.167,-255.914 498.284,-243.158L919.504,-17.96C941.579,-5.19 941.685,15.639 919.759,28.45L501.275,271.581C479.33,284.331 443.308,284.331 421.204,271.581L0,28.414Z" style="fill:rgb(221,225,246);fill-rule:nonzero;"/>
                </g>
            </g>
            <g opacity="0.52">
                <g transform="matrix(1,0,0,1,884.267,754.87)">
                    <path d="M0,26.617C-22.107,13.817 -22.216,-7.044 -0.284,-19.796L418.241,-243.161C440.138,-255.914 476.17,-255.911 498.285,-243.157L919.506,-19.762C941.579,-6.99 941.686,13.842 919.761,26.649L501.275,269.78C479.331,282.531 443.311,282.531 421.206,269.78L0,26.617Z" style="fill:rgb(217,222,245);fill-rule:nonzero;"/>
                </g>
            </g>
            <g opacity="0.57">
                <g transform="matrix(1,0,0,1,877.123,756.711)">
                    <path d="M0,24.817C-22.106,12.017 -22.215,-8.846 -0.282,-21.598L418.243,-243.161C440.139,-255.913 476.171,-255.911 498.286,-243.158L919.507,-21.566C941.581,-8.792 941.687,12.043 919.763,24.846L501.277,267.977C479.333,280.73 443.314,280.73 421.208,267.977L0,24.817Z" style="fill:rgb(214,219,244);fill-rule:nonzero;"/>
                </g>
            </g>
            <g opacity="0.62">
                <g transform="matrix(1,0,0,1,869.979,758.551)">
                    <path d="M0,23.018C-22.104,10.217 -22.214,-10.646 -0.279,-23.399L418.244,-243.161C440.141,-255.911 476.174,-255.909 498.287,-243.158L919.508,-23.368C941.581,-10.593 941.687,10.245 919.765,23.044L501.277,266.175C479.335,278.929 443.316,278.929 421.212,266.175L0,23.018Z" style="fill:rgb(210,216,243);fill-rule:nonzero;"/>
                </g>
            </g>
            <g opacity="0.67">
                <g transform="matrix(1,0,0,1,862.834,760.392)">
                    <path d="M0,21.218C-22.103,8.416 -22.212,-12.448 -0.276,-25.202L418.246,-243.161C440.142,-255.91 476.176,-255.908 498.288,-243.159L919.509,-25.172C941.582,-12.395 941.689,8.446 919.766,21.241L501.279,264.372C479.336,277.128 443.32,277.128 421.214,264.372L0,21.218Z" style="fill:rgb(207,213,242);fill-rule:nonzero;"/>
                </g>
            </g>
            <g opacity="0.71">
                <g transform="matrix(1,0,0,1,855.69,762.231)">
                    <path d="M0,19.42C-22.102,6.617 -22.211,-14.247 -0.274,-27.002L418.247,-243.16C440.144,-255.908 476.179,-255.906 498.289,-243.158L919.511,-26.974C941.582,-14.195 941.69,6.649 919.768,19.441L501.279,262.571C479.338,275.328 443.322,275.328 421.217,262.571L0,19.42Z" style="fill:rgb(203,210,241);fill-rule:nonzero;"/>
                </g>
            </g>
            <g opacity="0.76">
                <g transform="matrix(1,0,0,1,848.547,764.071)">
                    <path d="M0,17.622C-22.101,4.817 -22.21,-16.048 -0.271,-28.804L418.248,-243.159C440.145,-255.906 476.181,-255.905 498.289,-243.157L919.512,-28.776C941.583,-15.997 941.69,4.851 919.77,17.638L501.28,260.768C479.339,273.528 443.325,273.528 421.219,260.768L0,17.622Z" style="fill:rgb(200,207,240);fill-rule:nonzero;"/>
                </g>
            </g>
            <g opacity="0.81">
                <g transform="matrix(1,0,0,1,841.403,765.91)">
                    <path d="M0,15.824C-22.1,3.019 -22.209,-17.847 -0.269,-30.604L418.25,-243.157C440.146,-255.904 476.183,-255.902 498.291,-243.156L919.513,-30.577C941.583,-17.797 941.692,3.053 919.771,15.837L501.281,258.968C479.341,271.728 443.328,271.728 421.221,258.968L0,15.824Z" style="fill:rgb(197,204,239);fill-rule:nonzero;"/>
                </g>
            </g>
            <g opacity="0.86">
                <g transform="matrix(1,0,0,1,834.259,767.751)">
                    <path d="M0,14.024C-22.098,1.218 -22.208,-19.648 -0.266,-32.406L418.251,-243.158C440.147,-255.903 476.186,-255.902 498.292,-243.157L919.515,-32.381C941.584,-19.599 941.692,1.254 919.772,14.034L501.282,257.165C479.343,269.927 443.331,269.927 421.225,257.165L0,14.024Z" style="fill:rgb(193,201,238);fill-rule:nonzero;"/>
                </g>
            </g>
            <g opacity="0.9">
                <g transform="matrix(1,0,0,1,827.115,769.591)">
                    <path d="M0,12.225C-22.097,-0.582 -22.206,-21.449 -0.264,-34.208L418.251,-243.158C440.149,-255.901 476.188,-255.9 498.292,-243.157L919.516,-34.184C941.584,-21.4 941.694,-0.544 919.774,12.232L501.283,255.363C479.344,268.126 443.334,268.126 421.227,255.363L0,12.225Z" style="fill:rgb(190,198,237);fill-rule:nonzero;"/>
                </g>
            </g>
            <g opacity="0.95">
                <g transform="matrix(1,0,0,1,819.971,771.431)">
                    <path d="M0,10.427C-22.095,-2.382 -22.205,-23.249 -0.261,-36.009L418.253,-243.157C440.15,-255.899 476.189,-255.899 498.294,-243.157L919.518,-35.987C941.586,-23.201 941.695,-2.342 919.776,10.43L501.284,253.561C479.346,266.326 443.337,266.326 421.229,253.561L0,10.427Z" style="fill:rgb(186,195,236);fill-rule:nonzero;"/>
                </g>
            </g>
            <g transform="matrix(1,0,0,1,812.827,773.271)">
                <path d="M0,8.628C-22.094,-4.181 -22.204,-25.05 -0.258,-37.81L418.254,-243.157C440.152,-255.897 476.192,-255.897 498.294,-243.157L919.518,-37.789C941.586,-25.002 941.696,-4.14 919.778,8.628L501.285,251.759C479.347,264.525 443.34,264.525 421.232,251.759L0,8.628Z" style="fill:rgb(183,192,235);fill-rule:nonzero;"/>
            </g>
        </g>
        <g transform="matrix(1,0,0,1,813.024,991.434)">
            <path d="M0,-209.577C-22.088,-222.31 -22.197,-243.185 -0.259,-255.939L418.254,-215.558C440.146,-228.285 476.192,-228.285 498.301,-215.558L919.526,-255.919C941.594,-243.159 941.701,-222.31 919.777,-209.556L501.285,33.596C479.354,46.362 443.348,46.362 421.238,33.596L0,-209.577Z" style="fill:rgb(183,192,235);fill-rule:nonzero;"/>
        </g>
        <g transform="matrix(1,0,0,1,1749.03,1017.47)">
            <path d="M0,-279.231C-0.041,-278.645 -0.075,-278.012 -0.211,-277.433C-0.293,-276.929 -0.415,-276.499 -0.566,-276.05C-0.695,-275.41 -0.846,-274.858 -1.069,-274.245C-1.221,-273.801 -1.431,-273.413 -1.628,-272.882C-1.887,-272.337 -2.133,-271.757 -2.446,-271.111C-2.89,-270.327 -3.358,-269.564 -3.89,-268.767C-3.979,-268.604 -4.074,-268.507 -4.178,-268.385C-4.693,-267.581 -5.307,-266.838 -5.981,-266.109C-6.112,-265.938 -6.248,-265.756 -6.404,-265.585C-7.113,-264.795 -7.909,-264.011 -8.74,-263.255C-9.301,-262.792 -9.927,-262.329 -10.513,-261.838C-11.018,-261.416 -11.528,-261.013 -12.06,-260.578C-12.727,-260.162 -13.437,-259.631 -14.111,-259.228C-14.819,-258.779 -15.485,-258.33 -16.229,-257.859L-434.722,-14.681L-435.58,1.643L-17.094,-241.548C-16.849,-241.657 -16.645,-241.794 -16.414,-241.958C-15.902,-242.244 -15.46,-242.591 -14.962,-242.912C-14.259,-243.388 -13.565,-243.817 -12.91,-244.28C-12.387,-244.696 -11.849,-245.071 -11.33,-245.494C-10.758,-246.004 -10.132,-246.502 -9.642,-246.945C-9.519,-247.026 -9.409,-247.142 -9.301,-247.198C-8.537,-247.878 -7.909,-248.586 -7.256,-249.254C-7.113,-249.424 -6.956,-249.541 -6.861,-249.758C-6.472,-250.16 -6.112,-250.542 -5.791,-250.951C-5.526,-251.353 -5.273,-251.68 -4.994,-252.061C-4.933,-252.203 -4.81,-252.306 -4.755,-252.463C-4.312,-253.07 -3.89,-253.69 -3.516,-254.35C-3.461,-254.495 -3.38,-254.678 -3.283,-254.827C-2.991,-255.407 -2.752,-255.992 -2.479,-256.502C-2.338,-256.933 -2.133,-257.266 -2.031,-257.586C-1.956,-257.689 -1.928,-257.832 -1.894,-257.99C-1.689,-258.534 -1.554,-259.106 -1.409,-259.67C-1.287,-260.051 -1.164,-260.387 -1.091,-260.83C-1.091,-260.919 -1.091,-261.013 -1.069,-261.123C-0.969,-261.669 -0.892,-262.301 -0.846,-262.834C-0.824,-263.227 -0.708,-263.671 -0.695,-264.052L-0.695,-264.543L0.15,-280.874C0.15,-280.356 0.047,-279.797 0,-279.231" style="fill:rgb(228,231,251);fill-rule:nonzero;"/>
        </g>
        <g transform="matrix(1,0,0,1,813.01,995.686)">
            <path d="M0,-236.094C-11.138,-242.539 -16.664,-250.988 -16.63,-259.469L-17.515,-243.158C-17.515,-234.671 -11.97,-226.196 -0.844,-219.811L420.387,23.375L421.233,7.097L0,-236.094Z" style="fill:rgb(239,241,254);fill-rule:nonzero;"/>
        </g>
        <g transform="matrix(1,0,0,1,1732.53,759.587)">
            <path d="M0,-46.364C22.116,-33.618 22.196,-12.736 0.272,0.026L-418.22,243.203C-440.15,255.979 -476.157,255.979 -498.286,243.197L-919.519,0.005C-941.593,-12.81 -941.735,-33.652 -919.764,-46.364L-501.312,-289.549C-479.319,-302.343 -443.312,-302.343 -421.252,-289.549L0,-46.364Z" style="fill:white;fill-rule:nonzero;"/>
        </g>
        <g transform="matrix(0,551.894,551.894,0,1272.77,441.869)">
            <path d="M0.017,-0.075L0.458,-0.834C0.481,-0.873 0.519,-0.873 0.542,-0.833L0.983,-0.07C1.006,-0.03 1.006,0.036 0.983,0.075L0.542,0.834C0.519,0.873 0.481,0.873 0.458,0.833L0.017,0.07C0.006,0.05 0,0.023 0,-0.003C0,-0.029 0.006,-0.055 0.017,-0.075Z" style="fill:url(#_Linear1);fill-rule:nonzero;"/>
        </g>
        <g>
            <g>
                <g opacity="0">
                    <g transform="matrix(1,0,0,1,1776.17,917.655)">
                        <path d="M0,-230.38C0,-230.38 -555.85,-236.795 -555.844,-233.882C-555.844,-233.616 -554.821,-199.298 -554.821,-199.298L-485.165,-158.832L-478.737,-162.549L-478.719,-155.215L-446.078,-136.257L-425.759,-147.989L-425.734,-125.24L-371.326,-93.628L-351.754,-104.873L-351.704,-87.077L-319.083,-68.109L-258.234,-103.24L-246.751,-15.432L-194.703,6.415L-0.34,-141.571C-0.34,-141.571 2.327,-228.876 0,-230.38" style="fill:white;fill-rule:nonzero;"/>
                    </g>
                </g>
                <g opacity="0.02">
                    <g transform="matrix(1,0,0,1,1771.26,917.655)">
                        <path d="M0,-230.38C0,-230.38 -555.851,-236.795 -555.844,-233.882C-555.844,-233.616 -554.821,-199.298 -554.821,-199.298L-485.165,-158.832L-478.737,-162.549L-478.719,-155.215L-446.079,-136.257L-425.759,-147.989L-425.734,-125.24L-371.326,-93.628L-351.754,-104.873L-351.704,-87.077L-319.083,-68.109L-258.234,-103.24L-246.752,-15.432L-194.703,6.415L-0.34,-141.571C-0.34,-141.571 2.327,-228.876 0,-230.38" style="fill:rgb(253,254,254);fill-rule:nonzero;"/>
                    </g>
                </g>
                <g opacity="0.04">
                    <g transform="matrix(1,0,0,1,1766.35,917.655)">
                        <path d="M0,-230.38C0,-230.38 -555.852,-236.795 -555.845,-233.882C-555.845,-233.616 -554.823,-199.298 -554.823,-199.298L-485.166,-158.832L-478.738,-162.549L-478.72,-155.215L-446.08,-136.257L-425.76,-147.989L-425.735,-125.24L-371.327,-93.628L-351.755,-104.873L-351.706,-87.077L-319.084,-68.109L-258.235,-103.24L-246.753,-15.432L-194.704,6.415L-0.341,-141.571C-0.341,-141.571 2.326,-228.876 0,-230.38" style="fill:rgb(252,252,254);fill-rule:nonzero;"/>
                    </g>
                </g>
                <g opacity="0.06">
                    <g transform="matrix(1,0,0,1,1761.44,917.655)">
                        <path d="M0,-230.38C0,-230.38 -555.852,-236.795 -555.846,-233.882C-555.846,-233.616 -554.823,-199.298 -554.823,-199.298L-485.166,-158.832L-478.738,-162.549L-478.72,-155.215L-446.08,-136.257L-425.76,-147.989L-425.735,-125.24L-371.328,-93.628L-351.755,-104.873L-351.706,-87.077L-319.084,-68.109L-258.235,-103.24L-246.753,-15.432L-194.704,6.415L-0.341,-141.571C-0.341,-141.571 2.326,-228.876 0,-230.38" style="fill:rgb(251,251,254);fill-rule:nonzero;"/>
                    </g>
                </g>
                <g opacity="0.08">
                    <g transform="matrix(1,0,0,1,1756.53,917.655)">
                        <path d="M0,-230.38C0,-230.38 -555.852,-236.795 -555.846,-233.882C-555.846,-233.616 -554.823,-199.298 -554.823,-199.298L-485.167,-158.832L-478.739,-162.549L-478.72,-155.215L-446.08,-136.257L-425.76,-147.989L-425.736,-125.24L-371.328,-93.628L-351.755,-104.873L-351.706,-87.077L-319.085,-68.109L-258.235,-103.24L-246.753,-15.432L-194.704,6.415L-0.341,-141.571C-0.341,-141.571 2.325,-228.876 0,-230.38" style="fill:rgb(249,250,253);fill-rule:nonzero;"/>
                    </g>
                </g>
                <g opacity="0.1">
                    <g transform="matrix(1,0,0,1,1751.61,917.655)">
                        <path d="M0,-230.38C0,-230.38 -555.852,-236.795 -555.846,-233.882C-555.846,-233.616 -554.823,-199.298 -554.823,-199.298L-485.167,-158.832L-478.739,-162.549L-478.721,-155.215L-446.08,-136.257L-425.76,-147.989L-425.736,-125.24L-371.328,-93.628L-351.755,-104.873L-351.706,-87.077L-319.085,-68.109L-258.235,-103.24L-246.753,-15.432L-194.704,6.415L-0.341,-141.571C-0.341,-141.571 2.325,-228.876 0,-230.38" style="fill:rgb(248,249,253);fill-rule:nonzero;"/>
                    </g>
                </g>
                <g opacity="0.12">
                    <g transform="matrix(1,0,0,1,1746.7,917.655)">
                        <path d="M0,-230.38C0,-230.38 -555.853,-236.795 -555.846,-233.882C-555.846,-233.616 -554.823,-199.298 -554.823,-199.298L-485.167,-158.832L-478.739,-162.549L-478.721,-155.215L-446.08,-136.257L-425.76,-147.989L-425.736,-125.24L-371.328,-93.628L-351.755,-104.873L-351.706,-87.077L-319.085,-68.109L-258.235,-103.24L-246.754,-15.432L-194.705,6.415L-0.341,-141.571C-0.341,-141.571 2.325,-228.876 0,-230.38" style="fill:rgb(247,248,253);fill-rule:nonzero;"/>
                    </g>
                </g>
                <g opacity="0.14">
                    <g transform="matrix(1,0,0,1,1741.79,917.655)">
                        <path d="M0,-230.38C0,-230.38 -555.853,-236.795 -555.847,-233.882C-555.847,-233.616 -554.823,-199.298 -554.823,-199.298L-485.167,-158.832L-478.739,-162.549L-478.721,-155.215L-446.081,-136.257L-425.76,-147.989L-425.736,-125.239L-371.329,-93.628L-351.755,-104.873L-351.707,-87.077L-319.085,-68.109L-258.235,-103.24L-246.754,-15.432L-194.705,6.415L-0.341,-141.571C-0.341,-141.571 2.325,-228.876 0,-230.38" style="fill:rgb(245,246,252);fill-rule:nonzero;"/>
                    </g>
                </g>
                <g opacity="0.16">
                    <g transform="matrix(1,0,0,1,1736.88,917.655)">
                        <path d="M0,-230.38C0,-230.38 -555.853,-236.795 -555.847,-233.882C-555.847,-233.616 -554.823,-199.298 -554.823,-199.298L-485.168,-158.832L-478.739,-162.549L-478.721,-155.215L-446.081,-136.256L-425.76,-147.989L-425.736,-125.239L-371.329,-93.628L-351.755,-104.873L-351.707,-87.077L-319.085,-68.109L-258.235,-103.24L-246.754,-15.432L-194.705,6.415L-0.342,-141.571C-0.342,-141.571 2.325,-228.876 0,-230.38" style="fill:rgb(244,245,252);fill-rule:nonzero;"/>
                    </g>
                </g>
                <g opacity="0.18">
                    <g transform="matrix(1,0,0,1,1731.97,917.655)">
                        <path d="M0,-230.38C0,-230.38 -555.853,-236.795 -555.847,-233.882C-555.847,-233.616 -554.823,-199.298 -554.823,-199.298L-485.168,-158.832L-478.739,-162.549L-478.721,-155.215L-446.081,-136.256L-425.76,-147.989L-425.737,-125.239L-371.329,-93.628L-351.755,-104.873L-351.707,-87.077L-319.085,-68.109L-258.235,-103.24L-246.754,-15.432L-194.705,6.415L-0.342,-141.571C-0.342,-141.571 2.324,-228.876 0,-230.38" style="fill:rgb(242,244,251);fill-rule:nonzero;"/>
                    </g>
                </g>
                <g opacity="0.2">
                    <g transform="matrix(1,0,0,1,1727.05,917.655)">
                        <path d="M0,-230.38C0,-230.38 -555.853,-236.795 -555.847,-233.882C-555.847,-233.616 -554.823,-199.298 -554.823,-199.298L-485.168,-158.832L-478.74,-162.549L-478.721,-155.215L-446.081,-136.256L-425.76,-147.989L-425.737,-125.239L-371.329,-93.628L-351.756,-104.873L-351.707,-87.077L-319.085,-68.109L-258.235,-103.24L-246.754,-15.432L-194.705,6.415L-0.342,-141.571C-0.342,-141.571 2.324,-228.876 0,-230.38" style="fill:rgb(241,243,251);fill-rule:nonzero;"/>
                    </g>
                </g>
                <g opacity="0.22">
                    <g transform="matrix(1,0,0,1,1722.14,917.655)">
                        <path d="M0,-230.38C0,-230.38 -555.854,-236.795 -555.848,-233.882C-555.848,-233.616 -554.824,-199.298 -554.824,-199.298L-485.168,-158.832L-478.74,-162.549L-478.721,-155.215L-446.081,-136.256L-425.76,-147.989L-425.737,-125.239L-371.329,-93.628L-351.756,-104.873L-351.707,-87.077L-319.085,-68.109L-258.235,-103.24L-246.755,-15.432L-194.705,6.415L-0.342,-141.571C-0.342,-141.571 2.324,-228.876 0,-230.38" style="fill:rgb(239,241,251);fill-rule:nonzero;"/>
                    </g>
                </g>
                <g opacity="0.24">
                    <g transform="matrix(1,0,0,1,1717.23,917.655)">
                        <path d="M0,-230.38C0,-230.38 -555.854,-236.795 -555.848,-233.882C-555.848,-233.616 -554.824,-199.298 -554.824,-199.298L-485.169,-158.832L-478.74,-162.549L-478.721,-155.215L-446.082,-136.256L-425.76,-147.989L-425.737,-125.239L-371.33,-93.628L-351.756,-104.873L-351.707,-87.077L-319.085,-68.109L-258.235,-103.24L-246.755,-15.432L-194.705,6.415L-0.342,-141.571C-0.342,-141.571 2.324,-228.876 0,-230.38" style="fill:rgb(238,240,250);fill-rule:nonzero;"/>
                    </g>
                </g>
                <g opacity="0.25">
                    <g transform="matrix(1,0,0,1,1712.32,917.655)">
                        <path d="M0,-230.38C0,-230.38 -555.854,-236.795 -555.848,-233.882C-555.848,-233.616 -554.824,-199.298 -554.824,-199.298L-485.169,-158.832L-478.74,-162.549L-478.721,-155.215L-446.082,-136.256L-425.76,-147.989L-425.737,-125.239L-371.33,-93.628L-351.756,-104.873L-351.708,-87.077L-319.085,-68.109L-258.235,-103.24L-246.755,-15.432L-194.705,6.415L-0.342,-141.571C-0.342,-141.571 2.324,-228.876 0,-230.38" style="fill:rgb(237,239,250);fill-rule:nonzero;"/>
                    </g>
                </g>
                <g opacity="0.27">
                    <g transform="matrix(1,0,0,1,1707.41,917.655)">
                        <path d="M0,-230.38C0,-230.38 -555.854,-236.795 -555.85,-233.882C-555.85,-233.616 -554.825,-199.298 -554.825,-199.298L-485.17,-158.832L-478.741,-162.549L-478.722,-155.215L-446.083,-136.256L-425.761,-147.989L-425.739,-125.239L-371.331,-93.628L-351.757,-104.873L-351.709,-87.077L-319.086,-68.109L-258.236,-103.24L-246.756,-15.432L-194.706,6.415L-0.343,-141.571C-0.343,-141.571 2.322,-228.876 0,-230.38" style="fill:rgb(235,238,249);fill-rule:nonzero;"/>
                    </g>
                </g>
                <g opacity="0.29">
                    <g transform="matrix(1,0,0,1,1702.49,917.655)">
                        <path d="M0,-230.38C0,-230.38 -555.854,-236.795 -555.85,-233.882C-555.85,-233.616 -554.825,-199.298 -554.825,-199.298L-485.17,-158.832L-478.741,-162.549L-478.722,-155.215L-446.083,-136.255L-425.761,-147.989L-425.739,-125.238L-371.331,-93.628L-351.757,-104.873L-351.709,-87.077L-319.086,-68.109L-258.236,-103.24L-246.756,-15.432L-194.706,6.415L-0.343,-141.571C-0.343,-141.571 2.322,-228.876 0,-230.38" style="fill:rgb(234,236,249);fill-rule:nonzero;"/>
                    </g>
                </g>
                <g opacity="0.31">
                    <g transform="matrix(1,0,0,1,1697.58,917.655)">
                        <path d="M0,-230.38C0,-230.38 -555.855,-236.795 -555.85,-233.882C-555.85,-233.616 -554.825,-199.298 -554.825,-199.298L-485.171,-158.832L-478.742,-162.549L-478.722,-155.215L-446.083,-136.255L-425.762,-147.989L-425.739,-125.238L-371.332,-93.628L-351.757,-104.873L-351.709,-87.077L-319.086,-68.109L-258.236,-103.24L-246.757,-15.432L-194.706,6.415L-0.344,-141.571C-0.344,-141.571 2.322,-228.876 0,-230.38" style="fill:rgb(232,235,249);fill-rule:nonzero;"/>
                    </g>
                </g>
                <g opacity="0.33">
                    <g transform="matrix(1,0,0,1,1692.67,917.655)">
                        <path d="M0,-230.38C0,-230.38 -555.855,-236.795 -555.85,-233.882C-555.85,-233.616 -554.825,-199.298 -554.825,-199.298L-485.171,-158.832L-478.742,-162.549L-478.722,-155.215L-446.083,-136.255L-425.762,-147.989L-425.739,-125.238L-371.332,-93.628L-351.757,-104.873L-351.709,-87.077L-319.086,-68.109L-258.236,-103.24L-246.757,-15.432L-194.706,6.415L-0.344,-141.571C-0.344,-141.571 2.322,-228.876 0,-230.38" style="fill:rgb(231,234,248);fill-rule:nonzero;"/>
                    </g>
                </g>
                <g opacity="0.35">
                    <g transform="matrix(1,0,0,1,1687.76,917.655)">
                        <path d="M0,-230.38C0,-230.38 -555.855,-236.795 -555.851,-233.882C-555.851,-233.616 -554.825,-199.298 -554.825,-199.298L-485.171,-158.832L-478.742,-162.549L-478.722,-155.215L-446.084,-136.255L-425.762,-147.989L-425.739,-125.238L-371.332,-93.628L-351.757,-104.873L-351.71,-87.077L-319.086,-68.109L-258.236,-103.24L-246.757,-15.432L-194.706,6.415L-0.344,-141.571C-0.344,-141.571 2.322,-228.876 0,-230.38" style="fill:rgb(230,233,248);fill-rule:nonzero;"/>
                    </g>
                </g>
                <g opacity="0.37">
                    <g transform="matrix(1,0,0,1,1682.85,917.655)">
                        <path d="M0,-230.38C0,-230.38 -555.855,-236.795 -555.851,-233.882C-555.851,-233.616 -554.825,-199.298 -554.825,-199.298L-485.171,-158.832L-478.742,-162.549L-478.722,-155.215L-446.084,-136.255L-425.762,-147.989L-425.74,-125.238L-371.332,-93.628L-351.757,-104.873L-351.71,-87.077L-319.086,-68.109L-258.236,-103.24L-246.757,-15.432L-194.706,6.415L-0.344,-141.571C-0.344,-141.571 2.321,-228.876 0,-230.38" style="fill:rgb(228,232,248);fill-rule:nonzero;"/>
                    </g>
                </g>
                <g opacity="0.39">
                    <g transform="matrix(1,0,0,1,1677.93,917.655)">
                        <path d="M0,-230.38C0,-230.38 -555.855,-236.795 -555.851,-233.882C-555.851,-233.616 -554.826,-199.298 -554.826,-199.298L-485.172,-158.832L-478.742,-162.549L-478.723,-155.215L-446.084,-136.255L-425.762,-147.989L-425.74,-125.238L-371.333,-93.628L-351.757,-104.873L-351.71,-87.077L-319.086,-68.109L-258.236,-103.24L-246.757,-15.432L-194.706,6.415L-0.344,-141.571C-0.344,-141.571 2.321,-228.876 0,-230.38" style="fill:rgb(227,230,247);fill-rule:nonzero;"/>
                    </g>
                </g>
                <g opacity="0.41">
                    <g transform="matrix(1,0,0,1,1673.02,917.655)">
                        <path d="M0,-230.38C0,-230.38 -555.856,-236.795 -555.851,-233.882C-555.851,-233.616 -554.826,-199.298 -554.826,-199.298L-485.172,-158.832L-478.742,-162.549L-478.723,-155.215L-446.084,-136.255L-425.762,-147.989L-425.74,-125.238L-371.333,-93.628L-351.757,-104.873L-351.71,-87.077L-319.086,-68.109L-258.236,-103.24L-246.758,-15.432L-194.706,6.415L-0.344,-141.571C-0.344,-141.571 2.321,-228.875 0,-230.38" style="fill:rgb(225,229,247);fill-rule:nonzero;"/>
                    </g>
                </g>
                <g opacity="0.43">
                    <g transform="matrix(1,0,0,1,1668.11,917.655)">
                        <path d="M0,-230.38C0,-230.38 -555.856,-236.795 -555.852,-233.882C-555.852,-233.616 -554.826,-199.298 -554.826,-199.298L-485.172,-158.832L-478.742,-162.549L-478.723,-155.215L-446.084,-136.255L-425.762,-147.989L-425.74,-125.237L-371.333,-93.628L-351.757,-104.873L-351.71,-87.077L-319.086,-68.109L-258.236,-103.24L-246.758,-15.432L-194.706,6.415L-0.344,-141.571C-0.344,-141.571 2.321,-228.875 0,-230.38" style="fill:rgb(224,228,246);fill-rule:nonzero;"/>
                    </g>
                </g>
                <g opacity="0.45">
                    <g transform="matrix(1,0,0,1,1663.2,917.655)">
                        <path d="M0,-230.38C0,-230.38 -555.856,-236.795 -555.852,-233.882C-555.852,-233.616 -554.826,-199.298 -554.826,-199.298L-485.172,-158.832L-478.743,-162.549L-478.723,-155.215L-446.085,-136.254L-425.762,-147.989L-425.74,-125.237L-371.333,-93.628L-351.757,-104.873L-351.71,-87.077L-319.086,-68.109L-258.236,-103.24L-246.758,-15.432L-194.706,6.415L-0.344,-141.571C-0.344,-141.571 2.321,-228.875 0,-230.38" style="fill:rgb(223,227,246);fill-rule:nonzero;"/>
                    </g>
                </g>
                <g opacity="0.47">
                    <g transform="matrix(1,0,0,1,1658.29,917.655)">
                        <path d="M0,-230.38C0,-230.38 -555.856,-236.795 -555.852,-233.882C-555.852,-233.616 -554.826,-199.298 -554.826,-199.298L-485.173,-158.832L-478.743,-162.549L-478.723,-155.215L-446.085,-136.254L-425.762,-147.989L-425.741,-125.237L-371.334,-93.628L-351.757,-104.873L-351.711,-87.077L-319.086,-68.109L-258.236,-103.24L-246.758,-15.432L-194.706,6.415L-0.344,-141.571C-0.344,-141.571 2.32,-228.875 0,-230.38" style="fill:rgb(221,225,246);fill-rule:nonzero;"/>
                    </g>
                </g>
                <g opacity="0.49">
                    <g transform="matrix(1,0,0,1,1653.37,917.655)">
                        <path d="M0,-230.38C0,-230.38 -555.856,-236.795 -555.852,-233.882C-555.852,-233.616 -554.826,-199.298 -554.826,-199.298L-485.173,-158.832L-478.743,-162.549L-478.723,-155.215L-446.085,-136.254L-425.762,-147.989L-425.741,-125.237L-371.334,-93.628L-351.757,-104.873L-351.711,-87.077L-319.086,-68.109L-258.236,-103.24L-246.758,-15.432L-194.706,6.415L-0.345,-141.571C-0.345,-141.571 2.32,-228.875 0,-230.38" style="fill:rgb(220,224,245);fill-rule:nonzero;"/>
                    </g>
                </g>
                <g opacity="0.51">
                    <g transform="matrix(1,0,0,1,1648.46,917.655)">
                        <path d="M0,-230.38C0,-230.38 -555.858,-236.795 -555.854,-233.882C-555.854,-233.616 -554.827,-199.298 -554.827,-199.298L-485.174,-158.832L-478.744,-162.549L-478.724,-155.215L-446.086,-136.254L-425.763,-147.989L-425.742,-125.237L-371.335,-93.628L-351.758,-104.873L-351.712,-87.077L-319.087,-68.109L-258.237,-103.24L-246.76,-15.432L-194.707,6.415L-0.346,-141.571C-0.346,-141.571 2.319,-228.875 0,-230.38" style="fill:rgb(218,223,245);fill-rule:nonzero;"/>
                    </g>
                </g>
                <g opacity="0.53">
                    <g transform="matrix(1,0,0,1,1643.55,917.655)">
                        <path d="M0,-230.38C0,-230.38 -555.858,-236.795 -555.854,-233.882C-555.854,-233.616 -554.827,-199.298 -554.827,-199.298L-485.174,-158.832L-478.744,-162.549L-478.724,-155.215L-446.086,-136.254L-425.763,-147.989L-425.742,-125.237L-371.335,-93.628L-351.758,-104.873L-351.712,-87.077L-319.087,-68.109L-258.237,-103.24L-246.76,-15.432L-194.708,6.415L-0.346,-141.571C-0.346,-141.571 2.319,-228.875 0,-230.38" style="fill:rgb(217,222,244);fill-rule:nonzero;"/>
                    </g>
                </g>
                <g opacity="0.55">
                    <g transform="matrix(1,0,0,1,1638.64,917.655)">
                        <path d="M0,-230.38C0,-230.38 -555.858,-236.795 -555.854,-233.882C-555.854,-233.616 -554.827,-199.298 -554.827,-199.298L-485.175,-158.832L-478.744,-162.549L-478.724,-155.215L-446.086,-136.254L-425.763,-147.989L-425.742,-125.237L-371.336,-93.628L-351.758,-104.873L-351.712,-87.077L-319.087,-68.109L-258.237,-103.24L-246.76,-15.432L-194.708,6.415L-0.346,-141.571C-0.346,-141.571 2.319,-228.875 0,-230.38" style="fill:rgb(215,220,244);fill-rule:nonzero;"/>
                    </g>
                </g>
                <g opacity="0.57">
                    <g transform="matrix(1,0,0,1,1633.73,917.655)">
                        <path d="M0,-230.38C0,-230.38 -555.858,-236.795 -555.854,-233.882C-555.854,-233.616 -554.828,-199.298 -554.828,-199.298L-485.175,-158.832L-478.745,-162.549L-478.724,-155.215L-446.087,-136.254L-425.763,-147.989L-425.743,-125.237L-371.336,-93.628L-351.759,-104.873L-351.713,-87.077L-319.087,-68.109L-258.237,-103.24L-246.76,-15.432L-194.708,6.415L-0.346,-141.571C-0.346,-141.571 2.318,-228.875 0,-230.38" style="fill:rgb(214,219,244);fill-rule:nonzero;"/>
                    </g>
                </g>
                <g opacity="0.59">
                    <g transform="matrix(1,0,0,1,1628.81,917.655)">
                        <path d="M0,-230.38C0,-230.38 -555.858,-236.795 -555.854,-233.882C-555.854,-233.616 -554.828,-199.298 -554.828,-199.298L-485.175,-158.832L-478.745,-162.549L-478.724,-155.215L-446.087,-136.254L-425.763,-147.989L-425.743,-125.236L-371.336,-93.628L-351.759,-104.873L-351.713,-87.077L-319.087,-68.109L-258.237,-103.24L-246.76,-15.432L-194.708,6.415L-0.346,-141.571C-0.346,-141.571 2.318,-228.875 0,-230.38" style="fill:rgb(213,218,243);fill-rule:nonzero;"/>
                    </g>
                </g>
                <g opacity="0.61">
                    <g transform="matrix(1,0,0,1,1623.9,917.655)">
                        <path d="M0,-230.38C0,-230.38 -555.859,-236.795 -555.854,-233.882C-555.854,-233.616 -554.828,-199.298 -554.828,-199.298L-485.175,-158.832L-478.745,-162.549L-478.724,-155.215L-446.087,-136.253L-425.763,-147.989L-425.743,-125.236L-371.336,-93.628L-351.759,-104.873L-351.713,-87.077L-319.087,-68.109L-258.237,-103.24L-246.76,-15.432L-194.708,6.415L-0.346,-141.571C-0.346,-141.571 2.318,-228.875 0,-230.38" style="fill:rgb(211,217,243);fill-rule:nonzero;"/>
                    </g>
                </g>
                <g opacity="0.63">
                    <g transform="matrix(1,0,0,1,1618.99,917.655)">
                        <path d="M0,-230.38C0,-230.38 -555.859,-236.795 -555.854,-233.882C-555.854,-233.616 -554.828,-199.298 -554.828,-199.298L-485.175,-158.832L-478.745,-162.549L-478.724,-155.215L-446.087,-136.253L-425.763,-147.989L-425.743,-125.236L-371.337,-93.628L-351.759,-104.873L-351.713,-87.077L-319.087,-68.109L-258.237,-103.24L-246.761,-15.432L-194.708,6.415L-0.346,-141.571C-0.346,-141.571 2.318,-228.875 0,-230.38" style="fill:rgb(210,215,243);fill-rule:nonzero;"/>
                    </g>
                </g>
                <g opacity="0.65">
                    <g transform="matrix(1,0,0,1,1614.08,917.655)">
                        <path d="M0,-230.38C0,-230.38 -555.859,-236.795 -555.855,-233.882C-555.855,-233.616 -554.828,-199.298 -554.828,-199.298L-485.176,-158.832L-478.745,-162.549L-478.724,-155.215L-446.087,-136.253L-425.763,-147.989L-425.743,-125.236L-371.337,-93.628L-351.759,-104.873L-351.713,-87.077L-319.087,-68.109L-258.237,-103.24L-246.761,-15.432L-194.708,6.415L-0.346,-141.571C-0.346,-141.571 2.318,-228.875 0,-230.38" style="fill:rgb(208,214,242);fill-rule:nonzero;"/>
                    </g>
                </g>
                <g opacity="0.67">
                    <g transform="matrix(1,0,0,1,1609.16,917.655)">
                        <path d="M0,-230.38C0,-230.38 -555.859,-236.795 -555.855,-233.882C-555.855,-233.616 -554.828,-199.298 -554.828,-199.298L-485.176,-158.832L-478.745,-162.549L-478.725,-155.215L-446.088,-136.253L-425.763,-147.989L-425.744,-125.236L-371.337,-93.628L-351.759,-104.873L-351.713,-87.077L-319.087,-68.109L-258.237,-103.24L-246.761,-15.432L-194.708,6.415L-0.347,-141.571C-0.347,-141.571 2.317,-228.875 0,-230.38" style="fill:rgb(207,213,242);fill-rule:nonzero;"/>
                    </g>
                </g>
                <g opacity="0.69">
                    <g transform="matrix(1,0,0,1,1604.25,917.655)">
                        <path d="M0,-230.38C0,-230.38 -555.859,-236.795 -555.855,-233.882C-555.855,-233.616 -554.828,-199.298 -554.828,-199.298L-485.176,-158.832L-478.745,-162.549L-478.725,-155.215L-446.088,-136.253L-425.763,-147.989L-425.744,-125.236L-371.337,-93.628L-351.759,-104.873L-351.714,-87.077L-319.087,-68.109L-258.237,-103.24L-246.761,-15.432L-194.708,6.415L-0.347,-141.571C-0.347,-141.571 2.317,-228.875 0,-230.38" style="fill:rgb(206,212,241);fill-rule:nonzero;"/>
                    </g>
                </g>
                <g opacity="0.71">
                    <g transform="matrix(1,0,0,1,1599.34,917.655)">
                        <path d="M0,-230.38C0,-230.38 -555.86,-236.795 -555.855,-233.882C-555.855,-233.616 -554.828,-199.298 -554.828,-199.298L-485.176,-158.832L-478.746,-162.549L-478.725,-155.215L-446.088,-136.253L-425.763,-147.989L-425.744,-125.236L-371.338,-93.628L-351.759,-104.873L-351.714,-87.077L-319.087,-68.109L-258.237,-103.24L-246.761,-15.432L-194.708,6.415L-0.347,-141.571C-0.347,-141.571 2.317,-228.875 0,-230.38" style="fill:rgb(204,211,241);fill-rule:nonzero;"/>
                    </g>
                </g>
                <g opacity="0.73">
                    <g transform="matrix(1,0,0,1,1594.43,917.655)">
                        <path d="M0,-230.38C0,-230.38 -555.86,-236.795 -555.856,-233.882C-555.856,-233.616 -554.828,-199.298 -554.828,-199.298L-485.177,-158.832L-478.746,-162.549L-478.725,-155.215L-446.088,-136.253L-425.763,-147.989L-425.744,-125.236L-371.338,-93.628L-351.759,-104.873L-351.714,-87.077L-319.087,-68.109L-258.237,-103.24L-246.762,-15.432L-194.708,6.415L-0.347,-141.571C-0.347,-141.571 2.317,-228.875 0,-230.38" style="fill:rgb(203,209,240);fill-rule:nonzero;"/>
                    </g>
                </g>
                <g opacity="0.75">
                    <g transform="matrix(1,0,0,1,1589.52,917.655)">
                        <path d="M0,-230.38C0,-230.38 -555.861,-236.795 -555.857,-233.882C-555.857,-233.616 -554.83,-199.298 -554.83,-199.298L-485.178,-158.832L-478.747,-162.549L-478.726,-155.215L-446.089,-136.252L-425.764,-147.989L-425.745,-125.235L-371.339,-93.628L-351.76,-104.873L-351.715,-87.077L-319.089,-68.109L-258.238,-103.24L-246.763,-15.432L-194.709,6.415L-0.348,-141.571C-0.348,-141.571 2.316,-228.875 0,-230.38" style="fill:rgb(201,208,240);fill-rule:nonzero;"/>
                    </g>
                </g>
                <g opacity="0.76">
                    <g transform="matrix(1,0,0,1,1584.61,917.655)">
                        <path d="M0,-230.38C0,-230.38 -555.861,-236.795 -555.857,-233.882C-555.857,-233.616 -554.83,-199.298 -554.83,-199.298L-485.178,-158.832L-478.747,-162.549L-478.726,-155.215L-446.089,-136.252L-425.764,-147.989L-425.746,-125.235L-371.339,-93.628L-351.76,-104.873L-351.715,-87.077L-319.089,-68.109L-258.238,-103.24L-246.763,-15.432L-194.709,6.415L-0.348,-141.571C-0.348,-141.571 2.315,-228.875 0,-230.38" style="fill:rgb(200,207,240);fill-rule:nonzero;"/>
                    </g>
                </g>
                <g opacity="0.78">
                    <g transform="matrix(1,0,0,1,1579.69,917.655)">
                        <path d="M0,-230.38C0,-230.38 -555.861,-236.795 -555.857,-233.882C-555.857,-233.616 -554.83,-199.298 -554.83,-199.298L-485.178,-158.832L-478.747,-162.549L-478.726,-155.215L-446.09,-136.252L-425.764,-147.989L-425.746,-125.235L-371.339,-93.628L-351.76,-104.873L-351.716,-87.077L-319.089,-68.109L-258.238,-103.24L-246.763,-15.432L-194.709,6.415L-0.348,-141.571C-0.348,-141.571 2.315,-228.875 0,-230.38" style="fill:rgb(199,206,239);fill-rule:nonzero;"/>
                    </g>
                </g>
                <g opacity="0.8">
                    <g transform="matrix(1,0,0,1,1574.78,917.655)">
                        <path d="M0,-230.38C0,-230.38 -555.862,-236.795 -555.858,-233.882C-555.858,-233.616 -554.83,-199.298 -554.83,-199.298L-485.179,-158.832L-478.747,-162.549L-478.726,-155.215L-446.09,-136.252L-425.764,-147.989L-425.746,-125.235L-371.34,-93.628L-351.76,-104.873L-351.716,-87.077L-319.089,-68.109L-258.238,-103.24L-246.763,-15.432L-194.709,6.415L-0.348,-141.571C-0.348,-141.571 2.315,-228.875 0,-230.38" style="fill:rgb(197,204,239);fill-rule:nonzero;"/>
                    </g>
                </g>
                <g opacity="0.82">
                    <g transform="matrix(1,0,0,1,1569.87,917.655)">
                        <path d="M0,-230.38C0,-230.38 -555.862,-236.795 -555.858,-233.882C-555.858,-233.616 -554.83,-199.298 -554.83,-199.298L-485.179,-158.832L-478.748,-162.549L-478.726,-155.215L-446.09,-136.252L-425.764,-147.989L-425.746,-125.235L-371.34,-93.628L-351.76,-104.873L-351.716,-87.077L-319.089,-68.109L-258.238,-103.24L-246.764,-15.432L-194.709,6.415L-0.348,-141.571C-0.348,-141.571 2.315,-228.875 0,-230.38" style="fill:rgb(196,203,238);fill-rule:nonzero;"/>
                    </g>
                </g>
                <g opacity="0.84">
                    <g transform="matrix(1,0,0,1,1564.96,917.655)">
                        <path d="M0,-230.38C0,-230.38 -555.862,-236.795 -555.858,-233.882C-555.858,-233.616 -554.83,-199.298 -554.83,-199.298L-485.179,-158.832L-478.748,-162.549L-478.726,-155.215L-446.09,-136.252L-425.764,-147.989L-425.746,-125.235L-371.34,-93.628L-351.76,-104.873L-351.716,-87.077L-319.089,-68.109L-258.238,-103.24L-246.764,-15.432L-194.709,6.415L-0.349,-141.571C-0.349,-141.571 2.315,-228.875 0,-230.38" style="fill:rgb(194,202,238);fill-rule:nonzero;"/>
                    </g>
                </g>
                <g opacity="0.86">
                    <g transform="matrix(1,0,0,1,1560.04,917.655)">
                        <path d="M0,-230.38C0,-230.38 -555.862,-236.795 -555.858,-233.882C-555.858,-233.616 -554.83,-199.298 -554.83,-199.298L-485.179,-158.832L-478.748,-162.549L-478.726,-155.215L-446.09,-136.252L-425.764,-147.989L-425.747,-125.235L-371.34,-93.628L-351.76,-104.873L-351.716,-87.077L-319.089,-68.109L-258.238,-103.24L-246.764,-15.432L-194.709,6.415L-0.349,-141.571C-0.349,-141.571 2.314,-228.875 0,-230.38" style="fill:rgb(193,201,238);fill-rule:nonzero;"/>
                    </g>
                </g>
                <g opacity="0.88">
                    <g transform="matrix(1,0,0,1,1555.13,917.655)">
                        <path d="M0,-230.38C0,-230.38 -555.862,-236.795 -555.859,-233.882C-555.859,-233.616 -554.83,-199.298 -554.83,-199.298L-485.18,-158.832L-478.748,-162.549L-478.726,-155.215L-446.091,-136.252L-425.764,-147.989L-425.747,-125.234L-371.341,-93.628L-351.76,-104.873L-351.716,-87.077L-319.089,-68.109L-258.238,-103.24L-246.764,-15.432L-194.709,6.415L-0.349,-141.571C-0.349,-141.571 2.314,-228.875 0,-230.38" style="fill:rgb(192,199,237);fill-rule:nonzero;"/>
                    </g>
                </g>
                <g opacity="0.9">
                    <g transform="matrix(1,0,0,1,1550.22,917.655)">
                        <path d="M0,-230.38C0,-230.38 -555.863,-236.795 -555.859,-233.882C-555.859,-233.616 -554.83,-199.298 -554.83,-199.298L-485.18,-158.832L-478.748,-162.549L-478.726,-155.215L-446.091,-136.251L-425.764,-147.989L-425.747,-125.234L-371.341,-93.628L-351.76,-104.873L-351.717,-87.077L-319.089,-68.109L-258.238,-103.24L-246.764,-15.432L-194.709,6.415L-0.349,-141.571C-0.349,-141.571 2.314,-228.875 0,-230.38" style="fill:rgb(190,198,237);fill-rule:nonzero;"/>
                    </g>
                </g>
                <g opacity="0.92">
                    <g transform="matrix(1,0,0,1,1545.31,917.655)">
                        <path d="M0,-230.38C0,-230.38 -555.863,-236.795 -555.859,-233.882C-555.859,-233.616 -554.831,-199.298 -554.831,-199.298L-485.18,-158.832L-478.748,-162.549L-478.726,-155.215L-446.091,-136.251L-425.764,-147.989L-425.747,-125.234L-371.341,-93.628L-351.76,-104.873L-351.717,-87.077L-319.089,-68.109L-258.238,-103.24L-246.765,-15.432L-194.709,6.415L-0.349,-141.571C-0.349,-141.571 2.314,-228.875 0,-230.38" style="fill:rgb(189,197,237);fill-rule:nonzero;"/>
                    </g>
                </g>
                <g opacity="0.94">
                    <g transform="matrix(1,0,0,1,1540.4,917.655)">
                        <path d="M0,-230.38C0,-230.38 -555.863,-236.795 -555.859,-233.882C-555.859,-233.616 -554.831,-199.298 -554.831,-199.298L-485.18,-158.832L-478.748,-162.549L-478.726,-155.215L-446.091,-136.251L-425.764,-147.989L-425.747,-125.234L-371.341,-93.628L-351.76,-104.873L-351.717,-87.077L-319.089,-68.109L-258.238,-103.24L-246.765,-15.432L-194.709,6.415L-0.349,-141.571C-0.349,-141.571 2.314,-228.875 0,-230.38" style="fill:rgb(187,196,236);fill-rule:nonzero;"/>
                    </g>
                </g>
                <g opacity="0.96">
                    <g transform="matrix(1,0,0,1,1535.48,917.655)">
                        <path d="M0,-230.38C0,-230.38 -555.863,-236.795 -555.86,-233.882C-555.86,-233.616 -554.831,-199.298 -554.831,-199.298L-485.181,-158.832L-478.749,-162.549L-478.727,-155.215L-446.091,-136.251L-425.764,-147.989L-425.747,-125.234L-371.342,-93.628L-351.761,-104.873L-351.717,-87.077L-319.089,-68.109L-258.238,-103.24L-246.765,-15.432L-194.71,6.415L-0.349,-141.571C-0.349,-141.571 2.313,-228.875 0,-230.38" style="fill:rgb(186,195,236);fill-rule:nonzero;"/>
                    </g>
                </g>
                <g opacity="0.98">
                    <g transform="matrix(1,0,0,1,1530.57,917.655)">
                        <path d="M0,-230.38C0,-230.38 -555.864,-236.795 -555.861,-233.882C-555.861,-233.616 -554.832,-199.298 -554.832,-199.298L-485.182,-158.832L-478.75,-162.549L-478.728,-155.215L-446.092,-136.251L-425.765,-147.989L-425.749,-125.234L-371.343,-93.628L-351.762,-104.873L-351.718,-87.077L-319.09,-68.109L-258.239,-103.24L-246.766,-15.432L-194.711,6.415L-0.35,-141.571C-0.35,-141.571 2.313,-228.875 0,-230.38" style="fill:rgb(184,193,235);fill-rule:nonzero;"/>
                    </g>
                </g>
                <g transform="matrix(1,0,0,1,1525.66,917.655)">
                    <path d="M0,-230.38C0,-230.38 -555.865,-236.795 -555.861,-233.882C-555.861,-233.616 -554.832,-199.298 -554.832,-199.298L-485.182,-158.832L-478.75,-162.549L-478.728,-155.215L-446.093,-136.251L-425.766,-147.989L-425.749,-125.234L-371.343,-93.628L-351.762,-104.873L-351.719,-87.077L-319.09,-68.109L-258.239,-103.24L-246.766,-15.432L-194.711,6.415L-0.35,-141.571C-0.35,-141.571 2.313,-228.875 0,-230.38" style="fill:rgb(183,192,235);fill-rule:nonzero;"/>
                </g>
            </g>
        </g>
        <g transform="matrix(1,0,0,1,1525.65,917.059)">
            <path d="M0,-230.384C0,-230.384 -555.856,-236.799 -555.853,-233.886C-555.853,-233.627 -554.823,-199.31 -554.823,-199.31L-485.173,-158.844L-478.741,-162.557L-478.726,-155.216L-446.084,-136.261L-425.763,-147.994L-425.74,-125.244L-371.334,-93.639L-351.76,-104.877L-351.71,-87.081L-319.084,-68.114L-258.236,-103.245L-246.757,-15.432L-194.702,6.415L-0.349,-141.583C-0.349,-141.583 2.321,-228.885 0,-230.384" style="fill:rgb(183,192,235);fill-rule:nonzero;"/>
        </g>
        <g transform="matrix(17.7209,0,0,-17.7209,1196.31,228.343)">
            <rect x="0" y="-0.703" width="1" height="1.405" style="fill:url(#_Linear2);"/>
        </g>
        <g transform="matrix(1.41747,502.502,502.502,-1.41747,1156.08,250.909)">
            <path d="M0.271,-0.235L0.999,-0.235L0.729,0.235L0.001,0.235L0.271,-0.235Z" style="fill:url(#_Linear3);fill-rule:nonzero;"/>
        </g>
        <g transform="matrix(335.093,194.665,194.665,-335.093,836.386,452.744)">
            <path d="M0.635,-0.408L0.842,-0.408L0.365,0.408L0.158,0.408L0.635,-0.408Z" style="fill:url(#_Linear4);fill-rule:nonzero;"/>
        </g>
        <g transform="matrix(0.866019,-0.500011,-0.500011,-0.866019,1029.05,407.503)">
            <path d="M-5.965,73.606L245.248,73.606L274.687,22.246L23.484,22.26L-5.965,73.606Z" style="fill:rgb(252,252,255);fill-rule:nonzero;"/>
        </g>
        <g transform="matrix(305.698,0,0,-305.698,968.604,298.828)">
            <path d="M0,-0.157L0.228,-0.289L1,0.157L0.97,0.174L0.257,-0.237L0.09,-0.14L0.803,0.271L0.772,0.289L0,-0.157Z" style="fill:url(#_Linear5);fill-rule:nonzero;"/>
        </g>
        <g transform="matrix(5.72616,0,0,-5.72616,1281.31,262.996)">
            <rect x="0" y="-0.848" width="1" height="1.695" style="fill:url(#_Linear6);"/>
        </g>
        <g transform="matrix(0.662947,237.101,237.101,-0.662947,1195.56,406.175)">
            <path d="M0.014,-0.499L1.558,-0.499L0.986,0.499L-0.558,0.499L0.014,-0.499Z" style="fill:url(#_Linear7);fill-rule:nonzero;"/>
        </g>
        <g transform="matrix(302.999,176.032,176.032,-302.999,910.036,495.38)">
            <path d="M0.71,-0.451L0.818,-0.451L0.29,0.451L0.182,0.451L0.71,-0.451Z" style="fill:url(#_Linear8);fill-rule:nonzero;"/>
        </g>
        <g transform="matrix(0.865937,-0.500153,-0.500153,-0.865937,1102.13,443.597)">
            <path d="M-12.068,69.982L246.443,69.982L260.062,43.249L-0.434,46.758L-12.068,69.982Z" style="fill:rgb(252,246,255);fill-rule:nonzero;"/>
        </g>
        <g transform="matrix(268.7,0,0,-268.7,1044.7,332.134)">
            <path d="M0,-0.218L0.121,-0.289L1,0.218L0.977,0.231L0.138,-0.252L0.063,-0.208L0.902,0.275L0.879,0.289L0,-0.218Z" style="fill:url(#_Linear9);fill-rule:nonzero;"/>
        </g>
        <g transform="matrix(11.9172,0,0,-11.9172,1331.82,296.715)">
            <rect x="-0" y="-0.557" width="1" height="1.114" style="fill:url(#_Linear10);"/>
        </g>
        <g transform="matrix(0.276874,318.209,318.209,-0.276874,1270.86,408.362)">
            <path d="M0.137,-0.371L1.289,-0.371L0.863,0.371L-0.289,0.371L0.137,-0.371Z" style="fill:url(#_Linear11);fill-rule:nonzero;"/>
        </g>
        <g transform="matrix(0.8646,-0.50246,-0.50246,-0.8646,1155.45,481.531)">
            <path d="M-8.571,72.62L247.951,72.62L270.215,33.059L11.467,32.678L-8.571,72.62Z" style="fill:rgb(252,252,255);fill-rule:nonzero;"/>
        </g>
        <g transform="matrix(290.483,0,0,-290.483,1098.4,368.347)">
            <path d="M-0,-0.179L0.187,-0.288L1,0.179L0.968,0.198L0.212,-0.237L0.088,-0.165L0.845,0.269L0.813,0.288L-0,-0.179Z" style="fill:url(#_Linear12);fill-rule:nonzero;"/>
        </g>
        <g transform="matrix(321.856,187.019,187.019,-321.856,964.825,525.989)">
            <path d="M0.663,-0.426L0.832,-0.426L0.337,0.426L0.168,0.426L0.663,-0.426Z" style="fill:url(#_Linear13);fill-rule:nonzero;"/>
        </g>
        <g transform="matrix(5.73374,0,0,-5.73374,1408.29,331.126)">
            <rect x="0" y="-0.846" width="1" height="1.691" style="fill:url(#_Linear14);"/>
        </g>
        <g transform="matrix(0.936891,330.24,330.24,-0.936891,1322.41,427.753)">
            <path d="M0.151,-0.358L1.26,-0.358L0.849,0.358L-0.26,0.358L0.151,-0.358Z" style="fill:url(#_Linear15);fill-rule:nonzero;"/>
        </g>
        <g transform="matrix(302.959,176.104,176.104,-302.959,1037.06,563.492)">
            <path d="M0.71,-0.451L0.818,-0.451L0.29,0.451L0.182,0.451L0.71,-0.451Z" style="fill:url(#_Linear16);fill-rule:nonzero;"/>
        </g>
        <g transform="matrix(0.865941,-0.500147,-0.500147,-0.865941,1229.13,511.737)">
            <path d="M-12.07,69.978L246.442,69.978L260.052,43.263L-0.434,46.759L-12.07,69.978Z" style="fill:rgb(252,246,255);fill-rule:nonzero;"/>
        </g>
        <g transform="matrix(268.697,0,0,-268.697,1171.71,400.28)">
            <path d="M0,-0.218L0.121,-0.289L1,0.218L0.977,0.231L0.138,-0.252L0.063,-0.208L0.902,0.275L0.878,0.289L0,-0.218Z" style="fill:url(#_Linear17);fill-rule:nonzero;"/>
        </g>
        <g transform="matrix(0.991369,-0.131103,-0.131103,-0.991369,1423.17,440.053)">
            <rect x="-0.828" y="0.652" width="10.717" height="11.927" style="fill:rgb(0,154,193);"/>
        </g>
        <g transform="matrix(38.058,291.139,291.139,-38.058,1379.63,535.982)">
            <path d="M0.147,-0.361L1.267,-0.361L0.853,0.361L-0.267,0.361L0.147,-0.361Z" style="fill:url(#_Linear18);fill-rule:nonzero;"/>
        </g>
        <g transform="matrix(0.79272,-0.609586,-0.609586,-0.79272,1300.35,625.739)">
            <path d="M-14.647,79.762L215.522,79.762L235.478,44.258L3.314,43.912L-14.647,79.762Z" style="fill:white;fill-rule:nonzero;"/>
        </g>
        <g transform="matrix(246.412,0,0,-246.412,1228.1,507.509)">
            <path d="M-0,-0.256L0.211,-0.345L1,0.256L0.964,0.271L0.23,-0.288L0.09,-0.229L0.825,0.33L0.789,0.345L-0,-0.256Z" style="fill:url(#_Linear19);fill-rule:nonzero;"/>
        </g>
        <g transform="matrix(321.636,134.921,134.921,-321.636,1114.63,677.167)">
            <path d="M0.656,-0.408L0.818,-0.408L0.344,0.408L0.182,0.408L0.656,-0.408Z" style="fill:url(#_Linear20);fill-rule:nonzero;"/>
        </g>
        <g transform="matrix(1,0,0,1,1454.79,629.55)">
            <g>
                <path d="M0,94.918C-2.823,94.899 -5.922,95.828 -9.1,97.849C-15.817,102.121 -21.233,110.153 -23.884,118.75C-23.01,120.9 -22.296,123.234 -21.739,125.723C-23.258,127.247 -24.805,128.711 -26.385,130.099C-31.458,105.811 -52.16,96.609 -74.326,110.521C-82.611,115.72 -89.928,123.437 -95.724,132.472C-101.688,125.109 -105.882,115.238 -107.896,103.378C-111.346,83.08 -107.984,59.549 -98.311,37.314C-97.285,34.955 -96.198,32.647 -95.062,30.386L-90.512,59.335L-89.018,57.74C-89.002,57.724 -87.708,56.345 -85.435,54.256L-83.862,64.453L-82.275,62.304C-82.261,62.281 -80.873,60.425 -78.483,57.742L-77.563,63.842L-75.952,61.481C-75.92,61.437 -73.382,57.73 -69.738,53.653C-74.028,60.973 -77.323,68.433 -79.561,75.871L-79.742,76.482L-79.648,77.026C-78.438,84.006 -75.361,89.659 -70.622,93.794C-67.703,96.338 -64.092,97.538 -60.173,97.354C-55.155,97.119 -47.214,97.31 -42.784,100.064L-42.772,100.042C-42.385,100.29 -42.001,100.552 -41.623,100.829C-41.36,100.139 -41.092,99.456 -40.821,98.785L-40.819,98.786C-40.755,98.622 -40.688,98.456 -40.622,98.287C-40.18,97.205 -39.724,96.147 -39.26,95.113C-36.1,88.238 -31.583,81.608 -28.092,76.96C-21.541,68.237 -17.164,57.007 -16.309,46.125C-16.088,43.295 -16.103,40.573 -16.356,37.978L-16.412,37.422L-16.712,37.115C-20.479,33.253 -25.201,30.631 -30.785,29.309C-26.221,28.422 -22.638,28.765 -22.595,28.767L-20.7,28.955L-21.463,22.576C-18.477,22.076 -16.643,22.107 -16.623,22.107L-14.81,22.155L-15.987,12.023C-13.826,11.356 -12.552,11.109 -12.539,11.107L-10.945,10.805L-14.237,-18.177C-12.772,-17.517 -11.34,-16.764 -9.946,-15.904C3.096,-7.871 11.323,7.872 13.406,28.229C14.623,40.126 13.66,52.797 10.705,65.408C3.913,64.258 -3.879,65.943 -11.935,70.917C-22.829,77.817 -32.118,89.413 -38.395,102.679C-37.372,103.143 -36.383,103.681 -35.428,104.282C-29.738,92.482 -21.41,82.193 -11.666,76.064C-4.206,71.372 3.016,69.799 9.285,70.912C8.865,72.408 8.42,73.901 7.944,75.393C2.218,74.38 -4.379,75.823 -11.188,80.115C-20.127,85.749 -27.757,95.219 -32.943,106.063C-31.964,106.856 -31.031,107.731 -30.148,108.684C-25.574,98.805 -18.7,90.135 -10.61,85.022C-4.676,81.273 1.08,79.97 6.095,80.789C5.597,82.15 5.076,83.509 4.531,84.861C0.095,84.236 -4.964,85.437 -10.173,88.734C-17.722,93.514 -24.09,101.734 -28.19,111.034C-27.336,112.174 -26.542,113.398 -25.814,114.708C-22.396,105.937 -16.594,98.037 -9.6,93.599C-5.428,90.951 -1.367,89.884 2.248,90.2C2.153,90.41 2.062,90.62 1.966,90.829C1.332,92.213 0.672,93.571 0,94.918M-21.546,125.525C-20.668,116.59 -15.491,107.103 -8.532,102.667C-6.602,101.437 -4.709,100.718 -2.919,100.446C-8.257,109.999 -14.563,118.478 -21.546,125.525M-33.359,135.623C-37.541,115.511 -54.686,107.984 -72.953,119.501C-79.816,123.827 -85.87,130.253 -90.648,137.76C-91.461,137.049 -92.249,136.299 -93.016,135.515C-87.766,127.263 -81.115,120.208 -73.571,115.461C-53.511,102.84 -34.729,111.168 -30.187,133.253C-31.233,134.072 -32.29,134.864 -33.359,135.623M-40.323,140.03C-43.95,124.637 -57.397,119.077 -71.64,128.096C-76.833,131.384 -81.436,136.185 -85.137,141.795C-85.975,141.289 -86.792,140.75 -87.593,140.178C-83.413,133.697 -78.155,128.155 -72.205,124.395C-56.193,114.275 -41.116,120.725 -37.285,138.236C-38.298,138.866 -39.311,139.465 -40.323,140.03M-48.138,143.74C-51.429,134.148 -60.612,131.051 -70.25,137.182C-73.325,139.138 -76.113,141.828 -78.489,144.968C-79.45,144.619 -80.401,144.234 -81.339,143.806C-81.465,143.75 -81.588,143.687 -81.713,143.627C-78.685,139.274 -75.008,135.554 -70.898,132.945C-59.063,125.433 -47.838,129.725 -44.414,142.131C-45.659,142.716 -46.9,143.257 -48.138,143.74M-74.413,146.184C-72.924,144.538 -71.278,143.108 -69.516,141.984C-62.521,137.524 -55.81,139.172 -52.691,145.297C-60.193,147.494 -67.541,147.812 -74.413,146.184M-98.69,-10.329C-91.109,-22.397 -81.075,-27.651 -74.006,-29.918C-67.675,-31.944 -62.481,-32.026 -60.651,-31.977L-59.538,-24.077L-53.29,23.965L-59.664,32.105L-59.479,33.271C-59.464,33.355 -59.416,33.639 -59.342,34.103C-63.264,35.517 -67.074,37.458 -70.597,39.599C-79.004,44.708 -85.77,50.93 -88.699,53.801L-98.69,-10.329ZM-56.484,32.631L-52.195,27.15L-42.989,95.185C-43.27,95.052 -43.555,94.924 -43.84,94.8C-50.364,69.094 -55.348,39.572 -56.484,32.631M-59.229,91.816C-58.396,90.193 -57.418,88.564 -56.317,86.968C-55.311,85.502 -54.177,84.043 -52.951,82.635C-52.367,81.965 -51.761,81.312 -51.15,80.689C-50.928,80.464 -50.704,80.241 -50.482,80.025C-49.416,84.825 -48.349,89.38 -47.296,93.64C-51.858,92.468 -56.471,92.564 -59.769,92.906C-59.591,92.536 -59.414,92.173 -59.229,91.816M-68.521,81.305C-67.905,80.128 -67.211,78.903 -66.34,77.452C-65.549,76.157 -64.747,74.925 -63.969,73.788C-62.294,71.373 -60.537,69.111 -58.749,67.067C-57.799,65.98 -56.856,64.966 -55.951,64.054C-55.316,63.415 -54.733,62.854 -54.187,62.346C-53.108,67.782 -52.011,73.054 -50.922,78.028C-51.232,78.352 -51.558,78.693 -51.898,79.067C-52.53,79.761 -53.157,80.489 -53.762,81.234C-55.017,82.789 -56.175,84.388 -57.196,85.987C-58.313,87.731 -59.299,89.503 -60.127,91.257C-60.403,91.834 -60.672,92.431 -60.925,93.04L-60.973,93.045C-63.422,93.37 -65.702,92.8 -67.562,91.355C-68.424,90.688 -69.23,89.972 -69.979,89.209C-70.481,88.706 -70.974,88.156 -71.446,87.571C-70.554,85.397 -69.571,83.29 -68.521,81.305M-58.054,41.646C-57.266,46.12 -56.072,52.715 -54.596,60.259C-55.245,60.877 -55.923,61.561 -56.69,62.375C-57.622,63.361 -58.585,64.451 -59.558,65.62C-61.382,67.807 -63.162,70.207 -64.853,72.77C-65.646,73.979 -66.445,75.279 -67.241,76.639C-68.111,78.172 -68.804,79.46 -69.418,80.689C-70.383,82.613 -71.285,84.642 -72.102,86.723C-74.39,83.642 -75.953,79.959 -76.748,75.754C-71.599,59.134 -61.767,46.154 -58.054,41.646M-82.162,58.248L-83.092,52.161C-77.192,47.048 -68.349,40.452 -58.832,37.149L-58.688,37.977C-58.699,37.987 -58.708,37.996 -58.722,38.014C-59.499,38.439 -60.262,38.884 -61.015,39.343C-71.02,45.439 -78.701,54.007 -82.162,58.248M-76.213,55.281C-73.299,52.231 -69.047,48.181 -64.037,44.628C-69.105,48.69 -73.661,54.371 -75.902,57.36L-76.213,55.281ZM-51.038,26.447L-46.049,26.284C-45.945,27.245 -45.786,28.758 -45.59,30.742L-45.621,30.755L-45.57,31.367C-45.541,31.729 -42.562,67.405 -41.485,86.754C-41.398,88.884 -41.321,90.974 -41.257,93.006C-41.473,93.46 -41.684,93.918 -41.89,94.375L-51.038,26.447ZM-23.92,23.061L-23.64,25.379C-26.334,25.355 -31.753,25.674 -37.151,28.122C-31.923,25.273 -27.207,23.811 -23.92,23.061M-42.706,28.296L-42.86,28.399C-42.891,28.128 -42.915,27.863 -42.94,27.608C-33.93,19.439 -24.694,15.074 -18.402,12.83L-17.694,18.853C-21.401,19.118 -31.503,20.567 -42.706,28.296M-23.838,52.436C-24.646,52.096 -25.529,51.798 -26.618,51.5C-27.611,51.249 -28.594,51.059 -29.544,50.936C-31.572,50.687 -33.643,50.677 -35.703,50.896C-36.799,51.007 -37.878,51.18 -38.898,51.4C-39.579,51.547 -40.196,51.701 -40.772,51.864C-41.398,43.882 -42.026,37.007 -42.472,32.36C-38.286,32.078 -27.102,32.189 -19.029,40.136C-18.663,44.502 -19.047,49.312 -20.176,54.452C-21.35,53.637 -22.579,52.961 -23.838,52.436M-29.034,73.446C-31.786,77 -35.379,82.05 -38.616,87.873C-38.652,87.095 -38.696,86.278 -38.742,85.413C-38.896,81.528 -39.092,77.421 -39.33,73.206C-39.222,73.176 -39.113,73.151 -39.006,73.121C-38.34,72.947 -37.67,72.804 -37.011,72.698C-35.641,72.484 -34.336,72.418 -33.136,72.502C-31.826,72.587 -30.61,72.839 -29.524,73.25C-29.359,73.31 -29.195,73.375 -29.034,73.446M-32.646,70.679C-33.892,70.498 -35.249,70.473 -36.685,70.599C-37.372,70.659 -38.077,70.762 -38.78,70.9C-39.018,70.949 -39.241,70.992 -39.453,71.044C-39.771,65.607 -40.158,59.906 -40.602,54.083C-40.125,53.93 -39.623,53.786 -39.104,53.65C-38.121,53.395 -37.08,53.185 -36.021,53.025C-34.026,52.726 -32.009,52.644 -30.026,52.784C-29.098,52.856 -28.135,52.992 -27.158,53.184C-26.092,53.42 -25.22,53.665 -24.425,53.956C-23.081,54.436 -21.765,55.087 -20.51,55.894C-20.808,57.114 -21.145,58.355 -21.521,59.608C-22.909,64.227 -25.169,68.571 -28.003,72.132C-28.022,72.156 -28.041,72.18 -28.062,72.206C-28.344,72.042 -28.628,71.892 -28.918,71.758C-30.031,71.233 -31.286,70.868 -32.646,70.679M-58.097,-33.48C-56.552,-35.516 -52.13,-41.078 -46.294,-46.186C-39.833,-51.84 -30.246,-58.083 -21.111,-55.984L-13.743,8.178C-18.189,9.343 -30.852,13.425 -43.268,24.464C-43.328,23.864 -43.365,23.527 -43.371,23.482L-43.504,22.289L-50.361,22.501L-57.076,-25.543L-58.097,-33.48ZM-7.069,-22.34C-9.649,-23.947 -12.35,-25.233 -15.149,-26.206L-18.891,-59.144L-19.483,-59.305C-27.448,-61.481 -37.054,-57.945 -47.217,-49.046C-53.591,-43.468 -58.211,-37.563 -59.748,-35.507C-61.577,-35.586 -67.021,-35.59 -73.929,-33.392C-85.065,-29.85 -94.46,-22.227 -101.01,-11.383L-101.499,-10.573L-96.323,22.36C-98.576,26.423 -100.666,30.657 -102.57,35.043C-113.01,59.094 -116.598,84.524 -112.814,106.425C-109.116,127.83 -98.828,143.168 -84.045,149.858C-69.592,156.399 -52.449,153.934 -35.658,143.116C-19.028,132.403 -4.453,114.597 5.572,92.756C15.681,70.735 20.121,46.889 17.976,25.398C15.781,3.43 6.962,-13.603 -7.069,-22.34" style="fill:white;fill-rule:nonzero;"/>
            </g>
        </g>
    </g>
    <defs>
        <linearGradient id="_Linear1" x1="0" y1="0" x2="1" y2="0" gradientUnits="userSpaceOnUse" gradientTransform="matrix(1,0,0,-1,0,9.69316e-06)"><stop offset="0" style="stop-color:rgb(241,244,254);stop-opacity:1"/><stop offset="1" style="stop-color:white;stop-opacity:1"/></linearGradient>
        <linearGradient id="_Linear2" x1="0" y1="0" x2="1" y2="0" gradientUnits="userSpaceOnUse" gradientTransform="matrix(1,0,0,-1,0,-5.2932e-06)"><stop offset="0" style="stop-color:rgb(152,233,253);stop-opacity:1"/><stop offset="1" style="stop-color:rgb(95,195,225);stop-opacity:1"/></linearGradient>
        <linearGradient id="_Linear3" x1="0" y1="0" x2="1" y2="0" gradientUnits="userSpaceOnUse" gradientTransform="matrix(-0.999996,0.00282081,0.00282081,0.999996,0.999997,-0.00141041)"><stop offset="0" style="stop-color:rgb(152,233,253);stop-opacity:1"/><stop offset="1" style="stop-color:rgb(95,195,225);stop-opacity:1"/></linearGradient>
        <linearGradient id="_Linear4" x1="0" y1="0" x2="1" y2="0" gradientUnits="userSpaceOnUse" gradientTransform="matrix(0.867362,-0.497678,-0.497678,-0.867362,0.0663198,0.248842)"><stop offset="0" style="stop-color:rgb(95,195,225);stop-opacity:1"/><stop offset="1" style="stop-color:rgb(0,84,160);stop-opacity:1"/></linearGradient>
        <linearGradient id="_Linear5" x1="0" y1="0" x2="1" y2="0" gradientUnits="userSpaceOnUse" gradientTransform="matrix(1,0,0,-1,0,3.62907e-06)"><stop offset="0" style="stop-color:rgb(234,245,254);stop-opacity:1"/><stop offset="1" style="stop-color:white;stop-opacity:1"/></linearGradient>
        <linearGradient id="_Linear6" x1="0" y1="0" x2="1" y2="0" gradientUnits="userSpaceOnUse" gradientTransform="matrix(1,0,0,-1,0,0.00020464)"><stop offset="0" style="stop-color:rgb(110,192,224);stop-opacity:1"/><stop offset="1" style="stop-color:rgb(0,149,190);stop-opacity:1"/></linearGradient>
        <linearGradient id="_Linear7" x1="0" y1="0" x2="1" y2="0" gradientUnits="userSpaceOnUse" gradientTransform="matrix(0.00279604,0.999996,0.999996,-0.00279604,0.498601,-0.499997)"><stop offset="0" style="stop-color:rgb(110,192,224);stop-opacity:1"/><stop offset="1" style="stop-color:rgb(0,149,190);stop-opacity:1"/></linearGradient>
        <linearGradient id="_Linear8" x1="0" y1="0" x2="1" y2="0" gradientUnits="userSpaceOnUse" gradientTransform="matrix(0.867376,-0.497653,-0.497653,-0.867376,0.0663122,0.248827)"><stop offset="0" style="stop-color:rgb(110,192,224);stop-opacity:1"/><stop offset="1" style="stop-color:rgb(0,149,190);stop-opacity:1"/></linearGradient>
        <linearGradient id="_Linear9" x1="0" y1="0" x2="1" y2="0" gradientUnits="userSpaceOnUse" gradientTransform="matrix(1,0,0,-1,0,3.08225e-06)"><stop offset="0" style="stop-color:rgb(152,233,253);stop-opacity:1"/><stop offset="1" style="stop-color:white;stop-opacity:1"/></linearGradient>
        <linearGradient id="_Linear10" x1="0" y1="0" x2="1" y2="0" gradientUnits="userSpaceOnUse" gradientTransform="matrix(1,0,0,-1,0,-1.77055e-05)"><stop offset="0" style="stop-color:rgb(152,233,253);stop-opacity:1"/><stop offset="1" style="stop-color:rgb(95,195,225);stop-opacity:1"/></linearGradient>
        <linearGradient id="_Linear11" x1="0" y1="0" x2="1" y2="0" gradientUnits="userSpaceOnUse" gradientTransform="matrix(0.86646,0.499246,0.499246,-0.86646,0.0667705,-0.249625)"><stop offset="0" style="stop-color:rgb(95,195,225);stop-opacity:1"/><stop offset="1" style="stop-color:rgb(0,84,160);stop-opacity:1"/></linearGradient>
        <linearGradient id="_Linear12" x1="0" y1="0" x2="1" y2="0" gradientUnits="userSpaceOnUse" gradientTransform="matrix(1,0,0,-1,0,1.02471e-05)"><stop offset="0" style="stop-color:rgb(234,245,254);stop-opacity:1"/><stop offset="1" style="stop-color:white;stop-opacity:1"/></linearGradient>
        <linearGradient id="_Linear13" x1="0" y1="0" x2="1" y2="0" gradientUnits="userSpaceOnUse" gradientTransform="matrix(0.867413,-0.497589,-0.497589,-0.867413,0.0662945,0.248798)"><stop offset="0" style="stop-color:rgb(95,195,225);stop-opacity:1"/><stop offset="1" style="stop-color:rgb(0,84,160);stop-opacity:1"/></linearGradient>
        <linearGradient id="_Linear14" x1="0" y1="0" x2="1" y2="0" gradientUnits="userSpaceOnUse" gradientTransform="matrix(1,0,0,-1,0,7.90409e-05)"><stop offset="0" style="stop-color:rgb(112,194,225);stop-opacity:1"/><stop offset="1" style="stop-color:rgb(0,148,190);stop-opacity:1"/></linearGradient>
        <linearGradient id="_Linear15" x1="0" y1="0" x2="1" y2="0" gradientUnits="userSpaceOnUse" gradientTransform="matrix(0.70911,0.705098,0.705098,-0.70911,0.145446,-0.352551)"><stop offset="0" style="stop-color:rgb(112,194,225);stop-opacity:1"/><stop offset="1" style="stop-color:rgb(0,148,190);stop-opacity:1"/></linearGradient>
        <linearGradient id="_Linear16" x1="0" y1="0" x2="1" y2="0" gradientUnits="userSpaceOnUse" gradientTransform="matrix(0.867493,-0.49745,-0.49745,-0.867493,0.0662538,0.248726)"><stop offset="0" style="stop-color:rgb(112,194,225);stop-opacity:1"/><stop offset="1" style="stop-color:rgb(0,148,190);stop-opacity:1"/></linearGradient>
        <linearGradient id="_Linear17" x1="0" y1="0" x2="1" y2="0" gradientUnits="userSpaceOnUse" gradientTransform="matrix(1,0,0,-1,0,3.11131e-06)"><stop offset="0" style="stop-color:rgb(152,233,253);stop-opacity:1"/><stop offset="1" style="stop-color:white;stop-opacity:1"/></linearGradient>
        <linearGradient id="_Linear18" x1="0" y1="0" x2="1" y2="0" gradientUnits="userSpaceOnUse" gradientTransform="matrix(0.792796,0.609488,0.609488,-0.792796,0.103601,-0.304741)"><stop offset="0" style="stop-color:rgb(0,154,193);stop-opacity:1"/><stop offset="1" style="stop-color:rgb(0,124,173);stop-opacity:1"/></linearGradient>
        <linearGradient id="_Linear19" x1="0" y1="0" x2="1" y2="0" gradientUnits="userSpaceOnUse" gradientTransform="matrix(1,0,0,-1,0,3.456e-06)"><stop offset="0" style="stop-color:rgb(165,229,251);stop-opacity:1"/><stop offset="1" style="stop-color:white;stop-opacity:1"/></linearGradient>
        <linearGradient id="_Linear20" x1="0" y1="0" x2="1" y2="0" gradientUnits="userSpaceOnUse" gradientTransform="matrix(0.796078,-0.605194,-0.605194,-0.796078,0.101964,0.302607)"><stop offset="0" style="stop-color:rgb(81,200,228);stop-opacity:1"/><stop offset="1" style="stop-color:rgb(0,124,173);stop-opacity:1"/></linearGradient>
    </defs>
</svg>
