<svg xmlns="http://www.w3.org/2000/svg" xmlns:xlink="http://www.w3.org/1999/xlink" width="1103.478" height="824.158" viewBox="0 0 1103.478 824.158">
    <defs>
        <linearGradient id="linear-gradient" x1="-1.092" x2="-1.092" y1="15.855" y2="15.428" gradientUnits="objectBoundingBox">
            <stop offset="0" stop-color="#f1f4fe"/>
            <stop offset=".58" stop-color="#f6f8fe"/>
            <stop offset="1" stop-color="#fff"/>
        </linearGradient>
        <linearGradient id="linear-gradient-2" x1="-9.359" x2="-9.039" y1="134.285" y2="134.285" gradientUnits="objectBoundingBox">
            <stop offset="0" stop-color="#eff1fe"/>
            <stop offset="1" stop-color="#e4e7fb"/>
        </linearGradient>
        <linearGradient id="linear-gradient-3" x2="1" y1=".5" y2=".5" gradientUnits="objectBoundingBox">
            <stop offset="0" stop-color="#98e9fd"/>
            <stop offset=".305" stop-color="#85dcf3"/>
            <stop offset="1" stop-color="#5fc3e1"/>
        </linearGradient>
        <linearGradient id="linear-gradient-4" x1="8.07" x2="8.07" y1="11.341" y2="11.103" xlink:href="#linear-gradient-3"/>
        <linearGradient id="linear-gradient-5" x1="27.221" x2="27.871" y1="13.561" y2="13.756" gradientUnits="objectBoundingBox">
            <stop offset="0" stop-color="#5fc3e1"/>
            <stop offset=".155" stop-color="#57badc"/>
            <stop offset=".399" stop-color="#44a4ce"/>
            <stop offset=".699" stop-color="#257fb9"/>
            <stop offset="1" stop-color="#0054a0"/>
        </linearGradient>
        <linearGradient id="linear-gradient-6" x1="6.341" x2="6.578" y1="31.859" y2="31.859" gradientUnits="objectBoundingBox">
            <stop offset="0" stop-color="#eaf5fe"/>
            <stop offset=".45" stop-color="#eff7fe"/>
            <stop offset="1" stop-color="#fff"/>
        </linearGradient>
        <linearGradient id="linear-gradient-7" x2="1" y1=".5" y2=".5" gradientUnits="objectBoundingBox">
            <stop offset="0" stop-color="#6ec0e0"/>
            <stop offset=".621" stop-color="#26a4c9"/>
            <stop offset="1" stop-color="#0095be"/>
        </linearGradient>
        <linearGradient id="linear-gradient-8" x1="7.825" x2="8.063" y1="11.187" y2="11.187" xlink:href="#linear-gradient-7"/>
        <linearGradient id="linear-gradient-9" x1="55.357" x2="56.593" y1="14.233" y2="14.42" xlink:href="#linear-gradient-7"/>
        <linearGradient id="linear-gradient-10" x1="6.998" x2="7.235" y1="36.037" y2="36.037" gradientUnits="objectBoundingBox">
            <stop offset="0" stop-color="#98e9fd"/>
            <stop offset=".166" stop-color="#9deafd"/>
            <stop offset=".386" stop-color="#aeedfd"/>
            <stop offset=".636" stop-color="#c9f3fd"/>
            <stop offset=".905" stop-color="#effbfe"/>
            <stop offset="1" stop-color="#fff"/>
        </linearGradient>
        <linearGradient id="linear-gradient-12" x1=".164" x2=".837" y1=".226" y2=".774" xlink:href="#linear-gradient-5"/>
        <linearGradient id="linear-gradient-13" x1="6.332" x2="6.569" y1="33.316" y2="33.316" xlink:href="#linear-gradient-6"/>
        <linearGradient id="linear-gradient-14" x1="33.329" x2="34.136" y1="13.708" y2="13.901" xlink:href="#linear-gradient-5"/>
        <linearGradient id="linear-gradient-15" x2="1" y1=".5" y2=".5" gradientUnits="objectBoundingBox">
            <stop offset="0" stop-color="#70c2e1"/>
            <stop offset=".628" stop-color="#26a3ca"/>
            <stop offset="1" stop-color="#0094be"/>
        </linearGradient>
        <linearGradient id="linear-gradient-16" x1="7.418" x2="7.652" y1="11.029" y2="11.139" xlink:href="#linear-gradient-15"/>
        <linearGradient id="linear-gradient-17" x1="52.485" x2="53.72" y1="14.098" y2="14.285" xlink:href="#linear-gradient-15"/>
        <linearGradient id="linear-gradient-18" x1="6.637" x2="6.875" y1="35.703" y2="35.703" xlink:href="#linear-gradient-10"/>
        <linearGradient id="linear-gradient-19" x1="7.191" x2="7.399" y1="11.521" y2="11.625" gradientUnits="objectBoundingBox">
            <stop offset="0" stop-color="#009ac1"/>
            <stop offset=".396" stop-color="#0091bb"/>
            <stop offset="1" stop-color="#007cad"/>
        </linearGradient>
        <linearGradient id="linear-gradient-20" x1="7.063" x2="7.3" y1="32.196" y2="32.196" gradientUnits="objectBoundingBox">
            <stop offset="0" stop-color="#a5e5fb"/>
            <stop offset=".181" stop-color="#aae6fb"/>
            <stop offset=".42" stop-color="#bbebfc"/>
            <stop offset=".692" stop-color="#d6f3fd"/>
            <stop offset=".985" stop-color="#fcfefe"/>
            <stop offset="1" stop-color="#fff"/>
        </linearGradient>
        <linearGradient id="linear-gradient-21" x1="18.279" x2="18.716" y1="15.345" y2="15.551" gradientUnits="objectBoundingBox">
            <stop offset="0" stop-color="#51c8e4"/>
            <stop offset=".194" stop-color="#48c0de"/>
            <stop offset=".5" stop-color="#32abcf"/>
            <stop offset=".877" stop-color="#0d88b6"/>
            <stop offset="1" stop-color="#007cad"/>
        </linearGradient>
        <style>
            .cls-3{fill:#fff}.cls-44{fill:#b7c0eb}.cls-101{fill:url(#linear-gradient-3)}.cls-104{fill:#fcfcff}.cls-109{fill:#fcf6ff}
        </style>
    </defs>
    <g id="Groupe_99" transform="translate(-795.495 -210.445)">
        <g id="Groupe_84">
            <g id="Groupe_80" style="isolation:isolate;mix-blend-mode:multiply" opacity="0.4">
                <g id="Groupe_60" opacity="0.048">
                    <path id="Tracé_234" fill="#fcfcfe" d="M955.707 781.073c-22.121-12.79-22.23-33.645-.31-46.387L1373.935 493.3c21.9-12.766 57.918-12.76 80.047.006L1875.2 734.733c22.08 12.756 22.183 33.558.252 46.405l-418.478 243.131c-21.951 12.735-57.985 12.735-80.087 0z"/>
                </g>
                <g id="Groupe_61" opacity="0.095">
                    <path id="Tracé_235" fill="#f8f9fd" d="M948.563 781.114c-22.12-12.79-22.229-33.646-.308-46.389l418.538-239.582c21.9-12.764 57.919-12.759 80.045.007l421.218 239.62c22.08 12.758 22.183 33.563.253 46.406l-418.479 243.131c-21.95 12.737-57.983 12.737-80.085 0z"/>
                </g>
                <g id="Groupe_62" opacity="0.143">
                    <path id="Tracé_236" fill="#f5f6fc" d="M941.419 781.155c-22.118-12.791-22.227-33.648-.3-46.392l418.531-237.779c21.9-12.763 57.92-12.758 80.045.006l421.219 237.818c22.079 12.759 22.182 33.567.253 46.406l-418.48 243.131c-21.95 12.738-57.981 12.738-80.083 0z"/>
                </g>
                <g id="Groupe_63" opacity="0.19">
                    <path id="Tracé_237" fill="#f1f3fb" d="M934.275 781.2c-22.117-12.792-22.226-33.649-.3-46.394l418.535-235.978c21.9-12.762 57.921-12.757 80.045.006l421.219 236.015c22.078 12.761 22.182 33.572.253 46.407l-418.48 243.131c-21.949 12.74-57.979 12.74-80.082 0z"/>
                </g>
                <g id="Groupe_64" opacity="0.238">
                    <path id="Tracé_238" fill="#eef0fa" d="M927.131 781.238c-22.116-12.794-22.225-33.652-.3-46.4l418.534-234.176c21.9-12.761 57.922-12.756 80.044.005l421.219 234.213c22.078 12.761 22.182 33.576.254 46.407L1428.4 1024.421c-21.949 12.741-57.977 12.741-80.08 0z"/>
                </g>
                <g id="Groupe_65" opacity="0.286">
                    <path id="Tracé_239" fill="#eaedf9" d="M919.987 781.279c-22.114-12.794-22.223-33.653-.3-46.4l418.532-232.374c21.9-12.759 57.923-12.755 80.044.005l421.22 232.41c22.077 12.763 22.181 33.581.254 46.408l-418.482 243.131c-21.948 12.743-57.975 12.743-80.078 0z"/>
                </g>
                <g id="Groupe_66" opacity="0.333">
                    <path id="Tracé_240" fill="#e7eaf8" d="M912.843 781.32c-22.113-12.795-22.222-33.654-.3-46.4l418.531-230.572c21.9-12.758 57.924-12.755 80.044 0l421.22 230.607c22.076 12.765 22.181 33.586.254 46.409L1414.115 1024.5c-21.947 12.744-57.973 12.744-80.077 0z"/>
                </g>
                <g id="Groupe_67" opacity="0.381">
                    <path id="Tracé_241" fill="#e4e7f7" d="M905.7 781.361c-22.112-12.8-22.221-33.656-.292-46.4l418.529-228.771c21.9-12.757 57.925-12.753 80.044.005l421.22 228.8c22.076 12.766 22.181 33.59.255 46.409l-418.483 243.131c-21.947 12.746-57.972 12.746-80.075 0z"/>
                </g>
                <g id="Groupe_68" opacity="0.429">
                    <path id="Tracé_242" fill="#e0e4f6" d="M898.555 781.4c-22.11-12.8-22.219-33.658-.29-46.408l418.529-226.968c21.9-12.756 57.926-12.753 80.043 0l421.221 227c22.075 12.768 22.18 33.594.255 46.41l-418.484 243.131c-21.946 12.747-57.97 12.747-80.074 0z"/>
                </g>
                <g id="Groupe_69" opacity="0.476">
                    <path id="Tracé_243" fill="#dde1f5" d="M891.411 781.444c-22.109-12.8-22.218-33.66-.287-46.41l418.527-225.167c21.9-12.754 57.927-12.751 80.043 0l421.221 225.2c22.074 12.77 22.18 33.6.255 46.411l-418.485 243.131c-21.945 12.749-57.967 12.749-80.071 0z"/>
                </g>
                <g id="Groupe_70" opacity="0.524">
                    <path id="Tracé_244" fill="#d9def5" d="M884.267 781.485c-22.108-12.8-22.217-33.661-.285-46.412l418.526-223.365c21.9-12.753 57.928-12.751 80.043 0l421.221 223.4c22.074 12.771 22.18 33.6.256 46.411l-418.486 243.131c-21.944 12.751-57.965 12.751-80.069 0z"/>
                </g>
                <g id="Groupe_71" opacity="0.571">
                    <path id="Tracé_245" fill="#d6dbf4" d="M877.123 781.526c-22.106-12.8-22.216-33.662-.282-46.415l418.525-221.563c21.9-12.752 57.928-12.749 80.042 0l421.221 221.593c22.074 12.773 22.18 33.608.256 46.412L1378.4 1024.687c-21.943 12.752-57.963 12.752-80.068 0z"/>
                </g>
                <g id="Groupe_72" opacity="0.619">
                    <path id="Tracé_246" fill="#d2d8f3" d="M869.979 781.567c-22.1-12.8-22.214-33.664-.279-46.417l418.523-219.761c21.9-12.751 57.93-12.749 80.042 0l421.222 219.79c22.073 12.775 22.179 33.613.256 46.413l-418.487 243.13c-21.943 12.755-57.961 12.755-80.066 0z"/>
                </g>
                <g id="Groupe_73" opacity="0.667">
                    <path id="Tracé_247" fill="#cfd5f2" d="M862.835 781.609c-22.1-12.8-22.213-33.666-.277-46.42l418.522-217.96c21.9-12.749 57.931-12.747 80.042 0l421.222 217.987c22.072 12.776 22.179 33.617.257 46.413l-418.488 243.13c-21.942 12.756-57.959 12.756-80.064 0z"/>
                </g>
                <g id="Groupe_74" opacity="0.714">
                    <path id="Tracé_248" fill="#ccd2f1" d="M855.691 781.65c-22.1-12.8-22.212-33.668-.274-46.423l418.52-216.157c21.9-12.748 57.932-12.747 80.042 0L1775.2 735.256c22.072 12.778 22.179 33.622.257 46.414L1356.97 1024.8c-21.942 12.758-57.957 12.758-80.063 0z"/>
                </g>
                <g id="Groupe_75" opacity="0.762">
                    <path id="Tracé_249" fill="#c8cff0" d="M848.547 781.691c-22.1-12.8-22.21-33.669-.272-46.425L1266.8 520.91c21.9-12.747 57.932-12.745 80.041 0l421.223 214.381c22.071 12.78 22.179 33.627.257 46.415l-418.489 243.13c-21.941 12.759-57.955 12.759-80.061 0z"/>
                </g>
                <g id="Groupe_76" opacity="0.81">
                    <path id="Tracé_250" fill="#c5ccef" d="M841.4 781.732c-22.1-12.8-22.209-33.67-.269-46.427l418.518-212.554c21.9-12.746 57.934-12.745 80.041 0l421.223 212.579c22.07 12.781 22.179 33.631.258 46.414l-418.49 243.131c-21.94 12.761-57.953 12.761-80.06 0z"/>
                </g>
                <g id="Groupe_77" opacity="0.857">
                    <path id="Tracé_251" fill="#c1c9ee" d="M834.259 781.774c-22.1-12.806-22.208-33.673-.267-46.431l418.517-210.752c21.9-12.744 57.935-12.743 80.041 0l421.223 210.776c22.07 12.783 22.179 33.636.258 46.415l-418.49 243.131c-21.94 12.762-57.951 12.762-80.058 0z"/>
                </g>
                <g id="Groupe_78" opacity="0.905">
                    <path id="Tracé_252" fill="#bec6ed" d="M827.115 781.815c-22.1-12.807-22.206-33.674-.264-46.433l418.516-208.95c21.9-12.743 57.935-12.743 80.04 0l421.224 208.973c22.069 12.785 22.178 33.641.258 46.416L1328.4 1024.952c-21.939 12.764-57.949 12.764-80.056 0z"/>
                </g>
                <g id="Groupe_79" opacity="0.952">
                    <path id="Tracé_253" fill="#bac3ec" d="M819.971 781.856c-22.1-12.808-22.205-33.676-.261-46.435l418.514-207.149c21.9-12.742 57.937-12.741 80.04 0l421.224 207.17c22.068 12.785 22.178 33.645.259 46.416l-418.492 243.132c-21.939 12.765-57.947 12.765-80.055 0z"/>
                </g>
                <path id="Tracé_254" d="M812.826 781.9c-22.093-12.809-22.2-33.677-.258-46.438l418.513-205.346c21.9-12.741 57.938-12.741 80.04 0l421.224 205.364c22.068 12.787 22.178 33.649.259 46.417l-418.492 243.131c-21.938 12.767-57.945 12.767-80.053 0z" class="cls-44"/>
            </g>
            <g id="Groupe_81">
                <path id="Tracé_255" d="M813.024 781.855c-22.088-12.733-22.2-33.608-.259-46.362l418.513 40.381c21.892-12.727 57.939-12.727 80.047 0l421.226-40.361c22.067 12.761 22.175 33.609.251 46.363l-418.492 243.152c-21.932 12.767-57.938 12.767-80.048 0z" class="cls-44"/>
            </g>
            <path id="Tracé_256" fill="#e4e7fb" d="M1749.031 738.239a11.485 11.485 0 0 1-.211 1.8 8.442 8.442 0 0 1-.355 1.383 11.857 11.857 0 0 1-.5 1.8c-.151.444-.362.833-.559 1.363-.259.545-.5 1.124-.818 1.771-.444.784-.913 1.547-1.444 2.344a2.081 2.081 0 0 1-.287.382 16.609 16.609 0 0 1-1.8 2.276c-.131.171-.267.353-.423.524a32.957 32.957 0 0 1-2.336 2.33c-.561.464-1.187.926-1.772 1.417-.506.423-1.016.825-1.547 1.261-.667.416-1.377.946-2.052 1.349-.708.449-1.374.9-2.118 1.369l-418.499 243.181-.859 16.325 418.486-243.193a3.794 3.794 0 0 0 .68-.408c.512-.286.954-.634 1.452-.954.7-.477 1.4-.906 2.052-1.369.524-.416 1.062-.79 1.58-1.213.573-.511 1.2-1.008 1.689-1.452.123-.081.232-.2.34-.252.764-.681 1.392-1.389 2.045-2.057a2.031 2.031 0 0 0 .4-.505 15.5 15.5 0 0 0 1.07-1.191c.265-.4.518-.73.8-1.111.062-.142.184-.245.239-.4a19.853 19.853 0 0 0 1.24-1.887 2.533 2.533 0 0 1 .232-.476c.292-.58.531-1.165.8-1.676.141-.431.347-.764.448-1.084a1.091 1.091 0 0 0 .138-.4 16.057 16.057 0 0 0 .484-1.682 7.438 7.438 0 0 0 .318-1.158 1.415 1.415 0 0 1 .022-.294c.1-.545.177-1.178.224-1.71.021-.394.137-.838.15-1.219v-.491l.846-16.33c-.004.512-.108 1.071-.155 1.637z"/>
            <path id="Tracé_257" fill="#eff1fe" d="M813.01 759.591c-11.138-6.445-16.664-14.894-16.63-23.375l-.885 16.31c0 8.488 5.546 16.964 16.671 23.348L1233.4 1019.06l.846-16.277z"/>
            <g id="Groupe_82">
                <path id="Tracé_258" d="M1732.529 713.222c22.116 12.746 22.2 33.627.273 46.389l-418.492 243.178c-21.932 12.776-57.938 12.776-80.067-.006L813.01 759.591c-22.074-12.816-22.216-33.657-.245-46.369l418.453-243.185c21.991-12.795 58-12.795 80.059 0z" class="cls-3"/>
            </g>
            <g id="Groupe_83">
                <path id="Tracé_259" fill="url(#linear-gradient)" d="M813.024 741.038c-22.088-12.747-22.2-33.641-.259-46.361l418.513-243.207c21.892-12.8 57.939-12.8 80.047 0l421.226 243.23c22.067 12.768 22.175 33.61.251 46.37L1314.31 984.2c-21.932 12.754-57.938 12.754-80.048 0z"/>
            </g>
            <path id="Tracé_260" fill="url(#linear-gradient-2)" d="M1308.131 1021.758c1.887-.77 8.639-4.572 10.314-5.553v-15.8c-1.675.954-7.6 4.238-9.409 5.035-.592.245-1.117.518-1.676.722-1.4.573-2.854 1.145-4.347 1.6a15.275 15.275 0 0 1-1.689.6c-.94.334-1.907.572-2.848.839-.757.217-1.519.442-2.261.632-1.057.212-2.093.429-3.156.648-.721.13-1.368.272-2.1.443-2.1.348-4.273.668-6.453.885-.7.054-1.37.137-2.091.191-1.241.055-2.507.163-3.761.2-.859.055-1.7.055-2.5.055-1.043.061-2.065.061-3.1.061-.865-.061-1.758-.061-2.644-.061-.973-.09-1.887-.123-2.8-.2a17.734 17.734 0 0 1-2.711-.192c-.907-.087-1.861-.2-2.8-.271-.837-.123-1.723-.259-2.553-.41-1.022-.122-2.017-.34-3.039-.5-.749-.151-1.561-.355-2.3-.464-1.2-.279-2.344-.552-3.542-.913-.654-.143-1.288-.307-1.948-.483-2.058-.627-4.1-1.3-6.031-2.058-.966-.368-1.907-.8-2.8-1.214-.526-.209-1.03-.455-1.52-.6-1.4-.736-9.253-5.137-10.574-5.934v16.835c1.321.778 8.325 4.721 9.77 5.389.442.184.906.41 1.362.586a21.075 21.075 0 0 0 2.548 1.138c.131.083.253.083.327.15 2 .769 3.986 1.4 6.065 2.031.141.048.3.068.517.115.476.15 1.015.286 1.539.417 1.125.285 2.242.578 3.4.81a7.46 7.46 0 0 0 .953.278c.463.131.995.131 1.493.274.933.17 1.893.278 2.86.476.458.047.825.17 1.241.184.5.075.973.144 1.492.225.852.082 1.729.2 2.636.279.471.021.947.095 1.424.15a11.552 11.552 0 0 1 1.37.055c.934.074 1.812.11 2.731.149.505 0 .988.109 1.52.109h5.832c.307 0 .626-.109.926-.115 1.269-.069 2.521-.143 3.755-.253.552-.074 1.11-.074 1.622-.095.176 0 .326-.081.5-.081 2.179-.2 4.286-.518 6.4-.913h.382c.641-.137 1.261-.313 1.9-.416 1.035-.231 2-.415 3-.674.764-.17 1.506-.4 2.275-.573.975-.286 1.942-.551 2.868-.858a3.43 3.43 0 0 1 .655-.17c.362-.123.708-.267 1.043-.382a35.626 35.626 0 0 0 4.347-1.689 15.736 15.736 0 0 0 1.586-.689z"/>
        </g>
        <g id="Groupe_85" style="isolation:isolate;mix-blend-mode:multiply">
            <path id="Tracé_262" fill="#fefeff" d="M1771.262 687.273s-555.851-6.414-555.844-3.5c0 .266 1.022 34.584 1.022 34.584l69.657 40.466 6.427-3.716.019 7.333 32.64 18.958 20.32-11.732.024 22.749 54.408 31.613 19.573-11.246.049 17.8 32.621 18.968 60.849-35.131 11.483 87.809 52.048 21.846 194.364-147.986s2.667-87.311.34-88.815z" opacity="0.02"/>
            <path id="Tracé_263" fill="#fcfdfe" d="M1766.35 687.273s-555.851-6.414-555.844-3.5c0 .266 1.022 34.584 1.022 34.584l69.656 40.466 6.428-3.716.019 7.333 32.64 18.958 20.32-11.732.024 22.749 54.408 31.613 19.577-11.248.049 17.8 32.621 18.968 60.849-35.131 11.483 87.809 52.048 21.846 194.36-147.99s2.666-87.305.34-88.809z" opacity="0.039"/>
            <path id="Tracé_264" fill="#fbfbfe" d="M1761.438 687.273s-555.851-6.414-555.845-3.5c0 .266 1.023 34.584 1.023 34.584l69.656 40.466 6.428-3.716.018 7.333 32.64 18.958 20.321-11.732.024 22.749 54.408 31.613 19.572-11.246.05 17.8 32.621 18.968 60.849-35.131 11.483 87.809 52.048 21.846L1761.1 776.082s2.664-87.305.338-88.809z" opacity="0.059"/>
            <path id="Tracé_265" fill="#f9fafd" d="M1756.526 687.273s-555.851-6.414-555.845-3.5c0 .266 1.022 34.584 1.022 34.584l69.657 40.466 6.427-3.716.019 7.333 32.64 18.959 20.32-11.733.024 22.749 54.408 31.613 19.573-11.246.049 17.8 32.622 18.968 60.849-35.131 11.482 87.809 52.049 21.846 194.363-147.986s2.667-87.311.341-88.815z" opacity="0.078"/>
            <path id="Tracé_266" fill="#f8f9fd" d="M1751.614 687.273s-555.852-6.414-555.846-3.5c0 .266 1.023 34.584 1.023 34.584l69.656 40.466 6.428-3.716.019 7.333 32.64 18.959 20.32-11.733.024 22.749 54.408 31.613 19.573-11.246.049 17.8 32.622 18.968 60.849-35.131 11.482 87.809 52.049 21.846 194.363-147.986s2.667-87.31.341-88.815z" opacity="0.098"/>
            <path id="Tracé_267" fill="#f7f8fd" d="M1746.7 687.273s-555.852-6.414-555.846-3.5c0 .266 1.023 34.584 1.023 34.584l69.656 40.466 6.428-3.716.019 7.333 32.64 18.959 20.32-11.733.024 22.75 54.408 31.612 19.573-11.246.049 17.8 32.622 18.968 60.848-35.131 11.483 87.809 52.053 21.84 194.363-147.986s2.664-87.304.337-88.809z" opacity="0.118"/>
            <path id="Tracé_268" fill="#f5f6fc" d="M1741.79 687.273s-555.852-6.414-555.846-3.5c0 .266 1.023 34.584 1.023 34.584l69.656 40.466 6.428-3.716.019 7.333 32.639 18.959 20.321-11.733.024 22.75 54.407 31.612 19.574-11.246.048 17.8 32.622 18.968 60.849-35.131 11.482 87.809 52.049 21.846 194.364-147.986s2.666-87.31.341-88.815z" opacity="0.137"/>
            <path id="Tracé_269" fill="#f4f5fc" d="M1736.878 687.273s-555.853-6.414-555.847-3.5c0 .266 1.023 34.584 1.023 34.584l69.656 40.466 6.428-3.716.019 7.333 32.643 18.96 20.321-11.733.023 22.75 54.408 31.612 19.574-11.246.048 17.8 32.622 18.968 60.849-35.131 11.482 87.809 52.049 21.846 194.364-147.986s2.66-87.311.338-88.816z" opacity="0.157"/>
            <path id="Tracé_270" fill="#f2f4fb" d="M1731.966 687.273s-555.853-6.414-555.847-3.5c0 .266 1.023 34.584 1.023 34.584l69.656 40.466 6.428-3.716.019 7.333 32.64 18.959 20.321-11.733.023 22.75 54.408 31.612 19.573-11.246.049 17.8 32.622 18.968 60.849-35.131 11.482 87.809 52.049 21.846 194.363-147.986s2.666-87.31.342-88.815z" opacity="0.176"/>
            <path id="Tracé_271" fill="#f1f3fb" d="M1727.054 687.273s-555.853-6.414-555.847-3.5c0 .266 1.023 34.584 1.023 34.584l69.656 40.466 6.428-3.716.019 7.333 32.639 18.959 20.322-11.733.023 22.75 54.407 31.612 19.576-11.248.049 17.8 32.622 18.968 60.849-35.131 11.481 87.809 52.05 21.846 194.363-147.986s2.664-87.308.34-88.813z" opacity="0.196"/>
            <path id="Tracé_272" fill="#eff1fb" d="M1722.142 687.273s-555.854-6.414-555.848-3.5c0 .266 1.024 34.584 1.024 34.584l69.655 40.466 6.429-3.716.019 7.333 32.639 18.96 20.321-11.733.023 22.75 54.408 31.612 19.574-11.246.048 17.8 32.623 18.968 60.849-35.131 11.481 87.809 52.05 21.846L1721.8 776.082s2.666-87.304.342-88.809z" opacity="0.216"/>
            <path id="Tracé_273" fill="#eef0fa" d="M1717.23 687.273s-555.854-6.414-555.848-3.5c0 .266 1.024 34.584 1.024 34.584l69.655 40.466 6.428-3.716.02 7.333 32.639 18.96 20.321-11.734.023 22.75 54.408 31.612 19.574-11.246.048 17.8 32.623 18.968 60.849-35.131 11.481 87.809 52.05 21.846 194.363-147.986s2.665-87.31.342-88.815z" opacity="0.235"/>
            <path id="Tracé_274" fill="#edeffa" d="M1712.318 687.273s-555.854-6.414-555.849-3.5c0 .266 1.024 34.584 1.024 34.584l69.656 40.466 6.428-3.716.02 7.333 32.639 18.96 20.321-11.734.023 22.75 54.407 31.612 19.575-11.246.048 17.8 32.623 18.968 60.849-35.131 11.481 87.809 52.049 21.846 194.363-147.986s2.666-87.31.343-88.815z" opacity="0.255"/>
            <path id="Tracé_275" fill="#ebeefa" d="M1707.406 687.273s-555.854-6.414-555.849-3.5c0 .266 1.024 34.584 1.024 34.584l69.655 40.466 6.429-3.716.019 7.333 32.639 18.96 20.322-11.734.022 22.751 54.408 31.611 19.575-11.246.047 17.8 32.623 18.968 60.85-35.131 11.48 87.809 52.05 21.846 194.363-147.986s2.666-87.31.343-88.815z" opacity="0.275"/>
            <path id="Tracé_276" fill="#eaecf9" d="M1702.494 687.273s-555.855-6.414-555.849-3.5c0 .266 1.024 34.584 1.024 34.584l69.655 40.466 6.429-3.716.019 7.333 32.639 18.96 20.322-11.734.022 22.751 54.408 31.611 19.575-11.246.047 17.8 32.623 18.968 60.85-35.131 11.48 87.809 52.05 21.846 194.363-147.986s2.666-87.31.343-88.815z" opacity="0.294"/>
            <path id="Tracé_277" fill="#e8ebf9" d="M1697.582 687.273s-555.855-6.414-555.85-3.5c0 .266 1.025 34.584 1.025 34.584l69.655 40.466 6.428-3.716.02 7.333 32.64 18.96 20.322-11.734.022 22.751 54.407 31.611 19.575-11.246.048 17.8 32.623 18.968 60.849-35.131 11.481 87.809 52.05 21.846 194.363-147.986s2.66-87.31.342-88.815z" opacity="0.314"/>
            <path id="Tracé_278" fill="#e7eaf8" d="M1692.67 687.273s-555.855-6.414-555.85-3.5c0 .266 1.024 34.584 1.024 34.584l69.655 40.466 6.429-3.716.02 7.333 32.638 18.96 20.323-11.734.022 22.751 54.407 31.611 19.575-11.246.048 17.8 32.623 18.968 60.849-35.131 11.48 87.809 52.051 21.846 194.363-147.986s2.665-87.31.343-88.815z" opacity="0.333"/>
            <path id="Tracé_279" fill="#e6e9f8" d="M1687.758 687.273s-555.856-6.414-555.85-3.5c0 .266 1.024 34.584 1.024 34.584l69.655 40.466 6.429-3.716.02 7.333 32.638 18.96L1262 769.664l.021 22.751 54.408 31.611L1336 812.78l.047 17.8 32.624 18.968 60.849-35.131 11.48 87.805 52.051 21.846 194.362-147.986s2.667-87.304.345-88.809z" opacity="0.353"/>
            <path id="Tracé_280" fill="#e4e8f8" d="M1682.846 687.273s-555.856-6.414-555.851-3.5c0 .266 1.025 34.584 1.025 34.584l69.654 40.466 6.43-3.716.02 7.333 32.638 18.96 20.322-11.734.022 22.751 54.407 31.611 19.576-11.246.047 17.8 32.624 18.968 60.849-35.131 11.48 87.809 52.051 21.846 194.36-147.992s2.667-87.304.346-88.809z" opacity="0.373"/>
            <path id="Tracé_281" fill="#e3e6f7" d="M1677.934 687.273s-555.856-6.414-555.851-3.5c0 .266 1.025 34.584 1.025 34.584l69.654 40.466 6.429-3.716.02 7.333 32.639 18.96 20.322-11.735.022 22.751 54.407 31.611 19.576-11.246.047 17.8 32.624 18.968 60.849-35.131 11.479 87.809 52.051 21.846 194.363-147.991s2.665-87.304.344-88.809z" opacity="0.392"/>
            <path id="Tracé_282" fill="#e1e5f7" d="M1673.022 687.273s-555.857-6.414-555.851-3.5c0 .266 1.025 34.584 1.025 34.584l69.654 40.466 6.429-3.716.02 7.333 32.638 18.961 20.323-11.735.021 22.751 54.408 31.611 19.576-11.246.046 17.8 32.625 18.968 60.849-35.131 11.479 87.809 52.051 21.846 194.363-147.986s2.665-87.31.344-88.815z" opacity="0.412"/>
            <path id="Tracé_283" fill="#e0e4f6" d="M1668.11 687.273s-555.857-6.414-555.852-3.5c0 .266 1.025 34.584 1.025 34.584l69.654 40.466 6.43-3.716.02 7.333 32.638 18.961 20.323-11.735.021 22.752 54.407 31.61 19.576-11.246.047 17.8 32.624 18.968 60.85-35.131 11.479 87.809 52.051 21.846 194.362-147.986s2.665-87.31.345-88.815z" opacity="0.431"/>
            <path id="Tracé_284" fill="#dfe3f6" d="M1663.2 687.273s-555.857-6.414-555.852-3.5c0 .266 1.025 34.584 1.025 34.584l69.654 40.466 6.429-3.716.021 7.333 32.638 18.961 20.323-11.735.021 22.752 54.407 31.61 19.576-11.246.047 17.8 32.624 18.968 60.85-35.131 11.479 87.809 52.051 21.846 194.362-147.986s2.663-87.31.345-88.815z" opacity="0.451"/>
            <path id="Tracé_285" fill="#dde1f6" d="M1658.286 687.273s-555.858-6.414-555.853-3.5c0 .266 1.026 34.584 1.026 34.584l69.654 40.466 6.429-3.716.021 7.333 32.637 18.96 20.324-11.735.02 22.752 54.408 31.61 19.576-11.246.047 17.8 32.624 18.968 60.85-35.131 11.478 87.809 52.052 21.846 194.362-147.986s2.665-87.309.345-88.814z" opacity="0.471"/>
            <path id="Tracé_286" fill="#dce0f5" d="M1653.374 687.273s-555.858-6.414-555.853-3.5c0 .266 1.026 34.584 1.026 34.584l69.653 40.466 6.43-3.716.02 7.333 32.638 18.961 20.324-11.735.02 22.752 54.407 31.61 19.577-11.246.046 17.8 32.625 18.968 60.85-35.131 11.478 87.809 52.052 21.846 194.362-147.986s2.664-87.31.345-88.815z" opacity="0.49"/>
            <path id="Tracé_287" fill="#dadff5" d="M1648.461 687.273s-555.857-6.414-555.852-3.5c0 .266 1.026 34.584 1.026 34.584l69.653 40.466 6.43-3.716.02 7.333 32.638 18.961 20.323-11.735.021 22.752 54.407 31.61 19.573-11.248.046 17.8 32.625 18.968 60.85-35.131 11.478 87.809 52.051 21.846 194.363-147.986s2.668-87.308.348-88.813z" opacity="0.51"/>
            <path id="Tracé_288" fill="#d9def4" d="M1643.549 687.273s-555.857-6.414-555.853-3.5c0 .266 1.026 34.584 1.026 34.584l69.654 40.466 6.429-3.716.021 7.333 32.638 18.961 20.323-11.735.02 22.752 54.408 31.61 19.577-11.246.046 17.8 32.625 18.968 60.849-35.131 11.478 87.809 52.052 21.846L1643.2 776.082s2.669-87.304.349-88.809z" opacity="0.529"/>
            <path id="Tracé_289" fill="#d7dcf4" d="M1638.637 687.273s-555.858-6.414-555.853-3.5c0 .266 1.026 34.584 1.026 34.584l69.653 40.466 6.43-3.716.021 7.333 32.637 18.962 20.324-11.736.02 22.752 54.407 31.61 19.577-11.246.046 17.8 32.626 18.968 60.849-35.131 11.478 87.809 52.052 21.846 194.362-147.986s2.665-87.31.345-88.815z" opacity="0.549"/>
            <path id="Tracé_290" fill="#d6dbf4" d="M1633.725 687.273s-555.858-6.414-555.853-3.5c0 .266 1.026 34.584 1.026 34.584l69.653 40.466 6.43-3.716.021 7.333 32.637 18.962 20.324-11.736.02 22.752 54.407 31.61 19.577-11.246.046 17.8 32.625 18.968 60.85-35.131 11.478 87.809 52.052 21.846 194.362-147.992s2.664-87.304.345-88.809z" opacity="0.569"/>
            <path id="Tracé_291" fill="#d5daf3" d="M1628.813 687.273s-555.858-6.414-555.854-3.5c0 .266 1.027 34.584 1.027 34.584l69.653 40.466 6.43-3.716.021 7.333 32.637 18.962 20.324-11.736.02 22.753 54.406 31.609 19.578-11.246.046 17.8 32.625 18.968 60.85-35.131 11.477 87.809 52.053 21.846 194.362-147.986s2.664-87.31.345-88.815z" opacity="0.588"/>
            <path id="Tracé_292" fill="#d3d9f3" d="M1623.9 687.273s-555.859-6.414-555.854-3.5c0 .266 1.026 34.584 1.026 34.584l69.653 40.466 6.43-3.716.021 7.333 32.637 18.962 20.325-11.736.019 22.753 54.407 31.609 19.578-11.246.046 17.8 32.625 18.968 60.85-35.131 11.477 87.809 52.053 21.846 194.361-147.986s2.666-87.31.346-88.815z" opacity="0.608"/>
            <path id="Tracé_293" fill="#d2d7f2" d="M1618.989 687.273s-555.859-6.414-555.854-3.5c0 .266 1.026 34.584 1.026 34.584l69.653 40.466 6.43-3.716.021 7.333 32.635 18.96 20.325-11.736.019 22.753 54.407 31.609 19.578-11.246.045 17.8 32.626 18.968 60.85-35.131 11.477 87.809 52.053 21.846 194.361-147.986s2.666-87.308.348-88.813z" opacity="0.627"/>
            <path id="Tracé_294" fill="#d0d6f2" d="M1614.077 687.273s-555.859-6.414-555.855-3.5c0 .266 1.027 34.584 1.027 34.584l69.653 40.466 6.43-3.716.021 7.333 32.637 18.96 20.324-11.736.02 22.753 54.406 31.609 19.579-11.246.045 17.8 32.626 18.968 60.85-35.131 11.477 87.809 52.052 21.846 194.362-147.986s2.669-87.308.346-88.813z" opacity="0.647"/>
            <path id="Tracé_295" fill="#cfd5f2" d="M1609.165 687.273s-555.86-6.414-555.855-3.5c0 .266 1.027 34.584 1.027 34.584l69.652 40.466 6.431-3.716.021 7.333 32.637 18.962 20.324-11.736.019 22.753 54.407 31.609 19.578-11.246.046 17.8 32.626 18.968 60.85-35.131 11.476 87.809 52.053 21.846 194.362-147.986s2.664-87.31.346-88.815z" opacity="0.667"/>
            <path id="Tracé_296" fill="#ced4f1" d="M1604.253 687.273s-555.86-6.414-555.856-3.5c0 .266 1.028 34.584 1.028 34.584l69.652 40.466 6.43-3.716.022 7.333 32.636 18.963 20.325-11.737.019 22.753 54.407 31.609 19.578-11.246.045 17.8 32.627 18.968 60.85-35.131 11.476 87.809 52.053 21.846 194.362-147.986s2.663-87.31.346-88.815z" opacity="0.686"/>
            <path id="Tracé_297" fill="#ccd3f1" d="M1599.341 687.273s-555.86-6.414-555.856-3.5c0 .266 1.027 34.584 1.027 34.584l69.653 40.466 6.43-3.716.022 7.333 32.636 18.963 20.325-11.737.019 22.753L1228 824.026l19.579-11.246.045 17.8 32.626 18.968 60.851-35.131 11.476 87.809 52.053 21.846 194.361-147.986s2.667-87.308.35-88.813z" opacity="0.706"/>
            <path id="Tracé_298" fill="#cbd1f0" d="M1594.429 687.273s-555.86-6.414-555.856-3.5c0 .266 1.027 34.584 1.027 34.584l69.652 40.466 6.431-3.716.021 7.333 32.637 18.963 20.325-11.737.018 22.753 54.407 31.609 19.579-11.246.045 17.8 32.626 18.968 60.85-35.131 11.476 87.809 52.054 21.846 194.361-147.986s2.664-87.31.347-88.815z" opacity="0.725"/>
            <path id="Tracé_299" fill="#c9d0f0" d="M1589.517 687.273s-555.861-6.414-555.857-3.5c0 .266 1.028 34.584 1.028 34.584l69.652 40.466 6.431-3.716.021 7.333 32.636 18.963 20.326-11.737.018 22.754 54.407 31.608 19.579-11.246.045 17.8 32.626 18.968 60.85-35.131 11.476 87.809 52.054 21.846 194.361-147.992s2.664-87.304.347-88.809z" opacity="0.745"/>
            <path id="Tracé_300" fill="#c8cff0" d="M1584.6 687.273s-555.861-6.414-555.857-3.5c0 .266 1.028 34.584 1.028 34.584l69.652 40.466 6.43-3.716.022 7.333 32.636 18.963 20.326-11.737.018 22.754 54.406 31.608 19.58-11.246.044 17.8 32.627 18.968 60.85-35.131 11.476 87.809 52.053 21.846 194.362-147.986s2.668-87.31.347-88.815z" opacity="0.765"/>
            <path id="Tracé_301" fill="#c7ceef" d="M1579.693 687.273s-555.861-6.414-555.857-3.5c0 .266 1.027 34.584 1.027 34.584l69.652 40.466 6.431-3.716.022 7.333 32.632 18.96 20.325-11.737.019 22.754 54.406 31.608 19.58-11.246.044 17.8 32.627 18.968 60.85-35.131 11.475 87.809 52.054 21.846 194.362-147.986s2.667-87.307.351-88.812z" opacity="0.784"/>
            <path id="Tracé_302" fill="#c5ccef" d="M1574.781 687.273s-555.862-6.414-555.858-3.5c0 .266 1.028 34.584 1.028 34.584l69.652 40.466 6.431-3.716.022 7.333 32.636 18.963 20.325-11.737.018 22.754 54.407 31.608 19.579-11.246.045 17.8 32.627 18.968 60.85-35.131 11.475 87.809 52.054 21.846 194.361-147.986s2.667-87.31.348-88.815z" opacity="0.804"/>
            <path id="Tracé_303" fill="#c4cbef" d="M1569.869 687.273s-555.862-6.414-555.858-3.5c0 .266 1.028 34.584 1.028 34.584l69.652 40.466 6.431-3.716.022 7.333 32.635 18.963 20.326-11.737.018 22.754 54.406 31.608 19.58-11.246.044 17.8 32.628 18.968 60.85-35.131 11.475 87.809 52.054 21.846 194.361-147.986s2.663-87.31.348-88.815z" opacity="0.824"/>
            <path id="Tracé_304" fill="#c2caee" d="M1564.957 687.273s-555.862-6.414-555.859-3.5c0 .266 1.029 34.584 1.029 34.584l69.651 40.466 6.431-3.716.022 7.333 32.636 18.964 20.326-11.738.018 22.754 54.406 31.608 19.58-11.246.044 17.8 32.627 18.968 60.851-35.131 11.474 87.809 52.055 21.846 194.361-147.986s2.663-87.31.348-88.815z" opacity="0.843"/>
            <path id="Tracé_305" fill="#c1c9ee" d="M1560.045 687.273s-555.863-6.414-555.859-3.5c0 .266 1.029 34.584 1.029 34.584l69.651 40.466 6.431-3.716.022 7.333 32.636 18.964 20.326-11.738.017 22.754 54.407 31.608 19.58-11.246.044 17.8 32.627 18.968 60.851-35.131 11.474 87.809 52.055 21.846L1559.7 776.082s2.66-87.304.345-88.809z" opacity="0.863"/>
            <path id="Tracé_306" fill="#bfc7ed" d="M1555.133 687.273s-555.863-6.414-555.859-3.5c0 .266 1.028 34.584 1.028 34.584l69.651 40.466 6.432-3.716.022 7.333 32.635 18.964 20.327-11.738.017 22.754 54.406 31.608 19.581-11.246.044 17.8 32.627 18.968 60.851-35.131 11.474 87.809 52.054 21.846 194.361-147.986s2.663-87.31.349-88.815z" opacity="0.882"/>
            <path id="Tracé_307" fill="#bec6ed" d="M1550.221 687.273s-555.863-6.414-555.86-3.5c0 .266 1.029 34.584 1.029 34.584l69.651 40.466 6.431-3.716.023 7.333 32.635 18.96 20.327-11.738.017 22.755 54.406 31.607 19.581-11.246.043 17.8 32.628 18.968 60.851-35.131 11.474 87.809 52.054 21.846 194.361-147.986s2.663-87.306.349-88.811z" opacity="0.902"/>
            <path id="Tracé_308" fill="#bdc5ed" d="M1545.309 687.273s-555.864-6.414-555.86-3.5c0 .266 1.029 34.584 1.029 34.584l69.651 40.466 6.431-3.716.023 7.333 32.635 18.964 20.327-11.738.016 22.755 54.407 31.607 19.58-11.246.044 17.8 32.628 18.968 60.851-35.131 11.473 87.809 52.055 21.846 194.361-147.992s2.663-87.304.349-88.809z" opacity="0.922"/>
            <path id="Tracé_309" fill="#bbc4ec" d="M1540.4 687.273s-555.864-6.414-555.86-3.5c0 .266 1.029 34.584 1.029 34.584l69.65 40.466 6.432-3.716.022 7.333 32.636 18.964 20.326-11.738.017 22.755 54.406 31.607 19.581-11.246.044 17.8 32.628 18.968 60.85-35.131 11.474 87.809 52.055 21.846 194.361-147.986s2.66-87.31.349-88.815z" opacity="0.941"/>
            <path id="Tracé_310" fill="#bac2ec" d="M1535.485 687.273s-555.864-6.414-555.861-3.5c0 .266 1.029 34.584 1.029 34.584l69.651 40.466 6.432-3.716.022 7.333 32.635 18.964 20.327-11.738.017 22.755 54.406 31.607 19.581-11.246.043 17.8 32.629 18.968 60.85-35.131 11.474 87.809 52.055 21.846 194.361-147.986s2.664-87.31.349-88.815z" opacity="0.961"/>
            <path id="Tracé_311" fill="#b8c1eb" d="M1530.573 687.273s-555.864-6.414-555.861-3.5c0 .266 1.029 34.584 1.029 34.584l69.651 40.466 6.431-3.716.023 7.333 32.635 18.964 20.327-11.738.017 22.755 54.406 31.607 19.581-11.246.043 17.8 32.629 18.968 60.85-35.131 11.473 87.809 52.056 21.846 194.36-147.986s2.663-87.31.35-88.815z" opacity="0.98"/>
            <path id="Tracé_312" d="M1525.661 687.273s-555.865-6.414-555.861-3.5c0 .266 1.029 34.584 1.029 34.584l69.65 40.466 6.432-3.716.023 7.333 32.635 18.965 20.327-11.739.016 22.755 54.406 31.607 19.582-11.248.043 17.8 32.628 18.968 60.851-35.131 11.473 87.809 52.056 21.846 194.36-147.986s2.663-87.308.35-88.813z" class="cls-44"/>
        </g>
        <path id="Tracé_313" d="M1525.652 686.674s-555.856-6.415-555.852-3.5c0 .259 1.029 34.576 1.029 34.576l69.65 40.466 6.432-3.713.016 7.341 32.642 18.955 20.32-11.733.023 22.749 54.406 31.606 19.574-11.238.051 17.8 32.625 18.966 60.848-35.13 11.479 87.813 52.056 21.846 194.353-148s2.67-87.305.348-88.804z" class="cls-44"/>
        <g id="Groupe_86">
            <path id="Rectangle_9" d="M0 0H17.721V24.902H0z" class="cls-101" transform="translate(1196.307 215.891)"/>
            <path id="Tracé_314" fill="url(#linear-gradient-4)" d="M1274.3 250.906l1.023 366.218-236.046 136.286-1.033-366.2z"/>
            <path id="Tracé_315" fill="url(#linear-gradient-5)" d="M1039.277 753.41l-69.654-40.465-1.023-366.216 69.64 40.477z"/>
            <path id="Tracé_316" d="M987.081 346.739l217.555-125.609 51.176 29.759-217.554 125.593z" class="cls-104"/>
            <path id="Tracé_317" fill="url(#linear-gradient-6)" d="M1265.215 245.63L1047.163 371.3 996 341.542l218.024-125.652-9.354-5.446L968.6 346.729l69.64 40.477 236.059-136.3z"/>
        </g>
        <g id="Groupe_89">
            <path id="Rectangle_10" fill="url(#linear-gradient-7)" d="M0 0H5.726V9.709H0z" transform="translate(1281.311 258.139)"/>
            <g id="Groupe_87">
                <path id="Tracé_318" fill="url(#linear-gradient-8)" d="M1313.4 273.454l1.042 366.243-236.079 136.3-1.023-366.23z"/>
            </g>
            <g id="Groupe_88">
                <path id="Tracé_319" fill="url(#linear-gradient-9)" d="M1078.367 775.994l-32.636-18.961L1044.7 390.8l32.64 18.968z"/>
            </g>
            <path id="Tracé_320" d="M1056.677 389.031l223.854-129.3 25.163 16.338-227.327 127.25z" class="cls-109"/>
            <path id="Tracé_321" fill="url(#linear-gradient-10)" d="M1307.35 269.952l-225.481 129.9-20.324-11.817 225.493-129.895-6.268-3.638L1044.7 390.8l32.64 18.968 236.06-136.314z"/>
        </g>
        <g id="Groupe_92">
            <path id="Rectangle_11" d="M0 0H11.917V13.272H0z" class="cls-101" transform="translate(1331.815 290.079)"/>
            <g id="Groupe_90">
                <path id="Tracé_322" fill="url(#linear-gradient-12)" d="M1152.8 451.991l236.08-135.682.3 366.645-236.063 135.662z"/>
            </g>
            <path id="Tracé_323" d="M1111.55 423.049l221.789-128.891 39.127 23.016-223.522 130.341z" class="cls-104"/>
            <path id="Tracé_324" fill="url(#linear-gradient-13)" d="M1379.673 310.964l-219.8 126.205-35.914-20.869 219.773-126.219-9.266-5.383L1098.4 420.375l54.4 31.616 236.08-135.682z"/>
            <g id="Groupe_91">
                <path id="Tracé_325" fill="url(#linear-gradient-14)" d="M1153.117 818.616L1098.709 787l-.313-366.628 54.4 31.616z"/>
            </g>
        </g>
        <g id="Groupe_95">
            <path id="Rectangle_12" fill="url(#linear-gradient-15)" d="M0 0H5.734V9.696H0z" transform="translate(1408.292 326.276)"/>
            <g id="Groupe_93">
                <path id="Tracé_326" fill="url(#linear-gradient-16)" d="M1440.406 341.613l1.046 366.205-236.083 136.323-1.039-366.233z"/>
            </g>
            <g id="Groupe_94">
                <path id="Tracé_327" fill="url(#linear-gradient-17)" d="M1205.369 844.141l-32.627-18.968-1.033-366.233 32.621 18.968z"/>
            </g>
            <path id="Tracé_328" d="M1183.68 457.175l223.857-129.295 25.147 16.327-227.315 127.255z" class="cls-109"/>
            <path id="Tracé_329" fill="url(#linear-gradient-18)" d="M1434.36 338.1L1208.877 468l-20.33-11.826 225.479-129.9-6.269-3.628-236.048 136.294 32.621 18.968 236.076-136.3z"/>
        </g>
        <g id="Groupe_98">
            <path id="Tracé_330" fill="#009ac1" d="M1422.259 439.514l10.594-1.4-1.533-11.827-10.578 1.39z"/>
            <g id="Groupe_96">
                <path id="Tracé_331" fill="url(#linear-gradient-19)" d="M1280.156 592.436l194.356-148 42.643 326.237L1322.8 918.658z"/>
            </g>
            <path id="Tracé_332" d="M1240.113 571.438l182.461-140.308 37.462 15.98-183.83 141.8z" class="cls-3"/>
            <path id="Tracé_333" fill="url(#linear-gradient-20)" d="M1465.7 440.729l-180.945 137.716-34.393-14.433 180.958-137.726-8.863-3.707L1228.1 570.586l52.055 21.85 194.356-148z"/>
            <g id="Groupe_97">
                <path id="Tracé_334" fill="url(#linear-gradient-21)" d="M1322.8 918.658l-52.056-21.839-42.644-326.233 52.055 21.85z"/>
            </g>
        </g>
        <path id="Tracé_335" d="M1447.726 607.209a40.277 40.277 0 0 0-8.08-3.866l-3.742-32.938-.593-.161c-7.965-2.177-17.57 1.36-27.733 10.259a92.612 92.612 0 0 0-12.531 13.539 42.335 42.335 0 0 0-14.18 2.115c-11.138 3.543-20.532 11.165-27.082 22.009l-.489.81 5.176 32.933q-3.38 6.094-6.247 12.683c-10.44 24.051-14.028 49.481-10.244 71.381 3.7 21.406 13.986 36.744 28.769 43.434 14.453 6.541 31.6 4.076 48.387-6.742 16.63-10.713 31.205-28.519 41.23-50.36 10.108-22.021 14.549-45.867 12.4-67.358-2.191-21.968-11.01-39.001-25.041-47.738zm-51.026-11.141a90.643 90.643 0 0 1 11.8-12.705c6.461-5.654 16.048-11.9 25.182-9.8l7.369 64.161a74.682 74.682 0 0 0-29.525 16.286c-.061-.6-.1-.936-.1-.981l-.133-1.193-6.857.212-6.715-48.044zm25.45 104.159a17.541 17.541 0 0 0-4.038-.079 19.919 19.919 0 0 0-2.1.3c-.238.049-.461.092-.673.144-.318-5.437-.705-11.138-1.149-16.961.477-.153.979-.3 1.5-.432a29.935 29.935 0 0 1 3.083-.625 27.343 27.343 0 0 1 5.995-.242 25.4 25.4 0 0 1 2.868.4 21.275 21.275 0 0 1 2.733.773 19.215 19.215 0 0 1 3.916 1.937c-.3 1.221-.635 2.462-1.012 3.715a37.776 37.776 0 0 1-6.482 12.524l-.06.073c-.281-.163-.565-.313-.855-.447a12.92 12.92 0 0 0-3.727-1.08zm3.612 2.768a116.519 116.519 0 0 0-9.582 14.427c-.037-.778-.081-1.595-.126-2.46-.155-3.885-.35-7.992-.588-12.207.108-.03.217-.055.324-.085.666-.174 1.336-.317 2-.423a17.394 17.394 0 0 1 3.875-.2 12.492 12.492 0 0 1 3.612.748c.159.063.323.129.484.2zm5.2-21.01a22.246 22.246 0 0 0-2.78-.937 25.654 25.654 0 0 0-2.926-.564 27.153 27.153 0 0 0-6.159-.04 29.028 29.028 0 0 0-3.2.506c-.68.146-1.3.3-1.874.463-.626-7.982-1.253-14.857-1.7-19.5 4.186-.282 15.37-.171 23.443 7.775a48.3 48.3 0 0 1-1.147 14.312 19.776 19.776 0 0 0-3.662-2.015zm-18.868-24.14l-.154.1c-.031-.271-.055-.536-.081-.791a73.676 73.676 0 0 1 24.539-14.778l.707 6.022c-3.712.269-13.813 1.718-25.016 9.447zm18.786-5.235l.28 2.318a33.007 33.007 0 0 0-13.511 2.742 52.1 52.1 0 0 1 13.226-5.06zm-27.124 3.39l4.99-.163c.1.961.263 2.474.459 4.458l-.031.013.05.612c.03.361 3.009 36.038 4.086 55.387.087 2.13.163 4.219.228 6.252-.216.454-.427.912-.633 1.369zm-25.174 28.834a86.55 86.55 0 0 1 12.176-10.653 74.719 74.719 0 0 0-11.865 12.732zm-5.949 2.967l-.93-6.087c5.9-5.114 14.744-11.709 24.26-15.012l.144.828a.2.2 0 0 0-.034.036q-1.165.639-2.293 1.33c-10.004 6.092-17.687 14.659-21.147 18.904zm24.109-16.6c.787 4.474 1.981 11.069 3.457 18.612-.649.619-1.327 1.3-2.095 2.117-.931.986-1.9 2.076-2.867 3.245a79.737 79.737 0 0 0-5.3 7.149c-.793 1.209-1.592 2.51-2.388 3.869-.87 1.534-1.563 2.821-2.177 4.051-.965 1.924-1.867 3.953-2.684 6.034a26.408 26.408 0 0 1-4.646-10.969c5.158-16.627 14.987-29.609 18.7-34.109zm-10.468 39.659c.616-1.177 1.31-2.4 2.181-3.853.791-1.295 1.592-2.527 2.372-3.664a76.023 76.023 0 0 1 5.219-6.721c.95-1.088 1.892-2.1 2.8-3.014.636-.638 1.218-1.2 1.765-1.708 1.079 5.437 2.176 10.708 3.265 15.683-.311.323-.636.665-.977 1.039-.631.694-1.258 1.422-1.862 2.168a52.577 52.577 0 0 0-3.435 4.752 47.119 47.119 0 0 0-2.931 5.269c-.276.578-.545 1.175-.8 1.784l-.048.005a8.633 8.633 0 0 1-6.588-1.691 23.52 23.52 0 0 1-2.418-2.146 20.724 20.724 0 0 1-1.467-1.637c.891-2.179 1.873-4.287 2.924-6.272zm9.291 10.512a43.983 43.983 0 0 1 2.913-4.85 48.106 48.106 0 0 1 3.366-4.332c.584-.671 1.19-1.324 1.8-1.946.222-.225.445-.448.667-.663 1.067 4.8 2.135 9.354 3.187 13.613a36.213 36.213 0 0 0-12.472-.733c.174-.376.355-.74.539-1.095zm2.746-59.186l4.288-5.481 9.207 68.035c-.281-.134-.566-.261-.851-.386-6.524-25.711-11.508-55.233-12.644-62.174zM1356.1 619.22a45.344 45.344 0 0 1 24.685-19.589 41.7 41.7 0 0 1 13.355-2.059l1.113 7.9 6.248 48.042-6.374 8.141.186 1.164c.014.085.062.368.137.832a63.264 63.264 0 0 0-11.256 5.5 105.528 105.528 0 0 0-18.1 14.2zm24.278 156.512a24.3 24.3 0 0 1 4.9-4.2c6.995-4.46 13.706-2.812 16.825 3.312a42.162 42.162 0 0 1-21.721.888zm26.276-2.443c-3.292-9.591-12.475-12.689-22.113-6.559a32.209 32.209 0 0 0-8.24 7.786c-.96-.348-1.911-.732-2.849-1.162-.126-.056-.249-.119-.374-.178a38.831 38.831 0 0 1 10.815-10.682c11.835-7.512 23.06-3.22 26.484 9.186-1.241.585-2.477 1.12-3.719 1.609zm7.813-3.709c-3.626-15.4-17.073-20.954-31.316-11.936a46.27 46.27 0 0 0-13.5 13.7q-1.257-.759-2.456-1.618a51.741 51.741 0 0 1 15.388-15.783c16.012-10.119 31.088-3.67 34.919 13.842q-1.511.945-3.031 1.795zm6.965-4.408c-4.182-20.113-21.327-27.639-39.6-16.122a58.741 58.741 0 0 0-17.695 18.258q-1.218-1.066-2.367-2.245c5.25-8.252 11.9-15.306 19.445-20.053 20.06-12.621 38.841-4.293 43.384 17.792q-1.56 1.228-3.163 2.37zm11.813-10.1c.878-8.935 6.055-18.422 13.014-22.858a14.564 14.564 0 0 1 5.613-2.221 116.086 116.086 0 0 1-18.623 25.081zm21.546-30.607a16.882 16.882 0 0 0-9.1 2.93c-6.718 4.273-12.133 12.305-14.784 20.9a44.209 44.209 0 0 1 2.145 6.973c-1.519 1.524-3.066 2.989-4.646 4.376-5.073-24.288-25.775-33.489-47.942-19.577-8.284 5.2-15.6 12.915-21.4 21.951-5.965-7.362-10.159-17.234-12.174-29.094-3.449-20.3-.087-43.83 9.586-66.065q1.539-3.537 3.249-6.927l4.551 28.949 1.493-1.595c.016-.016 1.31-1.4 3.584-3.484l1.572 10.2 1.586-2.15c.015-.022 1.4-1.878 3.792-4.561l.921 6.1 1.611-2.36a86.417 86.417 0 0 1 6.214-7.828 102.452 102.452 0 0 0-9.822 22.218l-.182.611.093.544a27.946 27.946 0 0 0 9.026 16.768 14.527 14.527 0 0 0 10.45 3.559c5.018-.234 12.959-.044 17.389 2.711l.012-.023q.581.373 1.149.788c.263-.69.531-1.373.8-2.044.064-.164.131-.33.2-.5q.664-1.623 1.363-3.174a104.344 104.344 0 0 1 11.168-18.153 60.776 60.776 0 0 0 11.782-30.835 46.421 46.421 0 0 0-.048-8.148l-.056-.555-.3-.306a28.386 28.386 0 0 0-14.073-7.807 31.61 31.61 0 0 1 8.19-.542l1.894.188-.762-6.379a29.115 29.115 0 0 1 4.84-.468l1.813.047-1.177-10.132c2.161-.666 3.435-.914 3.447-.915l1.595-.3-3.292-28.981a37.7 37.7 0 0 1 4.291 2.272c13.041 8.034 21.269 23.777 23.352 44.134a113.445 113.445 0 0 1-2.7 37.179c-6.792-1.151-14.584.535-22.64 5.509-10.894 6.9-20.183 18.5-26.46 31.761a24.981 24.981 0 0 1 2.967 1.6c5.69-11.8 14.018-22.089 23.762-28.219 7.459-4.692 14.682-6.265 20.952-5.152q-.63 2.245-1.342 4.481c-5.727-1.013-12.323.431-19.132 4.723-8.939 5.634-16.569 15.1-21.755 25.948a26.97 26.97 0 0 1 2.794 2.621c4.575-9.88 11.448-18.549 19.539-23.661 5.934-3.75 11.69-5.054 16.7-4.234q-.749 2.043-1.564 4.072c-4.436-.625-9.495.576-14.7 3.873-7.549 4.779-13.917 13-18.017 22.3a32.306 32.306 0 0 1 2.376 3.673c3.418-8.771 9.22-16.67 16.214-21.108 4.172-2.648 8.232-3.716 11.848-3.4-.094.21-.186.42-.282.629-.624 1.386-1.284 2.745-1.951 4.091z" style="mix-blend-mode:soft-light;isolation:isolate" fill="#fff"/>
    </g>
</svg>
