<?xml version="1.0" encoding="UTF-8" standalone="no"?><!DOCTYPE svg PUBLIC "-//W3C//DTD SVG 1.1//EN" "http://www.w3.org/Graphics/SVG/1.1/DTD/svg11.dtd"><svg width="100%" height="100%" viewBox="0 0 906 1022" version="1.1" xmlns="http://www.w3.org/2000/svg" xmlns:xlink="http://www.w3.org/1999/xlink" xml:space="preserve" xmlns:serif="http://www.serif.com/" style="fill-rule:evenodd;clip-rule:evenodd;stroke-linejoin:round;stroke-miterlimit:2;"><path d="M750.004,271.447c79.35,79.354 123.046,184.858 123.046,297.071c0,112.216 -43.696,217.716 -123.046,297.054c-61.766,61.771 -139.362,101.908 -223.641,116.683c-12.817,-150.683 -139.521,-269.379 -293.475,-269.379c-57.025,-0 -110.313,16.292 -155.463,44.467c-29.162,-57.855 -44.596,-122.163 -44.596,-188.825c0,-112.213 43.696,-217.717 123.05,-297.071c79.338,-79.35 184.838,-123.046 297.054,-123.046c112.213,-0 217.717,43.696 297.071,123.046" style="fill:#b6ecff;fill-rule:nonzero;"/><g opacity="0.1"><path d="M806.208,713.125c-13.638,32.555 -31.663,62.955 -53.692,90.588c4.325,-33.088 4.5,-66.592 0.5,-99.796c-0.621,-4.767 -1.4,-9.629 -2.367,-14.767c16.204,-11.179 32.517,-25.22 48.517,-41.779c12.146,-12.521 23.646,-25.833 34.3,-39.712c-4,36.362 -13.142,71.771 -27.258,105.466m28.608,-123.25c-0.533,0.759 -1.067,1.517 -1.633,2.305c-12.384,17.087 -26.117,33.437 -40.83,48.595c-16.4,16.975 -33.087,31.2 -49.595,42.275l-2.621,1.759l0.616,3.1c1.209,6.096 2.146,11.733 2.859,17.187c4.341,36.071 3.637,72.554 -2.1,108.442c-0.296,1.858 -0.588,3.679 -0.888,5.458l-2.746,16.521l10.996,-12.629c27.654,-31.746 49.884,-67.446 66.079,-106.1c16.68,-39.821 26.584,-81.963 29.442,-125.254l1.104,-16.742l-10.683,15.083Z" style="fill:#00a1c6;fill-rule:nonzero;"/></g><g opacity="0.1"><path d="M716.213,421.913c-20.888,-9.35 -41.796,-14.084 -62.233,-14.084c-17.875,0 -36.038,3.546 -54.15,10.559c7.05,-18.113 10.616,-36.234 10.616,-54.005c0,-20.595 -4.737,-41.604 -14.087,-62.525c33.437,-3.775 67.216,-2.904 100.45,2.596c6.066,0.959 10.637,1.742 14.316,2.463c0.909,4.787 1.75,9.612 2.517,14.396c5.504,33.258 6.371,67.104 2.571,100.6m8.383,7.695c0.117,-0.737 0.238,-1.462 0.359,-2.191c0.233,-1.375 0.462,-2.754 0.645,-4.175l0.013,-0.075c3.921,-34.425 3.037,-69.217 -2.617,-103.375c-0.941,-5.9 -2.008,-11.888 -3.166,-17.792l-0.6,-3.067l-3.05,-0.658c-4.325,-0.933 -9.846,-1.917 -17.855,-3.179c-34.191,-5.658 -68.979,-6.542 -103.475,-2.608c-1.362,0.175 -2.679,0.395 -3.995,0.616c-0.725,0.125 -1.45,0.246 -2.184,0.359l-6.354,0.987l2.821,5.775c10.504,21.529 15.829,43.113 15.829,64.158c0,19.971 -4.858,40.488 -14.437,60.984l-5.513,11.804l11.808,-5.5c20.475,-9.529 41.05,-14.363 61.155,-14.363c20.87,0 42.354,5.325 63.854,15.825l5.771,2.825l0.991,-6.35Z" style="fill:#00a1c6;fill-rule:nonzero;"/></g><g opacity="0.1"><path d="M535.165,621.005c-0.392,-0.375 -0.788,-0.746 -1.188,-1.112c-0.275,-0.255 -0.55,-0.509 -0.817,-0.763c-9.745,-10.217 -19.087,-21.096 -27.854,-32.417c12.559,-1.654 25.117,-2.658 37.446,-2.995c5.467,0.137 11.396,0.137 18.108,-0c11.375,0.258 22.492,1 32.975,2.191c37.75,4.904 66.671,17.213 85.955,36.579c12.158,12.217 21.625,28.438 28.17,48.267c-18.462,9.163 -36.604,13.8 -53.979,13.8c-34.454,0 -71.225,-18.162 -109.279,-53.992c-3.4,-3.512 -6.521,-6.641 -9.537,-9.558m180.733,56.342l3.467,-1.829l-1.138,-3.746c-7.021,-23.05 -17.696,-41.884 -31.721,-55.971c-20.796,-20.892 -51.566,-34.113 -91.525,-39.304c-10.871,-1.238 -22.316,-1.996 -34.012,-2.259l-0.2,0c-6.667,0.138 -12.521,0.138 -17.904,0l-0.246,0c-15.354,0.413 -31.063,1.838 -46.679,4.234l-7.788,1.196l4.704,6.32c10.384,13.959 21.663,27.338 33.521,39.767l0.146,0.146c0.337,0.325 0.683,0.642 1.029,0.958c0.338,0.313 0.675,0.629 1.017,0.959c2.966,2.866 6.037,5.945 9.391,9.412l0.159,0.158c39.904,37.592 78.887,56.65 115.862,56.65c20.034,0 40.863,-5.616 61.917,-16.691" style="fill:#00a1c6;fill-rule:nonzero;"/></g><g opacity="0.1"><path d="M153.19,327.16c-4.25,33.029 -4.362,66.462 -0.325,99.587c0.617,4.733 1.383,9.538 2.338,14.608c-16.196,11.167 -32.496,25.205 -48.484,41.755c-12.137,12.508 -23.633,25.816 -34.279,39.687c7.9,-71.933 35.567,-138.962 80.75,-195.637m-80.492,211.137c12.388,-17.087 26.121,-33.437 40.834,-48.592c16.387,-16.966 33.062,-31.179 49.554,-42.25l2.625,-1.758l-0.617,-3.096c-1.187,-6.021 -2.112,-11.608 -2.821,-17.037c-4.416,-36.221 -3.741,-72.859 2.005,-108.9c0.258,-1.621 0.516,-3.2 0.775,-4.763l2.725,-16.512l-10.98,12.629c-27.566,31.7 -49.737,67.333 -65.887,105.912c-16.638,39.738 -26.533,81.792 -29.408,124.988l-1.113,16.754l10.717,-15.121c0.516,-0.741 1.041,-1.483 1.591,-2.254" style="fill:#00a1c6;fill-rule:nonzero;"/></g><g opacity="0.1"><path d="M705.497,596.392c-12.804,-12.667 -28.458,-23.079 -46.646,-31.042c18.625,-8.025 34.538,-18.646 47.421,-31.667c14.346,-14.5 25.775,-32.558 34.025,-53.75c10.742,8.196 21.621,17.863 32.396,28.788c13.775,14.233 26.642,29.587 38.233,45.625c3.125,4.342 5.529,7.8 7.404,10.642c-1.975,2.912 -4.516,6.637 -7.395,10.766c-11.6,16.05 -24.467,31.404 -38.23,45.621c-10.845,11.121 -21.825,20.933 -32.725,29.233c-8.266,-21.525 -19.85,-39.737 -34.483,-54.216m74.008,31.587c14.088,-14.554 27.246,-30.254 39.159,-46.737c3.904,-5.604 7.162,-10.409 9.271,-13.534l1.725,-2.554l-1.634,-2.612c-2.158,-3.45 -5.146,-7.817 -9.408,-13.738c-11.867,-16.416 -25.021,-32.121 -39.146,-46.704c-12.858,-13.042 -25.862,-24.337 -38.646,-33.579l-5.141,-3.721l-2.109,5.988c-7.9,22.466 -19.354,41.383 -34.046,56.225c-14.4,14.558 -32.95,25.941 -55.141,33.833l-12.425,4.417l12.396,4.504c21.75,7.9 40.079,19.125 54.47,33.366c14.942,14.78 26.513,33.825 34.396,56.609l2.084,6.021l5.17,-3.725c12.984,-9.359 26.113,-20.813 39.025,-34.059" style="fill:#00a1c6;fill-rule:nonzero;"/></g><g opacity="0.1"><path d="M593.718,544.563c-8.425,0.97 -17.117,1.658 -25.838,2.041c-5.029,-0.2 -10.146,-0.3 -15.325,-0.3c-5.171,0 -10.4,0.1 -15.654,0.3c-10.675,-0.441 -21.392,-1.354 -31.967,-2.729c7.592,-9.825 15.679,-19.383 24.113,-28.487c0.595,-0.559 1.191,-1.109 1.787,-1.663c1.454,-1.342 2.908,-2.687 4.338,-4.075c4.504,-4.392 9.008,-9.029 13.77,-14.167c36.196,-33.133 71.534,-49.929 105.038,-49.929c17.262,0 35.379,4.679 53.904,13.921c-6.546,20.033 -16.046,36.338 -28.262,48.5c-19.492,19.404 -48.417,31.717 -85.905,36.588m124.425,-86.113l1.125,-3.733l-3.45,-1.825c-21.125,-11.159 -41.929,-16.821 -61.837,-16.821c-35.996,-0 -73.538,17.683 -111.583,52.554l-0.275,0.275c-4.705,5.075 -9.142,9.646 -13.563,13.954c-1.367,1.329 -2.762,2.621 -4.162,3.913c-0.646,0.6 -1.296,1.204 -1.946,1.808l-0.238,0.238c-10.529,11.358 -20.533,23.408 -29.729,35.808l-4.692,6.321l7.784,1.187c13.525,2.063 27.362,3.392 41.125,3.954l0.187,0.009l0.188,-0.009c10.396,-0.4 20.7,-0.395 30.621,0l0.2,0.009l0.195,-0.009c9.013,-0.391 18,-1.1 26.78,-2.112c39.67,-5.154 70.433,-18.367 91.437,-39.279c14.096,-14.034 24.808,-32.959 31.833,-56.242" style="fill:#00a1c6;fill-rule:nonzero;"/></g><g opacity="0.1"><path d="M713.82,809.199c-0.954,6.062 -1.741,10.633 -2.462,14.316c-4.775,0.905 -9.6,1.75 -14.4,2.517c-33.296,5.513 -67.183,6.371 -100.638,2.567c9.375,-20.917 14.125,-41.854 14.125,-62.321c0,-17.913 -3.558,-36.117 -10.595,-54.258c18.125,7.062 36.254,10.633 54.037,10.633c20.596,-0 41.596,-4.733 62.513,-14.075c3.795,33.487 2.929,67.333 -2.58,100.621m11.321,-106.129c-0.121,-0.725 -0.246,-1.45 -0.362,-2.184l-0.988,-6.346l-5.771,2.817c-21.516,10.492 -43.091,15.817 -64.133,15.817c-19.983,-0 -40.517,-4.867 -61.029,-14.459l-11.821,-5.525l5.517,11.821c9.562,20.509 14.412,41.121 14.412,61.267c0,20.896 -5.341,42.404 -15.871,63.933l-2.825,5.779l6.355,0.988c0.737,0.117 1.466,0.242 2.195,0.362c1.355,0.23 2.75,0.463 4.288,0.663c14.075,1.6 28.208,2.404 42.333,2.404c20.429,0 40.85,-1.675 61.042,-5.017c5.921,-0.95 11.908,-2.016 17.792,-3.17l3.062,-0.6l0.658,-3.05c0.938,-4.338 1.921,-9.855 3.184,-17.859c5.658,-34.183 6.537,-68.971 2.608,-103.471c-0.187,-1.45 -0.421,-2.833 -0.646,-4.17" style="fill:#00a1c6;fill-rule:nonzero;"/></g><g opacity="0.1"><path d="M752.354,326.743c22.021,27.583 40.05,57.937 53.704,90.441c14.15,33.692 23.33,69.092 27.363,105.463c-10.613,-13.813 -22.071,-27.071 -34.175,-39.546c-15.929,-16.325 -32.108,-30.208 -48.125,-41.296c1.092,-5.525 1.958,-10.65 2.629,-15.579l0.017,-0.121c3.658,-33.083 3.179,-66.467 -1.413,-99.362m-11.112,-9.842c6.041,35.721 7.087,72.087 3.108,108.1c-0.767,5.604 -1.796,11.487 -3.142,17.979l-0.645,3.121l2.637,1.775c16.338,11.012 32.913,25.092 49.254,41.837c14.7,15.15 28.438,31.496 40.809,48.571c0.541,0.754 1.041,1.467 1.545,2.175l10.684,15.079l-1.125,-16.766c-2.896,-43.3 -12.846,-85.446 -29.571,-125.263c-16.238,-38.654 -38.513,-74.341 -66.208,-106.066l-10.996,-12.596l2.75,16.496c0.296,1.791 0.596,3.629 0.9,5.558" style="fill:#00a1c6;fill-rule:nonzero;"/></g><g opacity="0.1"><path d="M153.53,803.923c-22.038,-27.604 -40.075,-57.979 -53.733,-90.504c-14.155,-33.716 -23.33,-69.146 -27.35,-105.541c10.641,13.862 22.137,27.17 34.283,39.687c15.9,16.292 32.05,30.154 48.046,41.238c-1.096,5.545 -1.967,10.687 -2.642,15.637l-0.017,0.121c-3.658,33.083 -3.179,66.462 1.413,99.362m11.112,9.842c-6.041,-35.721 -7.087,-72.096 -3.108,-108.104c0.771,-5.625 1.804,-11.525 3.154,-18.033l0.646,-3.117l-2.637,-1.779c-16.317,-11.004 -32.863,-25.067 -49.175,-41.779c-14.7,-15.15 -28.438,-31.496 -40.809,-48.575c-0.579,-0.8 -1.112,-1.559 -1.646,-2.317l-10.679,-15.083l1.117,16.766c2.883,43.329 12.825,85.504 29.554,125.346c16.238,38.679 38.525,74.388 66.238,106.129l10.991,12.588l-2.746,-16.484c-0.295,-1.791 -0.595,-3.633 -0.9,-5.558" style="fill:#00a1c6;fill-rule:nonzero;"/></g><g opacity="0.1"><path d="M473.519,424.44c4.904,-37.755 17.212,-66.671 36.579,-85.955c12.246,-12.191 28.525,-21.675 48.433,-28.22c9.234,18.537 13.913,36.758 13.913,54.212c-0,33.554 -17.263,69.346 -51.309,106.388c-4.666,4.416 -8.737,8.425 -12.429,12.245c-0.987,1.021 -1.954,2.063 -2.921,3.109c-0.537,0.579 -1.07,1.158 -1.612,1.733c-9.508,8.896 -19.504,17.408 -29.8,25.375c-1.513,-11.45 -2.488,-23.029 -2.904,-34.529c0.291,-8.7 0.287,-17.6 -0.004,-26.458c0.354,-9.638 1.045,-19.046 2.054,-27.9m-11.534,54.37l0.005,0.163c0.52,14.579 1.916,29.292 4.145,43.721l1.2,7.766l6.309,-4.687c12.879,-9.567 25.366,-19.996 37.116,-31.004l0.213,-0.204c0.592,-0.638 1.183,-1.275 1.775,-1.909c0.912,-0.991 1.825,-1.979 2.771,-2.95c3.629,-3.758 7.637,-7.708 12.25,-12.066l0.233,-0.238c35.779,-38.887 53.921,-76.883 53.921,-112.925c-0,-20.112 -5.654,-41.025 -16.813,-62.154l-1.825,-3.458l-3.741,1.137c-23.129,7.021 -42.013,17.708 -56.134,31.763c-20.891,20.8 -34.112,51.57 -39.3,91.529c-1.054,9.216 -1.766,18.929 -2.125,28.871l-0.004,0.162l0.004,0.163c0.292,8.758 0.296,17.558 0.005,26.154l-0.005,0.166Z" style="fill:#00a1c6;fill-rule:nonzero;"/></g><g opacity="0.1"><path d="M743.3,855.691c-77.558,77.559 -180.675,120.271 -290.358,120.271c-109.683,0 -212.8,-42.712 -290.362,-120.271c-77.555,-77.558 -120.267,-180.675 -120.267,-290.358c-0,-109.683 42.712,-212.804 120.267,-290.363c77.562,-77.554 180.679,-120.27 290.362,-120.27c109.683,-0 212.8,42.716 290.358,120.27c77.559,77.559 120.271,180.68 120.271,290.363c0,109.683 -42.712,212.8 -120.271,290.358m96.738,-453.887c-21.163,-50.025 -51.45,-94.954 -90.033,-133.534c-38.58,-38.583 -83.509,-68.875 -133.534,-90.033c-51.8,-21.908 -106.816,-33.017 -163.529,-33.017c-56.712,0 -111.729,11.109 -163.529,33.017c-50.025,21.158 -94.954,51.45 -133.533,90.033c-38.584,38.58 -68.875,83.509 -90.034,133.534c-21.908,51.8 -33.016,106.816 -33.016,163.529c-0,56.712 11.108,111.729 33.016,163.529c21.159,50.025 51.45,94.954 90.034,133.533c38.579,38.584 83.508,68.871 133.533,90.034c51.8,21.908 106.817,33.016 163.529,33.016c56.713,0 111.729,-11.108 163.529,-33.016c50.025,-21.163 94.954,-51.45 133.534,-90.034c38.583,-38.579 68.87,-83.508 90.033,-133.533c21.908,-51.8 33.017,-106.817 33.017,-163.529c-0,-56.713 -11.109,-111.729 -33.017,-163.529" style="fill:#00a1c6;fill-rule:nonzero;"/></g><g opacity="0.1"><path d="M474.398,617.325c10.317,7.97 20.337,16.491 29.867,25.4c0.525,0.558 1.045,1.12 1.566,1.683c0.921,0.996 1.842,1.992 2.792,2.971c3.821,3.912 7.996,7.991 12.762,12.454c34.063,36.729 51.334,72.571 51.334,106.537c-0,17.263 -4.679,35.38 -13.921,53.905c-20.033,-6.55 -36.338,-16.046 -48.5,-28.267c-19.404,-19.488 -31.717,-48.413 -36.588,-85.9c-0.916,-7.954 -1.579,-16.133 -1.975,-24.325c0.45,-10.738 0.442,-21.95 -0.029,-33.333c0.454,-10.392 1.354,-20.83 2.692,-31.125m-12.154,64.483l0.012,0.212c0.404,8.475 1.088,16.942 2.046,25.242c5.154,39.667 18.367,70.433 39.279,91.438c14.034,14.1 32.959,24.808 56.242,31.829l3.733,1.129l1.825,-3.45c11.163,-21.125 16.821,-41.929 16.821,-61.838c0,-36.475 -18.162,-74.529 -53.979,-113.108l-0.233,-0.233c-4.717,-4.413 -8.83,-8.425 -12.571,-12.263c-0.892,-0.916 -1.759,-1.854 -2.625,-2.791c-0.575,-0.621 -1.15,-1.246 -1.734,-1.863l-0.208,-0.208c-11.783,-11.021 -24.296,-21.463 -37.2,-31.034l-6.321,-4.687l-1.187,7.779c-2.021,13.25 -3.338,26.804 -3.917,40.279l-0.008,0.2l0.008,0.2c0.471,11.267 0.479,22.354 0.029,32.954l-0.012,0.213Z" style="fill:#00a1c6;fill-rule:nonzero;"/></g><g opacity="0.1"><path d="M312.166,586.101c8.413,-0.971 17.104,-1.654 25.846,-2.041c10.058,0.4 20.475,0.4 30.967,-0c10.675,0.441 21.396,1.354 31.971,2.729c-7.592,9.825 -15.68,19.383 -24.113,28.487c-0.604,0.563 -1.204,1.121 -1.804,1.675c-1.446,1.338 -2.896,2.679 -4.321,4.063c-4.504,4.396 -9.012,9.029 -13.775,14.166c-36.192,33.134 -71.529,49.93 -105.033,49.93c-17.263,-0 -35.379,-4.68 -53.904,-13.921c6.545,-20.034 16.045,-36.334 28.262,-48.5c19.492,-19.404 48.417,-31.717 85.904,-36.588m-124.425,86.113l-1.125,3.733l3.45,1.825c21.121,11.158 41.925,16.821 61.838,16.821c35.996,-0 73.537,-17.683 111.583,-52.554l0.271,-0.275c4.704,-5.071 9.142,-9.642 13.562,-13.954c1.363,-1.325 2.759,-2.613 4.15,-3.9c0.655,-0.605 1.309,-1.209 1.963,-1.817l0.237,-0.242c10.53,-11.358 20.534,-23.408 29.73,-35.808l4.691,-6.321l-7.783,-1.187c-13.529,-2.063 -27.367,-3.392 -41.129,-3.955l-0.188,-0.008l-0.187,0.008c-10.379,0.4 -20.679,0.4 -30.613,0l-0.2,-0.008l-0.196,0.008c-9.033,0.392 -18.02,1.1 -26.783,2.113c-39.671,5.154 -70.437,18.367 -91.437,39.275c-14.1,14.042 -24.809,32.962 -31.834,56.246" style="fill:#00a1c6;fill-rule:nonzero;"/></g><g opacity="0.1"><path d="M434.212,481.369c-0.437,10.666 -1.354,21.375 -2.721,31.941c-10.029,-7.758 -19.771,-16.037 -29.046,-24.67c-0.57,-0.609 -1.137,-1.221 -1.704,-1.838c-1.15,-1.237 -2.296,-2.479 -3.483,-3.7c-4.038,-4.142 -8.396,-8.387 -13.313,-12.975c-33.512,-36.417 -50.508,-71.958 -50.508,-105.65c0,-17.292 4.696,-35.433 13.963,-53.987c19.887,6.545 36.083,16.008 48.183,28.162c19.404,19.492 31.717,48.417 36.587,85.904c0.975,8.417 1.659,17.113 2.042,25.842c-0.396,10.05 -0.396,20.471 0,30.971m9.488,-30.988l-0.009,-0.196c-0.387,-9.02 -1.096,-18.012 -2.108,-26.783c-5.154,-39.671 -18.371,-70.433 -39.279,-91.437c-13.971,-14.034 -32.784,-24.713 -55.913,-31.738l-3.737,-1.133l-1.829,3.454c-11.192,21.154 -16.863,41.992 -16.863,61.929c0,36.188 17.875,73.938 53.129,112.204l0.254,0.254c4.867,4.534 9.159,8.717 13.117,12.775c1.129,1.163 2.225,2.346 3.321,3.534c0.617,0.666 1.233,1.333 1.858,1.996l0.221,0.225c11.529,10.741 23.763,20.937 36.367,30.304l6.325,4.7l1.187,-7.792c2.063,-13.525 3.392,-27.354 3.95,-41.108l0.009,-0.188l-0.009,-0.187c-0.396,-10.388 -0.396,-20.688 0,-30.613l0.009,-0.2Z" style="fill:#00a1c6;fill-rule:nonzero;"/></g><g opacity="0.1"><path d="M453.286,930.718c-3.863,-2.617 -7.35,-5.013 -10.767,-7.392c-16.05,-11.6 -31.404,-24.466 -45.621,-38.229c-10.987,-10.717 -20.687,-21.546 -28.896,-32.271c21.421,-8.266 39.555,-19.812 53.971,-34.383c12.713,-12.85 23.15,-28.563 31.121,-46.825c8.008,18.475 18.575,34.258 31.496,47.046c14.5,14.341 32.558,25.771 53.75,34.025c-8.196,10.737 -17.863,21.616 -28.792,32.396c-14.229,13.775 -29.583,26.641 -45.621,38.233c-4.337,3.121 -7.795,5.525 -10.641,7.4m62.891,-38.854c13.038,-12.859 24.338,-25.863 33.58,-38.646l3.716,-5.142l-5.987,-2.108c-22.467,-7.904 -41.384,-19.358 -56.225,-34.046l-0.004,0c-14.459,-14.304 -25.792,-32.725 -33.68,-54.754l-4.437,-12.388l-4.479,12.371c-7.904,21.817 -19.15,40.192 -33.425,54.625c-14.725,14.879 -33.696,26.425 -56.388,34.309l-6.025,2.091l3.742,5.167c9.271,12.8 20.617,25.767 33.729,38.554c14.554,14.088 30.258,27.246 46.738,39.158c4.275,2.975 8.575,5.921 13.533,9.271l2.554,1.725l2.613,-1.633c3.454,-2.163 7.816,-5.15 13.741,-9.408c16.413,-11.863 32.113,-25.025 46.704,-39.146" style="fill:#00a1c6;fill-rule:nonzero;"/></g><g opacity="0.1"><path d="M165.586,650.727c-10.746,-8.196 -21.625,-17.862 -32.396,-28.787c-13.775,-14.23 -26.641,-29.58 -38.237,-45.621c-3.121,-4.342 -5.525,-7.8 -7.4,-10.642c1.975,-2.912 4.517,-6.637 7.396,-10.771c11.6,-16.05 24.466,-31.4 38.229,-45.616c10.846,-11.125 21.829,-20.934 32.721,-29.234c8.271,21.525 19.854,39.742 34.487,54.217c12.804,12.667 28.459,23.079 46.646,31.037c-18.625,8.025 -34.537,18.65 -47.421,31.671c-14.346,14.5 -25.775,32.559 -34.025,53.746m95.909,-80.908l12.425,-4.421l-12.4,-4.504c-21.746,-7.896 -40.075,-19.121 -54.467,-33.363c-14.942,-14.779 -26.513,-33.825 -34.396,-56.612l-2.083,-6.017l-5.167,3.721c-12.983,9.358 -26.112,20.812 -39.029,34.058c-14.088,14.554 -27.246,30.259 -39.163,46.742c-3.9,5.604 -7.158,10.408 -9.266,13.533l-1.725,2.554l1.633,2.613c2.158,3.45 5.146,7.812 9.408,13.737c11.863,16.417 25.021,32.121 39.142,46.705c12.858,13.037 25.858,24.333 38.65,33.579l5.142,3.716l2.104,-5.983c7.904,-22.462 19.358,-41.379 34.046,-56.229c14.404,-14.558 32.954,-25.938 55.146,-33.829" style="fill:#00a1c6;fill-rule:nonzero;"/></g><g opacity="0.1"><path d="M691.337,265.758c-33.087,-4.325 -66.604,-4.5 -99.812,-0.504c-4.73,0.617 -9.534,1.388 -14.605,2.338c-11.17,-16.196 -25.208,-32.492 -41.758,-48.479c-12.508,-12.142 -25.821,-23.642 -39.683,-34.284c72.025,7.913 139.141,35.646 195.858,80.929m-211.358,-80.662c17.087,12.379 33.433,26.117 48.591,40.825c16.963,16.387 31.175,33.062 42.246,49.558l1.763,2.621l3.096,-0.612c6.02,-1.192 11.604,-2.117 17.029,-2.825c36.075,-4.342 72.558,-3.634 108.441,2.1c1.859,0.295 3.68,0.587 5.459,0.887l16.525,2.754l-12.634,-11.004c-31.72,-27.629 -67.383,-49.85 -106.004,-66.037c-39.783,-16.675 -81.887,-26.588 -125.137,-29.467l-16.767,-1.117l15.092,10.688c0.75,0.525 1.504,1.054 2.3,1.629" style="fill:#00a1c6;fill-rule:nonzero;"/></g><g opacity="0.1"><path d="M410.262,184.848c-13.817,10.612 -27.079,22.071 -39.55,34.179c-16.304,15.908 -30.171,32.067 -41.262,48.075c-5.417,-1.062 -10.475,-1.912 -15.438,-2.592c-15.267,-1.762 -30.592,-2.641 -45.921,-2.641c-17.746,-0 -35.483,1.179 -53.1,3.533c56.584,-45.037 123.496,-72.642 195.271,-80.554m-205.896,91.729l0.034,-0.004c35.879,-5.925 72.395,-6.817 108.425,-2.658c5.587,0.766 11.412,1.779 17.812,3.1l3.108,0.637l1.78,-2.633c11.008,-16.325 25.075,-32.879 41.795,-49.2c15.15,-14.7 31.496,-28.434 48.571,-40.809c0.763,-0.545 1.479,-1.05 2.2,-1.558l15.067,-10.671l-16.775,1.125c-43.146,2.888 -85.146,12.775 -124.838,29.392c-38.533,16.133 -74.133,38.271 -105.808,65.796l-12.646,10.987l16.529,-2.733c1.559,-0.258 3.13,-0.517 4.746,-0.771" style="fill:#00a1c6;fill-rule:nonzero;"/></g><g opacity="0.1"><path d="M214.634,864.977c33.067,4.483 66.571,4.821 99.817,0.983c4.779,-0.62 9.667,-1.408 14.871,-2.387c11.125,16.05 25.041,32.179 41.396,47.979c12.508,12.142 25.82,23.638 39.687,34.283c-71.988,-7.908 -139.071,-35.616 -195.771,-80.858m211.271,80.592c-17.092,-12.384 -33.437,-26.121 -48.592,-40.829c-16.77,-16.2 -30.87,-32.709 -41.908,-49.067l-1.762,-2.613l-3.092,0.617c-6.163,1.225 -11.829,2.167 -17.254,2.875c-36.134,4.171 -72.646,3.279 -108.559,-2.65c-1.862,-0.296 -3.679,-0.587 -5.458,-0.887l-16.529,-2.755l12.633,11.005c31.721,27.629 67.388,49.85 106.009,66.037c39.783,16.675 81.883,26.588 125.137,29.467l16.758,1.112l-15.1,-10.691c-0.745,-0.53 -1.495,-1.05 -2.283,-1.621" style="fill:#00a1c6;fill-rule:nonzero;"/></g><g opacity="0.1"><path d="M370.717,509.565c0.263,0.254 0.534,0.504 0.805,0.754c0.175,0.159 0.345,0.317 0.516,0.484c9.971,10.404 19.546,21.529 28.542,33.15c-12.55,1.65 -25.113,2.654 -37.45,2.991c-2.746,-0.066 -5.604,-0.104 -8.613,-0.104c-3,0 -6.15,0.038 -9.495,0.104c-11.367,-0.258 -22.471,-0.996 -33.017,-2.196c-37.729,-4.904 -66.633,-17.212 -85.913,-36.575c-12.158,-12.212 -21.62,-28.437 -28.166,-48.266c18.462,-9.163 36.604,-13.8 53.975,-13.8c34.683,-0 71.687,18.383 109.983,54.641c3.029,3.117 5.921,6.005 8.833,8.817m-180.729,-56.25l-3.471,1.825l1.142,3.754c7.021,23.05 17.692,41.879 31.717,55.967c20.8,20.896 51.571,34.112 91.45,39.296l0.079,0.008c10.867,1.238 22.312,2 34.008,2.258l0.1,0.005l0.1,-0.005c6.646,-0.137 12.5,-0.133 17.9,0.005l0.246,-0c15.371,-0.417 31.079,-1.842 46.688,-4.238l7.783,-1.196l-4.7,-6.316c-10.625,-14.28 -22.138,-27.909 -34.217,-40.509l-0.129,-0.133c-0.242,-0.233 -0.492,-0.458 -0.737,-0.688c-0.209,-0.195 -0.417,-0.383 -0.634,-0.591c-2.87,-2.775 -5.716,-5.613 -8.696,-8.684l-0.141,-0.137c-40.142,-38.025 -79.363,-57.308 -116.575,-57.308c-20.029,-0 -40.863,5.616 -61.913,16.687" style="fill:#00a1c6;fill-rule:nonzero;"/></g><g opacity="0.1"><path d="M192.063,321.463c0.955,-6.058 1.742,-10.633 2.463,-14.317c4.783,-0.904 9.608,-1.746 14.396,-2.516c33.283,-5.505 67.154,-6.367 100.6,-2.571c-9.35,20.887 -14.084,41.796 -14.084,62.233c0,17.875 3.546,36.046 10.559,54.15c-18.113,-7.05 -36.234,-10.612 -54.004,-10.612c-20.6,-0 -41.605,4.733 -62.53,14.083c-3.775,-33.438 -2.9,-67.217 2.6,-100.45m-11.345,105.962c0.12,0.721 0.241,1.446 0.358,2.175l0.983,6.359l5.779,-2.825c21.525,-10.5 43.113,-15.829 64.155,-15.829c19.97,-0 40.491,4.858 60.987,14.437l11.8,5.517l-5.5,-11.813c-9.529,-20.471 -14.362,-41.046 -14.362,-61.154c-0,-20.871 5.325,-42.35 15.829,-63.85l2.821,-5.775l-6.35,-0.987c-0.738,-0.117 -1.467,-0.242 -2.2,-0.363c-1.338,-0.225 -2.721,-0.458 -4.242,-0.658c-34.429,-3.921 -69.221,-3.038 -103.375,2.616c-5.908,0.946 -11.896,2.013 -17.792,3.167l-3.066,0.6l-0.655,3.054c-0.937,4.334 -1.92,9.85 -3.183,17.854c-5.658,34.184 -6.537,68.975 -2.608,103.471c0.175,1.367 0.4,2.684 0.621,4.004" style="fill:#00a1c6;fill-rule:nonzero;"/></g><g opacity="0.1"><path d="M189.675,708.709c20.917,9.379 41.854,14.129 62.321,14.129c17.837,-0 35.967,-3.538 54.046,-10.521c-7.042,18.104 -10.604,36.204 -10.604,53.963c-0,20.6 4.737,41.608 14.083,62.529c-33.433,3.775 -67.213,2.9 -100.446,-2.6c-6.062,-0.954 -10.637,-1.742 -14.317,-2.463c-0.908,-4.787 -1.75,-9.608 -2.516,-14.396c-5.509,-33.275 -6.371,-67.133 -2.567,-100.641m-3.625,119.958l0.604,3.063l3.05,0.658c4.329,0.933 9.85,1.917 17.854,3.179c20.205,3.346 40.617,5.021 61.059,5.021c14.146,-0 28.308,-0.804 42.416,-2.408c1.371,-0.18 2.692,-0.4 4.013,-0.625c0.721,-0.121 1.442,-0.242 2.167,-0.359l6.35,-0.983l-2.817,-5.775c-10.5,-21.529 -15.829,-43.113 -15.829,-64.158c-0,-19.95 4.85,-40.455 14.412,-60.934l5.504,-11.787l-11.795,5.483c-20.438,9.496 -40.975,14.317 -61.042,14.317c-20.896,-0 -42.408,-5.342 -63.933,-15.875l-5.775,-2.825l-0.992,6.354c-0.117,0.737 -0.238,1.467 -0.363,2.196c-0.225,1.35 -0.462,2.75 -0.654,4.216l-0.008,0.071c-3.921,34.429 -3.042,69.217 2.617,103.379c0.941,5.905 2.008,11.888 3.162,17.792" style="fill:#00a1c6;fill-rule:nonzero;"/></g><g opacity="0.1"><path d="M452.875,200.129c3.85,2.613 7.338,5.009 10.767,7.396c16.05,11.6 31.4,24.463 45.621,38.225c11.05,10.779 20.804,21.688 29.058,32.496c-21.563,8.271 -39.813,19.871 -54.321,34.529c-12.587,12.729 -22.954,28.279 -30.9,46.35c-8.012,-18.504 -18.587,-34.321 -31.533,-47.125c-14.471,-14.317 -32.496,-25.733 -53.642,-33.983c8.167,-10.684 17.8,-21.521 28.683,-32.254c14.234,-13.775 29.584,-26.638 45.625,-38.234c4.346,-3.125 7.805,-5.529 10.642,-7.4m-62.892,38.854c-12.995,12.817 -24.258,25.771 -33.475,38.5l-3.72,5.142l5.987,2.108c22.421,7.905 41.308,19.346 56.129,34.009c14.467,14.312 25.804,32.746 33.692,54.791l4.417,12.338l4.5,-12.308c7.895,-21.609 19.075,-39.817 33.229,-54.121c14.812,-14.971 33.896,-26.559 56.725,-34.438l6.033,-2.083l-3.737,-5.175c-9.317,-12.896 -20.717,-25.942 -33.896,-38.796c-14.554,-14.083 -30.259,-27.246 -46.742,-39.158c-4.287,-2.988 -8.587,-5.929 -13.533,-9.271l-2.55,-1.721l-2.613,1.633c-3.441,2.15 -7.804,5.138 -13.741,9.409c-16.413,11.862 -32.117,25.025 -46.705,39.141" style="fill:#00a1c6;fill-rule:nonzero;"/></g><g opacity="0.1"><path d="M601.027,918.474c-33.716,14.154 -69.145,23.334 -105.541,27.354c13.862,-10.641 27.171,-22.141 39.687,-34.283c16.292,-15.9 30.154,-32.05 41.238,-48.046c5.554,1.096 10.696,1.967 15.637,2.642l0.121,0.017c33.071,3.654 66.442,3.179 99.367,-1.417c-27.604,22.037 -57.979,40.079 -90.509,53.733m100.396,-64.846l-0.05,0.005c-35.721,6.041 -72.091,7.087 -108.104,3.108c-5.608,-0.767 -11.512,-1.804 -18.033,-3.154l-3.113,-0.65l-1.779,2.637c-11.008,16.321 -25.071,32.867 -41.783,49.175c-15.146,14.7 -31.496,28.438 -48.571,40.813c-0.8,0.575 -1.554,1.108 -2.312,1.637l-15.092,10.684l16.767,-1.113c43.329,-2.883 85.504,-12.829 125.345,-29.554c38.68,-16.238 74.388,-38.525 106.134,-66.238l12.587,-10.991l-16.487,2.746c-1.792,0.295 -3.634,0.595 -5.509,0.895" style="fill:#00a1c6;fill-rule:nonzero;"/></g><g opacity="0.1"><path d="M434.554,673.253c-0.258,11.371 -0.996,22.488 -2.187,32.971c-4.909,37.754 -17.213,66.675 -36.584,85.954c-12.208,12.159 -28.433,21.625 -48.266,28.171c-9.159,-18.462 -13.8,-36.604 -13.8,-53.975c-0,-34.458 18.166,-71.229 53.991,-109.283c3.525,-3.404 6.655,-6.529 9.559,-9.538c0.383,-0.395 0.758,-0.8 1.129,-1.204c0.25,-0.266 0.496,-0.537 0.75,-0.8c10.221,-9.746 21.096,-19.091 32.417,-27.85c1.654,12.554 2.654,25.117 2.991,37.446c-0.137,5.471 -0.137,11.4 0,18.108m9.484,-18.116l-0.005,-0.125c-0.412,-15.359 -1.837,-31.063 -4.233,-46.684l-1.192,-7.783l-6.32,4.7c-13.963,10.383 -27.338,21.663 -39.767,33.521l-0.154,0.154c-0.317,0.329 -0.625,0.663 -0.938,1c-0.316,0.346 -0.633,0.696 -0.971,1.042c-2.862,2.958 -5.941,6.029 -9.416,9.387l-0.154,0.159c-37.592,39.904 -56.655,78.887 -56.655,115.866c0,20.029 5.621,40.859 16.696,61.913l1.825,3.471l3.75,-1.142c23.05,-7.021 41.884,-17.692 55.967,-31.717c20.892,-20.8 34.112,-51.571 39.304,-91.529c1.238,-10.871 1.996,-22.312 2.258,-34.008l0,-0.2c-0.137,-6.659 -0.137,-12.513 0,-17.9l0.005,-0.125Z" style="fill:#00a1c6;fill-rule:nonzero;"/></g><path d="M470.675,791.128c6.291,5.95 12.304,12.192 18.054,18.671c47.491,-43.991 111,-70.929 180.691,-70.929c59.471,0 114.446,19.608 158.805,52.692c4.87,-8.179 9.5,-16.517 13.841,-25.034c-47.979,-34.825 -106.821,-55.55 -170.4,-56.029c-77.75,0.342 -148.475,30.95 -200.991,80.629" style="fill:#00a1c6;fill-rule:nonzero;"/><path d="M530.705,871.17c4.7,9.171 8.942,18.617 12.675,28.308c30.196,-35.995 75.487,-58.92 126.042,-58.92c36.237,-0 69.77,11.787 96.983,31.72c6.617,-6.825 13.008,-13.866 19.171,-21.112c-32.329,-24.467 -72.575,-39.004 -116.154,-39.004c-54.409,-0 -103.617,22.65 -138.717,59.008" style="fill:#00a1c6;fill-rule:nonzero;"/><path d="M552.836,928.419c4.304,15.966 7.284,32.471 8.842,49.379c12.179,-48.163 55.846,-83.921 107.742,-83.921c20.554,0 39.808,5.629 56.341,15.392c7.721,-6.188 15.229,-12.625 22.504,-19.317c-22.445,-15.425 -49.608,-24.467 -78.845,-24.467c-48.675,0 -91.605,25.05 -116.584,62.934" style="fill:#00a1c6;fill-rule:nonzero;"/><path d="M503.534,827.868c5.775,7.641 11.179,15.575 16.2,23.77c38.675,-37.745 91.509,-61.045 149.688,-61.045c48.712,-0 93.675,16.337 129.721,43.804c5.766,-7.496 11.304,-15.175 16.583,-23.046c-40.717,-30.833 -91.408,-49.15 -146.304,-49.15c-64.088,-0 -122.446,24.962 -165.888,65.667" style="fill:#00a1c6;fill-rule:nonzero;"/><g><path d="M338.55,972.934c-14.563,-44.45 -56.4,-76.654 -105.663,-76.654c-12.375,-0 -24.291,2.041 -35.429,5.808c42.396,32.587 90.146,56.517 141.092,70.846m31.275,7.525c8.579,1.712 17.258,3.137 25.979,4.308c-11.075,-80.008 -79.908,-141.817 -162.917,-141.817c-28.691,0 -55.683,7.421 -79.195,20.396c0.729,0.742 1.441,1.5 2.187,2.242c5.496,5.496 11.133,10.808 16.871,15.946c18.229,-8.738 38.612,-13.646 60.137,-13.646c67.734,-0 124.334,48.487 136.938,112.571m54.917,7.221c7.221,0.47 14.475,0.77 21.754,0.87c-9.596,-109.429 -101.721,-195.562 -213.609,-195.562c-41.308,-0 -79.925,11.762 -112.695,32.087c4.437,5.725 9.02,11.35 13.775,16.871c28.95,-17.354 62.779,-27.391 98.92,-27.391c99.68,-0 181.917,76.029 191.855,173.125m50.187,0.37c7.796,-0.4 15.546,-1.029 23.254,-1.841c-10.85,-136.879 -125.675,-244.938 -265.296,-244.938c-52.087,0 -100.708,15.059 -141.787,41.009c3.967,6.683 8.108,13.262 12.446,19.741c37.471,-23.679 81.837,-37.425 129.341,-37.425c127.388,0 232.138,98.596 242.042,223.454m398.121,-419.533c0,-112.212 -43.696,-217.717 -123.046,-297.071c-79.354,-79.337 -184.842,-123.046 -297.071,-123.046c-112.212,0 -217.716,43.709 -297.054,123.046c-79.354,79.354 -123.05,184.859 -123.05,297.071c0,66.679 15.434,130.971 44.596,188.825c45.15,-28.162 98.438,-44.467 155.463,-44.467c153.954,0 280.658,118.713 293.475,269.396c84.279,-14.775 161.887,-54.929 223.641,-116.683c79.35,-79.354 123.046,-184.854 123.046,-297.071m-99.837,-320.279c85.55,85.546 132.67,199.287 132.67,320.279c0,120.996 -47.12,234.733 -132.67,320.283c-85.546,85.546 -199.288,132.667 -320.28,132.667c-120.979,0 -234.716,-47.121 -320.283,-132.667c-85.546,-85.55 -132.65,-199.287 -132.65,-320.283c0,-120.992 47.104,-234.733 132.65,-320.279c85.567,-85.55 199.304,-132.671 320.283,-132.671c120.992,0 234.734,47.121 320.28,132.671" style="fill:#007cad;fill-rule:nonzero;"/><path d="M498.183,986.209c-7.708,0.813 -15.458,1.442 -23.254,1.842c-9.904,-124.858 -114.654,-223.458 -242.041,-223.458c-47.505,-0 -91.871,13.75 -129.342,37.429c-4.338,-6.479 -8.479,-13.059 -12.446,-19.742c41.079,-25.95 89.7,-41.008 141.788,-41.008c139.62,-0 254.445,108.058 265.295,244.937" style="fill:#00a1c6;fill-rule:nonzero;"/><path d="M446.495,988.551c-7.28,-0.1 -14.53,-0.4 -21.755,-0.871c-9.933,-97.096 -92.17,-173.125 -191.854,-173.125c-36.141,0 -69.971,10.038 -98.921,27.392c-4.754,-5.521 -9.337,-11.146 -13.775,-16.871c32.775,-20.325 71.388,-32.088 112.696,-32.088c111.888,0 204.017,86.134 213.609,195.563" style="fill:#00a1c6;fill-rule:nonzero;"/><path d="M395.805,984.767c-8.721,-1.171 -17.4,-2.596 -25.979,-4.309c-12.604,-64.083 -69.204,-112.57 -136.938,-112.57c-21.525,-0 -41.908,4.908 -60.137,13.645c-5.742,-5.137 -11.379,-10.45 -16.875,-15.945c-0.742,-0.742 -1.454,-1.496 -2.183,-2.242c23.512,-12.975 50.504,-20.396 79.195,-20.396c83.009,0 151.842,61.808 162.917,141.817" style="fill:#00a1c6;fill-rule:nonzero;"/><path d="M232.888,896.28c49.262,0 91.1,32.204 105.662,76.654c-50.945,-14.329 -98.695,-38.258 -141.091,-70.846c11.133,-3.766 23.054,-5.808 35.429,-5.808" style="fill:#00a1c6;fill-rule:nonzero;"/></g><g><path d="M541.583,408.574c35.7,1.721 67.121,8.859 88.909,15.213l-0,12.591c-17.367,-8.458 -52.454,-23.545 -88.909,-27.804m-35.441,-16.096l-1.079,0.046c0.05,-1.446 0.112,-2.846 0.145,-4.196c63.905,-13.412 126.509,-7.125 168.817,0.85l0,32.567c-24.217,-10.1 -90.312,-33.787 -167.883,-29.267m-7.35,125.092c2.7,-42.6 4.437,-79.296 5.454,-104.029c26.85,11.437 98.508,46.621 144.675,112.662c-0.996,23.705 -7.3,47.388 -18.75,70.484c-7.042,-8.042 -14.567,-15.521 -22.354,-22.288c-5.017,-4.358 -10.513,-8.733 -17.363,-13.766c-6.258,-4.471 -12.496,-8.588 -18.558,-12.255c-12.929,-7.733 -26.292,-14.358 -39.738,-19.762c-7.154,-2.896 -14.229,-5.421 -20.966,-7.508c-4.471,-1.4 -8.575,-2.559 -12.4,-3.538m-7.734,103.092c2.571,-29.234 4.905,-59.9 6.963,-91.209c3.183,0.725 6.529,1.592 9.983,2.525c6.529,1.8 13.379,4.021 20.346,6.559c13.104,4.791 26.208,10.791 38.929,17.833c5.95,3.346 12.092,7.125 18.284,11.242c6.77,4.646 12.254,8.716 17.191,12.783c8.392,6.821 16.5,14.458 24.071,22.721c-2.908,5.404 -6.108,10.792 -9.6,16.117c-12.812,19.65 -31.146,35.054 -52.646,44.462c-0.146,0.063 -0.291,0.129 -0.433,0.192c-1.725,-1.784 -3.458,-3.504 -5.246,-5.163c-6.833,-6.4 -14.712,-12.412 -23.412,-17.85c-7.942,-5 -16.738,-9.55 -26.146,-13.554c-4.488,-1.912 -9.134,-3.667 -13.813,-5.225c-1.579,-0.517 -3.058,-1.017 -4.471,-1.433m-8.975,90.966c0.417,-4.225 0.855,-8.683 1.288,-13.391c2.329,-20.954 4.583,-43.129 6.642,-65.917c0.72,0.196 1.445,0.417 2.187,0.613c4.454,1.254 8.908,2.683 13.25,4.279c9.083,3.341 17.608,7.25 25.325,11.608c8.463,4.725 16.179,10.033 22.95,15.758c1.013,0.855 2.025,1.738 3.021,2.638c-20.938,9.65 -48.629,24.396 -74.663,44.412m-21.033,-622.529l0.292,-40.154c11.062,-5.275 42.566,-19.137 82.396,-27c44.204,-8.717 108.35,-11.629 163.991,23.542l0,334.558c-29.687,-7.733 -114.175,-25.792 -201.975,-8.392c0.096,-3.17 0.146,-4.954 0.146,-5.195l0.146,-6.334l-43.325,-19.571l-1.671,-251.454Zm-5.9,646.059l0,-377.109l31.517,14.246c-0.146,5.1 -0.4,13.121 -0.804,23.621l-0.225,-0.029l-0.192,3.216c-0.1,1.896 -11.308,192.663 -21.021,297.138c-1.283,11.517 -2.617,22.804 -3.971,33.771c-1.8,1.687 -3.571,3.408 -5.304,5.146m-39.367,-362.863l31.534,-14.246l-0,377.734c-1.721,-1.638 -3.459,-3.263 -5.196,-4.871c-19.375,-155.404 -25.196,-320.617 -26.338,-358.617m-74.212,296.225c1.446,-1.35 2.908,-2.671 4.404,-3.925c6.788,-5.742 14.508,-11.05 22.963,-15.775c7.72,-4.358 16.275,-8.267 25.345,-11.608c4.325,-1.596 8.78,-3.025 13.234,-4.279c1.625,-0.45 3.266,-0.888 4.875,-1.288c2.571,28.463 5.404,55.8 8.408,81.675c-28.3,-21.212 -57.921,-35.829 -79.229,-44.8m-61.121,-52.167c-2.671,-4.2 -5.246,-8.604 -7.675,-13.12c7.625,-8.317 15.746,-16.005 24.188,-22.838c4.937,-4.067 10.42,-8.137 17.237,-12.8c6.142,-4.117 12.304,-7.879 18.238,-11.225c12.716,-7.042 25.825,-13.042 38.929,-17.833c6.962,-2.554 13.812,-4.759 20.341,-6.559c4.584,-1.258 8.767,-2.283 12.692,-3.154c2.054,31.213 4.388,61.817 6.929,91.034c-2.266,0.675 -4.646,1.4 -7.158,2.237c-4.646,1.558 -9.279,3.313 -13.796,5.225c-9.404,4.004 -18.204,8.554 -26.146,13.554c-8.7,5.438 -16.579,11.45 -23.429,17.884c-2.3,2.104 -4.537,4.341 -6.725,6.687l-0.304,-0.125c-15.821,-6.275 -29.733,-16.629 -40.121,-30.121c-4.808,-6.225 -9.212,-12.512 -13.2,-18.846m-7.287,-179.975l-0,-11.308c20.775,-6.317 50.75,-13.554 85.033,-16.012c-35.088,4.82 -68.454,19.245 -85.033,27.32m-3.7,160.405c-11.4,-23.042 -17.671,-46.746 -18.65,-70.58c47.341,-67.779 120.2,-102.612 147.345,-113.804c1.03,24.8 2.767,61.671 5.467,104.509c-4.646,1.112 -9.533,2.462 -15.1,4.2c-6.737,2.087 -13.796,4.612 -20.967,7.508c-13.445,5.404 -26.808,12.029 -39.737,19.762c-6.096,3.667 -12.3,7.784 -18.525,12.205c-6.879,5.083 -12.4,9.475 -17.4,13.816c-7.829,6.784 -15.371,14.309 -22.433,22.384m-35.617,-175.038l-0,-32.95c40.862,-7.512 101.342,-13.508 163.379,-1.142l0.163,4.534c-0.08,0.016 -0.146,0.033 -0.225,0.079c-5.23,-0.225 -10.388,-0.338 -15.488,-0.338c-67.475,0 -122.646,19.25 -147.829,29.817m-35.7,-41.7l-0,-334.558c55.625,-35.171 119.771,-32.259 163.992,-23.542c39.816,7.863 71.316,21.725 82.412,27l0.258,40.2l-1.658,249.863l-46.746,21.116l0.146,6.317c0.033,0.467 0.067,2.012 0.129,4.537c-25.633,-4.808 -50.958,-6.658 -74.629,-6.658c-56.3,0 -103.383,10.371 -123.904,15.725m-16.275,-343.325l-0,365.167l10.6,-3.379c0.112,-0.034 9.292,-2.946 25.117,-6.4l-0,55.333l11.77,-5.871c0.096,-0.062 10.359,-5.079 27.546,-11.158l0,33.271l12.159,-6.867c0.225,-0.129 19.329,-10.888 45.62,-20.117c-33.27,23.479 -60.575,50.767 -81.383,81.321l-1.721,2.525l0.063,3.038c0.904,39.22 14.7,77.879 40.475,114.366c15.987,22.625 37.725,40.621 62.783,52.471c32.271,15.263 83.167,42.55 109.442,71.963l0.1,-0.08c2.296,2.617 4.562,5.305 6.783,8.055l0.017,-0c2.3,-2.8 4.646,-5.534 6.996,-8.2l0.012,0.016c0.583,-0.658 1.142,-1.321 1.725,-1.979c3.842,-4.296 7.717,-8.392 11.642,-12.333c26.533,-25.938 61.65,-46.025 88.396,-59.017c50.154,-24.396 87.929,-69.033 102.062,-122.983c3.667,-13.963 5.675,-28.079 6,-42.279l0.063,-3.038l-1.721,-2.525c-21.579,-31.712 -50.138,-59.854 -85.067,-83.879c30.088,9.65 52.971,22.529 53.242,22.675l12.158,6.867l0,-34.75c19.733,6.72 31.646,12.575 31.775,12.637l11.758,5.888l0,-54.934c14.534,3.284 23.009,5.95 23.105,5.984l10.6,3.379l-0,-365.167l-3.621,-2.408c-48.338,-32.246 -110.6,-42.004 -180.054,-28.254c-43.405,8.587 -76.334,23.475 -87.367,28.862c-11.046,-5.387 -43.996,-20.275 -87.383,-28.862c-69.438,-13.75 -131.717,-3.992 -180.071,28.254l-3.621,2.408Z" style="fill:#007cad;fill-rule:nonzero;"/><path d="M198.147,45.486l-0,334.559c20.516,-5.355 67.604,-15.725 123.9,-15.725c23.671,-0 49,1.85 74.633,6.658c-0.067,-2.525 -0.096,-4.071 -0.129,-4.538l-0.146,-6.316l46.746,-21.117l1.658,-249.858l-0.258,-40.204c-11.096,-5.275 -42.596,-19.138 -82.413,-27c-44.22,-8.717 -108.366,-11.625 -163.991,23.541" style="fill:#00a1c6;fill-rule:nonzero;"/><path d="M233.846,388.795l0,32.95c25.184,-10.567 80.354,-29.817 147.829,-29.817c5.1,0 10.259,0.113 15.488,0.338c0.079,-0.046 0.142,-0.063 0.225,-0.079l-0.163,-4.534c-62.037,-12.366 -122.516,-6.37 -163.379,1.142" style="fill:#00a1c6;fill-rule:nonzero;"/><path d="M250.812,526.203c0.979,23.834 7.25,47.538 18.654,70.58c7.058,-8.075 14.6,-15.6 22.429,-22.384c5.004,-4.341 10.521,-8.733 17.4,-13.816c6.225,-4.421 12.433,-8.538 18.525,-12.205c12.929,-7.733 26.292,-14.358 39.738,-19.762c7.17,-2.896 14.233,-5.421 20.966,-7.508c5.567,-1.738 10.454,-3.088 15.1,-4.196c-2.7,-42.842 -4.437,-79.713 -5.466,-104.509c-27.142,11.192 -100.005,46.021 -147.346,113.8" style="fill:#00a1c6;fill-rule:nonzero;"/><path d="M273.163,425.072l-0,11.304c16.579,-8.071 49.946,-22.496 85.033,-27.321c-34.283,2.463 -64.258,9.696 -85.033,16.017" style="fill:#00a1c6;fill-rule:nonzero;"/><path d="M272.776,603.232c2.429,4.516 5.004,8.925 7.671,13.121c3.988,6.333 8.396,12.625 13.204,18.845c10.388,13.492 24.296,23.85 40.121,30.121l0.304,0.129c2.188,-2.35 4.421,-4.583 6.721,-6.691c6.85,-6.434 14.729,-12.446 23.429,-17.879c7.946,-5.005 16.742,-9.555 26.15,-13.559c4.517,-1.912 9.15,-3.666 13.796,-5.225c2.508,-0.837 4.888,-1.562 7.154,-2.237c-2.537,-29.217 -4.871,-59.821 -6.929,-91.029c-3.925,0.866 -8.104,1.895 -12.687,3.15c-6.53,1.8 -13.38,4.004 -20.342,6.562c-13.104,4.792 -26.213,10.788 -38.933,17.829c-5.93,3.346 -12.092,7.109 -18.234,11.225c-6.816,4.663 -12.3,8.734 -17.237,12.804c-8.446,6.834 -16.563,14.517 -24.188,22.834" style="fill:#00a1c6;fill-rule:nonzero;"/><path d="M345.976,664.595c-1.496,1.254 -2.958,2.575 -4.404,3.925c21.308,8.97 50.929,23.591 79.229,44.8c-3.008,-25.875 -5.838,-53.213 -8.413,-81.675c-1.604,0.4 -3.245,0.837 -4.87,1.287c-4.455,1.254 -8.909,2.683 -13.234,4.279c-9.071,3.342 -17.625,7.25 -25.346,11.609c-8.458,4.729 -16.175,10.033 -22.962,15.775" style="fill:#00a1c6;fill-rule:nonzero;"/><path d="M447.317,358.048l-31.534,14.245c1.142,38 6.963,203.213 26.338,358.617c1.737,1.613 3.475,3.233 5.196,4.875l-0,-377.737Z" style="fill:#00a1c6;fill-rule:nonzero;"/><path d="M455.15,358.048l-0,377.108c1.737,-1.738 3.504,-3.454 5.304,-5.146c1.354,-10.967 2.687,-22.254 3.975,-33.767c9.712,-104.479 20.921,-295.241 21.016,-297.141l0.192,-3.217l0.225,0.033c0.404,-10.5 0.658,-18.525 0.804,-23.625l-31.516,-14.245Z" style="fill:#80edff;fill-rule:nonzero;"/><path d="M461.34,48.945l-0.291,40.154l1.675,251.454l43.321,19.571l-0.146,6.334c-0,0.241 -0.046,2.025 -0.142,5.195c87.796,-17.4 172.288,0.659 201.971,8.392l-0,-334.558c-55.638,-35.171 -119.783,-32.259 -163.992,-23.542c-39.829,7.863 -71.333,21.725 -82.396,27" style="fill:#80edff;fill-rule:nonzero;"/><path d="M483.37,698.235c-0.433,4.713 -0.867,9.167 -1.287,13.396c26.033,-20.021 53.725,-34.767 74.662,-44.413c-0.996,-0.904 -2.008,-1.787 -3.021,-2.641c-6.771,-5.725 -14.487,-11.029 -22.95,-15.759c-7.716,-4.358 -16.241,-8.262 -25.325,-11.608c-4.341,-1.592 -8.796,-3.025 -13.25,-4.279c-0.741,-0.192 -1.462,-0.417 -2.187,-0.608c-2.059,22.783 -4.309,44.958 -6.642,65.912" style="fill:#80edff;fill-rule:nonzero;"/><path d="M498.02,529.453c-2.058,31.308 -4.391,61.975 -6.962,91.208c1.412,0.421 2.892,0.917 4.471,1.433c4.679,1.559 9.325,3.313 13.812,5.225c9.409,4.004 18.204,8.559 26.146,13.559c8.7,5.433 16.579,11.445 23.413,17.845c1.787,1.659 3.525,3.38 5.245,5.163c0.142,-0.063 0.288,-0.129 0.434,-0.192c21.5,-9.408 39.833,-24.812 52.646,-44.462c3.491,-5.321 6.691,-10.709 9.604,-16.113c-7.575,-8.266 -15.684,-15.904 -24.075,-22.721c-4.938,-4.07 -10.421,-8.141 -17.192,-12.787c-6.192,-4.117 -12.333,-7.896 -18.283,-11.242c-12.721,-7.041 -25.825,-13.037 -38.929,-17.829c-6.967,-2.542 -13.817,-4.762 -20.346,-6.562c-3.454,-0.934 -6.8,-1.8 -9.984,-2.525" style="fill:#80edff;fill-rule:nonzero;"/><path d="M504.244,413.543c-1.012,24.733 -2.75,61.429 -5.454,104.025c3.829,0.983 7.929,2.137 12.4,3.537c6.738,2.092 13.813,4.617 20.971,7.513c13.442,5.404 26.804,12.025 39.733,19.762c6.063,3.667 12.3,7.783 18.559,12.254c6.85,5.034 12.35,9.409 17.366,13.763c7.784,6.771 15.309,14.25 22.354,22.291c11.446,-23.095 17.75,-46.779 18.75,-70.483c-46.166,-66.046 -117.825,-101.229 -144.679,-112.662" style="fill:#80edff;fill-rule:nonzero;"/><path d="M505.064,392.524l1.075,-0.046c77.575,-4.52 143.666,19.167 167.883,29.267l0,-32.567c-42.308,-7.975 -104.908,-14.262 -168.812,-0.85c-0.034,1.35 -0.1,2.75 -0.146,4.196" style="fill:#80edff;fill-rule:nonzero;"/><path d="M630.493,423.786c-21.787,-6.35 -53.212,-13.491 -88.908,-15.212c36.454,4.262 71.542,19.346 88.908,27.804l0,-12.592Z" style="fill:#80edff;fill-rule:nonzero;"/></g></svg>