<svg xmlns="http://www.w3.org/2000/svg" width="177.65" height="166.631" viewBox="0 0 177.65 166.631"><g transform="translate(-525.666 -1129.634)"><path d="M594.186,1234.257c.311-.037.622-.058.933-.078.41-.02.839-.02,1.249-.02h64.361a2.725,2.725,0,0,0,.476-.052,10.813,10.813,0,0,0,9.82-7.932,13.51,13.51,0,0,0,.369-3.521v-78.568c0-2.374.164-4.79-.717-7.042a11.45,11.45,0,0,0-10.6-7.41H537.33a11.5,11.5,0,0,0-11.628,11.32c-.082,5.282,0,10.584,0,15.865v66.388a11.086,11.086,0,0,0,2.948,7.594c2.334,2.5,5.507,3.337,8.8,3.337h11.115a3.053,3.053,0,0,1,1.577.43,2.743,2.743,0,0,1,1.1,1.106,3.046,3.046,0,0,1,.43,1.576v21.76a10.612,10.612,0,0,0,.02,1.147,5.272,5.272,0,0,0,5.343,4.954c1.986-.041,3.255-1.229,4.545-2.5l20.737-20.307c1.208-1.187,2.436-2.375,3.644-3.562a15.743,15.743,0,0,1,3.746-2.968,9.515,9.515,0,0,1,2.538-1.065,13.9,13.9,0,0,1,1.577-.389Zm70.847-9.089c-.109.412-.056.141,0,0Zm-.017-86.114Zm-1.682-2.2c-.2-.152-.1-.086,0,0Zm-128.2-.686c-.143.056-.381.114,0,0Zm-2.338,90.054c-.208-.223-.088-.114,0,0Zm23.464,32.988a.416.416,0,0,0-.033.049C556.206,1259.312,556.056,1259.25,556.257,1259.207Zm32.946-29.941c-4.135,1.617-7,4.545-10.072,7.554-3.6,3.541-7.226,7.062-10.829,10.6-3.357,3.3-6.714,6.571-10.071,9.867-.132.126-.26.257-.389.383V1238.15a10.035,10.035,0,0,0-2.7-7.43,9.412,9.412,0,0,0-6.53-2.7c-.512-.02-1.044,0-1.556,0H536.675c-.314,0-.642,0-.959-.033l-.106-.028c-.266-.082-.532-.143-.8-.225l-.063-.024c-.27-.137-.524-.291-.777-.427-.075-.05-.289-.2-.334-.223-.071-.063-.142-.12-.218-.186-.2-.184-.369-.389-.553-.573l-.053-.057a10.71,10.71,0,0,1-.546-.943c-.044-.121-.156-.4-.179-.454-.061-.2-.106-.4-.153-.6.036.069-.072-.682-.072-.815v-.164c-.041-5.855,0-11.689,0-17.544v-59.283c0-1.781-.021-3.562,0-5.343v-.1c0-.184.02-.389.02-.573v-.059a.841.841,0,0,0,.021-.084c.061-.307.143-.614.225-.921.033-.088.066-.181.1-.274.015-.016.186-.412.229-.484.082-.163.184-.307.266-.45.044-.059.315-.418.309-.43.206-.231.426-.449.653-.676.044-.043.152-.13.228-.19a4.235,4.235,0,0,1,.55-.342,4.693,4.693,0,0,1,.687-.353l.05-.015c.365-.105.735-.2,1.113-.3.073.01.644-.052.791-.052h.307c4.667-.021,9.355,0,14.022,0H660.155c.109,0,.784.07.8.051a10.2,10.2,0,0,1,1.087.3l.13.035c.031.019.068.041.115.067.164.082.307.164.471.246l.619.394a.516.516,0,0,1,.057.056c.253.253.515.509.761.773.05.08.265.363.3.414.144.226.266.471.389.7l.045.078a4.878,4.878,0,0,1,.221.7c.041.185.082.348.123.533.016.056.029.1.04.136s0,.088,0,.15c0,.2.021.41.021.614v82.416c0,.224-.017.447-.032.67-.021.1-.052.259-.071.333-.061.226-.123.43-.184.656l-.011.04a7.842,7.842,0,0,1-.378.7c-.054.087-.1.161-.152.239.016-.042-.273.355-.319.416-.123.123-.246.267-.368.369-.048.036-.3.217-.385.288-.268.172-.545.333-.834.483-.063,0-.69.242-.828.273-.072.018-.22.047-.32.067-.3.012-.548.015-.786.015H599.131C595.754,1228,592.437,1228,589.2,1229.266Z" fill="#00a1c6"/><path d="M703.288,1241.2v-78.547a3.071,3.071,0,1,0-6.142,0V1254.2c0,.183-.092.854-.062.772a7.364,7.364,0,0,1-.309,1.079,1.754,1.754,0,0,1-.079.175c-.123.225-.266.451-.409.676-.082.143-.471.573-.062.123-.123.122-.225.266-.348.389a4.887,4.887,0,0,1-.471.45.691.691,0,0,0-.054.053l-.048.029c-.322.2-.648.4-1,.575a7.85,7.85,0,0,0-.949.285c-.054.015-.1.029-.134.04h-.009c-.225,0-.471.02-.7.041H681.363c-3.029,0-5.936.716-8.024,3.111a10.393,10.393,0,0,0-2.375,7.083v19.863c-1.091-1.07-2.182-2.127-3.255-3.2q-10.041-9.825-20.061-19.652c-.533-.532-1.085-1.064-1.618-1.6a20.017,20.017,0,0,0-12.241-5.548c-2.723-.246-5.527-.061-8.27-.061H595.713a3.106,3.106,0,0,0-3.071,3.07,3.037,3.037,0,0,0,3.03,3.03h36.581c.226,0,.451,0,.676.02l.983.062c.135.013.2.017.226.018s.1.028.265.064a13.875,13.875,0,0,1,7.369,3.787q8.937,8.721,17.851,17.482c2.641,2.6,5.282,5.179,7.943,7.779.184.184.368.368.573.553a5.237,5.237,0,0,0,8.925-3.767c.021-.409,0-.839,0-1.269V1268.14c0-.23,0-.3.015-.485l.026-.088c.062-.225.123-.43.185-.655a.386.386,0,0,0,.011-.048c.018-.026.028-.04.05-.075.082-.143.184-.307.266-.471l.063-.088c.068-.077.141-.156.2-.219.152-.132.289-.282.455-.417l.057-.033c.2-.1.389-.225.573-.327l.018-.011.126-.03c.163-.041.347-.082.532-.144.058-.017.1-.031.138-.044s.085,0,.148,0h.348c.7-.02,1.392,0,2.088,0h7.554c2.436,0,4.749.021,7.063-1a10.888,10.888,0,0,0,6.305-9.785C703.349,1249.88,703.288,1245.54,703.288,1241.2Zm-32.324,49.727h0C670.9,1291.085,670.922,1291.027,670.964,1290.928Zm1.535-.474a.146.146,0,0,0-.031-.055.141.141,0,0,1,.052.075Zm5.8-24.837c-.121.08-.252.145,0,0Zm18.5-9.611c.089-.247.057-.147,0,0Z" fill="#00a1c6"/></g></svg>