<svg xmlns="http://www.w3.org/2000/svg" width="238.387" height="272.234" viewBox="0 0 238.387 272.234"><g transform="translate(-644.196 -1549.662)"><path d="M882.583,1781.685,807.772,1821.9H740.489L761.9,1715.5Z" fill="#cceef4"/><path d="M833.479,1769.1l-80.839-47.21V1591.663l80.511,47.05Z" fill="#5bb4db"/><path d="M752.645,1596.335l-13.583,7.955,76.641,44.79L829.294,1641Z" fill="#b0e4ef"/><path d="M815.7,1649.08l.3,126.972,12.32-7.161,2.886-129.029Z" fill="#57c6dc"/><path d="M833.479,1769.1,814.1,1780.532l-.33-130.34,1.9-1.126,17.477-10.352Z" fill="#33a4d0"/><path d="M814.091,1780.581l-80.839-47.21V1603.145l80.51,47.05Z" fill="#5bb4db"/><path d="M805.781,1775.782l8.311,4.8-.346-118.125-8.447-10.578Z" fill="#48acd6"/><path d="M833.15,1638.713l-80.51-47.05-1.917,1.135,78.571,45.909-15.762,9.1L735.185,1602l-1.933,1.145,80.511,47.05,19.388-11.481Z" fill="#3ea8d2"/><path d="M750.723,1592.8v4.662l1.922-1.126v-2.419Z" fill="#1d91a4"/><path d="M750.723,1597.46l1.922-1.126,74.672,43.514-2.03,1.173Z" fill="#57c6dc"/><path d="M805.789,1784.768l-117.817-68.911V1549.662l117.242,68.632Z" fill="#1691be"/><path d="M798.477,1622.3l-23.746,14.115-110.482-64.7,13.179-7.71,1.121-.66,1.382-.814,1.152-.676,6.9-4.04Z" fill="#b0e4ef"/><path d="M774.733,1636.406l.525,160.508,21.525-12.511,5.042-164.1Z" fill="#57c6dc"/><path d="M805.789,1784.768l-33.857,19.973-.577-166.392,3.325-1.968,30.535-18.087Z" fill="#259fcb"/><path d="M771.917,1804.827,654.1,1735.915V1569.722l117.242,68.632Z" fill="#1691be"/><path d="M805.215,1618.294l-117.242-68.632-3.349,1.984,113.854,66.638-27.538,15.9-113.462-66.467-3.377,2,117.242,68.632,33.872-20.059Z" fill="#1691be"/><path d="M684.623,1551.646v8.145l3.358-1.967V1553.6Z" fill="#1691be"/><path d="M684.623,1559.791l3.358-1.967,107.042,62.455-3.547,2.049Z" fill="#57c6dc"/><path d="M763.583,1808.22l-96.293-56.235V1596.863l95.9,56.045Z" fill="#259fcb"/><path d="M758.6,1655.628l-16.189,9.631-91.3-53.36,4.716-2.765,3.394-1.981,8.064-4.731Z" fill="#b0e4ef"/><path d="M742.409,1665.256l.358,151.245,14.676-8.53,3.438-153.7Z" fill="#57c6dc"/><path d="M763.192,1652.908l-20.819,12.331-2.267,1.342.28,110.419,23.085-13.388Z" fill="#1691be"/><path d="M740.386,1777l.114,44.838,23.084-13.617-.112-44.609Z" fill="#2ca1cd"/><path d="M740.1,1666.584l-95.9-56.045v110.685l96.18,55.781Z" fill="#259fcb"/><path d="M644.2,1721.224v44.437l96.293,56.235-.113-44.891Z" fill="#3ea8d2"/><path d="M763.191,1652.908l-95.9-56.044-2.284,1.352L758.6,1652.9l-18.775,10.844L646.5,1609.176l-2.3,1.364,95.9,56.044,23.094-13.676Z" fill="#229ecd"/><path d="M665.006,1598.216v5.553l2.29-1.341v-2.881Z" fill="#1d91a4"/><path d="M665.006,1603.769l2.29-1.341,88.947,51.833-2.419,1.4Z" fill="#57c6dc"/><path d="M763.583,1799.952l8.334,4.874-.474-132.193-8.252-10.837Z" fill="#1691be"/><path d="M670.437,1568.1l59.2,35.045L674,1566.013Z" fill="#57c6dc"/><path d="M712.094,1642.434l-28.369-16.788-.323-.2-7.941-4.7-.246-.138-19.384-11.474,3.394-1.981,15.759,10.506.215.154,7.956,5.314.292.2Z" fill="#57c6dc"/><path d="M719.344,1588.829l-19.491-11.551-22.425-13.271,1.121-.66,1.382-.814,19.706,13.148,8.187,5.453Z" fill="#57c6dc"/><path d="M693.52,1581.726l-8.1-4.757a44.547,44.547,0,0,1-.469-7.023l8.14,4.761A40.309,40.309,0,0,0,693.52,1581.726Z" fill="#33a4d0"/><path d="M707.952,1582.04l-8.1-4.757a44.442,44.442,0,0,1-.47-7.024l8.141,4.762A40.228,40.228,0,0,0,707.952,1582.04Z" fill="#008cbe"/><path d="M683.863,1612.084a41.174,41.174,0,0,0-.753,10.352c0,.138.016.384.047.691.061.6.138,1.444.245,2.319l-7.941-4.7-.246-.138c0-.077-.015-.154-.015-.23-.107-1.214-.2-2.32-.215-2.581v-.138a37.264,37.264,0,0,1,.722-10.368l1.505-7.127,2.934,6.39,5.253-1.521Z" fill="#153a93"/><path d="M670.393,1639.935a20.273,20.273,0,0,1,2.575,3.915,22.257,22.257,0,0,1,1.688,4.49,16.914,16.914,0,0,1,.563,4.6l-.233,11.187-8.263-4.928q-.228-.136-.44-.288t-.4-.264q-.729-.433-1.263-.829a2.23,2.23,0,0,0-.883-.451.448.448,0,0,0-.512.324,4.431,4.431,0,0,0-.183,1.428l-.056,2.787-4.489-2.673.066-3.338a5.469,5.469,0,0,1,.639-2.821,3.338,3.338,0,0,1,1.307-1.263,21.3,21.3,0,0,1-1.548-4.256,16.522,16.522,0,0,1-.5-4.286,9.733,9.733,0,0,1,.776-3.855,6.049,6.049,0,0,1,1.916-2.465,4.549,4.549,0,0,1,2.738-.859,6.381,6.381,0,0,1,3.28,1.033A12.9,12.9,0,0,1,670.393,1639.935Zm-6.25,2.992a3.094,3.094,0,0,0-1.1,2.672,7.468,7.468,0,0,0,.233,1.956,8.575,8.575,0,0,0,.738,1.929,9.57,9.57,0,0,0,1.111,1.673,5.421,5.421,0,0,0,1.391,1.209l4.1,2.449.095-4.63a5.994,5.994,0,0,0-.327-2.036,11.09,11.09,0,0,0-.926-2.042,10.066,10.066,0,0,0-1.3-1.789,6.639,6.639,0,0,0-1.45-1.221A2.246,2.246,0,0,0,664.143,1642.927Zm18.9,9.429a6.389,6.389,0,0,1,.783,3.111,2.4,2.4,0,0,1-.894,2.107,1.826,1.826,0,0,1-2.044-.142,5.351,5.351,0,0,1-1.942-2.243,6.474,6.474,0,0,1-.767-3.1,2.457,2.457,0,0,1,.877-2.119,1.737,1.737,0,0,1,1.988.108A5.527,5.527,0,0,1,683.04,1652.356Zm-.174,8.2a6.381,6.381,0,0,1,.782,3.106,2.4,2.4,0,0,1-.893,2.106,1.823,1.823,0,0,1-2.043-.138,5.341,5.341,0,0,1-1.942-2.24,6.453,6.453,0,0,1-.766-3.1,2.46,2.46,0,0,1,.876-2.118,1.736,1.736,0,0,1,1.987.106A5.52,5.52,0,0,1,682.866,1660.553Z" fill="#9de2f4"/><path d="M655.194,1659.15a6.394,6.394,0,0,1,.794,3.118,2.4,2.4,0,0,1-.9,2.113,1.842,1.842,0,0,1-2.058-.14,5.385,5.385,0,0,1-1.96-2.248,6.462,6.462,0,0,1-.776-3.11,2.455,2.455,0,0,1,.878-2.126,1.755,1.755,0,0,1,2,.108A5.559,5.559,0,0,1,655.194,1659.15Zm-.161,8.219a6.393,6.393,0,0,1,.793,3.114,2.4,2.4,0,0,1-.9,2.112,1.84,1.84,0,0,1-2.057-.138,5.366,5.366,0,0,1-1.959-2.244,6.441,6.441,0,0,1-.776-3.1,2.461,2.461,0,0,1,.878-2.125,1.756,1.756,0,0,1,2,.1A5.558,5.558,0,0,1,655.033,1667.369Zm7.936-4.674a9.039,9.039,0,0,0,.547,3.648,4.923,4.923,0,0,0,2.124,2.32l7.19,4.276-.136,6.55-7.034-4.175q-1.53-.909-2.237-.5t-.749,2.548l-.057,2.83-4.484-2.656.019-.945a7.746,7.746,0,0,1,.731-3.615,3.6,3.6,0,0,1,2.438-1.6,12.158,12.158,0,0,1-2.226-4.191,15.571,15.571,0,0,1-.66-4.876l.078-3.985L663,1661Z" fill="#9de2f4"/><path d="M654.878,1677.242a6.373,6.373,0,0,1,.793,3.11,2.4,2.4,0,0,1-.9,2.109,1.843,1.843,0,0,1-2.056-.134,5.36,5.36,0,0,1-1.958-2.239,6.421,6.421,0,0,1-.776-3.1,2.457,2.457,0,0,1,.877-2.123,1.754,1.754,0,0,1,2,.1A5.529,5.529,0,0,1,654.878,1677.242Zm7.715,4.141a9.157,9.157,0,0,0,.527,3.653,4.833,4.833,0,0,0,2.1,2.274l7.22,4.271-.132,6.386-7.257-4.285a12.872,12.872,0,0,1-3.236-2.664,15.188,15.188,0,0,1-2.182-3.3,15.029,15.029,0,0,1-1.227-3.588,16.057,16.057,0,0,1-.338-3.517l.079-3.976,4.484,2.657Z" fill="#9de2f4"/><path d="M657.569,1706.013l-1.877-1.1a11.33,11.33,0,0,1-2.5-1.995,12.742,12.742,0,0,1-1.928-2.663,13.728,13.728,0,0,1-1.239-3.163,12.89,12.89,0,0,1-.4-3.474l.034-1.738a13.036,13.036,0,0,1,.22-2.357,9.707,9.707,0,0,1,.274-1.12l4.262,2.513a6.218,6.218,0,0,0-.151.765,9.515,9.515,0,0,0-.081,1.158l-.034,1.737a4.208,4.208,0,0,0,2.17,4.038l15.786,9.294-.136,6.571-9.924-5.832-.1,4.848-4.476-2.626Z" fill="#9de2f4"/><path d="M657.491,1709.973l4.475,2.627-.106,5.29a14.071,14.071,0,0,1,2.04-.554,6.485,6.485,0,0,1,1.645-.11,5.417,5.417,0,0,1,1.327.253,5.987,5.987,0,0,1,1.128.512,9.23,9.23,0,0,1,2.917,2.685,14.416,14.416,0,0,1,1.85,3.707,20.993,20.993,0,0,1,.95,4.323,34.018,34.018,0,0,1,.213,4.589,27.615,27.615,0,0,1-.4,4.229,9.115,9.115,0,0,1-1.106,3.191,3.177,3.177,0,0,1-1.957,1.525,4.1,4.1,0,0,1-2.952-.725,11.392,11.392,0,0,1-2.425-2.111,36.9,36.9,0,0,1-3.567-4.923l-.121,6.016-4.468-2.6Zm11.8,17.565a8.857,8.857,0,0,0-.483-1.83,4.185,4.185,0,0,0-.69-1.179,3.208,3.208,0,0,0-.776-.68,1.562,1.562,0,0,0-.749-.213,2.8,2.8,0,0,0-1.027.223,10.9,10.9,0,0,0-1.561.784q-.937.551-2.31,1.547,1.3,2.558,2.194,4.179t1.492,2.593a11.415,11.415,0,0,0,.993,1.428,3.12,3.12,0,0,0,.739.656,1.453,1.453,0,0,0,.786.21.926.926,0,0,0,.723-.5,4.862,4.862,0,0,0,.553-1.547,16.158,16.158,0,0,0,.273-2.983A14.389,14.389,0,0,0,669.29,1727.538Z" fill="#9de2f4"/><path d="M661.4,1740.74a9.014,9.014,0,0,0,.526,3.621,4.745,4.745,0,0,0,2.1,2.24l22.9,13.315-.137,6.319-22.927-13.308a12.674,12.674,0,0,1-3.226-2.618,14.955,14.955,0,0,1-2.174-3.256,14.72,14.72,0,0,1-1.223-3.553,15.828,15.828,0,0,1-.337-3.487l.059-3.01,4.469,2.6Z" fill="#9de2f4"/><path d="M686.656,1772.108l-.137,6.31-30.04-17.374.126-6.349Z" fill="#9de2f4"/></g></svg>