<svg xmlns="http://www.w3.org/2000/svg" xmlns:xlink="http://www.w3.org/1999/xlink" width="897.061" height="722.299" viewBox="0 0 897.061 722.299"><defs><clipPath id="a"><path d="M219.932,341.495a12.316,12.316,0,1,1-12.316-12.316A12.314,12.314,0,0,1,219.932,341.495Z" fill="#00a9ab"/></clipPath><clipPath id="b"><path d="M12.712,0h831.5a12.711,12.711,0,0,1,12.711,12.711V470.725a12.711,12.711,0,0,1-12.711,12.711H12.711A12.711,12.711,0,0,1,0,470.724V12.712A12.712,12.712,0,0,1,12.712,0Z" transform="translate(178.305 320.64)" fill="none"/></clipPath></defs><g transform="translate(-158.244 -300.579)"><path d="M812.789,999.309H396.154a11.784,11.784,0,1,0,0,23.569H812.789a11.784,11.784,0,1,0,0-23.569Z" opacity="0.15" style="mix-blend-mode:multiply;isolation:isolate"/><path d="M455.105,980.779h4.972c39.246,0,74.114-32.679,86.646-81.2l14.222-55.068h91.644l8.523,45.372c10.025,53.368,46.691,90.9,88.8,90.9h8.512c7.843,0,14.2,8.3,14.2,18.53H440.9C440.9,989.075,447.261,980.779,455.105,980.779Z" fill="#fff"/><path d="M545.9,902.562c28.142-11.132,88.005-10.121,117.787-1.461-.985-3.657-1.857-7.394-2.576-11.222l-8.523-45.372H560.945l-14.222,55.068C546.463,900.581,546.179,901.57,545.9,902.562Z" fill="#ccc"/><path d="M763.6,1011.094H449.935c-4.988,0-9.032-5.277-9.032-11.785H772.631C772.631,1005.817,768.587,1011.094,763.6,1011.094Z" fill="#f1f2f2"/><path d="M198.367,306.6h816.8a40.124,40.124,0,0,1,40.123,40.124V830.471c0,22.16,1.383,40.121-26.786,40.121H182.215c-23.971,0-23.971-17.961-23.971-40.121V346.727A40.122,40.122,0,0,1,198.367,306.6Z" fill="#bcbec0"/><path d="M24.74,0H872.31a24.74,24.74,0,0,1,24.74,24.74V539.25a24.738,24.738,0,0,1-24.738,24.738H24.738A24.738,24.738,0,0,1,0,539.25V24.74A24.74,24.74,0,0,1,24.74,0Z" transform="translate(158.244 300.579)" fill="#fff"/><path d="M182.984,300.579h847.571a24.74,24.74,0,0,1,24.739,24.74V819.514H158.244V325.319A24.741,24.741,0,0,1,182.984,300.579Z" fill="#1a1a1a"/><path d="M12.712,0h831.5a12.711,12.711,0,0,1,12.711,12.711V470.725a12.711,12.711,0,0,1-12.711,12.711H12.711A12.711,12.711,0,0,1,0,470.724V12.712A12.712,12.712,0,0,1,12.712,0Z" transform="translate(178.305 320.64)" fill="#50b5d8"/><path d="M1022.521,320.64h-831.5A12.713,12.713,0,0,0,178.3,333.353v29h856.927v-29A12.711,12.711,0,0,0,1022.521,320.64Z" fill="#fff"/><circle cx="8.748" cy="8.748" r="8.748" transform="translate(942.544 333.041)" fill="#ffc440"/><circle cx="8.748" cy="8.748" r="8.748" transform="translate(969.205 333.041)" fill="#56c356"/><circle cx="8.748" cy="8.748" r="8.748" transform="translate(995.866 333.041)" fill="#ff5168"/><rect width="674.189" height="20.027" transform="translate(236.475 331.481)" fill="#f2f2f2"/><path d="M219.932,341.495a12.316,12.316,0,1,1-12.316-12.316A12.314,12.314,0,0,1,219.932,341.495Z" fill="#00a9ab"/><g clip-path="url(#a)"><path d="M201.4,335.5c-.035.037.069.074.108.025S201.484,335.411,201.4,335.5Zm-9.013,2.321c-.1.032-.236.093-.179.1a.652.652,0,0,0,.269-.075c.036-.03.157-.178.137-.182C192.549,337.649,192.486,337.79,192.386,337.822Zm9.857,3.758c.1-.039.048-.209-.036-.19S202.14,341.618,202.243,341.58Zm3.408,3.185c-.066-.037-.205-.053-.266-.151s-.225-.2-.278-.174a.214.214,0,0,1-.22-.017c-.078-.062-.2-.137-.253-.186a.428.428,0,0,0-.227-.089c-.055,0-.05-.049-.121.093s.016.192-.133.164.015-.035.086-.177-.027-.228-.116-.194-.019.107-.163.14-.155-.088-.064-.109.247-.127.244-.174-.031-.18-.1-.181-.064-.121-.184-.279-.29-.335-.4-.313-.168.136-.231.006-.129-.157-.17-.229-.131,0-.16-.037l-.03-.036s-.119.033-.059-.072.081-.306.054-.3-.068.176-.115.164-.011-.035-.107-.107-.244-.014-.241.044a.165.165,0,0,1-.043.106.481.481,0,0,1-.06-.106.145.145,0,0,0-.225-.015c-.062.07-.109-.177-.155-.177a.248.248,0,0,0-.181.161c-.043.105-.016.257-.054.245s-.057-.211-.05-.28.105-.186.029-.21-.183.115-.229.125a.445.445,0,0,0-.188.184c-.051.093-.077.15-.13.183s-.14,0-.123-.036-.168-.164-.193-.119-.108.08-.189.124-.162-.059-.184-.105a.373.373,0,0,1-.075-.208,1.154,1.154,0,0,1,.033-.4c.026-.092-.145-.275-.21-.264s-.13.091-.2.079-.037-.034-.141-.035-.019-.022,0-.124-.037-.239.068-.329.073-.308.009-.319-.189.037-.272.025a.136.136,0,0,0-.128.182c.026.1-.05.17-.078.159s-.065-.067-.169.023-.141.056-.242-.043a.576.576,0,0,1-.223-.356.887.887,0,0,1,.032-.4c.044-.09.058-.247,0-.268s.078-.135.145-.159a.544.544,0,0,0,.2-.174c.023-.044.115-.036.217-.039a.257.257,0,0,1,.215.062c.1.064.124-.038.128-.072s.064-.06.173-.052.259-.1.283-.063.066.169.126.121.087-.126.092.01.036.343.117.375.026.171.109.182.135-.22.114-.3a2.053,2.053,0,0,0-.1-.377c-.04-.056.053-.2.15-.25s.269-.291.343-.362.285-.1.243-.189a.512.512,0,0,1-.073-.255c.01-.07.061-.048.082,0s.147-.075.128-.132,0-.137.065-.129.091-.062.071-.107.08-.108.14-.087.266.028.3-.019-.078-.142-.062-.236a.311.311,0,0,1,.2-.2c.065-.014.143-.006.158-.042s.121-.134.116-.052-.036.223.036.22.178-.113.207-.126.207-.068.244-.082.257-.047.243-.128a.751.751,0,0,0-.049-.2c-.021-.034-.055.015-.1.075s-.107.064-.117.018.04-.19-.03-.14-.087.1-.118.077-.053-.1-.053-.1a.139.139,0,0,0,.057-.166c-.042-.1-.135-.074-.234-.01a.631.631,0,0,1-.2.093.925.925,0,0,0-.173.08.868.868,0,0,1,.142-.258c.076-.074.26-.056.327-.129s.187.025.187.025.089-.1.077-.041-.058.213-.005.21.22-.105.163-.125.051-.069.123-.132.18,0,.219-.027.085-.134.147-.138.068.1-.032.18-.14.254-.192.3-.035.107.037.091.132.006.2-.021a.076.076,0,0,1,.107.055c.012.035.076-.039.076-.039s.121-.041.148.017.067-.039.049-.1-.044-.117-.059-.187-.046-.092-.121-.065-.083-.02-.121-.053-.087.052-.038-.033.071-.11.11-.183.176-.209.07-.239-.137-.052-.14-.122-.105-.193-.139-.191-.209.056-.2,0a.829.829,0,0,0-.027-.284c-.029-.055-.125-.3-.144-.325s-.055-.006-.168.14-.185.176-.235.145-.126.012-.159-.077.15-.14.142-.2-.137-.068-.216-.072-.1-.127-.221-.126a2.187,2.187,0,0,0-.322.052c-.042.005-.068.087-.125.215s.008.155-.075.186-.12.045-.058.084.11.216.11.216a.38.38,0,0,1-.1.167c-.077.062-.153.125-.168.059a.054.054,0,0,0-.106.02c.006.067.048.1.029.166s.014.237-.053.3-.116.02-.163.036-.063-.086-.023-.112.046-.194.046-.194-.158.2-.121.1-.011-.112.013-.193-.019-.184-.1-.154a.629.629,0,0,1-.576-.071c-.092-.066-.154-.006-.218.012s.022-.155-.046-.168-.01-.045.029-.189-.023-.1.222-.281.247-.245.4-.284.151.079.173.024.19-.37.145-.257.115.106.01.194-.067.1-.009.089a.814.814,0,0,0,.2-.1s.16-.1.168-.031-.016.135.042.129.213-.113.135-.182-.148-.049-.179-.133-.027-.052-.109-.021-.06-.025-.085-.022-.073.031-.072-.012.031-.058.112-.069a.521.521,0,0,1,.165.013l.143-.072c.029-.014.166-.052.182-.153s-.065-.091-.075-.122.08-.086.128-.115a.337.337,0,0,1,.151-.019s.067,0,.085-.042.024-.1.058-.074-.053.138.027.107.088-.01.115.019-.072.175-.12.2-.13.082-.045.083a1.136,1.136,0,0,0,.149-.006,1.382,1.382,0,0,0,.133-.159c.049-.072.072-.031.1-.011s.133.04.005.1a.465.465,0,0,0-.217.178c-.044.062-.065.1-.158.074a.166.166,0,0,0-.2.055c-.045.06-.092.243-.043.216s.09-.032.147-.06a2.643,2.643,0,0,1,.291-.019c.053-.016.1.1.128.079s.06.039.095.081.064-.107.128-.023.014.091.064.086.155,0,.155,0,.04-.118.117-.1.116.14.133.046.052-.166.007-.23-.139-.1-.145-.136a.111.111,0,0,1,.023-.106c.031-.024.135,0,.183.052s.089.108.152.055.125-.08.159-.117.12-.149.12-.149-.229-.026-.244-.081-.1-.127-.134-.124-.146.094-.14-.02.052-.255.024-.263a2.568,2.568,0,0,1-.367-.07,2.336,2.336,0,0,1-.238-.138c-.047-.049-.114-.116-.176-.108s-.335.09-.376.084a1.285,1.285,0,0,0-.255.07c-.059.019,0,.15-.132.2s-.127.072-.027-.1.022-.2-.11-.121-.316.153-.315.227-.072.137-.028.2.065.086.172.06a.473.473,0,0,1,.2,0s-.058.137-.107.164-.113.037-.158.108-.139.114-.125.08.1-.153.071-.2-.042-.057-.13.009-.107.087-.1,0a.218.218,0,0,0-.05-.151A.811.811,0,0,0,201,334.4c-.02-.048-.111-.023-.147.033a.554.554,0,0,0-.056.206c-.016.1-.06.222-.121.241s-.086.092-.152.122-.065-.022-.023-.111a1.165,1.165,0,0,1,.089-.2c.031-.036-.075.032-.143.022s-.165.066-.1.087.015.153-.074.2a2.147,2.147,0,0,1-.433.065c-.088.013-.234.066-.223,0s.129-.122.185-.13a.56.56,0,0,0,.343-.156c.125-.132,0-.13-.068-.12s-.093-.016-.108-.1.139-.173.149-.215-.087.006-.156.018-.132-.044-.184.044-.11.323-.134.278.028-.122.028-.182-.068-.036-.152-.01a2.076,2.076,0,0,1-.267.08c-.032,0,0-.01-.052-.047s-.1-.02-.122-.06.041-.074-.058-.062-.15.1-.243.1a2.076,2.076,0,0,0-.245.052.261.261,0,0,0-.213.09c-.068.076-.187.208-.234.217s-.153.094-.012.074-.008.092.132.056a.688.688,0,0,0,.345-.15c.087-.091.11-.1.105-.067s-.01.2-.01.2a.32.32,0,0,0,.046.086c.018.015-.1.123-.135.081s-.157-.01-.171-.053-.127-.041-.189-.021a2.306,2.306,0,0,1-.261.042,1.821,1.821,0,0,0-.205.13s.017-.074.023-.111-.093.053-.131.07-.068-.056-.192,0-.122.1-.25.112-.136-.006-.19.015l-.055.019a.313.313,0,0,1-.108.091c-.086.052-.164.111-.158.058s-.018-.046-.035-.051-.024-.045-.15.007-.1-.1-.126-.091a4.823,4.823,0,0,1-.48.163.565.565,0,0,0-.225-.021c-.071.026-.216.076-.216.076s-.1,0-.125.007-.154.074-.149.037-.037-.047-.037-.047a1.315,1.315,0,0,1-.2.143,1.14,1.14,0,0,1-.232.088,2.679,2.679,0,0,0-.3.131,1.286,1.286,0,0,1-.168.058.853.853,0,0,0-.252.136c-.021.032-.108.109.02.078s.084.022.124.02.064-.015.07.026-.044.1-.109.105-.13.007-.136-.027l0-.035-.132.067a3.109,3.109,0,0,0-.328.133s-.037.072-.014.108.205,0,.205,0a.645.645,0,0,0,.205-.075.265.265,0,0,1,.164-.057c.024,0-.137.134-.22.144a.916.916,0,0,0-.336.13c-.13.08-.205.1-.234.168s.022.131-.006.175.173-.056.227-.105.137-.064.031.041-.008.1-.008.1.122-.1.133-.088a.5.5,0,0,1,.032.083s.173-.105.165-.054-.126.111-.2.148-.313.143-.376.179a2.65,2.65,0,0,1-.328.153c-.043.006-.139.118-.055.1a4.228,4.228,0,0,0,.438-.177c.08-.038.018.078.23-.03s.351-.249.387-.246,0,.066.054.074.167-.078.229-.113.174-.156.126-.141a.821.821,0,0,1-.153.027,1.049,1.049,0,0,0,.206-.145.545.545,0,0,1,.195-.167c.088-.041.073-.021-.051.1s.037.052.121,0,.054.063.193-.021.205-.211.255-.221.068.083.145.035.124.05.208.036.307.037.357.029.16.038.093.168-.009.112.042.105.144.025.117.078-.168.258-.106.3.1.113.146.087.089-.184.056-.2.029-.089.033-.128.072-.048.062.02-.006.194.037.189.081.105.023.182-.088.218-.008.21.152.081.183.086.015.1,0,.128a1.689,1.689,0,0,1-.022.237c-.026.073-.151.367-.2.483a.53.53,0,0,0,.044.408c.063.1-.009.336.036.374a.382.382,0,0,0,.251.1c.085-.014.124.058.172.2s.084.39.137.408.135.091.082.148-.141.174-.057.172.117-.057.172.038.135.147.12.212.068.084.1.1.108.2.2.117-.1-.217-.147-.269.015-.174-.1-.288-.088-.2-.168-.285-.143-.155-.038-.234.089.072.112.166a1.44,1.44,0,0,0,.268.37c.074.083.2.384.244.383s.165.172.165.172.068.142.037.185.031.209.1.251.349.045.362.209c0,.043.051.254.154.255s.239-.055.268-.021.114.167.169.09.064-.112.149-.112.122.078.17.135.182.2.248.193.152.092.2.059.122.023.16.047a.284.284,0,0,1,.117.244c0,.137.136.169.193.2a.992.992,0,0,1,.189.175c.05.058.154.072.184.105s.055.106.134.049a.158.158,0,0,0,.054-.159.178.178,0,0,1,.141.025c.05.048.089.2.118.221a.484.484,0,0,1,.074.326c-.026.125,0,.253-.04.252s-.126.116-.177.15a.418.418,0,0,0-.1.278,1.3,1.3,0,0,1,.069.32c-.006.08-.061.158-.012.286s.245.171.275.288.213.376.255.492a3.04,3.04,0,0,1,.2.418c.036.162.326.279.372.293s.149.124.218.163a.656.656,0,0,1,.2.209.847.847,0,0,1,.1.271c.008.036.073.4.1.6s.176.414.143.469-.118.068-.047.142-.022.111-.011.147.136.228.131.306.009.192.01.259a.386.386,0,0,0,.022.237c.054.108-.037.062,0,.167s.091.068.124.193a2.345,2.345,0,0,0,.046.25c.036.092.125.225.14.259a.622.622,0,0,1,.012.232.287.287,0,0,0,.009.2c.033.06.115.137.123.171a.613.613,0,0,0,.041.22c.045.083.092.06.133.119s-.036.09.033.156.119.063.172.2a.563.563,0,0,0,.194.226c.037.038.116.128.15.133s.043-.024,0-.151.1,0,.072.078-.035.122-.015.126a1.959,1.959,0,0,0,.216.125.324.324,0,0,0,.153-.028c.015-.008.146-.019.144-.052s-.123-.042-.2-.087a1.59,1.59,0,0,1-.307-.312c-.044-.073-.106-.213-.076-.253a2.034,2.034,0,0,0,.1-.216.36.36,0,0,0-.037-.217c-.031-.026-.13-.018-.159-.054a.128.128,0,0,1,0-.158,1.08,1.08,0,0,0,.053-.216.312.312,0,0,0,.046-.175c-.007-.079-.036-.038-.081-.044s-.113-.137-.133-.2.122.036.214.069.025-.053-.005-.125-.046-.187.012-.147a.654.654,0,0,0,.309.009c.028-.009.051-.214.066-.27a.144.144,0,0,0-.043-.155,2.156,2.156,0,0,1-.224-.225,1.035,1.035,0,0,1-.025-.3c0-.057.092.344.217.4s.193.088.26-.046.126-.225.112-.32a.31.31,0,0,1,.022-.221c.033-.032.072-.006.089-.158s.081-.031.1-.16-.143-.3-.059-.4a2.065,2.065,0,0,1,.24-.2.5.5,0,0,1,.142-.064c.1-.032.211,0,.234-.073a2.286,2.286,0,0,1,.075-.308c.04-.083.084-.214.05-.275s.03-.324.012-.4-.117-.244,0-.385a1.316,1.316,0,0,0,.245-.415,2.045,2.045,0,0,0,.072-.434A.533.533,0,0,0,205.651,344.765Zm-8.944-6.907c-.049.016-.027-.107-.015-.159s-.076-.042-.107-.069-.063-.168,0-.148c.022.007.048.064.074.062s.107.109.126.146A.174.174,0,0,1,196.707,337.858Zm4.989-2.322c-.1.044-.047.124.019.087S201.784,335.5,201.7,335.536Zm5.742-2.06a1.14,1.14,0,0,1,.072-.343c.037-.074.1-.126.074-.149s-.077.036-.093-.084a.346.346,0,0,1,.1-.264,2.359,2.359,0,0,1,.376-.431c.1-.053.195-.245.132-.283a.207.207,0,0,0-.3.032c-.108.136-.178.26-.276.225s-.079-.249-.117-.357c-.056-.155.052-.475-.038-.444l-.091.031a.281.281,0,0,0-.161,0c-.088.039-.161.133-.2.118-.084-.03-.187.064-.212.075a.449.449,0,0,1-.387,0,.733.733,0,0,0,.27-.027c.1-.035.283-.111.368-.142s.034-.082.008-.087a2.943,2.943,0,0,0-.356-.072c-.093,0-.17.062-.267.077a.649.649,0,0,0-.4.142,1.136,1.136,0,0,1-.243.147c-.08.1-.2.347-.228.289s.019-.217-.061-.146-.077.224-.164.341-.229.12-.258.086-.061-.061-.237-.022-.4.161-.4.249-.135.161-.147.118-.191.079-.219.172-.1.207-.168.193-.151.072-.186.151-.228.156-.241.159-.233.025-.189.107c.029.054.077.011.136.025s.049.178.078.2.087-.01.128-.061a2.459,2.459,0,0,0,.133-.217s-.058.156-.014.181.2-.046.235-.045a.831.831,0,0,1,.28.067c.044.041.183.057.194.156s-.087.454-.074.491.141-.136.171-.177a.09.09,0,0,1,.141.025.531.531,0,0,1,.042.238c-.019.055-.056.145-.077.115s-.072-.017-.035-.083.08-.2.042-.2l-.072.006s-.063-.025-.143.1-.074.239-.041.235.113-.01.1.022-.115.134-.124.19a1.243,1.243,0,0,0,.018.279c.01.037.106.069.134.076s-.074.02-.061.075.022.185.071.212a.559.559,0,0,1,.184.225c.008.062.152-.056.179-.065s-.011.166.059.17.1-.021.175-.1a.45.45,0,0,0,.094-.244c.019-.072.025-.128.086-.108s.1-.022.113-.1-.027-.174.082-.2.183-.139.247-.143.236.027.262-.014.152-.288.207-.3a1.51,1.51,0,0,0,.323-.019c.131-.039.285-.167.328-.16s.149,0,.122-.046-.06-.159-.132-.156-.045-.245-.026-.246.178.085.162.167,0,.186.1.148a.157.157,0,0,0,.088-.189,1.2,1.2,0,0,1-.029-.168c-.011-.056-.03-.233.07-.254S207.427,333.606,207.438,333.476Zm-6.453,7.2c.1-.024.053-.128-.031-.115S200.881,340.7,200.985,340.679Zm6.838-5.786c.026-.049.174-.062.174-.062s.13-.142.091-.2a.322.322,0,0,0-.187-.1c-.047-.006-.1.06-.21.064s-.186.07-.222.007-.211-.091-.232-.049-.072.06-.04.171.057.177.1.168.171-.022.182.043.049.12.146.076S207.8,334.942,207.823,334.893Zm-6.853,6.628c-.086.019-.065.225.038.188S201.054,341.5,200.97,341.521Zm.818-.279a.435.435,0,0,0-.215.011c-.057.013-.218.188-.218.188a.886.886,0,0,0,.168.023c.065,0,.1.046.158.082s.16-.048.2-.048.084.14.094-.012A.239.239,0,0,0,201.788,341.242Zm-.542-.033c.01-.046-.1-.173-.164-.161s-.2-.079-.274-.158a.366.366,0,0,0-.268-.079,2.055,2.055,0,0,0-.284.084c-.015.116.081.079.193.078s.31-.026.345.032a2.243,2.243,0,0,0,.247.194C201.086,341.245,201.235,341.255,201.246,341.209Zm7.343-4.5c.07.01.151-.064.214-.1a.283.283,0,0,0,.153-.222.49.49,0,0,0-.044-.258.135.135,0,0,0-.145-.048c-.079.02-.091.137-.143.137a.09.09,0,0,0-.1.112c.014.085.047.146-.007.183S208.52,336.692,208.589,336.7Zm-7.4-2.918c.045.025.167.01.169.08s.11.106.11.106l.152,0a.785.785,0,0,1,.24-.059,2.5,2.5,0,0,0,.374-.027.228.228,0,0,0,.159-.1c.023-.033-.137-.066-.186-.052s-.307.054-.379.059a1.247,1.247,0,0,0-.233.037c-.063.017-.075-.044-.1-.073s-.063-.134-.115-.138a.918.918,0,0,1-.14-.029c-.051-.01-.139-.02-.126-.042s-.09.109-.056.135A1.037,1.037,0,0,0,201.191,333.787ZM214.745,345.8c-.107-.04-.144.161-.248.3s-.215.248-.249.238a.245.245,0,0,0-.2.271.573.573,0,0,1-.066.449c-.072.088.006.324-.03.458s-.008.217.11.21.17-.068.246-.226.109-.318.18-.453.156-.413.192-.486a1.607,1.607,0,0,0,.13-.437C214.82,345.993,214.8,345.826,214.745,345.8Zm-23.195-7.76c-.044.037.05.045.121.033a.681.681,0,0,0,.22-.081c-.019,0-.089-.024-.089-.024A.521.521,0,0,0,191.55,338.044Zm23.046-3.98c.1.079.235.117.27.034a.207.207,0,0,0-.083-.206.116.116,0,0,1-.012-.188c.078-.073.155-.171.262-.184a1.287,1.287,0,0,1,.465.049c.1.046.177-.128.186-.2s-.169-.156-.182-.067-.239.041-.292.013a3.507,3.507,0,0,0-.453.044c-.076-.008-.066.133-.154.2s-.208.157-.254.189-.066.171-.013.2A1.133,1.133,0,0,1,214.6,334.064Zm-13.44-.088c.021-.085-.09-.093-.162,0S201.135,334.062,201.156,333.976Zm7.875,2.2c.085.048.266.1.195.146a1.387,1.387,0,0,0-.3.368c-.019.073.228.038.228.038s-.054.086-.01.111.071-.087.141-.088.21.062.28.062a.254.254,0,0,0,.177-.222.458.458,0,0,0-.173-.27c-.078-.049-.161-.27-.212-.319s.192-.211.134-.3-.24-.033-.306-.1-.127.014-.172.088-.092-.012-.144.014c-.07.034-.048.16-.016.222A.6.6,0,0,0,209.031,336.172Zm-7.907-2.088c-.058.03-.267.153-.278.2,0,.019.017.051.091.026s.181-.057.231-.071.115-.129.068-.129S201.181,334.054,201.124,334.084Zm-2.381.293a1.054,1.054,0,0,0,.217-.064c.045-.029.23-.111.181-.047s-.05.152,0,.131.177-.13.189-.1-.038.114-.016.128a.276.276,0,0,0,.179-.035.648.648,0,0,1,.234-.051c.048,0,.187.017.228-.029s.091-.062.122-.107.139-.189.139-.189.019-.074-.054-.027-.1.07-.137.065.037-.122-.057-.084a.748.748,0,0,0-.194.14c-.044.034-.113.066-.124.057s-.065-.08-.065-.08-.231.036-.212-.005.03-.1-.089-.064-.375.173-.4.18-.026.076-.066.085a.234.234,0,0,0-.147.08C198.62,334.4,198.677,334.391,198.743,334.377Zm-5.732,2.773c.034-.006.175-.117.108-.1a.475.475,0,0,0-.14.051C192.935,337.114,192.978,337.157,193.011,337.15Zm6.806-3.21c.005.03.1-.015.118-.049s.149-.188.1-.182a2.183,2.183,0,0,0-.314.173c-.076.04-.118.118-.078.108S199.811,333.91,199.817,333.94Zm.665-.218c.06-.012.214-.082.2-.048s-.044.067.017.069a.461.461,0,0,0,.121,0c.041-.007.081-.1.086-.161s.01-.054-.056-.074a.43.43,0,0,0-.216.018.27.27,0,0,0-.193.117C200.4,333.7,200.422,333.734,200.482,333.722Zm0,.857a1.593,1.593,0,0,0,.182-.153.282.282,0,0,0,.062-.2c-.021-.03-.167.016-.215.043s-.124-.012-.209.049c-.054.039-.092.143-.038.141s.183-.077.169-.035S200.351,334.661,200.479,334.579Zm-.276-.343c.049-.022.15-.165.18-.171s.216-.086.2-.009,0,.039.068.035.183-.127.209-.166.027-.1-.077-.072a2.078,2.078,0,0,0-.443.11c-.068.056-.117.2-.141.215S200.153,334.258,200.2,334.236Zm23.116,8.344c-.148.192-.136.151-.225.11s-.252.1-.23.155.235-.017.27.077.033.105.128.08.208-.174.188-.247A.532.532,0,0,0,223.319,342.58Zm-.48,2.2c-.079.091-.205.183-.219.256-.024.115.218-.079.218-.079s.151-.035.174-.108A.1.1,0,0,0,222.839,344.78Zm2.1,3.074a3.4,3.4,0,0,1-.3.191c-.232.132-.5.279-.628.372s-.122.12-.017.091.043.006.256-.129.361-.222.565-.343a2.86,2.86,0,0,0,.364-.253s.036-.094,0-.064C225.115,347.765,225.039,347.794,224.943,347.854Zm-3.692-3.075a.055.055,0,0,0-.026-.031c-.084-.061-.217.012-.233-.073s-.071-.083-.12-.025a.129.129,0,0,0,0,.2.329.329,0,0,0,.209.019.361.361,0,0,0,.161-.059.053.053,0,0,0,.014.036.166.166,0,0,0,.2.084c.111-.018.253.044.28-.021s-.056-.155-.1-.152a1.958,1.958,0,0,1-.255-.048A.409.409,0,0,0,221.251,344.779Zm3.227,2.28a1.708,1.708,0,0,0,.24-.657.991.991,0,0,1,.144-.4c.061-.091-.242-.042-.281-.1s.062-.266.077-.381a.527.527,0,0,0-.075-.283c-.04-.1.018-.347-.017-.324s-.236.323-.215.407-.151.276-.253.4-.139,0-.2-.051-.164-.077-.194-.143.219-.277.2-.345-.281.019-.308.021-.042-.1-.1-.09-.123.211-.123.211a1.3,1.3,0,0,0-.071-.153c-.046-.086-.015.061-.13.164a.538.538,0,0,0-.154.175c-.076.108-.139.075-.178-.022s-.112-.019-.178.018a1.762,1.762,0,0,0-.221.266c-.043.045-.25-.048-.315.011a1.925,1.925,0,0,0-.169.438c-.018.043-.191.042-.273.1a.379.379,0,0,1-.226.046,3.272,3.272,0,0,0-.443.3c-.091.063-.29.273-.279.322s.133.159.081.186a.318.318,0,0,0-.111.3c.036.117-.015.154-.039.217s.005.08.012.177-.218.213-.277.283a.19.19,0,0,0-.018.2c.016.046.153-.007.244-.052s.22-.144.274-.163a.911.911,0,0,1,.265.033,3.128,3.128,0,0,1,.3-.37.266.266,0,0,1,.241-.051,1.745,1.745,0,0,1,.339-.162c.227-.085.081.033.135.05s.137.021.159.062-.118.176-.161.23.114,0,.158-.049a.987.987,0,0,1,.241-.189c.123-.077-.047.088-.08.174s.168-.141.094-.036a.4.4,0,0,0-.034.085c-.015.028.081.018,0,.118s-.125.162-.116.177.148-.032.1.076.085-.011.157-.07.123-.012.121.021.182-.107.333-.175a.54.54,0,0,0,.208-.12c.08-.065.236-.226.4-.36A5.609,5.609,0,0,0,224.478,347.059ZM222.166,345c-.049.1.092.128.134.021S222.21,344.913,222.166,345Zm.262-.946c-.042.109-.141.189-.081.237s.253-.194.272-.121-.034.108.006.2.16.073.16.073.055-.256-.03-.313-.135-.129-.02-.114.191-.042.177-.1-.2-.02-.253-.007a.2.2,0,0,1-.129-.035C222.47,343.892,222.469,343.946,222.428,344.054Zm.206,4.45a.281.281,0,0,1-.078-.02c-.179.13-.012.089-.133.2s.049.04.1.011a3.043,3.043,0,0,0,.391-.336C222.955,348.307,222.663,348.5,222.634,348.5Zm-12.746-10.147c.018-.05-.027-.148-.09-.012C209.776,338.391,209.87,338.406,209.888,338.357Zm.682,0a.166.166,0,0,0-.084-.209c-.085,0-.125.184-.07.246S210.526,338.444,210.57,338.358Zm.537.445c.037.012.156,0,.117-.122s-.121-.123-.149-.123-.147-.038-.192,0,.057.11.1.135S211.071,338.791,211.107,338.8Zm15.948-1.876c-.118-.074-.335-.192-.287-.194s.106.005.059-.059-.288-.214-.3-.267-.22-.169-.319-.208-.369-.084-.47-.137-.25-.125-.253-.106a.763.763,0,0,0,.072.146s-.037,0-.167-.089a1.611,1.611,0,0,0-.46-.172,2.209,2.209,0,0,0-.227-.033.357.357,0,0,1-.223-.077c-.124-.08-.237-.13-.295-.166a1.11,1.11,0,0,0-.345-.092,2.4,2.4,0,0,1-.249-.045s-.088-.043-.241-.134a2.8,2.8,0,0,0-.319-.171.869.869,0,0,1-.324-.076.872.872,0,0,0-.213-.114c-.039-.01-.135-.1-.089-.086a.859.859,0,0,0,.192-.017,1.01,1.01,0,0,0-.231-.144c-.076-.02-.254-.1-.292-.113s.035.049-.058.01-.143,0-.213-.069c-.123-.117-.069.068.077.135s.221.052.3.12a.437.437,0,0,1,.1.132c.033.04.058.139.034.149s-.108-.049-.148-.014-.265-.048-.266-.022-.13-.1-.154-.086-.031.128-.093.106a.628.628,0,0,1-.241-.192,1.206,1.206,0,0,0-.194-.22.968.968,0,0,0-.268-.074c-.054,0-.232-.02-.234.016s-.067.051-.121.04-.148-.094-.278-.138a2.463,2.463,0,0,0-.413-.1c-.023.006-.143-.046-.131-.083a.2.2,0,0,0-.072-.234,1.083,1.083,0,0,0-.333-.133.735.735,0,0,0-.247-.058c-.091,0-.069.076-.153,0s.132.055-.083-.074-.249-.048-.308-.108l-.025-.026a.115.115,0,0,1-.038.1.255.255,0,0,1-.157.073.749.749,0,0,1-.282-.118c-.152-.285-.1-.007-.152.025s-.074.092-.16.059a.346.346,0,0,0-.262-.02c-.055.034-.108.027-.15.1s-.169.1-.169.1-.135-.029-.2-.038-.162-.022-.069.067.314.2.355.244.127.191.1.221-.093.011-.142-.1a.272.272,0,0,0-.172-.175.482.482,0,0,1-.208-.137c-.117-.114-.2-.112-.21-.049s.061.209.018.215-.082.046-.126-.06-.117-.3-.129-.194-.037.108-.016.166a1.121,1.121,0,0,1,.107.226c.02.1.042.175.066.177s.045-.1.108-.113.17-.059.215.047.137.15.073.188a.153.153,0,0,1-.2-.067c-.04-.072-.1-.079-.132-.026a1.463,1.463,0,0,0-.091.251s-.156.11-.186.084.019-.146.065-.2a.2.2,0,0,0,.017-.214,1.154,1.154,0,0,1-.144-.321c0-.057.037-.131-.06-.2s-.177-.144-.25-.186-.083.127-.122.168-.013.1-.08.105-.071.142.073.237.2.157.183.2-.174-.04-.174-.04a.667.667,0,0,0-.188-.087c-.063-.006-.159-.073-.226-.089s-.193-.029-.212.015-.062.181-.138.128-.088-.1-.164-.06-.183-.05-.214.018.008.072-.16-.012-.109.039-.245.065-.24-.051-.266.019-.057.2-.1.112.036-.224-.014-.275a.216.216,0,0,0-.228,0,.442.442,0,0,0,.047.218c.025.049.083.244.029.2s-.069-.159-.115-.149a.249.249,0,0,0-.117.066c-.02.022-.118.017-.135.064s.037.182,0,.193-.065.056-.167-.033-.1-.041-.116-.018-.124.116-.147.006,0-.145-.085-.221-.027-.075.077-.021a.423.423,0,0,0,.4.008c.165-.077.23-.108.15-.161s-.164-.21-.28-.241-.265.068-.454-.038a2.8,2.8,0,0,0-.306-.171c-.074-.027-.538-.34-.727-.3a3.065,3.065,0,0,0-.734.472,2.012,2.012,0,0,1-.169.3,1.026,1.026,0,0,1-.434.288c-.154.048-.342.4-.342.454s.07.234.054.27a.331.331,0,0,0,.13.272c.094.049.256.038.263-.035s.129-.232.14-.123.1.284.087.358.005.146.065.135.373-.106.373-.106a.16.16,0,0,0,.078-.157c-.022-.1.1-.232.121-.268s.106-.182-.005-.233-.195-.065-.088-.21.193,0,.324-.213-.053-.284.1-.292.315-.014.289.057a1.1,1.1,0,0,1-.3.3.205.205,0,0,0-.029.28c.047.074.076.247.15.224s.159-.106.243-.091a1.751,1.751,0,0,0,.276-.005c.025,0,.159.175.094.2a1.614,1.614,0,0,1-.293.016c-.142.008-.3,0-.3.041s.2.127.141.187-.137-.015-.223-.03-.126.157-.146.255.058.269-.074.207-.228-.066-.261-.042-.1-.023-.183.013a.351.351,0,0,1-.2.032h-.113l-.068.011a.272.272,0,0,1-.082-.16c-.011-.1.028-.208-.015-.234s-.2.011-.22.084a.423.423,0,0,0-.012.271c.035.061.142.185.046.147a.266.266,0,0,0-.286.024c-.069.074-.19.233-.19.233s-.219.024-.219.1,0,.172-.079.185-.185.049-.291.074-.1.086-.223.1-.143.087-.028.11.291.122.3.233a.775.775,0,0,1-.057.345c-.032.076-.215.025-.324.026s-.322-.048-.413,0-.08.3-.056.4a.209.209,0,0,1-.049.209.169.169,0,0,0-.005.2c.044.049.079.159.115.172s.157-.038.2.023.088.209.116.171.067-.2.113-.16.155-.012.238-.024.129-.136.212-.2.036-.062.009-.136.083-.16.147-.246.181-.011.208-.11.036-.271.108-.258.172.074.234.074.2-.135.232-.159a.143.143,0,0,1,.191.1.612.612,0,0,0,.213.273c.036.024.274.124.312.161a.62.62,0,0,1,.115.246c.02.1.133.215.14.13s-.1-.363-.037-.35a.246.246,0,0,0,.136-.023,2.814,2.814,0,0,0-.242-.2.566.566,0,0,1-.241-.235c-.057-.122-.192-.148-.186-.27s.132-.049.207.049.258.236.325.322.166.125.2.236a1.245,1.245,0,0,0,.145.282c.029.05.058.44.088.5s.19-.131.234-.18.125-.072.131-.17-.116-.173-.154-.209.088-.074.131-.121.121-.133.16-.059a3.543,3.543,0,0,1,.055.416c.021.049.207.125.246.186s.2.088.222.052.176.027.214.04a.58.58,0,0,0,.217-.046c.071-.023.141-.1.141.064a1.04,1.04,0,0,1-.1.52c-.088.121-.049.183-.141.181a.215.215,0,0,0-.113.019c-.032-.062-.076-.112-.131-.094-.109.035-.248.034-.336.18s-.126.157-.146.109.262-.254.223-.316-.261-.039-.381-.041-.224-.1-.317-.124-.131.226-.221.347-.235-.068-.319-.069-.243-.16-.243-.16a.823.823,0,0,0-.223-.088c-.065,0-.2-.16-.233-.16s-.139-.111-.065-.159.23.059.153-.212a.267.267,0,0,0-.388-.182,2.969,2.969,0,0,1-.557.022,2.3,2.3,0,0,0-.386.174c-.082.048-.23.111-.267.135s-.229-.049-.312.014c-.111.081-.215.21-.243.21s-.112.086-.17.27.005.343-.1.406a1.7,1.7,0,0,0-.4.258c-.076.1-.139.478-.233.639s0,.306.016.4a.6.6,0,0,1-.02.453c-.1.172-.093.257-.139.269s.046.061.066.184-.083.245.1.355.341.117.388.264.207.487.207.487.17.2.255.283.111.037.129-.049.129-.1.259-.1a1.671,1.671,0,0,0,.353.015c.13-.025.224-.237.27-.261a.394.394,0,0,1,.362.039c.12.1.1.234.166.319s.176.037.26-.049.047-.049.149.025.146.146.053.257-.04.283-.1.455.051.171.151.245.176.553.229.638-.025.332.035.478.085.237.011.31a.71.71,0,0,0-.182.465,1.27,1.27,0,0,0,.056.5c.032.085.111.318.151.4s.18.241.182.377-.127.345-.089.418a1.829,1.829,0,0,0,.126.28.751.751,0,0,1,.081.306,1,1,0,0,1,.019.218c0,.135,0,.22.077.281s.129.07.174.008a.526.526,0,0,1,.329-.179.423.423,0,0,0,.368-.089,5.248,5.248,0,0,0,.372-.5c.068-.088.219-.251.214-.348s-.085-.251-.012-.3.3-.1.318-.17a2.205,2.205,0,0,0-.028-.435c-.011-.06.061-.173.143-.3a2.925,2.925,0,0,1,.3-.313.989.989,0,0,0,.241-.37,3.718,3.718,0,0,1,.042-.435.217.217,0,0,0-.049-.253c-.074-.094-.062-.32-.085-.367a.685.685,0,0,1,.1-.4,2.3,2.3,0,0,0,.272-.38c.08-.11.312-.453.415-.479a.544.544,0,0,0,.285-.33c.015-.108.3-.52.315-.605s.133-.4.088-.47-.414.112-.461.136a.611.611,0,0,1-.33.111c-.148-.012-.08-.169-.088-.241a1.034,1.034,0,0,0-.2-.363.648.648,0,0,1-.195-.3c-.046-.146-.242-.242-.318-.351s0-.45-.074-.622-.148-.39-.217-.549c-.017-.038-.035-.076-.053-.111.085-.028.209-.078.226-.008a3.671,3.671,0,0,1,.151.4c.022.132.124.086.135.208a1.426,1.426,0,0,0,.148.449,1.722,1.722,0,0,1,.236.3,1.472,1.472,0,0,1,.094.351c.027.182.052.424.126.46s.329-.062.376-.1a1.834,1.834,0,0,1,.471-.244c.112-.011.131-.108.271-.144a.8.8,0,0,0,.338-.264,1.742,1.742,0,0,0,.238-.416c.035-.083.128-.143.079-.237a.715.715,0,0,0-.326-.254c-.075-.013-.071-.169-.118-.169s-.035.083-.125.142-.182.178-.248.154.017-.084-.09-.193-.144-.133-.147-.217-.215-.245-.239-.364.124-.287.176-.178.1.277.222.35.241.2.3.22.189-.128.237-.1.15.24.235.277a1.81,1.81,0,0,0,.413.052c.047,0,.243.015.277-.056s.062-.069.109-.069.139.214.206.238.187.014.182.168.065.282.131.294.211-.174.211-.174.007.293,0,.4a2.774,2.774,0,0,0,.1.492s.133.362.168.444a1.549,1.549,0,0,1,.178.429c-.006.1,0,.268.059.267s.123-.188.195-.3a1.489,1.489,0,0,0,.18-.339,2.237,2.237,0,0,0-.013-.463c0-.082.057-.151.189-.221s.223-.265.333-.368.1-.275.32-.273.206,0,.259-.067.108-.111.141.014a1.487,1.487,0,0,0,.226.354.549.549,0,0,1,.078.3c-.009.136-.065.509-.018.509s.214-.406.214-.406.207-.17.2.01.011.371.007.484.148.379.152.312.089-.259.093-.359.049-.057.167.042a.83.83,0,0,1,.189.3l.1.427c.013.056.177-.266.209-.332a.189.189,0,0,1,.131-.125c.076-.023.17-.025.2-.145s.126-.265.017-.429a2.017,2.017,0,0,0-.25-.351.865.865,0,0,1-.155-.277s.173-.187.226-.253.139-.019.151.058-.077.142-.092.306.114.221.151.166a1.017,1.017,0,0,0,.128-.218c0-.033-.066-.023-.079-.144s.112-.206.161-.174a.872.872,0,0,0,.479-.123c.134-.085.2-.267.281-.339s.337-.31.3-.428a1.3,1.3,0,0,0-.132-.429,3.633,3.633,0,0,0-.262-.319c-.049-.066.141-.067.211-.158s-.041-.181-.084-.173a.632.632,0,0,1-.2.019c-.047-.014-.087-.069-.176-.138s-.021-.16.027-.146.136-.1.176-.146.109-.086.1-.035-.025.239.05.254.2-.142.234-.129a.331.331,0,0,1,.1.214c-.011.061.015.168.049.159s.083-.1.109-.066.135.1.116.216-.1.15.024.23.15.018.221-.03.071-.274.007-.35a1.815,1.815,0,0,1-.228-.283c-.015-.053.166-.039.141-.123a.133.133,0,0,1,.071-.167c.054-.026.089-.154.13-.11s.221.109.245.051a2.433,2.433,0,0,1,.267-.369.414.414,0,0,0,.053-.38.85.85,0,0,0-.1-.335,1.251,1.251,0,0,1,.226.359,2.44,2.44,0,0,0,.185.374c.03.032.131.11.167.1s-.113-.223-.132-.263a.079.079,0,0,1,.047-.1c.03-.006-.087-.18-.166-.255s-.16-.123-.131-.13.032-.079,0-.1-.057-.091-.107-.08-.167-.032-.119.053a.358.358,0,0,0-.216-.154c-.073,0-.089.044-.168.034s-.09-.144-.125-.149-.044.118-.123.041.035-.149.136-.181.143-.293.221-.29.308.068.488.088.18-.057.271,0a1.03,1.03,0,0,0,.327.142c.07,0,.044.006.1-.07s.123-.1.125-.168.114-.091.181-.014.1.148.166.161.11-.044.163-.065a.22.22,0,0,0,.082-.053s-.136.194-.178.236-.218.043-.225.144a.278.278,0,0,0,.053.258c.087.126.334.311.33.417a.9.9,0,0,0,.058.265.445.445,0,0,1,.1-.234.492.492,0,0,0,.1-.261c.015-.049.164-.035.119-.1a1.02,1.02,0,0,1-.089-.214c-.028-.069-.091-.065-.11-.149s-.086-.161.166-.112.183.05.376.081.178-.063.321-.075a.7.7,0,0,1,.341.024C227.1,337,227.172,337,227.055,336.927ZM212.587,335.3c.023-.169.279.047.247.13S212.57,335.41,212.587,335.3ZM225.8,347.341c-.021-.026-.024-.012.025-.088s.161-.19.035-.125a.377.377,0,0,0-.128.143.912.912,0,0,1-.175.186c-.047.038-.228.121-.217.147s.177-.051.1.007-.221.147-.173.144a1.056,1.056,0,0,0,.267-.16,3.15,3.15,0,0,1,.283-.182c.1-.05.131-.114.1-.1S225.822,347.365,225.8,347.341Zm-7.242-13.689c-.009-.067-.086-.1,0,0Zm4.324,6.983c-.136.021-.2.36-.085.35S223,340.616,222.884,340.635Zm-.193,1.755c-.026.1.234-.154.3-.25s.2-.045.229-.1l.03-.053a1.419,1.419,0,0,1-.186-.053c-.083-.031-.188.087-.138-.083s.19-.14.161-.267a.187.187,0,0,0-.152-.16c-.065,0,.011.117-.082.192s-.2.106-.142.235.246.223.2.277S222.716,342.292,222.691,342.39Zm1.705-3.774c.11.089.17.035.292.036a.932.932,0,0,0,.226-.027s.193.027.127-.076a.408.408,0,0,0-.3-.124c-.033.006-.143-.12-.207-.108s-.042.113-.031.143S224.285,338.528,224.4,338.616Zm-2.25,4.572c-.176.007-.207.17-.249.2a.425.425,0,0,1-.158.071c-.077.025-.109.113-.136.169s-.133-.093-.176-.049a.734.734,0,0,0-.017.427.335.335,0,0,0,.218.271.673.673,0,0,1,.2.01c.059.017.264.027.276-.071a.539.539,0,0,1,.137-.348c.111-.1.213-.159.191-.3s-.1-.221-.029-.288.152-.091.159-.145-.174.155-.152-.2c.005-.075-.151.026-.169.1S222.323,343.183,222.146,343.188Zm-3.782-.517c-.062.034-.162.594-.055.638s.215-.351.181-.408S218.45,342.623,218.364,342.671Zm2.114.358a2.662,2.662,0,0,0,.122.476c.027.076.169.183.215.235s.142-.027.116-.093a.688.688,0,0,1-.088-.239.859.859,0,0,0-.092-.331c-.06-.131-.123-.164-.162-.252a1.432,1.432,0,0,0-.2-.254c-.075.013-.087.181-.054.236S220.451,342.828,220.478,343.029Zm-.084,1.4c.037.042.334.1.352.187s.093.1.12-.019a.9.9,0,0,1,.133-.335c.059-.069.059-.167-.016-.152s-.113-.138-.216-.233a1.37,1.37,0,0,1-.277-.3,2.3,2.3,0,0,0-.287-.3.259.259,0,0,0-.221-.094c-.118.029.137.266.161.3s.239.282.221.4A1.65,1.65,0,0,0,220.394,344.427Zm2.925-2.238c-.037,0-.173.225,0,.211A.106.106,0,1,0,223.319,342.189Zm-.1.34c-.032-.054-.113-.221-.219-.176-.033.014-.127.2-.024.2S223.253,342.581,223.22,342.529Zm1.938,1.689c-.038-.046-.04-.182-.169-.2s-.151-.068-.276-.14a.622.622,0,0,0-.478,0c-.022.052,0,0-.1-.034s-.192.011-.2-.06-.071-.088-.175.009c-.087.083-.12.089.028.113s.2.019.11.105-.159.193-.107.2.23-.055.237-.016-.05.054.123.071.188.087.211.124.088.16.016.168-.189.114-.138.12.227-.049.226-.019.016.214.11.194.217-.205.28-.259.255-.1.24-.011a.2.2,0,0,0,.086.22c.083.048.184.094.214.044s.044-.23-.017-.253a.27.27,0,0,1-.1-.249C225.3,344.274,225.2,344.263,225.158,344.218Zm-2.476-.431c.1-.016.323-.059.368-.062s.138-.143.1-.14a3.211,3.211,0,0,0-.335.078.867.867,0,0,1-.19-.012C222.548,343.729,222.579,343.8,222.682,343.787Zm.708.056c.1.026.265-.355.205-.383C223.518,343.423,223.287,343.817,223.39,343.843Zm.443-4.486a.748.748,0,0,1-.12.148c-.037.038-.172,0-.119.127s.14.244.2.248.123-.037.1-.15.129.006.192,0,.084-.078.093-.158l0-.02a.115.115,0,0,0,.088.1c.118.036.136-.044.129-.074s.182-.069.212-.1.163-.07.161-.109-.079-.273-.04-.29.1-.011-.015-.157-.166-.281-.235-.227c-.051.039.048.221.031.338s-.032.227-.069.224a.487.487,0,0,0-.247.126C224.151,339.437,223.857,339.307,223.833,339.357Z" fill="#00dbde"/></g><g clip-path="url(#b)"><rect width="421.752" height="72.476" transform="translate(340.96 384.337) rotate(90)" fill="#0098c2"/><rect width="72.476" height="16.26" transform="translate(268.483 697.269)" fill="#0094be"/><rect width="72.476" height="16.26" transform="translate(268.483 728.539)" fill="#40b0d3"/><rect width="385.585" height="90.178" transform="translate(178.305 806.089) rotate(-90)" fill="#35acd0"/><rect width="101.315" height="90.178" transform="translate(178.305 806.089) rotate(-90)" fill="#35acd0"/><rect width="38.775" height="26.222" transform="translate(236.505 686.012) rotate(90)" fill="#0094be"/><rect width="413.109" height="51.268" transform="translate(629.055 392.98) rotate(90)" fill="#0094be"/><rect width="16.711" height="51.268" transform="translate(629.055 420.504) rotate(90)" fill="#0094be"/><rect width="16.711" height="51.268" transform="translate(629.055 437.215) rotate(90)" fill="#40b0d3"/><path d="M621.013,739.736h0a17.2,17.2,0,0,0-17.2-17.2h-.779a17.2,17.2,0,0,0-17.2,17.2h0a17.2,17.2,0,0,0,17.2,17.2h.779A17.2,17.2,0,0,0,621.013,739.736Z" fill="#fff"/><rect width="435.87" height="82.714" transform="translate(495.073 814.424) rotate(-90)" fill="#2da8cd"/><path d="M495.073,554.048v20.811c0,6.279,82.713,6.279,82.713,0V554.048C577.786,558.519,495.073,558.519,495.073,554.048Z" fill="#45b1d5"/><rect width="5.043" height="21.967" transform="translate(495.073 784.122)" fill="#18a1c8"/><rect width="5.043" height="21.967" transform="translate(506.168 784.122)" fill="#18a1c8"/><rect width="5.043" height="21.967" transform="translate(517.264 784.122)" fill="#18a1c8"/><rect width="5.044" height="21.967" transform="translate(528.36 784.122)" fill="#18a1c8"/><rect width="5.044" height="21.967" transform="translate(539.456 784.122)" fill="#18a1c8"/><rect width="5.044" height="21.967" transform="translate(550.551 784.122)" fill="#18a1c8"/><rect width="5.043" height="21.967" transform="translate(561.647 784.122)" fill="#18a1c8"/><rect width="5.043" height="21.967" transform="translate(572.743 784.122)" fill="#18a1c8"/><rect width="113.303" height="22.465" transform="translate(549.194 407.216) rotate(90)" fill="#fff"/><rect width="354.556" height="67.295" transform="translate(495.073 451.533) rotate(90)" fill="#0094be"/><rect width="27.416" height="253.006" transform="translate(447.925 477.529)" fill="#0094be"/><rect width="3.25" height="67.295" transform="translate(495.28 750.846) rotate(90)" fill="#40b0d3"/><rect width="3.25" height="67.295" transform="translate(495.28 762.219) rotate(90)" fill="#40b0d3"/><rect width="3.25" height="67.295" transform="translate(495.28 775.218) rotate(90)" fill="#40b0d3"/><rect width="328.56" height="42.371" transform="translate(340.96 806.089) rotate(-90)" fill="#23a5cb"/><rect width="169.792" height="26.586" transform="translate(375.438 596.489) rotate(90)" fill="#fff"/><ellipse cx="13.708" cy="13.405" rx="13.708" ry="13.405" transform="translate(348.229 524.998)" fill="#40b0d3"/><rect width="306.276" height="44.448" transform="translate(427.778 499.813) rotate(90)" fill="#004082"/><rect width="21.185" height="204.726" transform="translate(395.169 525.81)" fill="#37acd0"/><rect width="3.25" height="44.448" transform="translate(427.986 756.895) rotate(90)" fill="#32a5c9"/><rect width="3.25" height="44.448" transform="translate(427.986 768.268) rotate(90)" fill="#32a5c9"/><rect width="3.25" height="44.448" transform="translate(427.986 781.267) rotate(90)" fill="#32a5c9"/><rect width="312.631" height="68.691" transform="translate(920.395 806.089) rotate(-90)" fill="#40b0d3"/><path d="M920.4,534.921V569.75c0,7.407,68.691,7.407,68.691,0V534.921C989.086,542.16,920.4,542.16,920.4,534.921Zm68.691,48.927c0,6.333-68.691,6.333-68.691,0v34.829c0,9.807,68.691,9.807,68.691,0Z" fill="#069cc4"/><rect width="312.631" height="47.49" transform="translate(989.086 806.089) rotate(-90)" fill="#0094be"/><rect width="4.976" height="47.49" transform="translate(989.086 592.14) rotate(-90)" fill="#0094be"/><rect width="12.721" height="28.195" rx="6.289" transform="translate(1018.343 558.555) rotate(180)" fill="#fff"/><rect width="427.535" height="72.32" transform="translate(848.075 806.089) rotate(-90)" fill="#003272"/><rect width="289.808" height="45.377" transform="translate(906.924 448.335) rotate(90)" fill="#fff"/><ellipse cx="16.837" cy="16.465" rx="16.837" ry="16.465" transform="translate(867.043 395.359)" fill="#40b0d3"/><path d="M302.111,384.337h-33.27V803.989Z" opacity="0.15" style="mix-blend-mode:multiply;isolation:isolate"/><path d="M178.665,806.089h2.454L211.687,420.5H178.665Z" opacity="0.15" style="mix-blend-mode:multiply;isolation:isolate"/><path d="M528.89,378.554H495.073V805.112Z" opacity="0.15" style="mix-blend-mode:multiply;isolation:isolate"/><path d="M600.927,392.98H577.786V740.7Z" opacity="0.15" style="mix-blend-mode:multiply;isolation:isolate"/><path d="M880.424,378.554H848.075V803.4Z" opacity="0.15" style="mix-blend-mode:multiply;isolation:isolate"/><path d="M920.4,493.458V806.089h.867l37.709-312.631Z" opacity="0.15" style="mix-blend-mode:multiply;isolation:isolate"/><path d="M1012.885,493.458h-23.8V798.474Z" opacity="0.15" style="mix-blend-mode:multiply;isolation:isolate"/><path d="M340.96,805.948l19.059-328.38H340.96Z" opacity="0.15" style="mix-blend-mode:multiply;isolation:isolate"/><path d="M383.428,804.076l16.252-304.113H383.428Z" opacity="0.15" style="mix-blend-mode:multiply;isolation:isolate"/><path d="M460.149,451.532H427.778v352.2Z" opacity="0.15" style="mix-blend-mode:multiply;isolation:isolate"/></g><rect width="342.221" height="68.691" transform="translate(847.863 463.868) rotate(90)" fill="#0094be"/><rect width="27.985" height="208.973" transform="translate(799.737 519.995)" fill="#0094be"/><rect width="3.317" height="68.691" transform="translate(848.075 749.699) rotate(90)" fill="#40b0d3"/><rect width="3.317" height="68.691" transform="translate(848.075 761.309) rotate(90)" fill="#40b0d3"/><rect width="3.317" height="68.691" transform="translate(848.075 774.577) rotate(90)" fill="#40b0d3"/><path d="M779.219,806.089h4.826l22.775-342.221h-27.6Z" opacity="0.15" style="mix-blend-mode:multiply;isolation:isolate"/><path d="M696.573,435.665l73.8,324.6-218.144,117.4-41.67-22.231a12.113,12.113,0,0,1-6.2-7.575l-70.885-311.79,3.149-5.3,41.7,22.244h0Z" fill="#0e83b5"/><path d="M552.225,877.665l-41.67-22.231a12.113,12.113,0,0,1-6.2-7.575l-70.885-311.79,3.149-5.3,41.7,22.244.222.119Z" fill="#0097c0"/><path d="M449.991,574.97,490.9,754.918l29.41,15.69L479.4,590.66Z" fill="#0094be"/><path d="M516.142,809.995c-8.375-4.468-13.718-1.73-11.935,6.116s10.02,17.829,18.395,22.3,13.718,1.729,11.934-6.116S524.517,814.463,516.142,809.995Z" fill="#004284"/><path d="M656.113,417.312,436.164,537.027l33.737,18L689.85,435.311C681.717,439.678,647.98,421.68,656.113,417.312Z" fill="#fff"/><path d="M670.4,431.342l-213.964,116.5,1.5.8L672.031,432.079Q671.214,431.72,670.4,431.342ZM664.9,428.48,451,544.943l1.505.8L666.363,429.3Q665.616,428.9,664.9,428.48Zm11.65,5.385L461.876,550.745l1.505.8L678.394,434.483C677.785,434.293,677.167,434.084,676.545,433.865ZM659.982,425.3,445.564,542.042l1.5.8L661.273,426.214Q660.6,425.755,659.982,425.3Zm-4-3.673L440.126,539.141l1.505.8L656.948,422.716A12.739,12.739,0,0,1,655.983,421.624Z" fill="#d3eff3"/><path d="M481.325,553.111l-13.423.848-30.445-16.242,5.424-5.115Z" opacity="0.1" style="mix-blend-mode:multiply;isolation:isolate"/><path d="M659.615,415.948,443.2,533.764c-2.764,1.484-2.086,4.254,1.513,6.173l17.791,9.492c3.6,1.919,8.774,2.274,11.538.789L690.457,432.4l6.445,3.439L480.489,553.656c-5.5,2.955-15.771,2.253-22.934-1.569L439.764,542.6c-7.164-3.822-8.509-9.315-3.006-12.27L653.17,412.51Z" fill="#26a6cc"/><path d="M659.967,574.552a84.621,84.621,0,0,1,13.527,149.437,59.286,59.286,0,0,0-100.867-7.006,84.618,84.618,0,0,1,87.34-142.431Z" fill="#b6ecff"/><path d="M700.409,627.159c-.04.182-.08.364-.125.554a89.533,89.533,0,0,1-3.822,12.2,62.591,62.591,0,0,1-5.94,11.7l-.351.53.354.528c.7,1.04,1.309,2.014,1.864,2.973a78.72,78.72,0,0,1,8.014,20.316q.135.554.259,1.084l.769,3.283,1.065-3.2a78.644,78.644,0,0,0-.178-50.4l-1.092-3.2Zm4.236,25.123a76.88,76.88,0,0,1-2.958,21,80.57,80.57,0,0,0-7.642-18.586c-.484-.838-1.006-1.68-1.584-2.561a65.31,65.31,0,0,0,5.778-11.525,91.394,91.394,0,0,0,3.3-10.039A76.521,76.521,0,0,1,704.645,652.282Z" fill="#00a1c6" opacity="0.1"/><path d="M667.5,605.915c-.035-.145-.069-.29-.1-.435-.063-.274-.127-.547-.2-.826l0-.014a75.233,75.233,0,0,0-8.5-19.01c-.632-1.023-1.294-2.053-1.967-3.062l-.349-.522-.618.114c-.877.162-1.979.407-3.566.792a75.312,75.312,0,0,0-19.432,7.535c-.239.138-.467.282-.7.425-.125.079-.25.158-.377.236l-1.106.675.973.856a29.416,29.416,0,0,1,7.914,10.7,29,29,0,0,1,2.044,12.453l-.111,2.621,1.769-1.938a27.592,27.592,0,0,1,23.346-9.416l1.292.077Zm-2.154-.78a30.6,30.6,0,0,0-12.657,2.205,30.134,30.134,0,0,0-9.246,6.16,29.925,29.925,0,0,0-2.212-10.859,30.8,30.8,0,0,0-7.464-10.53,73.439,73.439,0,0,1,18.87-7.3c1.2-.292,2.112-.5,2.851-.652.54.82,1.07,1.651,1.583,2.481A73.4,73.4,0,0,1,665.349,605.135Z" fill="#00a1c6" opacity="0.1"/><path d="M685.087,652.632l.5-.608-.5-.609a26.748,26.748,0,0,0-10.232-7.943c-5.485-2.271-12.228-2.344-20.057-.211-2.116.612-4.3,1.358-6.5,2.216l-.019.007-.019.009c-1.227.541-2.316.995-3.327,1.387l-.023.009-.022.01a75.547,75.547,0,0,0-8.348,4.405l-1.354.825,1.363.81a86.152,86.152,0,0,0,9.312,4.793l.039.016c.088.034.177.066.265.1s.175.063.264.1c.773.3,1.583.637,2.475,1.022l.041.017c10.33,3.893,19.052,4.414,25.924,1.549A26.812,26.812,0,0,0,685.087,652.632Zm-37.955,3.536-.307-.115c-.071-.025-.141-.051-.212-.078a83.967,83.967,0,0,1-7.688-3.866,73.025,73.025,0,0,1,6.727-3.458c1.027-.4,2.128-.858,3.365-1.4,2.134-.834,4.258-1.558,6.3-2.148,7.4-2.015,13.725-1.969,18.811.136a24.394,24.394,0,0,1,8.975,6.788,24.494,24.494,0,0,1-8.962,6.748c-6.4,2.67-14.645,2.143-24.494-1.565C648.741,656.816,647.918,656.476,647.132,656.168Z" fill="#00a1c6" opacity="0.1"/><path d="M554.773,676.64a89.4,89.4,0,0,1,3.822-12.2,62.541,62.541,0,0,1,5.936-11.693l.35-.53-.354-.528c-.687-1.026-1.292-1.992-1.845-2.947a78.726,78.726,0,0,1-8.067-20.394c-.078-.322-.152-.635-.225-.946l-.773-3.28-1.062,3.2a78.657,78.657,0,0,0,.185,50.3l1.091,3.2.82-3.641C554.69,677,554.73,676.826,554.773,676.64Zm-1.405-45.478a80.626,80.626,0,0,0,7.658,18.533c.481.832,1,1.665,1.566,2.534a65.36,65.36,0,0,0-5.774,11.517,91.29,91.29,0,0,0-3.295,10.033A76.151,76.151,0,0,1,553.368,631.162Z" fill="#00a1c6" opacity="0.1"/><path d="M693.083,638.527a85.934,85.934,0,0,0,3.655-11.721c.292-1.344.524-2.49.674-3.234l.123-.608-.506-.359c-.669-.474-1.562-1.054-2.814-1.824a85.882,85.882,0,0,0-10.894-5.647,62.6,62.6,0,0,0-9.785-3.245l-1.244-.292.072,1.276a30.068,30.068,0,0,1-1.969,13.088,29.122,29.122,0,0,1-7.626,10.561l-1.967,1.784,2.653-.123a29.918,29.918,0,0,1,12.709,1.979,29.264,29.264,0,0,1,10.78,7.855l.854.957.671-1.092A60.516,60.516,0,0,0,693.083,638.527Zm-16.2-.135a30.771,30.771,0,0,0-11.075-2.153,29.973,29.973,0,0,0,6.359-9.561h0a31.427,31.427,0,0,0,2.158-12.626,62.444,62.444,0,0,1,8.252,2.839,84.092,84.092,0,0,1,10.642,5.516c.917.565,1.632,1.021,2.2,1.4-.141.694-.325,1.583-.539,2.574a84.085,84.085,0,0,1-3.57,11.441,60.4,60.4,0,0,1-3.816,7.97A30.609,30.609,0,0,0,676.88,638.392Z" fill="#00a1c6" opacity="0.1"/><path d="M668.539,611.776l-.08-.782-.782-.071a26.712,26.712,0,0,0-12.8,1.667c-6.69,2.79-12.3,8.985-16.665,18.415l-.03.072c-.481,1.308-.951,2.5-1.439,3.645-.151.352-.311.7-.47,1.05l-.222.486-.026.063a86.173,86.173,0,0,0-2.75,8.959l-.382,1.539,1.539-.383a75.3,75.3,0,0,0,7.949-2.453l.036-.013.034-.016c1.9-.879,3.817-1.678,5.691-2.373l.038-.014.035-.017c1.645-.771,3.261-1.6,4.814-2.467,6.973-4.033,11.666-8.873,13.949-14.387A26.486,26.486,0,0,0,668.539,611.776Zm-16.45,25.647c-1.49.834-3.052,1.635-4.644,2.382q-1.424.53-2.871,1.132c-.961.4-1.926.825-2.886,1.269-2.018.745-4.081,1.406-6.152,1.971.649-2.415,1.411-4.818,2.273-7.164l.2-.447c.166-.362.331-.725.49-1.094.5-1.165.974-2.376,1.461-3.7,4.159-8.963,9.424-14.823,15.652-17.42a24.375,24.375,0,0,1,11.1-1.591,24.125,24.125,0,0,1-1.494,11.205C663.1,629.083,658.679,633.613,652.089,637.423Z" fill="#00a1c6" opacity="0.1"/><path d="M688.8,656.7q-.119-.187-.236-.378l-.676-1.1-.854.97a29.417,29.417,0,0,1-10.693,7.91,29,29,0,0,1-12.463,2.044l-2.625-.112,1.941,1.77a27.6,27.6,0,0,1,9.433,23.382l-.078,1.292,1.258-.308c.146-.036.291-.07.436-.1.269-.063.547-.128.848-.21a75.25,75.25,0,0,0,19.01-8.5c1.027-.635,2.057-1.3,3.061-1.968l.523-.349-.114-.618c-.162-.878-.407-1.98-.793-3.565a75.3,75.3,0,0,0-7.535-19.433C689.095,657.166,688.944,656.927,688.8,656.7Zm6.122,20.6c.292,1.2.5,2.111.651,2.851-.817.539-1.648,1.069-2.48,1.584a73.374,73.374,0,0,1-18.505,8.277,30.624,30.624,0,0,0-2.2-12.677,30.131,30.131,0,0,0-6.175-9.263,29.936,29.936,0,0,0,10.868-2.212A30.808,30.808,0,0,0,687.6,658.4,73.383,73.383,0,0,1,694.921,677.3Z" fill="#00a1c6" opacity="0.1"/><path d="M661.862,583.678a78.727,78.727,0,0,1,8.956,19.85c.291,1.1.556,2.274.81,3.586l.121.629.628.126a64.173,64.173,0,0,1,12.4,3.958,89.4,89.4,0,0,1,11.349,5.864c.159.1.307.191.456.285l3.154,1.974-1.508-3.029a78.66,78.66,0,0,0-35.73-35.569l-3.02-1.489,1.789,2.852C661.458,583.026,661.656,583.344,661.862,583.678Zm2.828.969a76.713,76.713,0,0,1,30.249,30.125,91.516,91.516,0,0,0-9.416-4.7,66.986,66.986,0,0,0-12.145-3.944c-.225-1.112-.461-2.132-.718-3.1l-.007-.024A80.6,80.6,0,0,0,664.69,584.647Z" fill="#00a1c6" opacity="0.1"/><path d="M593.209,720.71a78.734,78.734,0,0,1-8.956-19.851c-.292-1.1-.558-2.281-.811-3.6l-.121-.629-.628-.126a64.2,64.2,0,0,1-12.378-3.954,89.467,89.467,0,0,1-11.349-5.864c-.169-.1-.327-.2-.485-.3l-3.154-1.976,1.507,3.03a78.663,78.663,0,0,0,35.743,35.6l3.019,1.488-1.788-2.851C593.613,721.363,593.415,721.044,593.209,720.71Zm-2.827-.968a76.7,76.7,0,0,1-30.264-30.151,91.52,91.52,0,0,0,9.447,4.718,66.964,66.964,0,0,0,12.126,3.941c.226,1.116.463,2.139.721,3.111l.006.024A80.627,80.627,0,0,0,590.382,719.742Z" fill="#00a1c6" opacity="0.1"/><path d="M622.51,635.413l.014.03a75.564,75.564,0,0,0,4.159,7.8l.825,1.351.81-1.361a85.892,85.892,0,0,0,4.495-8.638l.023-.055.182-.492c.093-.255.186-.509.286-.763.383-.98.822-2.024,1.342-3.192l.025-.062c3.635-10,4.062-18.468,1.269-25.166A26.831,26.831,0,0,0,628,594.62l-.607-.5-.608.5a26.773,26.773,0,0,0-7.97,10.254c-2.271,5.485-2.343,12.228-.211,20.056.52,1.795,1.14,3.656,1.844,5.531l.011.031.014.03c.733,1.6,1.415,3.24,2.028,4.86Zm-2.07-11c-2.014-7.4-1.968-13.725.137-18.81a24.418,24.418,0,0,1,6.814-9,24.527,24.527,0,0,1,6.787,9c2.6,6.236,2.166,14.226-1.29,23.749-.525,1.182-.971,2.243-1.361,3.239-.1.266-.2.535-.3.8-.055.149-.109.3-.165.448-1.077,2.39-2.276,4.747-3.572,7.025-1.169-2.011-2.247-4.087-3.215-6.192-.621-1.64-1.311-3.294-2.052-4.917C621.539,627.94,620.939,626.137,620.44,624.414Z" fill="#00a1c6" opacity="0.1"/><path d="M686.8,591.8a84.872,84.872,0,1,0,18.81,27.833A84.315,84.315,0,0,0,686.8,591.8ZM704,683.653a82.686,82.686,0,1,1-.152-63.284A82.143,82.143,0,0,1,704,683.653Z" fill="#00a1c6" opacity="0.1"/><path d="M638.292,673.12l.019.039c.731,1.543,1.515,3.064,2.336,4.532,4.032,6.973,8.873,11.667,14.387,13.95a26.507,26.507,0,0,0,12.919,1.557l.782-.08.072-.783a26.712,26.712,0,0,0-1.667-12.8c-2.827-6.779-9.152-12.444-18.8-16.837l-.062-.026c-1.218-.455-2.294-.882-3.287-1.305-.236-.1-.47-.208-.7-.315l-.466-.212-.055-.022a85.927,85.927,0,0,0-9.319-2.885l-1.538-.381.382,1.538a75.663,75.663,0,0,0,2.394,7.789l.014.038.017.037c.961,2.057,1.822,4.117,2.56,6.122Zm-2.739-12.926c2.535.681,5.058,1.488,7.52,2.406l.422.191c.248.114.495.227.748.336,1.013.431,2.106.865,3.337,1.326,9.177,4.185,15.165,9.508,17.8,15.821a24.369,24.369,0,0,1,1.59,11.1,24.145,24.145,0,0,1-11.2-1.494c-5.117-2.119-9.647-6.54-13.458-13.13-.787-1.406-1.544-2.875-2.252-4.367-.748-2.031-1.619-4.114-2.589-6.193C636.744,664.22,636.1,662.211,635.553,660.194Z" fill="#00a1c6" opacity="0.1"/><path d="M586.532,692.612l.08.782.783.071a26.714,26.714,0,0,0,12.8-1.667c6.689-2.79,12.3-8.985,16.664-18.415l.03-.072c.481-1.307.952-2.5,1.439-3.645.151-.351.31-.7.469-1.046.074-.163.149-.326.223-.49l.026-.063a85.851,85.851,0,0,0,2.75-8.959l.382-1.539-1.539.383a75.614,75.614,0,0,0-7.95,2.453l-.035.013-.034.016c-1.9.878-3.813,1.677-5.69,2.372l-.037.014-.036.017c-1.649.773-3.264,1.6-4.814,2.468-6.974,4.033-11.667,8.873-13.95,14.387A26.512,26.512,0,0,0,586.532,692.612Zm16.45-25.647c1.488-.833,3.051-1.634,4.645-2.383,1.9-.7,3.837-1.513,5.756-2.4,2.018-.745,4.081-1.406,6.153-1.971-.649,2.415-1.412,4.818-2.274,7.164-.068.15-.136.3-.205.451-.165.361-.331.722-.488,1.09-.5,1.166-.975,2.376-1.462,3.7-4.159,8.963-9.424,14.823-15.651,17.42a24.381,24.381,0,0,1-11.1,1.591,24.138,24.138,0,0,1,1.494-11.205C591.971,675.3,596.393,670.775,602.982,666.965Z" fill="#00a1c6" opacity="0.1"/><path d="M616.909,631.547l-.017-.036c-.771-1.647-1.6-3.262-2.468-4.814-4.032-6.974-8.873-11.667-14.386-13.95a26.459,26.459,0,0,0-12.851-1.564l-.783.078-.072.784A26.736,26.736,0,0,0,588,624.862c2.8,6.725,9.053,12.356,18.571,16.735l.067.028c1.256.465,2.378.91,3.429,1.357.3.128.594.264.89.4.166.076.333.153.5.228l.059.024a85.877,85.877,0,0,0,9.107,2.813l1.54.384-.383-1.54a75.482,75.482,0,0,0-2.452-7.946l-.014-.036-.015-.034c-.879-1.9-1.678-3.814-2.373-5.69Zm.638,6.494c.745,2.016,1.406,4.077,1.97,6.147-2.465-.664-4.917-1.447-7.31-2.334l-.459-.209c-.309-.141-.619-.283-.934-.418-1.072-.456-2.21-.908-3.481-1.379-9.05-4.17-14.963-9.46-17.574-15.721a24.377,24.377,0,0,1-1.589-11.115,24.084,24.084,0,0,1,11.137,1.5c5.117,2.119,9.647,6.54,13.458,13.13.833,1.489,1.634,3.051,2.382,4.645C615.852,634.184,616.66,636.12,617.547,638.041Z" fill="#00a1c6" opacity="0.1"/><path d="M664.595,707.979a62.488,62.488,0,0,0,3.246-9.785l.292-1.244-1.276.073a30.08,30.08,0,0,1-13.088-1.97h0a29.1,29.1,0,0,1-10.5-7.565l-1.785-1.959.127,2.647a29.942,29.942,0,0,1-1.979,12.742,29.24,29.24,0,0,1-7.82,10.746l-.958.856,1.1.67a60.738,60.738,0,0,0,9.257,4.552,86.071,86.071,0,0,0,11.721,3.655c1.025.222,2.052.436,3.234.674l.608.122.359-.506c.474-.669,1.054-1.563,1.824-2.813A85.941,85.941,0,0,0,664.595,707.979Zm-8.677,12.095c-.92-.187-1.754-.362-2.574-.539a84.023,84.023,0,0,1-11.441-3.569,60.8,60.8,0,0,1-7.872-3.758,29.241,29.241,0,0,0,9.521-21.688,29.914,29.914,0,0,0,9.5,6.3h0a31.442,31.442,0,0,0,12.626,2.158,62.683,62.683,0,0,1-2.839,8.252,84.133,84.133,0,0,1-5.516,10.641C656.758,718.791,656.3,719.506,655.918,720.074Z" fill="#00a1c6" opacity="0.1"/><path d="M592.3,667.866l1.967-1.785-2.653.125a29.926,29.926,0,0,1-12.708-1.98,29.265,29.265,0,0,1-10.781-7.855l-.853-.958-.672,1.093a60.516,60.516,0,0,0-4.614,9.355,85.888,85.888,0,0,0-3.655,11.721c-.291,1.344-.524,2.49-.674,3.234l-.122.608.505.359c.669.474,1.563,1.054,2.814,1.824a85.943,85.943,0,0,0,10.894,5.647,62.528,62.528,0,0,0,9.785,3.245l1.244.292-.072-1.276a30.085,30.085,0,0,1,1.969-13.088A29.145,29.145,0,0,1,592.3,667.866Zm-11.553,22.47A62.535,62.535,0,0,1,572.5,687.5a83.957,83.957,0,0,1-10.642-5.516c-.916-.565-1.632-1.021-2.2-1.4.141-.694.325-1.583.54-2.574a83.935,83.935,0,0,1,3.569-11.441,60.589,60.589,0,0,1,3.816-7.97,29.242,29.242,0,0,0,21.686,9.557,29.963,29.963,0,0,0-6.359,9.561A31.447,31.447,0,0,0,580.749,690.336Z" fill="#00a1c6" opacity="0.1"/><path d="M603.091,579.431a89.549,89.549,0,0,1,12.194,3.822,62.54,62.54,0,0,1,11.693,5.936l.53.351.528-.354c1.027-.688,1.993-1.293,2.946-1.845a78.756,78.756,0,0,1,20.317-8.015q.552-.133,1.083-.258l3.285-.769-3.2-1.066a78.66,78.66,0,0,0-50.36.165l-3.2,1.092,3.633.817C602.718,579.347,602.9,579.387,603.091,579.431Zm45.532-1.389a80.627,80.627,0,0,0-18.589,7.642c-.831.481-1.664,1-2.533,1.566a65.331,65.331,0,0,0-11.518-5.774,91.4,91.4,0,0,0-10.032-3.295A76.163,76.163,0,0,1,648.623,578.042Z" fill="#00a1c6" opacity="0.1"/><path d="M558.959,617.794l.005,0a78.719,78.719,0,0,1,19.945-8.9c1.1-.29,2.259-.554,3.55-.8l.628-.122.126-.627a64.217,64.217,0,0,1,3.955-12.383,89.6,89.6,0,0,1,5.864-11.349c.1-.161.194-.31.288-.46L595.293,580l-3.03,1.509a78.657,78.657,0,0,0-35.488,35.566l-1.5,3.023,2.86-1.79C558.406,618.137,558.678,617.967,558.959,617.794Zm31.156-33.005a91.52,91.52,0,0,0-4.7,9.417,67.057,67.057,0,0,0-3.942,12.133c-1.089.222-2.1.456-3.07.715a80.63,80.63,0,0,0-18.334,7.84A76.177,76.177,0,0,1,590.115,584.789Z" fill="#00a1c6" opacity="0.1"/><path d="M651.98,724.957a89.608,89.608,0,0,1-12.194-3.822,62.66,62.66,0,0,1-11.592-5.872l-.53-.349-.527.354c-1.05.706-2.03,1.32-2.984,1.872a78.7,78.7,0,0,1-20.381,7.921q-.552.135-1.083.259l-3.285.769,3.2,1.066a78.66,78.66,0,0,0,50.36-.165l3.2-1.092-3.635-.818C652.351,725.041,652.171,725,651.98,724.957Zm-45.51,1.4A80.683,80.683,0,0,0,625.1,718.8c.84-.486,1.688-1.012,2.578-1.6a65.418,65.418,0,0,0,11.413,5.709,91.565,91.565,0,0,0,10.033,3.295A76.162,76.162,0,0,1,606.47,726.353Z" fill="#00a1c6" opacity="0.1"/><path d="M569.984,651.756l-.5.608.5.609a26.764,26.764,0,0,0,10.233,7.944c5.485,2.27,12.228,2.343,20.042.214l.014,0c2.116-.612,4.3-1.358,6.5-2.216l.019-.007.019-.009c1.224-.54,2.312-.993,3.326-1.387l.023-.009.023-.01a75.518,75.518,0,0,0,8.348-4.405l1.355-.825-1.364-.81a86.054,86.054,0,0,0-9.5-4.877l-.035-.014c-.063-.025-.127-.048-.19-.071s-.108-.039-.164-.061c-.748-.293-1.5-.6-2.289-.94l-.037-.015c-10.408-3.956-19.191-4.5-26.107-1.615A26.806,26.806,0,0,0,569.984,651.756Zm37.948-3.554c.069.027.139.053.208.078l.134.05a83.752,83.752,0,0,1,7.873,3.949,73.273,73.273,0,0,1-6.728,3.459c-.516.2-1.049.415-1.609.648s-1.14.483-1.756.755c-2.132.833-4.254,1.556-6.306,2.151-7.393,2.012-13.719,1.965-18.8-.139a24.387,24.387,0,0,1-8.976-6.788,24.494,24.494,0,0,1,8.962-6.748c6.446-2.688,14.748-2.139,24.676,1.632C606.411,647.593,607.173,647.905,607.932,648.2Z" fill="#00a1c6" opacity="0.1"/><path d="M566.254,647.662c.079.125.158.25.236.377l.675,1.1.855-.972a29.427,29.427,0,0,1,10.7-7.914,28.978,28.978,0,0,1,12.453-2.044l2.621.11-1.938-1.768a27.594,27.594,0,0,1-9.416-23.346l.077-1.292-1.257.308c-.146.036-.291.07-.436.1-.266.061-.541.125-.84.207a75.267,75.267,0,0,0-19.01,8.5c-1.024.634-2.054,1.3-3.061,1.968l-.523.349.114.618c.163.878.408,1.98.793,3.565a75.334,75.334,0,0,0,7.535,19.433C565.967,647.207,566.111,647.434,566.254,647.662Zm-6.1-20.572c-.292-1.2-.5-2.111-.652-2.851.819-.539,1.65-1.07,2.481-1.584a73.393,73.393,0,0,1,18.5-8.275,30.608,30.608,0,0,0,2.205,12.658,30.149,30.149,0,0,0,6.159,9.246,29.915,29.915,0,0,0-10.859,2.212,30.788,30.788,0,0,0-10.529,7.464A73.37,73.37,0,0,1,560.151,627.09Z" fill="#00a1c6" opacity="0.1"/><path d="M598.344,721.82l.349.522.618-.114c.877-.162,1.979-.407,3.565-.793a75.264,75.264,0,0,0,19.433-7.534c.24-.139.469-.283.7-.427.124-.078.249-.157.375-.234l1.1-.676-.971-.855a29.405,29.405,0,0,1-7.914-10.7,28.975,28.975,0,0,1-2.045-12.442l.11-2.617-1.768,1.933a27.582,27.582,0,0,1-23.347,9.4l-1.292-.078.308,1.258c.036.146.069.291.1.436.063.269.127.547.205.834l0,.015a75.314,75.314,0,0,0,8.5,19.009C597.009,719.782,597.671,720.812,598.344,721.82Zm-8.624-22.575A30.6,30.6,0,0,0,602.4,697.04a30.1,30.1,0,0,0,9.229-6.144,29.882,29.882,0,0,0,2.212,10.851,30.769,30.769,0,0,0,7.464,10.53,73.433,73.433,0,0,1-18.87,7.3c-1.2.292-2.112.5-2.851.652-.54-.82-1.071-1.651-1.584-2.481A73.367,73.367,0,0,1,589.72,699.245Z" fill="#00a1c6" opacity="0.1"/><path d="M590.542,596.422a62.587,62.587,0,0,0-3.238,9.749l-.293,1.244,1.276-.072a30.078,30.078,0,0,1,13.067,1.97,29.1,29.1,0,0,1,10.509,7.572l1.777,1.95-.118-2.636a29.9,29.9,0,0,1,1.981-12.633,29.28,29.28,0,0,1,7.874-10.8l.959-.855-1.095-.672a60.736,60.736,0,0,0-9.306-4.583A86.13,86.13,0,0,0,602.213,583c-1.029-.223-2.056-.437-3.234-.674l-.608-.122-.358.506c-.473.666-1.053,1.559-1.825,2.813A85.961,85.961,0,0,0,590.542,596.422Zm8.677-12.1c.918.187,1.751.362,2.574.54a84.023,84.023,0,0,1,11.441,3.569,60.694,60.694,0,0,1,7.919,3.786,29.242,29.242,0,0,0-9.57,21.637,29.941,29.941,0,0,0-9.512-6.314,31.424,31.424,0,0,0-12.6-2.158,62.8,62.8,0,0,1,2.831-8.218,84.212,84.212,0,0,1,5.516-10.642C598.38,585.609,598.836,584.894,599.219,584.326Z" fill="#00a1c6" opacity="0.1"/><path d="M696.06,686.515l-.009.005a78.658,78.658,0,0,1-19.85,8.956c-1.1.292-2.279.558-3.6.812l-.629.121-.126.628a64.232,64.232,0,0,1-3.954,12.377,89.544,89.544,0,0,1-5.864,11.35c-.1.168-.2.326-.3.483l-1.976,3.155,3.029-1.506a78.667,78.667,0,0,0,35.6-35.744l1.488-3.018-2.851,1.788Q696.548,686.213,696.06,686.515Zm-13.633,19.833a76.5,76.5,0,0,1-17.495,13.264,91.42,91.42,0,0,0,4.719-9.448,67.025,67.025,0,0,0,3.94-12.125c1.118-.227,2.141-.464,3.112-.721l.023-.006a80.685,80.685,0,0,0,18.358-7.964A76.911,76.911,0,0,1,682.427,706.348Z" fill="#00a1c6" opacity="0.1"/><path d="M632.841,669.574l-.01-.023a75.629,75.629,0,0,0-4.4-8.348l-.825-1.354-.811,1.364A86.209,86.209,0,0,0,622,670.524l-.017.041c-.033.086-.065.172-.1.259s-.065.178-.1.268c-.3.772-.636,1.582-1.022,2.475l-.017.041c-3.893,10.33-4.414,19.052-1.548,25.924a26.821,26.821,0,0,0,7.9,10.214l.608.5.609-.5a26.748,26.748,0,0,0,7.943-10.232c2.271-5.485,2.343-12.228.211-20.056-.613-2.117-1.358-4.3-2.216-6.5l-.008-.019-.008-.019c-.541-1.226-.995-2.314-1.387-3.327Zm-.359,4.1c.834,2.134,1.559,4.257,2.149,6.3,2.015,7.4,1.969,13.725-.136,18.81a24.405,24.405,0,0,1-6.788,8.976,24.5,24.5,0,0,1-6.748-8.962c-2.67-6.4-2.144-14.645,1.565-24.495.39-.906.73-1.729,1.037-2.513.041-.1.079-.207.117-.311.025-.069.05-.139.077-.208a83.96,83.96,0,0,1,3.866-7.688,73.41,73.41,0,0,1,3.458,6.728C631.478,671.339,631.937,672.44,632.482,673.676Z" fill="#00a1c6" opacity="0.1"/><path d="M648.332,692.784q2.445.927,4.8,2.071a53.488,53.488,0,0,1,61.682-29.7q.406-2.847.632-5.725a58.225,58.225,0,0,0-67.116,33.356Z" fill="#00a1c6"/><path d="M665.692,703.007a58.99,58.99,0,0,1,4.549,4.279,33.065,33.065,0,0,1,39.341-22.34q1.052-2.673,1.927-5.41a38.765,38.765,0,0,0-45.817,23.471Z" fill="#00a1c6"/><path d="M674.241,711.932a58.948,58.948,0,0,1,5.471,8.492A22.36,22.36,0,0,1,704.9,694.97q1.433-2.622,2.685-5.334a28.067,28.067,0,0,0-33.34,22.3Z" fill="#00a1c6"/><path d="M657.286,697.065q2.5,1.46,4.853,3.162a43.1,43.1,0,0,1,50.592-24.859q.735-2.76,1.3-5.568a48.8,48.8,0,0,0-56.741,27.265Z" fill="#00a1c6"/><path d="M662.482,568.44a91.2,91.2,0,1,1-69.806.166A90.607,90.607,0,0,1,662.482,568.44Zm43.378,51.786a84.595,84.595,0,1,0-133.233,96.757,59.285,59.285,0,0,1,100.868,7.009A84.642,84.642,0,0,0,705.86,620.226ZM664.385,729.052q2.125-1.017,4.178-2.144a53.566,53.566,0,0,0-91.462-6.35q1.884,1.4,3.844,2.705a48.864,48.864,0,0,1,83.44,5.789Zm-9.357,3.821q2.068-.708,4.111-1.524a43.157,43.157,0,0,0-73.314-5.092q1.9,1.08,3.868,2.068a38.81,38.81,0,0,1,65.335,4.548Zm-10.766,2.914q2.592-.52,5.163-1.213a33.1,33.1,0,0,0-54.407-3.8c.192.082.384.167.579.247q2.171.894,4.372,1.656a28.095,28.095,0,0,1,44.293,3.111Zm-6.4,1.026a22.372,22.372,0,0,0-31.713-2.232A83.777,83.777,0,0,0,637.867,736.813Z" fill="#007cad"/><path d="M668.563,726.908q-2.054,1.122-4.178,2.144a48.864,48.864,0,0,0-83.44-5.789q-1.964-1.3-3.844-2.705a53.566,53.566,0,0,1,91.462,6.35Z" fill="#00a1c6"/><path d="M659.139,731.349q-2.041.817-4.111,1.524a38.81,38.81,0,0,0-65.335-4.548q-1.968-.987-3.868-2.068a43.157,43.157,0,0,1,73.314,5.092Z" fill="#00a1c6"/><path d="M649.425,734.574q-2.568.689-5.163,1.213a28.095,28.095,0,0,0-44.293-3.111q-2.2-.765-4.372-1.656c-.2-.08-.387-.165-.579-.247a33.1,33.1,0,0,1,54.407,3.8Z" fill="#00a1c6"/><path d="M612.288,730.755a22.421,22.421,0,0,1,25.579,6.058,83.777,83.777,0,0,1-31.713-2.232A22.242,22.242,0,0,1,612.288,730.755Z" fill="#00a1c6"/><path d="M659.968,574.553A84.622,84.622,0,0,1,673.495,723.99a59.286,59.286,0,0,0-100.867-7.006,84.618,84.618,0,0,1,87.34-142.431Z" fill="none"/><path d="M536.188,574.961l28.3,67.865,1.707-1.449c.019-.015,1.5-1.267,4.173-3.136l4.288,10.284,1.733-2a55.6,55.6,0,0,1,4.254-4.209l2.579,6.183,1.727-2.218a63.214,63.214,0,0,1,6.92-7.275,64.791,64.791,0,0,0-8.823,21.421l-.124.6.248.559c3.207,7.22,8.767,13.335,16.386,18.118a32.428,32.428,0,0,0,15.734,4.887c7.181.334,18.755,1.461,25.918,4.891l.011-.022q.946.463,1.886.971h0c.21-.7.435-1.388.664-2.066h.005c.056-.167.11-.333.166-.5.382-1.1.784-2.158,1.208-3.194,2.921-6.877,7.891-13.332,11.854-17.819a38.556,38.556,0,0,0,9.437-30.768,36.675,36.675,0,0,0-2.162-8.322l-.223-.569-.516-.336a65.046,65.046,0,0,0-22.31-9,64.1,64.1,0,0,1,11.652.088l2.792.333-2.693-6.458a58.986,58.986,0,0,1,6.885-.114l2.64.183-4.257-10.209c2.956-.517,4.738-.678,4.758-.679l2.231-.194-28.3-67.865-.859-.168c-11.483-2.246-23.811.766-35.653,8.7a74.794,74.794,0,0,0-14,12.136,74.957,74.957,0,0,0-18.478,1.408c-13.97,2.826-24.788,9.467-31.276,19.207Zm29.634,62.545-25.93-62.178c7.612-10.847,19.759-15.277,28.653-17.085a73.541,73.541,0,0,1,17.409-1.369l3.164,7.451,19.057,46.565-7.051,7.548.517,1.163c.042.084.167.368.375.833a81.745,81.745,0,0,0-14.386,4.547A102.387,102.387,0,0,0,565.822,637.506Zm9.866,4.983-2.554-6.124C580.146,631.8,590.922,626,603.41,623.49l.381.831a.132.132,0,0,0-.035.032q-1.483.544-2.9,1.138A79.174,79.174,0,0,0,575.688,642.489Zm20.186,29.77a35.179,35.179,0,0,1-8.937-11.671c3.545-16.266,14.387-28.387,18.564-32.57,2.114,4.528,5.294,11.247,9.116,19-.777.566-1.581,1.2-2.481,1.95-1.09.911-2.206,1.927-3.315,3.021a57.223,57.223,0,0,0-5.853,6.753c-.848,1.153-1.683,2.4-2.5,3.7-.885,1.478-1.57,2.721-2.163,3.915A46.459,46.459,0,0,0,595.874,672.259Zm-11.745-30.1-.876-2.1a79.206,79.206,0,0,1,14.563-9.567A60.319,60.319,0,0,0,584.129,642.161Zm15.3,32.884c-.821-.573-1.641-1.192-2.443-1.844a45.472,45.472,0,0,1,2.725-6.118c.6-1.139,1.306-2.32,2.212-3.715.823-1.242,1.676-2.418,2.519-3.5a55.716,55.716,0,0,1,5.854-6.331c1.095-1.015,2.2-1.956,3.272-2.8.754-.589,1.451-1.1,2.113-1.569,2.8,5.641,5.607,11.147,8.344,16.381-.369.3-.755.62-1.157.97-.743.65-1.467,1.335-2.159,2.041a37.4,37.4,0,0,0-3.809,4.545,30.509,30.509,0,0,0-2.968,5.14q-.4.853-.731,1.764h-.067a19.047,19.047,0,0,1-9.791-2.488Q601.282,676.349,599.432,675.045Zm15.4,4.958c.164-.363.334-.722.514-1.071a29.3,29.3,0,0,1,3.046-4.711,34.957,34.957,0,0,1,3.81-4.122c.68-.631,1.4-1.243,2.128-1.821.267-.21.538-.417.806-.617,2.684,5.091,5.329,9.952,7.893,14.528A76.6,76.6,0,0,0,614.835,680Zm-9.166-60.8,4.756-5.092,29.276,70.2q-.67-.256-1.343-.5C622.712,656.425,608.826,626.172,605.669,619.2Zm35.439,64.387L611.881,613.5l6.961.2c.369.959.943,2.47,1.682,4.453l-.044.011.213.613c.129.36,12.831,36.683,19.123,56.852.654,2.24,1.28,4.441,1.879,6.584Q641.391,682.9,641.108,683.585ZM592.133,563.057l-3.059-7.485a73.419,73.419,0,0,1,13.221-11.4c7.541-5.046,19.237-10.558,32.3-8.334l25.93,62.178c-6.117.863-23.219,4.055-38.188,14.093-.228-.6-.357-.931-.376-.976l-.464-1.189-9.568-.279Zm52.158,114.068c-.251-.818-.515-1.68-.8-2.589-1.19-4.075-2.49-8.371-3.874-12.765.149-.02.3-.035.454-.056.925-.112,1.864-.191,2.794-.232a34.913,34.913,0,0,1,5.607.2,29.334,29.334,0,0,1,5.486,1.15c.254.08.511.166.766.256A79.951,79.951,0,0,0,644.291,677.125Zm-5.383-17.6c-1.788-5.633-3.731-11.513-5.775-17.491.648-.112,1.336-.21,2.051-.3,1.353-.171,2.8-.29,4.289-.357a55.878,55.878,0,0,1,8.618.3c1.365.161,2.8.387,4.269.672,1.619.339,2.953.67,4.186,1.044a45.55,45.55,0,0,1,6.235,2.357c-.122,1.23-.3,2.479-.536,3.738a24.243,24.243,0,0,1-6.338,12.344l-.066.07c-.458-.2-.914-.384-1.374-.553a30.718,30.718,0,0,0-5.735-1.5,37.359,37.359,0,0,0-5.91-.493c-.982-.008-1.982.027-2.973.1C639.517,659.469,639.2,659.491,638.908,659.523Zm-6.553-19.759c-2.8-8.127-5.321-15.081-7.049-19.756,5.877.043,21.921,1.029,35.62,9.725a35.173,35.173,0,0,1,1.978,14.552,47.1,47.1,0,0,0-5.882-2.41c-1.27-.421-2.631-.807-4.294-1.212-1.509-.346-2.988-.627-4.4-.839a57.154,57.154,0,0,0-8.916-.593c-1.555.016-3.065.1-4.479.229C633.994,639.547,633.142,639.649,632.355,639.764Zm-8.329-23.818-.2.092c-.1-.273-.2-.538-.3-.791,10.837-7.445,22.959-11.129,31.44-12.926l2.524,6.052A79.71,79.71,0,0,0,624.026,615.946Zm7.834.244a78.357,78.357,0,0,1,17.7-4.063l.976,2.34A59.3,59.3,0,0,0,631.86,616.19Z" fill="#007cad"/><path d="M539.892,575.328l25.93,62.178a102.387,102.387,0,0,1,21.808-12.525,81.745,81.745,0,0,1,14.386-4.547c-.208-.465-.333-.749-.375-.833l-.517-1.163,7.051-7.548-19.057-46.565-3.164-7.451a73.541,73.541,0,0,0-17.409,1.369C559.651,560.051,547.5,564.481,539.892,575.328Z" fill="#00a1c6"/><path d="M573.134,636.365l2.554,6.124a79.174,79.174,0,0,1,25.164-17q1.421-.593,2.9-1.138a.132.132,0,0,1,.035-.032l-.381-.831C590.922,626,580.146,631.8,573.134,636.365Z" fill="#00a1c6"/><path d="M586.937,660.588a35.179,35.179,0,0,0,8.937,11.671,46.459,46.459,0,0,1,2.434-5.9c.593-1.194,1.278-2.437,2.163-3.915.814-1.3,1.649-2.551,2.5-3.7a57.223,57.223,0,0,1,5.853-6.753c1.109-1.094,2.225-2.11,3.315-3.021.9-.754,1.7-1.384,2.481-1.95-3.822-7.752-7-14.471-9.116-19C601.324,632.2,590.482,644.322,586.937,660.588Z" fill="#00a1c6"/><path d="M583.253,640.06l.876,2.1a60.319,60.319,0,0,1,13.687-11.668A79.206,79.206,0,0,0,583.253,640.06Z" fill="#00a1c6"/><path d="M596.989,673.2c.8.652,1.622,1.271,2.443,1.844q1.848,1.3,3.914,2.48a19.047,19.047,0,0,0,9.791,2.488h.067q.336-.909.731-1.764a30.509,30.509,0,0,1,2.968-5.14,37.4,37.4,0,0,1,3.809-4.545c.692-.706,1.416-1.391,2.159-2.041.4-.35.788-.669,1.157-.97-2.737-5.234-5.542-10.74-8.344-16.381-.662.465-1.359.98-2.113,1.569-1.074.84-2.177,1.781-3.272,2.8a55.716,55.716,0,0,0-5.854,6.331c-.843,1.082-1.7,2.258-2.519,3.5-.906,1.4-1.609,2.576-2.212,3.715A45.472,45.472,0,0,0,596.989,673.2Z" fill="#00a1c6"/><path d="M615.349,678.932c-.18.349-.35.708-.514,1.071a76.6,76.6,0,0,1,18.2,2.186c-2.564-4.576-5.209-9.437-7.893-14.528-.268.2-.539.407-.806.617-.731.578-1.448,1.19-2.128,1.821a34.957,34.957,0,0,0-3.81,4.122A29.3,29.3,0,0,0,615.349,678.932Z" fill="#00a1c6"/><path d="M610.425,614.106l-4.756,5.092c3.157,6.974,17.043,37.227,32.689,64.607q.672.247,1.343.5Z" fill="#00a1c6"/><path d="M611.881,613.5l29.227,70.086q.282-.686.587-1.368c-.6-2.143-1.225-4.344-1.879-6.584-6.292-20.169-18.994-56.492-19.123-56.852l-.213-.613.044-.011c-.739-1.983-1.313-3.494-1.682-4.453Z" fill="#80edff"/><path d="M589.074,555.572l3.059,7.485,19.8,46.6,9.568.279.464,1.189c.019.045.148.38.376.976,14.969-10.038,32.071-13.23,38.188-14.093L634.6,535.834c-13.066-2.224-24.762,3.288-32.3,8.334A73.419,73.419,0,0,0,589.074,555.572Z" fill="#80edff"/><path d="M643.491,674.536c.285.909.549,1.771.8,2.589a79.951,79.951,0,0,1,10.433-14.041c-.255-.09-.512-.176-.766-.256a29.334,29.334,0,0,0-5.486-1.15,34.913,34.913,0,0,0-5.607-.2c-.93.041-1.869.12-2.794.232-.153.021-.3.036-.454.056C641,666.165,642.3,670.461,643.491,674.536Z" fill="#80edff"/><path d="M633.133,642.032c2.044,5.978,3.987,11.858,5.775,17.491.295-.032.609-.054.941-.08.991-.073,1.991-.108,2.973-.1a37.359,37.359,0,0,1,5.91.493,30.718,30.718,0,0,1,5.735,1.5c.46.169.916.355,1.374.553l.066-.07a24.243,24.243,0,0,0,6.338-12.344c.236-1.259.414-2.508.536-3.738a45.55,45.55,0,0,0-6.235-2.357c-1.233-.374-2.567-.705-4.186-1.044-1.47-.285-2.9-.511-4.269-.672a55.878,55.878,0,0,0-8.618-.3c-1.491.067-2.936.186-4.289.357C634.469,641.822,633.781,641.92,633.133,642.032Z" fill="#80edff"/><path d="M625.306,620.008c1.728,4.675,4.25,11.629,7.049,19.756.787-.115,1.639-.217,2.579-.3,1.414-.133,2.924-.213,4.479-.229a57.154,57.154,0,0,1,8.916.593c1.411.212,2.89.493,4.4.839,1.663.4,3.024.791,4.294,1.212a47.1,47.1,0,0,1,5.882,2.41,35.173,35.173,0,0,0-1.978-14.552C647.227,621.037,631.183,620.051,625.306,620.008Z" fill="#80edff"/><path d="M623.829,616.038l.2-.092a79.71,79.71,0,0,1,33.469-7.573l-2.524-6.052c-8.481,1.8-20.6,5.481-31.44,12.926C623.63,615.5,623.726,615.765,623.829,616.038Z" fill="#80edff"/><path d="M649.563,612.127a78.357,78.357,0,0,0-17.7,4.063,59.3,59.3,0,0,1,18.679-1.723Z" fill="#80edff"/><path d="M710.481,493.458,672.3,824.894l59.355-31.945,18.653-217.8-15.162-66.692Z" opacity="0.15" style="mix-blend-mode:multiply;isolation:isolate"/><rect width="312.631" height="68.691" transform="translate(779.172 493.458) rotate(90)" fill="#2da8cd"/><rect width="68.691" height="5.107" transform="translate(710.481 800.982)" fill="#0094be"/><rect width="68.691" height="5.107" transform="translate(710.481 800.982)" fill="#0094be"/><rect width="68.691" height="5.107" transform="translate(710.481 800.982)" fill="#0094be"/><path d="M710.481,728.338v77.751h68.691V728.338C779.172,739.138,710.481,739.138,710.481,728.338Z" fill="#23a5cb"/><ellipse cx="16.113" cy="15.756" rx="16.113" ry="15.756" transform="translate(728.714 753.552)" fill="#fff"/></g></svg>