<svg xmlns="http://www.w3.org/2000/svg" width="43.347" height="43.347" viewBox="0 0 43.347 43.347"><path d="M839.828,2096.362a21.674,21.674,0,1,0-21.742,21.6A21.674,21.674,0,0,0,839.828,2096.362Zm-19.071,16.662-5.933-.019-.495,0c.017-5.587.035-11.127.053-16.7l-3.267-.011c-.012-.151-.03-.272-.029-.394,0-1.708.017-3.416.008-5.124,0-.316.083-.419.409-.41.947.024,1.894.013,2.893.017,0-.184,0-.333,0-.482.022-1.412-.042-2.833.088-4.235a6.049,6.049,0,0,1,3.627-5.439,7.158,7.158,0,0,1,2.488-.59c1.973-.079,3.951-.015,5.956-.008-.006,1.888-.012,3.768-.018,5.711h-.4c-1.027,0-2.055-.01-3.082-.009-1.168,0-1.679.487-1.7,1.649-.021,1.127-.011,2.255-.015,3.418l5.291.017c-.209,1.984-.414,3.928-.623,5.906l-4.688-.015v.521q-.025,7.841-.051,15.681C821.274,2113.025,821.273,2113.025,820.757,2113.024Z" transform="translate(-796.481 -2074.619)" fill="#00a1c6"/></svg>