<svg xmlns="http://www.w3.org/2000/svg" width="60.137" height="58.055" viewBox="0 0 60.137 58.055"><g transform="translate(-803.782 -1864.067)"><path d="M833.851,1913.233a1.4,1.4,0,0,0-1.4,1.4v6.086a1.4,1.4,0,1,0,2.8,0v-6.086A1.4,1.4,0,0,0,833.851,1913.233Z" fill="#007cad"/><path d="M833.851,1891.452a8.448,8.448,0,1,0,8.448,8.449A8.458,8.458,0,0,0,833.851,1891.452Zm1,14.005v.169h-1a6.194,6.194,0,1,1,1-.169Z" fill="#007cad"/><path d="M833.851,1864.067a1.4,1.4,0,0,0-1.4,1.4v19.7a1.4,1.4,0,1,0,2.8,0v-19.7A1.4,1.4,0,0,0,833.851,1864.067Z" fill="#007cad"/><path d="M812.23,1864.067a1.4,1.4,0,0,0-1.4,1.4v6.085a1.4,1.4,0,1,0,2.8,0v-6.085A1.4,1.4,0,0,0,812.23,1864.067Z" fill="#007cad"/><path d="M812.23,1877.839a8.448,8.448,0,1,0,8.448,8.449A8.458,8.458,0,0,0,812.23,1877.839Zm1,14.005v.169h-1a6.194,6.194,0,1,1,1-.169Z" fill="#007cad"/><path d="M812.23,1899.62a1.4,1.4,0,0,0-1.4,1.4v19.7a1.4,1.4,0,1,0,2.8,0v-19.7A1.4,1.4,0,0,0,812.23,1899.62Z" fill="#007cad"/><path d="M855.471,1864.067a1.4,1.4,0,0,0-1.4,1.4v6.085a1.4,1.4,0,1,0,2.8,0v-6.085A1.4,1.4,0,0,0,855.471,1864.067Z" fill="#007cad"/><path d="M855.471,1877.839a8.448,8.448,0,1,0,8.448,8.449A8.458,8.458,0,0,0,855.471,1877.839Zm1,14.005v.169h-1a6.194,6.194,0,1,1,1-.169Z" fill="#007cad"/><path d="M855.471,1899.62a1.4,1.4,0,0,0-1.4,1.4v19.7a1.4,1.4,0,1,0,2.8,0v-19.7A1.4,1.4,0,0,0,855.471,1899.62Z" fill="#007cad"/></g></svg>