<svg xmlns="http://www.w3.org/2000/svg" width="72.067" height="72.067" viewBox="0 0 72.067 72.067"><path d="M728.536,1860.507a11.806,11.806,0,0,0-8.7-3.441l-13.266.429a11.778,11.778,0,0,0-7.973,3.454l-32.231,32.232a7.163,7.163,0,0,0,0,10.118l23.737,23.737a7.164,7.164,0,0,0,10.118,0l32.231-32.232a11.77,11.77,0,0,0,3.455-7.972l.429-13.266a11.806,11.806,0,0,0-3.441-8.7Zm3.365,26.2a7.779,7.779,0,0,1-2.284,5.271L697.386,1924.2a3.154,3.154,0,0,1-4.456,0l-23.736-23.736a3.154,3.154,0,0,1,0-4.456l32.231-32.231a7.778,7.778,0,0,1,5.27-2.284l13.267-.429a7.792,7.792,0,0,1,5.743,2.27l4.355,4.355a7.792,7.792,0,0,1,2.27,5.743Zm-21-16.156a8.452,8.452,0,1,0,11.953,0h0A8.461,8.461,0,0,0,710.9,1870.546Zm9.122,9.121a4.448,4.448,0,1,1,0-6.29h0A4.453,4.453,0,0,1,720.024,1879.667Z" transform="translate(-664.27 -1857.06)" fill="#00a1c6"/></svg>