<svg xmlns="http://www.w3.org/2000/svg" width="127.428" height="166.211" viewBox="0 0 127.428 166.211"><g transform="translate(-894.52 -1110.763)"><path d="M957.575,1232.568a2.75,2.75,0,0,0,1.341,0c.947-.235,22.15-5.728,24.114-22.333a13.875,13.875,0,0,0,11.217-13.6v-27.7a13.88,13.88,0,0,0-11.22-13.6c-1.983-16.6-23.167-22.095-24.111-22.33a2.74,2.74,0,0,0-1.341,0c-.945.235-22.145,5.726-24.115,22.328a13.869,13.869,0,0,0-11.238,13.6v27.7a13.876,13.876,0,0,0,11.241,13.6C935.449,1226.84,956.63,1232.333,957.575,1232.568Zm-29.813-35.929v-27.7a8.323,8.323,0,0,1,8.322-8.31,2.772,2.772,0,0,0,2.77-2.773c-.008-12.738,15.9-18.231,19.394-19.281,3.5,1.045,19.38,6.5,19.388,19.283a2.771,2.771,0,0,0,2.768,2.771,8.324,8.324,0,0,1,8.3,8.31v27.7a8.325,8.325,0,0,1-8.3,8.311,2.771,2.771,0,0,0-2.768,2.773c.012,12.731-15.887,18.225-19.391,19.277-3.5-1.055-19.38-6.548-19.391-19.283a2.778,2.778,0,0,0-2.781-2.767A8.321,8.321,0,0,1,927.762,1196.639Z" fill="#007cad"/><path d="M944.394,1207.714c.006,5.172,4.566,9.809,12.843,13.059a2.763,2.763,0,0,0,2.019,0c8.286-3.244,12.846-7.879,12.84-13.045a8.32,8.32,0,0,1,8.3-8.316,2.773,2.773,0,0,0,2.768-2.773l0-27.7a2.769,2.769,0,0,0-2.767-2.77,8.323,8.323,0,0,1-8.3-8.3c0-5.166-4.557-9.8-12.823-13.053a2.767,2.767,0,0,0-2.033,0c-8.286,3.28-12.849,7.909-12.846,13.042a8.317,8.317,0,0,1-8.321,8.313,2.772,2.772,0,0,0-2.771,2.77l.012,27.7a2.771,2.771,0,0,0,2.77,2.77A8.324,8.324,0,0,1,944.394,1207.714Zm1.482-40.068a13.96,13.96,0,0,0,4.059-9.8c0-2.859,4.133-5.651,8.33-7.465,5.213,2.227,8.291,4.986,8.291,7.482a13.883,13.883,0,0,0,11.067,13.563l0,22.723a13.878,13.878,0,0,0-11.069,13.583c0,2.49-3.081,5.249-8.308,7.468-5.225-2.227-8.311-4.992-8.313-7.493a13.875,13.875,0,0,0-11.081-13.56l-.011-22.727A13.922,13.922,0,0,0,945.876,1167.646Z" fill="#007cad"/><path d="M956.015,1195.528a2.771,2.771,0,0,0,4.438,0l8.311-11.125a2.764,2.764,0,0,0-.006-3.324l-8.311-11.036a2.869,2.869,0,0,0-4.426,0l-8.311,11.036a2.763,2.763,0,0,0-.005,3.324Zm2.219-19.214,4.848,6.438-4.848,6.488-4.848-6.488Z" fill="#007cad"/><path d="M922.222,1127.384h83.105v110.808H933.3a2.77,2.77,0,0,0,0,5.54H1008.1a2.77,2.77,0,0,0,2.771-2.77V1124.614a2.77,2.77,0,0,0-2.771-2.77H922.222a2.77,2.77,0,0,0,0,5.54Z" fill="#007cad"/><path d="M1016.408,1254.813h2.77a2.769,2.769,0,0,0,2.77-2.77V1113.534a2.769,2.769,0,0,0-2.77-2.771H908.371a13.867,13.867,0,0,0-13.851,13.851v138.509a13.866,13.866,0,0,0,13.851,13.851h110.807a2.77,2.77,0,0,0,0-5.54h-2.77Zm-116.348-130.2a8.32,8.32,0,0,1,8.311-8.31h108.037v132.969H908.371a13.831,13.831,0,0,0-2.571.26c-.266.05-.518.13-.776.2a13.822,13.822,0,0,0-1.648.512c-.282.108-.548.23-.82.355a13.334,13.334,0,0,0-1.446.786c-.241.15-.482.289-.712.452-.108.078-.232.136-.338.216Zm0,138.509a8.321,8.321,0,0,1,8.311-8.31h102.5v5.54H977.625a2.771,2.771,0,0,0,0,5.541h33.243v5.54h-102.5A8.321,8.321,0,0,1,900.06,1263.123Z" fill="#007cad"/><path d="M933.3,1260.353H911.141a2.771,2.771,0,0,0,0,5.541H933.3a2.771,2.771,0,1,0,0-5.541Z" fill="#007cad"/><path d="M964.578,1261.157a2.807,2.807,0,0,0,0,3.933,2.848,2.848,0,0,0,1.967.8,2.777,2.777,0,1,0-1.967-4.737Z" fill="#007cad"/><path d="M911.141,1127.384a2.742,2.742,0,1,0-1.967-.8A2.913,2.913,0,0,0,911.141,1127.384Z" fill="#007cad"/><path d="M922.222,1238.192h-8.311a2.77,2.77,0,0,0,0,5.54h8.311a2.77,2.77,0,0,0,0-5.54Z" fill="#007cad"/></g></svg>