<svg xmlns="http://www.w3.org/2000/svg" width="226.613" height="116.572" viewBox="0 0 226.613 116.572"><g transform="translate(-1199.262 -1157.56)"><path d="M1215.634,1260.689h81.92a3.653,3.653,0,0,0,3.655-3.656v-12.261q1.364,1.43,2.675,2.805,3.769,3.951,7.123,7.449a18.542,18.542,0,0,0,13.3,5.663h14.988a5.792,5.792,0,0,0,4.279-9.694l-15.8-17.322a39.648,39.648,0,0,0,9.9.979,21.851,21.851,0,0,0,4.4-.572l9.671,6.559-1.679,6.523a10.91,10.91,0,0,0,1.927,9.331,10.756,10.756,0,0,0,8.553,4.191h45.34a3.653,3.653,0,0,0,3.655-3.655v-35.934a3.657,3.657,0,0,0-3.906-3.648l-18.568,1.277a3.64,3.64,0,0,0-2.741,1.566l-12.1-2.543-7.425-7.6a11.238,11.238,0,0,0-.287-1.92c-6.046-23.887-19.718-39.772-40.647-47.216a60.623,60.623,0,0,0-20.181-3.448c-4.951,0-11.9,0-16.932.076a33.181,33.181,0,0,0-21.889,8.224c-8.222,6.983-11.574,15.97-10.249,27.476a3.59,3.59,0,0,0,.168.748l11.633,34.54h-50.788a3.653,3.653,0,0,0-3.655,3.655v24.754h0A3.658,3.658,0,0,0,1215.634,1260.689Zm186.6-7.311h-11.258v-27.6l11.258-.775Zm-32.6-28.706,14.033,2.951v25.755h-23.114a3.492,3.492,0,0,1-2.776-1.359,3.544,3.544,0,0,1-.626-3.029l2.322-9.013a3.653,3.653,0,0,0-1.486-3.936l-8.119-5.507c.061-.043.112-.1.173-.148a22.033,22.033,0,0,0,2.575-2.208c2.795-2.839,6.433-6.528,8.938-9.091a10.865,10.865,0,0,0,.833-.951l5.386,5.515A3.652,3.652,0,0,0,1369.636,1224.672Zm-94.666,6.44-13.131-38.987c-.928-8.831,1.542-15.415,7.807-20.734a25.953,25.953,0,0,1,17.164-6.445c5.054-.076,12.047-.051,16.877-.076a53.337,53.337,0,0,1,17.742,3.029c18.735,6.667,30.512,20.444,35.994,42.109a4.082,4.082,0,0,1,.12,1.045c-.017.1-.051.2-.059.3a4.588,4.588,0,0,1-.251,1.158c-.031.08-.063.16-.1.238a3.912,3.912,0,0,1-.23.463,4.121,4.121,0,0,1-.57.751c-2.512,2.571-6.138,6.25-8.928,9.079a14.438,14.438,0,0,1-1.869,1.564c-.165.12-.331.242-.5.354a14.3,14.3,0,0,1-2.006,1.108c-.173.078-.353.139-.528.21a14.464,14.464,0,0,1-5.025,1.067,35.728,35.728,0,0,1-15.692-3.377l11.406-12.369-5.373-4.956-12.2,13.226a8.7,8.7,0,0,0-2.2,5.495c-.005.054-.025.1-.03.159,0,.036.01.068.01.107s-.01.073-.01.109c0,.078.02.149.025.225a7.318,7.318,0,0,0,2.144,5.156l20.3,22.256h-11.545a11.209,11.209,0,0,1-8.032-3.418c-2.229-2.318-4.6-4.8-7.1-7.427-2.812-2.949-5.8-6.077-8.94-9.347-.005-.008-.015-.01-.02-.018s-.005-.012-.01-.014l-2.241-2.274a9.041,9.041,0,0,1,.124-12.595l23.419-23.419a3.654,3.654,0,1,0-5.168-5.168l-23.419,23.419a16.4,16.4,0,0,0-.195,22.863l1.174,1.194v16.209h-52.145v-17.444h29.749a3.659,3.659,0,0,0,3.465-4.827Zm-55.681,4.822h15.159v17.444h-15.159Z" fill="#007cad"/><path d="M1422.22,1266.822h-219.3a3.655,3.655,0,1,0,0,7.31h219.3a3.655,3.655,0,1,0,0-7.31Z" fill="#007cad"/></g></svg>