<svg xmlns="http://www.w3.org/2000/svg" width="71.448" height="71.455" viewBox="0 0 71.448 71.455"><path d="M1008.917,1924.376h4.794a.967.967,0,0,0,.966-.966v-42.18h1.431a.968.968,0,0,0,.966-.967v-4.794a.968.968,0,0,0-.966-.967h-.232v-4.06h.232a.967.967,0,0,0,.966-.966v-5.992a.968.968,0,0,0-.966-.967h-15.581a.968.968,0,0,0-.967.967v5.025h-.232a.967.967,0,0,0-.966.967v5.026H995.5v-11.018a.968.968,0,0,0-.967-.967H968.167a.968.968,0,0,0-.967.967V1874.5h-6.457v-9.82a.969.969,0,0,0-.7-.915l-.219-.061.932-3.589a.97.97,0,0,0-.68-1.188l-.067-.016a.968.968,0,0,0-1.186.68l-.992,4.123h-.561l1.082-9.715a.973.973,0,1,0-1.935-.213l-1.1,9.928h-.559v-6.225a.967.967,0,0,0-1.934,0v6.225h-.638l-1.02-5.222a.982.982,0,0,0-.421-.629,1,1,0,0,0-.744-.147.989.989,0,0,0-.776,1.166l.993,4.778-.226.048a.967.967,0,0,0-.763.966v9.826h-2.629a.968.968,0,0,0-.967.967v4.794a.969.969,0,0,0,.967.967h1.43v42.18a.967.967,0,0,0,.967.966h4.794a.967.967,0,0,0,.967-.966v-30.2H967.2v2.861h-3.828a.967.967,0,0,0-.966.966v4.794a.967.967,0,0,0,.966.967H964.8v20.607a.967.967,0,0,0,.967.966h4.793a.967.967,0,0,0,.967-.966v-2.629h19.641v2.629a.967.967,0,0,0,.966.966h4.794a.967.967,0,0,0,.967-.966V1902.8h1.43a.968.968,0,0,0,.967-.967v-4.794a.967.967,0,0,0-.967-.966H995.5v-2.861h12.449v30.2A.967.967,0,0,0,1008.917,1924.376Zm3.827-1.933h-2.861v-29.228h2.861Zm.735-57.993h1.662v4.059h-1.662Zm-1.2,5.992h1.663v4.06h-1.663Zm-10.786-5.992h10.052v4.059h-10.052Zm-1.2,5.992h10.052v4.06h-10.052Zm-31.162-5.992h24.435V1874.5h-2.861v-6.225a.968.968,0,0,0-.967-.967H972.961a.968.968,0,0,0-.967.967v6.225h-2.861Zm4.794,6.456v-1.662h14.846v1.662Zm14.846,1.933v1.663H973.927v-1.663Zm-37.618-7.191h7.655v8.854h-7.655Zm-3.6,13.648v-2.861h67.582v2.861Zm5.258,43.147h-2.86v-29.228h2.86Zm16.78,0h-2.861V1902.8H969.6Zm21.574-3.6H971.53V1902.8h19.641Zm4.794,3.6H993.1V1902.8h2.861Zm2.4-24.434v2.86H964.339v-2.86Zm-29.229-1.933v-2.861h2.861v2.861Zm4.794,0v-2.861h14.846v2.861Zm16.78,0v-2.861h2.861v2.861Zm-40.75-4.8V1881.23h62.787v10.051Z" transform="translate(-945.626 -1852.921)" fill="#007cad"/></svg>