<svg xmlns="http://www.w3.org/2000/svg" width="43.358" height="43.358" viewBox="0 0 43.358 43.358"><path d="M898.381,2101.906a21.673,21.673,0,1,0-26.547,15.321A21.674,21.674,0,0,0,898.381,2101.906Zm-3.766-7.164a11.826,11.826,0,0,1-3.013,1.757.614.614,0,0,0-.4.476,17.608,17.608,0,0,1-11.612,12.667,16.656,16.656,0,0,1-10.685-.018,17.256,17.256,0,0,1-7.541-4.717,1.5,1.5,0,0,1-.1-.156,12.594,12.594,0,0,0,9.354-.136,6.347,6.347,0,0,1-4.436-5.642,6.622,6.622,0,0,0,2.686.6,6.273,6.273,0,0,1-3.133-3.833,6.017,6.017,0,0,1-.01-3.337,6.471,6.471,0,0,0,2.458,1.416,6.266,6.266,0,0,1-1.477-4.3,6.162,6.162,0,0,1,1.8-4.113,17.666,17.666,0,0,0,10.562,9.5,18.756,18.756,0,0,1,.644-2.342,6.132,6.132,0,0,1,6.888-3.483,6.234,6.234,0,0,1,4.05,2.908.532.532,0,0,0,.366.213,12.148,12.148,0,0,0,3.907-.423,6.84,6.84,0,0,1-3.307,2.618c.369.029.738.069,1.108.082s.746.01,1.119-.007.762-.06,1.22-.1C894.874,2094.523,894.748,2094.637,894.615,2094.742Z" transform="translate(-855.768 -2074.614)" fill="#007cad"/></svg>