<svg xmlns="http://www.w3.org/2000/svg" xmlns:xlink="http://www.w3.org/1999/xlink" width="1920" height="200.271" viewBox="0 0 1920 200.271">
  <defs>
    <clipPath id="clip-path">
      <rect id="Rectangle_3" data-name="Rectangle 3" width="1920" height="200.271" transform="translate(-1.373 766.648)" fill="none"/>
    </clipPath>
  </defs>
  <g id="Groupe_13" data-name="Groupe 13" transform="translate(1.373 -766.648)" opacity="0.15">
    <g id="Groupe_12" data-name="Groupe 12" clip-path="url(#clip-path)">
      <g id="Groupe_11" data-name="Groupe 11">
        <g id="Groupe_4" data-name="Groupe 4">
          <path id="Tracé_1" data-name="Tracé 1" d="M254.227,999.016c0-116.3-94.231-211-210.353-211.78a211.055,211.055,0,0,0-144.348,57.97q6.783,6.418,12.977,13.422A190.658,190.658,0,0,1,42.427,807.633c105.529,0,191.384,85.854,191.384,191.383S147.956,1190.4,42.427,1190.4a190.656,190.656,0,0,1-129.924-51q-6.2,6.985-12.975,13.421A211.05,211.05,0,0,0,44.023,1210.8C160.077,1209.933,254.227,1115.269,254.227,999.016Z" fill="#fff"/>
          <path id="Tracé_2" data-name="Tracé 2" d="M217.036,999.016c0-96.279-78.329-174.609-174.609-174.609A173.961,173.961,0,0,0-76.849,871.622q6.228,8.242,11.65,17.092A153.671,153.671,0,0,1,42.427,844.822c85.023,0,154.194,69.171,154.194,154.194S127.45,1153.21,42.427,1153.21A153.674,153.674,0,0,1-65.2,1109.319q-5.415,8.838-11.65,17.092a173.965,173.965,0,0,0,119.276,47.214C138.707,1173.625,217.036,1095.3,217.036,999.016Z" fill="#fff"/>
          <path id="Tracé_3" data-name="Tracé 3" d="M42.427,860.332a138.288,138.288,0,0,0-99.739,42.426A210.566,210.566,0,0,1-48.2,923.113a118.269,118.269,0,1,1,0,151.806,210.572,210.572,0,0,1-9.115,20.356A138.291,138.291,0,0,0,42.427,1137.7c76.471,0,138.684-62.213,138.684-138.684S118.9,860.332,42.427,860.332Z" fill="#fff"/>
          <path id="Tracé_4" data-name="Tracé 4" d="M42.427,898.669A100.339,100.339,0,0,0-41.4,943.92a210.427,210.427,0,0,1,6.35,35.423,79.932,79.932,0,1,1,0,39.346,210.339,210.339,0,0,1-6.349,35.424A100.333,100.333,0,1,0,42.427,898.669Z" fill="#fff"/>
        </g>
        <g id="Groupe_5" data-name="Groupe 5">
          <path id="Tracé_5" data-name="Tracé 5" d="M565.544,999.016c0-116.3-94.23-211-210.353-211.78a211.055,211.055,0,0,0-144.347,57.97q6.783,6.418,12.977,13.422a190.656,190.656,0,0,1,129.924-50.995c105.529,0,191.384,85.854,191.384,191.383S459.274,1190.4,353.745,1190.4a190.652,190.652,0,0,1-129.924-51q-6.2,6.985-12.975,13.421a211.05,211.05,0,0,0,144.5,57.97C471.395,1209.933,565.544,1115.269,565.544,999.016Z" fill="#fff"/>
          <path id="Tracé_6" data-name="Tracé 6" d="M528.354,999.016c0-96.279-78.329-174.609-174.609-174.609a173.959,173.959,0,0,0-119.276,47.215q6.228,8.242,11.65,17.092a153.671,153.671,0,0,1,107.626-43.892c85.022,0,154.193,69.171,154.193,154.194S438.767,1153.21,353.745,1153.21a153.674,153.674,0,0,1-107.626-43.891q-5.417,8.838-11.65,17.092a173.963,173.963,0,0,0,119.276,47.214C450.025,1173.625,528.354,1095.3,528.354,999.016Z" fill="#fff"/>
          <path id="Tracé_7" data-name="Tracé 7" d="M353.745,860.332a138.287,138.287,0,0,0-99.739,42.426,210.813,210.813,0,0,1,9.115,20.355,118.269,118.269,0,1,1,0,151.806,210.819,210.819,0,0,1-9.115,20.356,138.29,138.29,0,0,0,99.739,42.425c76.471,0,138.684-62.213,138.684-138.684S430.216,860.332,353.745,860.332Z" fill="#fff"/>
          <path id="Tracé_8" data-name="Tracé 8" d="M353.745,898.669a100.337,100.337,0,0,0-83.827,45.251,210.526,210.526,0,0,1,6.349,35.423,79.934,79.934,0,1,1,0,39.346,210.54,210.54,0,0,1-6.349,35.424,100.333,100.333,0,1,0,83.827-155.444Z" fill="#fff"/>
        </g>
        <g id="Groupe_6" data-name="Groupe 6">
          <path id="Tracé_9" data-name="Tracé 9" d="M877.329,999.016c0-116.3-94.231-211-210.353-211.78a211.055,211.055,0,0,0-144.348,57.97q6.783,6.418,12.977,13.422a190.66,190.66,0,0,1,129.924-50.995c105.53,0,191.384,85.854,191.384,191.383S771.059,1190.4,665.529,1190.4a190.656,190.656,0,0,1-129.924-51q-6.2,6.985-12.975,13.421a211.05,211.05,0,0,0,144.495,57.97C783.179,1209.933,877.329,1115.269,877.329,999.016Z" fill="#fff"/>
          <path id="Tracé_10" data-name="Tracé 10" d="M840.138,999.016c0-96.279-78.329-174.609-174.609-174.609a173.961,173.961,0,0,0-119.276,47.215q6.228,8.242,11.65,17.092a153.671,153.671,0,0,1,107.626-43.892c85.023,0,154.194,69.171,154.194,154.194S750.552,1153.21,665.529,1153.21A153.674,153.674,0,0,1,557.9,1109.319q-5.415,8.838-11.649,17.092a173.96,173.96,0,0,0,119.275,47.214C761.809,1173.625,840.138,1095.3,840.138,999.016Z" fill="#fff"/>
          <path id="Tracé_11" data-name="Tracé 11" d="M665.529,860.332a138.284,138.284,0,0,0-99.738,42.426,210.825,210.825,0,0,1,9.114,20.355,118.269,118.269,0,1,1,0,151.806,210.578,210.578,0,0,1-9.114,20.356,138.287,138.287,0,0,0,99.738,42.425c76.472,0,138.685-62.213,138.685-138.684S742,860.332,665.529,860.332Z" fill="#fff"/>
          <path id="Tracé_12" data-name="Tracé 12" d="M665.529,898.669A100.339,100.339,0,0,0,581.7,943.92a210.429,210.429,0,0,1,6.35,35.423,79.934,79.934,0,1,1,0,39.346,210.443,210.443,0,0,1-6.35,35.424,100.333,100.333,0,1,0,83.827-155.444Z" fill="#fff"/>
        </g>
        <g id="Groupe_7" data-name="Groupe 7">
          <path id="Tracé_13" data-name="Tracé 13" d="M1187.873,999.016c0-116.3-94.231-211-210.353-211.78a211.055,211.055,0,0,0-144.348,57.97q6.783,6.418,12.977,13.422a190.66,190.66,0,0,1,129.924-50.995c105.53,0,191.385,85.854,191.385,191.383S1081.6,1190.4,976.073,1190.4a190.656,190.656,0,0,1-129.924-51q-6.2,6.985-12.975,13.421a211.05,211.05,0,0,0,144.495,57.97C1093.723,1209.933,1187.873,1115.269,1187.873,999.016Z" fill="#fff"/>
          <path id="Tracé_14" data-name="Tracé 14" d="M1150.682,999.016c0-96.279-78.328-174.609-174.609-174.609A173.961,173.961,0,0,0,856.8,871.622q6.228,8.242,11.65,17.092a153.671,153.671,0,0,1,107.626-43.892c85.023,0,154.194,69.171,154.194,154.194S1061.1,1153.21,976.073,1153.21a153.674,153.674,0,0,1-107.626-43.891q-5.415,8.838-11.649,17.092a173.961,173.961,0,0,0,119.275,47.214C1072.354,1173.625,1150.682,1095.3,1150.682,999.016Z" fill="#fff"/>
          <path id="Tracé_15" data-name="Tracé 15" d="M976.073,860.332a138.284,138.284,0,0,0-99.738,42.426,210.809,210.809,0,0,1,9.114,20.355,118.269,118.269,0,1,1,0,151.806,210.562,210.562,0,0,1-9.114,20.356,138.287,138.287,0,0,0,99.738,42.425c76.472,0,138.685-62.213,138.685-138.684S1052.545,860.332,976.073,860.332Z" fill="#fff"/>
          <path id="Tracé_16" data-name="Tracé 16" d="M976.073,898.669a100.339,100.339,0,0,0-83.827,45.251,210.423,210.423,0,0,1,6.35,35.423,79.934,79.934,0,1,1,0,39.346,210.437,210.437,0,0,1-6.35,35.424,100.333,100.333,0,1,0,83.827-155.444Z" fill="#fff"/>
        </g>
        <g id="Groupe_8" data-name="Groupe 8">
          <path id="Tracé_17" data-name="Tracé 17" d="M1499.191,999.016c0-116.3-94.231-211-210.354-211.78a211.055,211.055,0,0,0-144.347,57.97q6.783,6.418,12.977,13.422a190.656,190.656,0,0,1,129.924-50.995c105.529,0,191.384,85.854,191.384,191.383S1392.92,1190.4,1287.391,1190.4a190.652,190.652,0,0,1-129.924-51q-6.2,6.985-12.975,13.421a211.051,211.051,0,0,0,144.5,57.97C1405.041,1209.933,1499.191,1115.269,1499.191,999.016Z" fill="#fff"/>
          <path id="Tracé_18" data-name="Tracé 18" d="M1462,999.016c0-96.279-78.329-174.609-174.609-174.609a173.96,173.96,0,0,0-119.276,47.215q6.228,8.242,11.65,17.092a153.671,153.671,0,0,1,107.626-43.892c85.022,0,154.194,69.171,154.194,154.194s-69.172,154.194-154.194,154.194a153.674,153.674,0,0,1-107.626-43.891q-5.415,8.838-11.65,17.092a173.965,173.965,0,0,0,119.276,47.214C1383.671,1173.625,1462,1095.3,1462,999.016Z" fill="#fff"/>
          <path id="Tracé_19" data-name="Tracé 19" d="M1287.391,860.332a138.287,138.287,0,0,0-99.739,42.426,210.787,210.787,0,0,1,9.115,20.355,118.269,118.269,0,1,1,0,151.806,210.793,210.793,0,0,1-9.115,20.356,138.29,138.29,0,0,0,99.739,42.425c76.471,0,138.684-62.213,138.684-138.684S1363.862,860.332,1287.391,860.332Z" fill="#fff"/>
          <path id="Tracé_20" data-name="Tracé 20" d="M1287.391,898.669a100.337,100.337,0,0,0-83.827,45.251,210.41,210.41,0,0,1,6.349,35.423,79.934,79.934,0,1,1,0,39.346,210.423,210.423,0,0,1-6.349,35.424,100.333,100.333,0,1,0,83.827-155.444Z" fill="#fff"/>
        </g>
        <g id="Groupe_9" data-name="Groupe 9">
          <path id="Tracé_21" data-name="Tracé 21" d="M1810.975,999.016c0-116.3-94.231-211-210.353-211.78a211.055,211.055,0,0,0-144.348,57.97q6.783,6.418,12.977,13.422a190.66,190.66,0,0,1,129.924-50.995c105.53,0,191.385,85.854,191.385,191.383S1704.7,1190.4,1599.175,1190.4a190.656,190.656,0,0,1-129.924-51q-6.2,6.985-12.975,13.421a211.052,211.052,0,0,0,144.495,57.97C1716.825,1209.933,1810.975,1115.269,1810.975,999.016Z" fill="#fff"/>
          <path id="Tracé_22" data-name="Tracé 22" d="M1773.784,999.016c0-96.279-78.328-174.609-174.609-174.609A173.957,173.957,0,0,0,1479.9,871.622q6.227,8.242,11.649,17.092a153.671,153.671,0,0,1,107.626-43.892c85.023,0,154.194,69.171,154.194,154.194S1684.2,1153.21,1599.175,1153.21a153.674,153.674,0,0,1-107.626-43.891q-5.415,8.838-11.649,17.092a173.962,173.962,0,0,0,119.275,47.214C1695.456,1173.625,1773.784,1095.3,1773.784,999.016Z" fill="#fff"/>
          <path id="Tracé_23" data-name="Tracé 23" d="M1599.175,860.332a138.284,138.284,0,0,0-99.738,42.426,210.572,210.572,0,0,1,9.114,20.355,118.269,118.269,0,1,1,0,151.806,210.578,210.578,0,0,1-9.114,20.356,138.287,138.287,0,0,0,99.738,42.425c76.472,0,138.685-62.213,138.685-138.684S1675.647,860.332,1599.175,860.332Z" fill="#fff"/>
          <path id="Tracé_24" data-name="Tracé 24" d="M1599.175,898.669a100.336,100.336,0,0,0-83.826,45.251,210.532,210.532,0,0,1,6.349,35.423,79.934,79.934,0,1,1,0,39.346,210.449,210.449,0,0,1-6.35,35.424,100.333,100.333,0,1,0,83.827-155.444Z" fill="#fff"/>
        </g>
        <g id="Groupe_10" data-name="Groupe 10">
          <path id="Tracé_25" data-name="Tracé 25" d="M2117.219,999.016c0-116.3-94.231-211-210.354-211.78a211.055,211.055,0,0,0-144.347,57.97q6.783,6.418,12.977,13.422a190.656,190.656,0,0,1,129.924-50.995c105.529,0,191.384,85.854,191.384,191.383S2010.948,1190.4,1905.419,1190.4a190.652,190.652,0,0,1-129.924-51q-6.2,6.985-12.975,13.421a211.05,211.05,0,0,0,144.495,57.97C2023.069,1209.933,2117.219,1115.269,2117.219,999.016Z" fill="#fff"/>
          <path id="Tracé_26" data-name="Tracé 26" d="M2080.028,999.016c0-96.279-78.329-174.609-174.609-174.609a173.96,173.96,0,0,0-119.276,47.215q6.228,8.242,11.65,17.092a153.671,153.671,0,0,1,107.626-43.892c85.022,0,154.194,69.171,154.194,154.194s-69.172,154.194-154.194,154.194a153.674,153.674,0,0,1-107.626-43.891q-5.415,8.838-11.65,17.092a173.965,173.965,0,0,0,119.276,47.214C2001.7,1173.625,2080.028,1095.3,2080.028,999.016Z" fill="#fff"/>
          <path id="Tracé_27" data-name="Tracé 27" d="M1905.419,860.332a138.286,138.286,0,0,0-99.739,42.426,210.817,210.817,0,0,1,9.115,20.355,118.269,118.269,0,1,1,0,151.806,210.823,210.823,0,0,1-9.115,20.356,138.289,138.289,0,0,0,99.739,42.425c76.471,0,138.684-62.213,138.684-138.684S1981.89,860.332,1905.419,860.332Z" fill="#fff"/>
          <path id="Tracé_28" data-name="Tracé 28" d="M1905.419,898.669a100.337,100.337,0,0,0-83.827,45.251,210.434,210.434,0,0,1,6.349,35.423,79.934,79.934,0,1,1,0,39.346,210.448,210.448,0,0,1-6.349,35.424,100.333,100.333,0,1,0,83.827-155.444Z" fill="#fff"/>
        </g>
      </g>
    </g>
  </g>
</svg>
