<?xml version="1.0" encoding="UTF-8" standalone="no"?><!DOCTYPE svg PUBLIC "-//W3C//DTD SVG 1.1//EN" "http://www.w3.org/Graphics/SVG/1.1/DTD/svg11.dtd"><svg width="100%" height="100%" viewBox="0 0 1429 1611" version="1.1" xmlns="http://www.w3.org/2000/svg" xmlns:xlink="http://www.w3.org/1999/xlink" xml:space="preserve" xmlns:serif="http://www.serif.com/" style="fill-rule:evenodd;clip-rule:evenodd;stroke-linejoin:round;stroke-miterlimit:2;"><g opacity="0.25"><path d="M742.282,1247.65c9.921,9.388 19.404,19.229 28.471,29.446c74.9,-69.375 175.054,-111.858 284.962,-111.858c93.784,-0 180.484,30.925 250.442,83.1c7.683,-12.9 14.988,-26.054 21.829,-39.484c-75.666,-54.92 -168.462,-87.604 -268.729,-88.362c-122.617,0.542 -234.158,48.808 -316.975,127.158" style="fill:#fff;fill-rule:nonzero;"/><path d="M836.952,1373.88c7.412,14.463 14.1,29.354 19.991,44.642c47.621,-56.767 119.046,-92.921 198.771,-92.921c57.154,-0 110.034,18.592 152.95,50.025c10.434,-10.763 20.517,-21.867 30.238,-33.296c-50.996,-38.583 -114.459,-61.508 -183.188,-61.508c-85.804,-0 -163.408,35.716 -218.762,93.058" style="fill:#fff;fill-rule:nonzero;"/><path d="M871.852,1464.17c6.791,25.179 11.487,51.208 13.945,77.871c19.209,-75.954 88.071,-132.346 169.917,-132.346c32.413,0 62.775,8.875 88.854,24.275c12.175,-9.762 24.017,-19.912 35.492,-30.467c-35.404,-24.325 -78.242,-38.587 -124.346,-38.587c-76.767,-0 -144.462,39.508 -183.862,99.254" style="fill:#fff;fill-rule:nonzero;"/><path d="M794.101,1305.59c9.108,12.054 17.629,24.562 25.55,37.483c60.991,-59.525 144.312,-96.267 236.062,-96.267c76.825,0 147.729,25.763 204.579,69.084c9.092,-11.825 17.83,-23.934 26.155,-36.35c-64.217,-48.625 -144.163,-77.513 -230.734,-77.513c-101.071,0 -193.104,39.371 -261.612,103.563" style="fill:#fff;fill-rule:nonzero;"/><path d="M854.09,644.343c56.3,2.712 105.88,13.975 140.213,23.992l-0,19.854c-27.388,-13.338 -82.696,-37.129 -140.213,-43.846m-55.895,-25.388l-1.671,0.08c0.046,-2.284 0.15,-4.488 0.225,-6.621c100.783,-21.15 199.483,-11.234 266.233,1.341l0,51.355c-38.192,-15.925 -142.425,-53.28 -264.787,-46.155m-11.563,197.28c4.233,-67.18 6.971,-125.055 8.596,-164.055c42.35,18.03 155.354,73.517 228.167,177.671c-1.6,37.379 -11.517,74.738 -29.596,111.154c-11.109,-12.679 -22.954,-24.475 -35.25,-35.145c-7.888,-6.875 -16.588,-13.775 -27.392,-21.709c-9.862,-7.054 -19.679,-13.546 -29.237,-19.329c-20.392,-12.2 -41.467,-22.646 -62.692,-31.162c-11.263,-4.567 -22.417,-8.55 -33.042,-11.846c-7.075,-2.209 -13.516,-4.034 -19.554,-5.579m-12.2,162.579c4.058,-46.1 7.733,-94.463 10.983,-143.838c5.021,1.138 10.292,2.484 15.721,3.979c10.3,2.842 21.125,6.342 32.079,10.346c20.671,7.559 41.338,17.017 61.4,28.125c9.409,5.275 19.096,11.238 28.859,17.725c10.654,7.334 19.3,13.746 27.108,20.163c13.242,10.754 25.996,22.8 37.971,35.837c-4.621,8.521 -9.667,17.017 -15.142,25.409c-20.216,30.991 -49.15,55.287 -83.033,70.125c-0.229,0.1 -0.454,0.2 -0.708,0.304c-2.688,-2.817 -5.43,-5.529 -8.242,-8.142c-10.775,-10.096 -23.204,-19.583 -36.925,-28.15c-12.529,-7.892 -26.4,-15.062 -41.233,-21.379c-7.1,-3.021 -14.434,-5.783 -21.788,-8.246c-2.483,-0.808 -4.817,-1.592 -7.05,-2.258m-14.179,143.466c0.692,-6.67 1.35,-13.695 2.058,-21.125c3.675,-33.045 7.229,-68.012 10.471,-103.95c1.146,0.305 2.283,0.659 3.429,0.963c7.021,1.979 14.05,4.237 20.921,6.746c14.304,5.275 27.742,11.437 39.942,18.312c13.337,7.454 25.512,15.821 36.162,24.85c1.621,1.346 3.221,2.742 4.792,4.163c-33.017,15.212 -76.688,38.466 -117.775,70.041m-33.142,-981.77l0.429,-63.321c17.475,-8.321 67.155,-30.179 129.971,-42.584c69.692,-13.745 170.879,-18.333 258.625,37.13l0,527.616c-46.816,-12.2 -180.083,-40.679 -318.55,-13.237c0.175,-4.996 0.254,-7.813 0.254,-8.188l0.23,-9.996l-68.321,-30.862l-2.638,-396.558Zm-9.308,1018.87l-0,-594.72l49.708,22.47c-0.229,8.038 -0.637,20.692 -1.296,37.255l-0.329,-0.055l-0.304,5.075c-0.175,2.992 -17.829,303.842 -33.171,468.605c-2.025,18.158 -4.108,35.962 -6.237,53.258c-2.842,2.662 -5.634,5.375 -8.371,8.112m-62.079,-572.25l49.704,-22.47l-0,595.712c-2.688,-2.587 -5.425,-5.15 -8.167,-7.683c-30.558,-245.079 -39.766,-505.634 -41.537,-565.559m-117.063,467.159c2.309,-2.129 4.613,-4.209 6.975,-6.188c10.7,-9.054 22.846,-17.421 36.184,-24.875c12.2,-6.875 25.666,-13.037 39.995,-18.312c6.825,-2.509 13.846,-4.767 20.871,-6.746c2.563,-0.713 5.121,-1.396 7.663,-2.029c4.079,44.887 8.541,88 13.287,128.804c-44.662,-33.45 -91.35,-56.504 -124.975,-70.654m-96.371,-82.267c-4.237,-6.621 -8.291,-13.567 -12.095,-20.696c12.016,-13.112 24.829,-25.233 38.116,-36.012c7.809,-6.417 16.459,-12.829 27.184,-20.188c9.716,-6.487 19.429,-12.425 28.787,-17.7c20.058,-11.108 40.725,-20.566 61.396,-28.125c10.979,-4.029 21.787,-7.504 32.079,-10.346c7.229,-1.979 13.825,-3.6 19.983,-4.966c3.246,49.221 6.925,97.479 10.959,143.562c-3.575,1.067 -7.334,2.204 -11.288,3.521c-7.329,2.463 -14.658,5.225 -21.783,8.246c-14.808,6.317 -28.708,13.487 -41.238,21.379c-13.691,8.567 -26.116,18.054 -36.945,28.196c-3.605,3.325 -7.155,6.85 -10.575,10.554l-0.484,-0.204c-24.983,-9.888 -46.891,-26.221 -63.275,-47.5c-7.583,-9.813 -14.529,-19.729 -20.821,-29.721m-11.487,-283.833l-0,-17.829c32.762,-9.963 80.037,-21.38 134.104,-25.255c-55.358,7.609 -107.958,30.355 -134.104,43.084m-5.833,252.966c-17.984,-36.337 -27.871,-73.72 -29.417,-111.304c74.658,-106.891 189.537,-161.821 232.375,-179.475c1.621,39.109 4.362,97.259 8.621,164.817c-7.329,1.75 -15.038,3.883 -23.813,6.621c-10.65,3.296 -21.758,7.279 -33.066,11.846c-21.205,8.516 -42.28,18.962 -62.692,31.162c-9.588,5.783 -19.379,12.275 -29.217,19.25c-10.829,8.013 -19.55,14.938 -27.412,21.788c-12.354,10.7 -24.246,22.566 -35.379,35.295m-56.175,-276.045l-0,-51.959c64.441,-11.846 159.795,-21.308 257.633,-1.829l0.283,7.179c-0.129,0.025 -0.229,0.05 -0.383,0.125c-8.242,-0.379 -16.354,-0.533 -24.396,-0.533c-106.437,-0 -193.421,30.354 -233.137,47.017m-56.296,-65.759l-0,-527.616c87.691,-55.463 188.883,-50.875 258.621,-37.13c62.791,12.405 112.475,34.263 129.945,42.584l0.405,63.4l-2.584,394.046l-73.721,33.295l0.225,9.971c0.025,0.729 0.105,3.167 0.205,7.15c-40.425,-7.583 -80.367,-10.5 -117.696,-10.5c-88.788,0 -163.042,16.359 -195.4,24.8m-25.667,-541.437l0,575.879l16.713,-5.329c0.179,-0.046 14.658,-4.638 39.612,-10.117l0,87.292l18.538,-9.259c0.179,-0.1 16.358,-8.016 43.47,-17.595l0,52.466l19.146,-10.829c0.379,-0.204 30.509,-17.167 71.971,-31.725c-52.471,37.025 -95.533,80.063 -128.375,128.246l-2.687,3.983l0.1,4.792c1.395,61.854 23.158,122.821 63.808,180.358c25.233,35.688 59.496,64.063 99.029,82.754c50.875,24.067 131.167,67.1 172.604,113.488l0.15,-0.125c3.629,4.129 7.204,8.367 10.704,12.704c3.655,-4.412 7.355,-8.725 11.059,-12.937l0.025,0.029c0.887,-1.042 1.8,-2.079 2.712,-3.146c6.034,-6.746 12.175,-13.213 18.359,-19.425c41.845,-40.904 97.233,-72.583 139.404,-93.075c79.104,-38.467 138.675,-108.871 160.962,-193.954c5.759,-22.013 8.929,-44.279 9.463,-66.671l0.1,-4.792l-2.713,-3.983c-34.033,-50.008 -79.1,-94.388 -134.179,-132.279c47.446,15.216 83.558,35.529 83.992,35.758l19.146,10.829l-0,-54.804c31.141,10.6 49.908,19.833 50.112,19.933l18.563,9.284l-0,-86.629c22.925,5.17 36.291,9.383 36.416,9.429l16.738,5.329l-0,-575.879l-5.704,-3.804c-76.234,-50.846 -174.45,-66.242 -283.959,-44.559c-68.471,13.542 -120.408,37.025 -137.808,45.521c-17.421,-8.496 -69.358,-31.979 -137.779,-45.521c-109.529,-21.683 -207.729,-6.287 -283.984,44.559l-5.708,3.804Z" style="fill:#fff;fill-rule:nonzero;"/><path d="M748.996,1558.21c-15.625,-196.933 -180.838,-352.4 -381.713,-352.4c-74.92,0 -144.887,21.654 -203.979,59.004c-6.846,-10.2 -13.375,-20.579 -19.633,-31.112c64.787,-40.95 141.467,-64.675 223.612,-64.675c220.188,-0 401.275,170.412 418.384,386.283c-12.154,1.279 -24.379,2.271 -36.671,2.9m-79.154,-0.587c-15.667,-153.146 -145.359,-273.021 -302.559,-273.021c-57,-0 -110.354,15.804 -156.008,43.2c-7.5,-8.713 -14.725,-17.584 -21.725,-26.629c51.688,-32.063 112.583,-50.588 177.733,-50.588c176.446,0 321.738,135.838 336.867,308.413c-11.483,-0.18 -22.917,-0.63 -34.308,-1.375m-86.6,-11.388c-19.904,-101.079 -109.163,-177.55 -215.959,-177.55c-33.95,0 -66.116,7.767 -94.841,21.542c-9.054,-8.129 -17.946,-16.5 -26.613,-25.167c-1.171,-1.15 -2.296,-2.342 -3.441,-3.512c37.075,-20.488 79.645,-32.171 124.895,-32.171c130.909,-0 239.459,97.479 256.93,223.658c-13.78,-1.867 -27.442,-4.1 -40.971,-6.8m-271.834,-123.612c17.559,-5.921 36.355,-9.163 55.875,-9.163c77.663,0 143.671,50.808 166.609,120.908c-80.321,-22.6 -155.625,-60.329 -222.484,-111.745m907.996,-1031.14c-24.475,-24.471 -50.425,-46.917 -77.629,-67.325l0,66.217c14.1,11.945 27.804,24.5 41.025,37.716c125.142,125.146 194.054,291.529 194.054,468.496c0,176.967 -68.912,343.35 -194.054,468.475c-97.412,97.404 -219.783,160.733 -352.696,184.013c-20.216,-237.617 -220.054,-424.821 -462.821,-424.821c-89.933,-0 -173.97,25.683 -245.179,70.121c-46.012,-91.242 -70.325,-192.638 -70.325,-297.788c0,-96.282 20.398,-189.431 59.151,-274.51c32.476,-71.297 77.843,-136.928 134.899,-193.986c13.213,-13.212 26.909,-25.758 41.004,-37.704l0,-66.225c-27.204,20.404 -53.158,42.85 -77.629,67.321c-134.916,134.917 -209.204,314.292 -209.204,505.104c0,190.788 74.288,370.188 209.204,505.104c134.913,134.909 314.313,209.2 505.1,209.2c190.813,0 370.188,-74.291 505.1,-209.2c134.913,-134.916 209.225,-314.316 209.225,-505.104c0,-190.812 -74.312,-370.187 -209.225,-505.104" style="fill:#fff;fill-rule:nonzero;"/></g></svg>