<?xml version="1.0" encoding="UTF-8" standalone="no"?><!DOCTYPE svg PUBLIC "-//W3C//DTD SVG 1.1//EN" "http://www.w3.org/Graphics/SVG/1.1/DTD/svg11.dtd"><svg width="100%" height="100%" viewBox="0 0 9241 1765" version="1.1" xmlns="http://www.w3.org/2000/svg" xmlns:xlink="http://www.w3.org/1999/xlink" xml:space="preserve" xmlns:serif="http://www.serif.com/" style="fill-rule:evenodd;clip-rule:evenodd;stroke-linejoin:round;stroke-miterlimit:2;"><g opacity="0.15"><g><clipPath id="_clip1"><rect x="412.921" y="-85.783" width="8000" height="834.462" clip-rule="nonzero"/></clipPath><g clip-path="url(#_clip1)"><path d="M1477.92,882.421c-0,-484.596 -392.625,-879.158 -876.471,-882.421c-232.654,1.208 -444.283,92.858 -601.45,241.542c18.842,17.829 36.854,36.521 54.071,55.929c142.3,-131.792 332.567,-212.483 541.35,-212.483c439.704,-0 797.433,357.729 797.433,797.433c0,439.704 -357.729,797.433 -797.433,797.433c-208.784,0 -399.05,-80.691 -541.35,-212.483c-17.217,19.404 -35.221,38.092 -54.063,55.921c157.304,148.812 369.167,240.496 602.063,241.541c483.558,-3.595 875.85,-398.025 875.85,-882.412" style="fill:#fff;fill-rule:nonzero;"/><path d="M1322.96,882.421c-0,-401.167 -326.371,-727.538 -727.538,-727.538c-191.996,0 -366.829,74.792 -496.983,196.725c17.3,22.9 33.5,46.667 48.542,71.217c115.862,-113.075 274.141,-182.879 448.441,-182.879c354.263,-0 642.475,288.212 642.475,642.475c0,354.258 -288.212,642.471 -642.475,642.471c-174.3,-0 -332.579,-69.804 -448.441,-182.875c-15.042,24.55 -31.242,48.312 -48.538,71.216c130.154,121.93 304.983,196.721 496.979,196.721c401.167,0 727.538,-326.366 727.538,-727.533" style="fill:#fff;fill-rule:nonzero;"/><path d="M595.422,304.568c-162.996,0 -310.421,67.855 -415.58,176.775c14.084,27.48 26.788,55.771 37.98,84.813c90.47,-107.838 226.154,-176.525 377.6,-176.525c271.725,-0 492.787,221.067 492.787,492.792c0,271.716 -221.062,492.783 -492.787,492.783c-151.446,-0 -287.13,-68.688 -377.6,-176.525c-11.192,29.046 -23.892,57.337 -37.979,84.812c105.158,108.921 252.583,176.775 415.579,176.775c318.629,0 577.854,-259.22 577.854,-577.845c-0,-318.63 -259.225,-577.855 -577.854,-577.855" style="fill:#fff;fill-rule:nonzero;"/><path d="M595.422,464.305c-145.829,0 -274.429,75.059 -349.28,188.546c12.875,47.729 21.776,97.059 26.455,147.6c36.621,-144.137 167.454,-251.083 322.825,-251.083c183.641,-0 333.05,149.404 333.05,333.054c-0,183.646 -149.409,333.054 -333.05,333.054c-155.371,0 -286.204,-106.95 -322.825,-251.083c-4.679,50.537 -13.58,99.867 -26.454,147.596c74.845,113.496 203.45,188.55 349.279,188.55c230.55,-0 418.116,-187.563 418.116,-418.117c0,-230.55 -187.566,-418.117 -418.116,-418.117" style="fill:#fff;fill-rule:nonzero;"/><path d="M2775.08,882.421c-0,-484.596 -392.625,-879.158 -876.471,-882.421c-232.65,1.208 -444.279,92.858 -601.446,241.542c18.842,17.829 36.85,36.521 54.067,55.929c142.3,-131.792 332.566,-212.483 541.354,-212.483c439.704,-0 797.433,357.729 797.433,797.433c0,439.704 -357.729,797.433 -797.433,797.433c-208.788,0 -399.054,-80.691 -541.354,-212.483c-17.213,19.404 -35.221,38.092 -54.059,55.921c157.304,148.812 369.167,240.496 602.059,241.541c483.562,-3.595 875.85,-398.025 875.85,-882.412" style="fill:#fff;fill-rule:nonzero;"/><path d="M2620.12,882.421c-0,-401.167 -326.371,-727.538 -727.538,-727.538c-191.996,0 -366.829,74.792 -496.983,196.725c17.3,22.9 33.5,46.667 48.542,71.217c115.862,-113.075 274.141,-182.879 448.441,-182.879c354.263,-0 642.471,288.212 642.471,642.475c0,354.258 -288.208,642.471 -642.471,642.471c-174.3,-0 -332.579,-69.804 -448.441,-182.875c-15.042,24.55 -31.242,48.312 -48.542,71.216c130.154,121.93 304.987,196.721 496.983,196.721c401.167,0 727.538,-326.366 727.538,-727.533" style="fill:#fff;fill-rule:nonzero;"/><path d="M1892.58,304.568c-162.996,0 -310.421,67.855 -415.58,176.775c14.084,27.48 26.788,55.771 37.98,84.813c90.466,-107.838 226.154,-176.525 377.6,-176.525c271.72,-0 492.787,221.067 492.787,492.792c0,271.716 -221.067,492.783 -492.787,492.783c-151.446,-0 -287.13,-68.688 -377.6,-176.525c-11.192,29.046 -23.896,57.337 -37.98,84.812c105.159,108.921 252.584,176.775 415.58,176.775c318.629,0 577.85,-259.22 577.85,-577.845c-0,-318.63 -259.221,-577.855 -577.85,-577.855" style="fill:#fff;fill-rule:nonzero;"/><path d="M1892.58,464.305c-145.83,0 -274.434,75.059 -349.28,188.546c12.875,47.729 21.775,97.059 26.455,147.6c36.62,-144.137 167.454,-251.083 322.825,-251.083c183.641,-0 333.05,149.404 333.05,333.054c-0,183.646 -149.409,333.054 -333.05,333.054c-155.371,0 -286.205,-106.95 -322.825,-251.083c-4.68,50.537 -13.58,99.867 -26.455,147.596c74.846,113.496 203.45,188.55 349.28,188.55c230.55,-0 418.112,-187.563 418.112,-418.117c0,-230.55 -187.562,-418.117 -418.112,-418.117" style="fill:#fff;fill-rule:nonzero;"/><path d="M4074.18,882.421c-0,-484.596 -392.625,-879.158 -876.471,-882.421c-232.654,1.208 -444.284,92.858 -601.45,241.542c18.841,17.829 36.854,36.521 54.071,55.929c142.3,-131.792 332.566,-212.483 541.35,-212.483c439.704,-0 797.433,357.729 797.433,797.433c-0,439.704 -357.729,797.433 -797.433,797.433c-208.784,0 -399.05,-80.691 -541.35,-212.483c-17.213,19.404 -35.221,38.092 -54.063,55.921c157.304,148.812 369.167,240.496 602.063,241.541c483.558,-3.595 875.85,-398.025 875.85,-882.412" style="fill:#fff;fill-rule:nonzero;"/><path d="M3919.22,882.421c0,-401.167 -326.371,-727.538 -727.537,-727.538c-191.996,0 -366.829,74.792 -496.984,196.725c17.3,22.9 33.496,46.667 48.542,71.217c115.863,-113.075 274.142,-182.879 448.442,-182.879c354.262,-0 642.471,288.212 642.471,642.475c-0,354.258 -288.209,642.471 -642.471,642.471c-174.3,-0 -332.579,-69.804 -448.442,-182.875c-15.046,24.55 -31.242,48.312 -48.542,71.216c130.155,121.93 304.988,196.721 496.984,196.721c401.166,0 727.537,-326.366 727.537,-727.533" style="fill:#fff;fill-rule:nonzero;"/><path d="M3191.68,304.568c-162.995,0 -310.42,67.855 -415.579,176.775c14.084,27.48 26.792,55.771 37.979,84.813c90.471,-107.838 226.155,-176.525 377.6,-176.525c271.725,-0 492.788,221.067 492.788,492.792c-0,271.716 -221.063,492.783 -492.788,492.783c-151.445,-0 -287.129,-68.688 -377.6,-176.525c-11.187,29.046 -23.891,57.337 -37.975,84.812c105.155,108.921 252.58,176.775 415.575,176.775c318.634,0 577.855,-259.22 577.855,-577.845c-0,-318.63 -259.221,-577.855 -577.855,-577.855" style="fill:#fff;fill-rule:nonzero;"/><path d="M3191.68,464.305c-145.829,0 -274.429,75.059 -349.279,188.546c12.875,47.729 21.779,97.059 26.454,147.6c36.621,-144.137 167.455,-251.083 322.825,-251.083c183.642,-0 333.05,149.404 333.05,333.054c0,183.646 -149.408,333.054 -333.05,333.054c-155.37,0 -286.204,-106.95 -322.825,-251.083c-4.675,50.537 -13.579,99.867 -26.454,147.596c74.846,113.496 203.45,188.55 349.279,188.55c230.55,-0 418.117,-187.563 418.117,-418.117c0,-230.55 -187.567,-418.117 -418.117,-418.117" style="fill:#fff;fill-rule:nonzero;"/><path d="M5368.11,882.421c-0,-484.596 -392.63,-879.158 -876.475,-882.421c-232.65,1.208 -444.28,92.858 -601.446,241.542c18.841,17.829 36.85,36.521 54.071,55.929c142.295,-131.792 332.562,-212.483 541.35,-212.483c439.704,-0 797.433,357.729 797.433,797.433c-0,439.704 -357.729,797.433 -797.433,797.433c-208.788,0 -399.05,-80.691 -541.35,-212.483c-17.217,19.404 -35.225,38.092 -54.063,55.921c157.304,148.812 369.167,240.496 602.063,241.541c483.558,-3.595 875.85,-398.025 875.85,-882.412" style="fill:#fff;fill-rule:nonzero;"/><path d="M5213.15,882.421c0,-401.167 -326.366,-727.538 -727.533,-727.538c-192,0 -366.829,74.792 -496.983,196.725c17.296,22.9 33.496,46.667 48.537,71.217c115.863,-113.075 274.142,-182.879 448.446,-182.879c354.258,-0 642.471,288.212 642.471,642.475c-0,354.258 -288.213,642.471 -642.471,642.471c-174.3,-0 -332.583,-69.804 -448.446,-182.875c-15.041,24.55 -31.241,48.312 -48.537,71.216c130.154,121.93 304.983,196.721 496.983,196.721c401.167,0 727.533,-326.366 727.533,-727.533" style="fill:#fff;fill-rule:nonzero;"/><path d="M4485.61,304.568c-162.995,0 -310.42,67.855 -415.579,176.775c14.084,27.48 26.788,55.771 37.979,84.813c90.467,-107.838 226.155,-176.525 377.6,-176.525c271.721,-0 492.788,221.067 492.788,492.792c-0,271.716 -221.067,492.783 -492.788,492.783c-151.445,-0 -287.133,-68.688 -377.6,-176.525c-11.191,29.046 -23.895,57.337 -37.979,84.812c105.159,108.921 252.584,176.775 415.579,176.775c318.63,0 577.855,-259.22 577.855,-577.845c-0,-318.63 -259.225,-577.855 -577.855,-577.855" style="fill:#fff;fill-rule:nonzero;"/><path d="M4485.61,464.305c-145.829,0 -274.433,75.059 -349.279,188.546c12.871,47.729 21.775,97.059 26.454,147.6c36.621,-144.137 167.455,-251.083 322.825,-251.083c183.638,-0 333.05,149.404 333.05,333.054c0,183.646 -149.412,333.054 -333.05,333.054c-155.37,0 -286.204,-106.95 -322.825,-251.083c-4.679,50.537 -13.583,99.867 -26.454,147.596c74.846,113.496 203.45,188.55 349.279,188.55c230.546,-0 418.113,-187.563 418.113,-418.117c-0,-230.55 -187.567,-418.117 -418.113,-418.117" style="fill:#fff;fill-rule:nonzero;"/><path d="M6665.27,882.421c0,-484.596 -392.625,-879.158 -876.475,-882.421c-232.645,1.208 -444.279,92.858 -601.441,241.542c18.837,17.829 36.85,36.521 54.066,55.929c142.3,-131.792 332.567,-212.483 541.35,-212.483c439.705,-0 797.438,357.729 797.438,797.433c-0,439.704 -357.733,797.433 -797.438,797.433c-208.783,0 -399.05,-80.691 -541.35,-212.483c-17.212,19.404 -35.225,38.092 -54.062,55.921c157.308,148.812 369.167,240.496 602.062,241.541c483.559,-3.595 875.85,-398.025 875.85,-882.412" style="fill:#fff;fill-rule:nonzero;"/><path d="M6510.31,882.421c0,-401.167 -326.37,-727.538 -727.537,-727.538c-191.996,0 -366.829,74.792 -496.983,196.725c17.3,22.9 33.495,46.667 48.541,71.217c115.859,-113.075 274.142,-182.879 448.442,-182.879c354.258,-0 642.471,288.212 642.471,642.475c-0,354.258 -288.213,642.471 -642.471,642.471c-174.3,-0 -332.583,-69.804 -448.442,-182.875c-15.046,24.55 -31.241,48.312 -48.541,71.216c130.154,121.93 304.987,196.721 496.983,196.721c401.167,0 727.537,-326.366 727.537,-727.533" style="fill:#fff;fill-rule:nonzero;"/><path d="M5782.77,304.568c-162.991,0 -310.421,67.855 -415.575,176.775c14.084,27.48 26.784,55.771 37.975,84.813c90.471,-107.838 226.154,-176.525 377.6,-176.525c271.725,-0 492.792,221.067 492.792,492.792c-0,271.716 -221.067,492.783 -492.792,492.783c-151.446,-0 -287.129,-68.688 -377.6,-176.525c-11.191,29.046 -23.891,57.337 -37.975,84.812c105.154,108.921 252.584,176.775 415.575,176.775c318.634,0 577.854,-259.22 577.854,-577.845c0,-318.63 -259.22,-577.855 -577.854,-577.855" style="fill:#fff;fill-rule:nonzero;"/><path d="M5782.77,464.305c-145.825,0 -274.429,75.059 -349.279,188.546c12.875,47.729 21.775,97.059 26.454,147.6c36.621,-144.137 167.459,-251.083 322.825,-251.083c183.642,-0 333.05,149.404 333.05,333.054c0,183.646 -149.408,333.054 -333.05,333.054c-155.366,0 -286.204,-106.95 -322.825,-251.083c-4.679,50.537 -13.579,99.867 -26.454,147.596c74.846,113.496 203.45,188.55 349.279,188.55c230.55,-0 418.117,-187.563 418.117,-418.117c-0,-230.55 -187.567,-418.117 -418.117,-418.117" style="fill:#fff;fill-rule:nonzero;"/><path d="M7964.37,882.421c0,-484.596 -392.625,-879.158 -876.475,-882.421c-232.646,1.208 -444.275,92.858 -601.441,241.542c18.837,17.829 36.85,36.521 54.066,55.929c142.3,-131.792 332.567,-212.483 541.35,-212.483c439.704,-0 797.438,357.729 797.438,797.433c-0,439.704 -357.734,797.433 -797.438,797.433c-208.783,0 -399.05,-80.691 -541.35,-212.483c-17.212,19.404 -35.221,38.092 -54.058,55.921c157.304,148.812 369.162,240.496 602.058,241.541c483.563,-3.595 875.85,-398.025 875.85,-882.412" style="fill:#fff;fill-rule:nonzero;"/><path d="M7809.41,882.421c-0,-401.167 -326.371,-727.538 -727.538,-727.538c-191.995,0 -366.829,74.792 -496.983,196.725c17.3,22.9 33.496,46.667 48.542,71.217c115.858,-113.075 274.141,-182.879 448.441,-182.879c354.259,-0 642.475,288.212 642.475,642.475c0,354.258 -288.216,642.471 -642.475,642.471c-174.3,-0 -332.579,-69.804 -448.441,-182.875c-15.046,24.55 -31.242,48.312 -48.542,71.216c130.158,121.93 304.988,196.721 496.983,196.721c401.167,0 727.538,-326.366 727.538,-727.533" style="fill:#fff;fill-rule:nonzero;"/><path d="M7081.87,304.568c-162.992,0 -310.421,67.855 -415.575,176.775c14.083,27.48 26.783,55.771 37.975,84.813c90.471,-107.838 226.154,-176.525 377.6,-176.525c271.725,-0 492.792,221.067 492.792,492.792c-0,271.716 -221.067,492.783 -492.792,492.783c-151.446,-0 -287.129,-68.688 -377.6,-176.525c-11.192,29.046 -23.892,57.337 -37.975,84.812c105.154,108.921 252.583,176.775 415.575,176.775c318.633,0 577.854,-259.22 577.854,-577.845c0,-318.63 -259.221,-577.855 -577.854,-577.855" style="fill:#fff;fill-rule:nonzero;"/><path d="M7081.87,464.305c-145.825,0 -274.429,75.059 -349.275,188.546c12.871,47.729 21.771,97.059 26.45,147.6c36.621,-144.137 167.458,-251.083 322.825,-251.083c183.642,-0 333.054,149.404 333.054,333.054c0,183.646 -149.412,333.054 -333.054,333.054c-155.367,0 -286.204,-106.95 -322.825,-251.083c-4.679,50.537 -13.579,99.867 -26.454,147.596c74.85,113.496 203.454,188.55 349.279,188.55c230.55,-0 418.117,-187.563 418.117,-418.117c-0,-230.55 -187.567,-418.117 -418.117,-418.117" style="fill:#fff;fill-rule:nonzero;"/><path d="M9240.39,882.421c0,-484.596 -392.629,-879.158 -876.475,-882.421c-232.65,1.208 -444.279,92.858 -601.445,241.542c18.841,17.829 36.854,36.521 54.066,55.929c142.304,-131.792 332.567,-212.483 541.354,-212.483c439.704,-0 797.434,357.729 797.434,797.433c-0,439.704 -357.729,797.433 -797.434,797.433c-208.783,0 -399.05,-80.691 -541.354,-212.483c-17.212,19.404 -35.221,38.092 -54.058,55.921c157.304,148.812 369.167,240.496 602.062,241.541c483.559,-3.595 875.85,-398.025 875.85,-882.412" style="fill:#fff;fill-rule:nonzero;"/><path d="M9085.42,882.421c0,-401.167 -326.366,-727.538 -727.533,-727.538c-192,0 -366.829,74.792 -496.988,196.725c17.305,22.9 33.5,46.667 48.546,71.217c115.859,-113.075 274.142,-182.879 448.442,-182.879c354.258,-0 642.471,288.212 642.471,642.475c-0,354.258 -288.213,642.471 -642.471,642.471c-174.3,-0 -332.583,-69.804 -448.442,-182.875c-15.046,24.55 -31.241,48.312 -48.546,71.216c130.159,121.93 304.988,196.721 496.988,196.721c401.167,0 727.533,-326.366 727.533,-727.533" style="fill:#fff;fill-rule:nonzero;"/><path d="M8357.89,304.568c-162.996,0 -310.421,67.855 -415.579,176.775c14.083,27.48 26.787,55.771 37.979,84.813c90.471,-107.838 226.15,-176.525 377.6,-176.525c271.721,-0 492.788,221.067 492.788,492.792c-0,271.716 -221.067,492.783 -492.788,492.783c-151.45,-0 -287.129,-68.688 -377.6,-176.525c-11.192,29.046 -23.896,57.337 -37.979,84.812c105.158,108.921 252.583,176.775 415.579,176.775c318.629,0 577.854,-259.22 577.854,-577.845c0,-318.63 -259.225,-577.855 -577.854,-577.855" style="fill:#fff;fill-rule:nonzero;"/><path d="M8357.89,464.305c-145.829,0 -274.433,75.059 -349.279,188.546c12.875,47.729 21.775,97.059 26.454,147.6c36.621,-144.137 167.454,-251.083 322.825,-251.083c183.638,-0 333.05,149.404 333.05,333.054c0,183.646 -149.412,333.054 -333.05,333.054c-155.371,0 -286.204,-106.95 -322.825,-251.083c-4.679,50.537 -13.579,99.867 -26.454,147.596c74.846,113.496 203.45,188.55 349.279,188.55c230.546,-0 418.113,-187.563 418.113,-418.117c-0,-230.55 -187.567,-418.117 -418.113,-418.117" style="fill:#fff;fill-rule:nonzero;"/></g></g></g></svg>